ISO-10303-21;
HEADER;
FILE_DESCRIPTION (( 'STEP AP214' ),
    '1' );
FILE_NAME ('martial zone.STEP',
    '2026-01-18T07:56:09',
    ( '' ),
    ( '' ),
    'SwSTEP 2.0',
    'SolidWorks 2025',
    '' );
FILE_SCHEMA (( 'AUTOMOTIVE_DESIGN' ));
ENDSEC;

DATA;
#1 = LINE ( 'NONE', #346, #146 ) ;
#2 = PLANE ( 'NONE',  #271 ) ;
#3 = VERTEX_POINT ( 'NONE', #777 ) ;
#4 = EDGE_CURVE ( 'NONE', #819, #153, #698, .T. ) ;
#5 = AXIS2_PLACEMENT_3D ( 'NONE', #565, #824, #221 ) ;
#6 =( GEOMETRIC_REPRESENTATION_CONTEXT ( 3 ) GLOBAL_UNCERTAINTY_ASSIGNED_CONTEXT ( ( #9 ) ) GLOBAL_UNIT_ASSIGNED_CONTEXT ( ( #474, #340, #685 ) ) REPRESENTATION_CONTEXT ( 'NONE', 'WORKASPACE' ) );
#7 = LINE ( 'NONE', #76, #475 ) ;
#8 = VERTEX_POINT ( 'NONE', #372 ) ;
#9 = UNCERTAINTY_MEASURE_WITH_UNIT (LENGTH_MEASURE( 1.000000000000000082E-05 ), #474, 'distance_accuracy_value', 'NONE');
#10 = VERTEX_POINT ( 'NONE', #283 ) ;
#11 = EDGE_CURVE ( 'NONE', #459, #252, #702, .T. ) ;
#12 = DIRECTION ( 'NONE',  ( -0.000000000000000000, -0.000000000000000000, -1.000000000000000000 ) ) ;
#13 = CARTESIAN_POINT ( 'NONE',  ( 3667.567567567565675, -921.6216216216201929, 150.0000000000000000 ) ) ;
#14 = ORIENTED_EDGE ( 'NONE', *, *, #796, .T. ) ;
#15 = CARTESIAN_POINT ( 'NONE',  ( -2382.432432432432506, 78.37837837837957977, 51.00000000000000711 ) ) ;
#16 = CARTESIAN_POINT ( 'NONE',  ( 0.000000000000000000, 0.000000000000000000, 0.000000000000000000 ) ) ;
#17 = DIRECTION ( 'NONE',  ( -2.166288828536891256E-16, 1.000000000000000000, -0.000000000000000000 ) ) ;
#18 = DIRECTION ( 'NONE',  ( 1.000000000000000000, 2.220446049250320969E-15, 0.000000000000000000 ) ) ;
#19 = VECTOR ( 'NONE', #665, 1000.000000000000000 ) ;
#20 = EDGE_CURVE ( 'NONE', #350, #791, #96, .T. ) ;
#21 = LINE ( 'NONE', #642, #759 ) ;
#22 = DIRECTION ( 'NONE',  ( -0.000000000000000000, -0.000000000000000000, -1.000000000000000000 ) ) ;
#23 = EDGE_LOOP ( 'NONE', ( #64, #688, #465, #209, #280, #529, #502, #306 ) ) ;
#24 = DIRECTION ( 'NONE',  ( -0.000000000000000000, -0.000000000000000000, -1.000000000000000000 ) ) ;
#25 = CARTESIAN_POINT ( 'NONE',  ( -2432.432432432432506, 1078.378378378379466, 50.00000000000000000 ) ) ;
#26 = EDGE_CURVE ( 'NONE', #87, #848, #299, .T. ) ;
#27 = PLANE ( 'NONE',  #491 ) ;
#28 = VERTEX_POINT ( 'NONE', #100 ) ;
#29 = FACE_OUTER_BOUND ( 'NONE', #747, .T. ) ;
#30 = DIRECTION ( 'NONE',  ( -1.000000000000000000, 0.000000000000000000, 0.000000000000000000 ) ) ;
#31 = DIRECTION ( 'NONE',  ( 1.850371707708594070E-16, -1.000000000000000000, 0.000000000000000000 ) ) ;
#32 = ORIENTED_EDGE ( 'NONE', *, *, #137, .F. ) ;
#33 = DIRECTION ( 'NONE',  ( -0.000000000000000000, 0.000000000000000000, 1.000000000000000000 ) ) ;
#34 = VECTOR ( 'NONE', #879, 1000.000000000000000 ) ;
#35 = DIRECTION ( 'NONE',  ( -1.000000000000000000, -0.000000000000000000, -0.000000000000000000 ) ) ;
#36 = ORIENTED_EDGE ( 'NONE', *, *, #391, .F. ) ;
#37 = LINE ( 'NONE', #229, #432 ) ;
#38 = DIRECTION ( 'NONE',  ( -0.000000000000000000, 0.000000000000000000, 1.000000000000000000 ) ) ;
#39 = VERTEX_POINT ( 'NONE', #717 ) ;
#40 = LINE ( 'NONE', #516, #330 ) ;
#41 = EDGE_CURVE ( 'NONE', #501, #825, #647, .T. ) ;
#42 = CARTESIAN_POINT ( 'NONE',  ( -2382.432432432432506, 1078.378378378379466, 150.0000000000000000 ) ) ;
#43 = ORIENTED_EDGE ( 'NONE', *, *, #705, .T. ) ;
#44 = DIRECTION ( 'NONE',  ( -0.000000000000000000, -0.000000000000000000, -1.000000000000000000 ) ) ;
#45 = DIRECTION ( 'NONE',  ( 0.000000000000000000, 1.000000000000000000, 0.000000000000000000 ) ) ;
#46 = EDGE_CURVE ( 'NONE', #195, #761, #764, .T. ) ;
#47 = AXIS2_PLACEMENT_3D ( 'NONE', #781, #429, #92 ) ;
#48 = AXIS2_PLACEMENT_3D ( 'NONE', #610, #545, #816 ) ;
#49 = EDGE_LOOP ( 'NONE', ( #86, #322, #190, #370 ) ) ;
#50 = EDGE_CURVE ( 'NONE', #557, #605, #227, .T. ) ;
#51 = EDGE_CURVE ( 'NONE', #761, #832, #82, .T. ) ;
#52 = LINE ( 'NONE', #250, #360 ) ;
#53 = LINE ( 'NONE', #174, #860 ) ;
#54 = ORIENTED_EDGE ( 'NONE', *, *, #380, .F. ) ;
#55 = LINE ( 'NONE', #455, #651 ) ;
#56 = DIRECTION ( 'NONE',  ( 0.000000000000000000, -1.000000000000000000, 0.000000000000000000 ) ) ;
#57 = EDGE_LOOP ( 'NONE', ( #669, #672, #59, #349 ) ) ;
#58 = DIRECTION ( 'NONE',  ( 1.000000000000000000, 2.166288828536891256E-16, -0.000000000000000000 ) ) ;
#59 = ORIENTED_EDGE ( 'NONE', *, *, #458, .T. ) ;
#60 = VECTOR ( 'NONE', #56, 1000.000000000000000 ) ;
#61 = AXIS2_PLACEMENT_3D ( 'NONE', #833, #225, #94 ) ;
#62 = DIRECTION ( 'NONE',  ( 0.000000000000000000, -0.000000000000000000, -1.000000000000000000 ) ) ;
#63 = CARTESIAN_POINT ( 'NONE',  ( -182.4324324324324493, 1078.378378378379466, 51.00000000000000711 ) ) ;
#64 = ORIENTED_EDGE ( 'NONE', *, *, #527, .F. ) ;
#65 = SURFACE_STYLE_USAGE ( .BOTH. , #351 ) ;
#66 = DIRECTION ( 'NONE',  ( 1.000000000000000000, 0.000000000000000000, 0.000000000000000000 ) ) ;
#67 = CARTESIAN_POINT ( 'NONE',  ( 617.5675675675676075, 1078.378378378379466, 50.00000000000000000 ) ) ;
#68 = ORIENTED_EDGE ( 'NONE', *, *, #207, .T. ) ;
#69 = DIRECTION ( 'NONE',  ( 1.000000000000000000, 0.000000000000000000, 0.000000000000000000 ) ) ;
#70 = LINE ( 'NONE', #134, #89 ) ;
#71 = APPLICATION_PROTOCOL_DEFINITION ( 'draft international standard', 'automotive_design', 1998, #878 ) ;
#72 = ORIENTED_EDGE ( 'NONE', *, *, #355, .T. ) ;
#73 = ORIENTED_EDGE ( 'NONE', *, *, #854, .T. ) ;
#74 = VECTOR ( 'NONE', #22, 1000.000000000000000 ) ;
#75 = VECTOR ( 'NONE', #315, 1000.000000000000000 ) ;
#76 = CARTESIAN_POINT ( 'NONE',  ( 3667.567567567565675, 728.3783783783795798, 151.0000000000000000 ) ) ;
#77 = ORIENTED_EDGE ( 'NONE', *, *, #626, .F. ) ;
#78 = EDGE_CURVE ( 'NONE', #8, #331, #570, .T. ) ;
#79 = ORIENTED_EDGE ( 'NONE', *, *, #798, .T. ) ;
#80 = FILL_AREA_STYLE_COLOUR ( '', #118 ) ;
#81 = DIRECTION ( 'NONE',  ( 1.000000000000000000, -0.000000000000000000, 0.000000000000000000 ) ) ;
#82 = LINE ( 'NONE', #353, #344 ) ;
#83 = CARTESIAN_POINT ( 'NONE',  ( 1817.567567567565447, 278.3783783783795229, 51.00000000000000711 ) ) ;
#84 = EDGE_CURVE ( 'NONE', #300, #396, #634, .T. ) ;
#85 = LINE ( 'NONE', #25, #785 ) ;
#86 = ORIENTED_EDGE ( 'NONE', *, *, #51, .T. ) ;
#87 = VERTEX_POINT ( 'NONE', #163 ) ;
#88 = PLANE ( 'NONE',  #232 ) ;
#89 = VECTOR ( 'NONE', #678, 1000.000000000000000 ) ;
#90 = VECTOR ( 'NONE', #172, 1000.000000000000000 ) ;
#91 = LINE ( 'NONE', #162, #592 ) ;
#92 = DIRECTION ( 'NONE',  ( -1.850371707708594070E-16, 1.000000000000000000, 0.000000000000000000 ) ) ;
#93 = ORIENTED_EDGE ( 'NONE', *, *, #206, .F. ) ;
#94 = DIRECTION ( 'NONE',  ( 0.000000000000000000, -0.000000000000000000, -1.000000000000000000 ) ) ;
#95 = CARTESIAN_POINT ( 'NONE',  ( -2382.432432432432051, -871.6216216216201929, 50.00000000000000000 ) ) ;
#96 = LINE ( 'NONE', #835, #632 ) ;
#97 = VERTEX_POINT ( 'NONE', #769 ) ;
#98 = LINE ( 'NONE', #843, #593 ) ;
#99 = APPLICATION_CONTEXT ( 'automotive_design' ) ;
#100 = CARTESIAN_POINT ( 'NONE',  ( 617.5675675675673801, 1078.378378378379466, 50.00000000000000000 ) ) ;
#101 = EDGE_CURVE ( 'NONE', #252, #113, #582, .T. ) ;
#102 = ORIENTED_EDGE ( 'NONE', *, *, #695, .F. ) ;
#103 = CARTESIAN_POINT ( 'NONE',  ( 3617.567567567565675, 1078.378378378379466, 50.00000000000000000 ) ) ;
#104 = VECTOR ( 'NONE', #310, 1000.000000000000000 ) ;
#105 = PLANE ( 'NONE',  #185 ) ;
#106 = AXIS2_PLACEMENT_3D ( 'NONE', #550, #126, #541 ) ;
#107 = EDGE_LOOP ( 'NONE', ( #77, #440, #93, #194, #490, #407, #148, #754 ) ) ;
#108 = DIRECTION ( 'NONE',  ( 1.000000000000000000, 2.220446049250313081E-16, -0.000000000000000000 ) ) ;
#109 = CARTESIAN_POINT ( 'NONE',  ( -2382.432432432432051, -871.6216216216201929, 48.99999999999998579 ) ) ;
#110 = ORIENTED_EDGE ( 'NONE', *, *, #442, .T. ) ;
#111 = LINE ( 'NONE', #725, #724 ) ;
#112 = CARTESIAN_POINT ( 'NONE',  ( -182.4324324324323925, 778.3783783783795798, 51.00000000000000711 ) ) ;
#113 = VERTEX_POINT ( 'NONE', #566 ) ;
#114 = DIRECTION ( 'NONE',  ( -0.000000000000000000, 1.000000000000000000, -0.000000000000000000 ) ) ;
#115 = EDGE_CURVE ( 'NONE', #865, #415, #643, .T. ) ;
#116 = CARTESIAN_POINT ( 'NONE',  ( 0.000000000000000000, 0.000000000000000000, 0.000000000000000000 ) ) ;
#117 = AXIS2_PLACEMENT_3D ( 'NONE', #481, #553, #755 ) ;
#118 = COLOUR_RGB ( '',0.7921568627450980005, 0.8196078431372548767, 0.9333333333333333481 ) ;
#119 = ORIENTED_EDGE ( 'NONE', *, *, #404, .T. ) ;
#120 = CARTESIAN_POINT ( 'NONE',  ( 3667.567567567565675, 728.3783783783795798, 151.0000000000000000 ) ) ;
#121 = CARTESIAN_POINT ( 'NONE',  ( 617.5675675675673801, 1078.378378378379466, 51.00000000000000711 ) ) ;
#122 = ORIENTED_EDGE ( 'NONE', *, *, #355, .F. ) ;
#123 = LINE ( 'NONE', #792, #737 ) ;
#124 = PLANE ( 'NONE',  #663 ) ;
#125 = VERTEX_POINT ( 'NONE', #369 ) ;
#126 = DIRECTION ( 'NONE',  ( -0.000000000000000000, 0.000000000000000000, 1.000000000000000000 ) ) ;
#127 = ADVANCED_FACE ( 'NONE', ( #514 ), #575, .F. ) ;
#128 = LINE ( 'NONE', #398, #329 ) ;
#129 = ORIENTED_EDGE ( 'NONE', *, *, #50, .T. ) ;
#130 = VECTOR ( 'NONE', #716, 1000.000000000000000 ) ;
#131 = ADVANCED_FACE ( 'NONE', ( #364 ), #27, .T. ) ;
#132 = DIRECTION ( 'NONE',  ( -0.000000000000000000, -0.000000000000000000, -1.000000000000000000 ) ) ;
#133 = PRODUCT_RELATED_PRODUCT_CATEGORY ( 'part', '', ( #734 ) ) ;
#134 = CARTESIAN_POINT ( 'NONE',  ( 2617.567567567565675, 1078.378378378379466, 50.00000000000000000 ) ) ;
#135 = ORIENTED_EDGE ( 'NONE', *, *, #254, .T. ) ;
#136 = LINE ( 'NONE', #487, #535 ) ;
#137 = EDGE_CURVE ( 'NONE', #179, #28, #377, .T. ) ;
#138 = PLANE ( 'NONE',  #144 ) ;
#139 = ORIENTED_EDGE ( 'NONE', *, *, #442, .F. ) ;
#140 = ORIENTED_EDGE ( 'NONE', *, *, #456, .T. ) ;
#141 = FACE_OUTER_BOUND ( 'NONE', #266, .T. ) ;
#142 = DIRECTION ( 'NONE',  ( -2.166288828536891256E-16, 1.000000000000000000, -0.000000000000000000 ) ) ;
#143 = ORIENTED_EDGE ( 'NONE', *, *, #842, .T. ) ;
#144 = AXIS2_PLACEMENT_3D ( 'NONE', #401, #279, #686 ) ;
#145 = CARTESIAN_POINT ( 'NONE',  ( 3617.567567567566130, -871.6216216216201929, 48.99999999999998579 ) ) ;
#146 = VECTOR ( 'NONE', #264, 1000.000000000000000 ) ;
#147 = LINE ( 'NONE', #844, #749 ) ;
#148 = ORIENTED_EDGE ( 'NONE', *, *, #78, .F. ) ;
#149 = ADVANCED_FACE ( 'NONE', ( #248 ), #105, .F. ) ;
#150 = PLANE ( 'NONE',  #692 ) ;
#151 = DIRECTION ( 'NONE',  ( -0.000000000000000000, 1.000000000000000000, -0.000000000000000000 ) ) ;
#152 = CARTESIAN_POINT ( 'NONE',  ( -2432.432432432432506, 1128.378378378379693, 150.0000000000000000 ) ) ;
#153 = VERTEX_POINT ( 'NONE', #790 ) ;
#154 = PLANE ( 'NONE',  #215 ) ;
#155 = CARTESIAN_POINT ( 'NONE',  ( -2432.432432432432051, -871.6216216216201929, 50.00000000000000000 ) ) ;
#156 = DIRECTION ( 'NONE',  ( 0.000000000000000000, 0.000000000000000000, 1.000000000000000000 ) ) ;
#157 = DIRECTION ( 'NONE',  ( -2.166288828536891256E-16, 1.000000000000000000, -0.000000000000000000 ) ) ;
#158 = ORIENTED_EDGE ( 'NONE', *, *, #4, .T. ) ;
#159 = FACE_OUTER_BOUND ( 'NONE', #471, .T. ) ;
#160 = VECTOR ( 'NONE', #31, 1000.000000000000000 ) ;
#161 = VECTOR ( 'NONE', #866, 1000.000000000000000 ) ;
#162 = CARTESIAN_POINT ( 'NONE',  ( -2432.432432432432506, 1128.378378378379693, 0.000000000000000000 ) ) ;
#163 = CARTESIAN_POINT ( 'NONE',  ( 3667.567567567565220, 1128.378378378379693, 150.0000000000000000 ) ) ;
#164 = ORIENTED_EDGE ( 'NONE', *, *, #650, .T. ) ;
#165 = DIRECTION ( 'NONE',  ( -0.000000000000000000, -0.000000000000000000, -1.000000000000000000 ) ) ;
#166 = ADVANCED_FACE ( 'NONE', ( #784 ), #443, .F. ) ;
#167 = ORIENTED_EDGE ( 'NONE', *, *, #517, .T. ) ;
#168 = ORIENTED_EDGE ( 'NONE', *, *, #444, .T. ) ;
#169 = LINE ( 'NONE', #441, #847 ) ;
#170 = DIRECTION ( 'NONE',  ( -0.000000000000000000, -0.000000000000000000, -1.000000000000000000 ) ) ;
#171 = ORIENTED_EDGE ( 'NONE', *, *, #484, .F. ) ;
#172 = DIRECTION ( 'NONE',  ( -0.000000000000000000, -0.000000000000000000, -1.000000000000000000 ) ) ;
#173 = AXIS2_PLACEMENT_3D ( 'NONE', #623, #812, #197 ) ;
#174 = CARTESIAN_POINT ( 'NONE',  ( -2432.432432432432506, 1128.378378378379693, 150.0000000000000000 ) ) ;
#175 = ORIENTED_EDGE ( 'NONE', *, *, #84, .T. ) ;
#176 = EDGE_CURVE ( 'NONE', #778, #3, #653, .T. ) ;
#177 = CARTESIAN_POINT ( 'NONE',  ( -2382.432432432432051, -871.6216216216201929, 48.99999999999998579 ) ) ;
#178 = DIRECTION ( 'NONE',  ( 2.220446049250313081E-16, -1.000000000000000000, 0.000000000000000000 ) ) ;
#179 = VERTEX_POINT ( 'NONE', #121 ) ;
#180 = LINE ( 'NONE', #312, #664 ) ;
#181 = DIRECTION ( 'NONE',  ( 1.000000000000000000, 0.000000000000000000, 0.000000000000000000 ) ) ;
#182 = ORIENTED_EDGE ( 'NONE', *, *, #458, .F. ) ;
#183 = DIRECTION ( 'NONE',  ( 1.000000000000000000, 0.000000000000000000, 0.000000000000000000 ) ) ;
#184 = CARTESIAN_POINT ( 'NONE',  ( -2432.432432432432051, -921.6216216216201929, 150.0000000000000000 ) ) ;
#185 = AXIS2_PLACEMENT_3D ( 'NONE', #116, #864, #524 ) ;
#186 = AXIS2_PLACEMENT_3D ( 'NONE', #795, #783, #489 ) ;
#187 = ORIENTED_EDGE ( 'NONE', *, *, #842, .F. ) ;
#188 = DIRECTION ( 'NONE',  ( -2.220446049250313081E-16, 1.000000000000000000, 0.000000000000000000 ) ) ;
#189 = DIRECTION ( 'NONE',  ( -2.166288828536891256E-16, 1.000000000000000000, 0.000000000000000000 ) ) ;
#190 = ORIENTED_EDGE ( 'NONE', *, *, #26, .F. ) ;
#191 = PLANE ( 'NONE',  #721 ) ;
#192 = EDGE_CURVE ( 'NONE', #478, #39, #855, .T. ) ;
#193 = EDGE_CURVE ( 'NONE', #856, #343, #805, .T. ) ;
#194 = ORIENTED_EDGE ( 'NONE', *, *, #254, .F. ) ;
#195 = VERTEX_POINT ( 'NONE', #457 ) ;
#196 = CARTESIAN_POINT ( 'NONE',  ( 3667.567567567565675, -921.6216216216201929, 150.0000000000000000 ) ) ;
#197 = DIRECTION ( 'NONE',  ( 0.000000000000000000, 0.000000000000000000, 1.000000000000000000 ) ) ;
#198 = ORIENTED_EDGE ( 'NONE', *, *, #323, .T. ) ;
#199 = VECTOR ( 'NONE', #494, 1000.000000000000000 ) ;
#200 = VECTOR ( 'NONE', #183, 1000.000000000000000 ) ;
#201 = EDGE_CURVE ( 'NONE', #661, #825, #241, .T. ) ;
#202 = LINE ( 'NONE', #637, #247 ) ;
#203 = LINE ( 'NONE', #483, #34 ) ;
#204 = ORIENTED_EDGE ( 'NONE', *, *, #527, .T. ) ;
#205 = PLANE ( 'NONE',  #48 ) ;
#206 = EDGE_CURVE ( 'NONE', #809, #300, #390, .T. ) ;
#207 = EDGE_CURVE ( 'NONE', #848, #501, #53, .T. ) ;
#208 = CARTESIAN_POINT ( 'NONE',  ( 2617.567567567565675, 278.3783783783795229, 50.00000000000000000 ) ) ;
#209 = ORIENTED_EDGE ( 'NONE', *, *, #484, .T. ) ;
#210 = ORIENTED_EDGE ( 'NONE', *, *, #193, .T. ) ;
#211 = PLANE ( 'NONE',  #674 ) ;
#212 = ORIENTED_EDGE ( 'NONE', *, *, #192, .F. ) ;
#213 = AXIS2_PLACEMENT_3D ( 'NONE', #112, #45, #528 ) ;
#214 = SURFACE_STYLE_FILL_AREA ( #675 ) ;
#215 = AXIS2_PLACEMENT_3D ( 'NONE', #564, #33, #700 ) ;
#216 = LINE ( 'NONE', #500, #199 ) ;
#217 = PRODUCT_CONTEXT ( 'NONE', #99, 'mechanical' ) ;
#218 = ORIENTED_EDGE ( 'NONE', *, *, #4, .F. ) ;
#219 = ORIENTED_EDGE ( 'NONE', *, *, #380, .T. ) ;
#220 = CARTESIAN_POINT ( 'NONE',  ( -182.4324324324323925, 778.3783783783795798, 51.00000000000000711 ) ) ;
#221 = DIRECTION ( 'NONE',  ( 1.000000000000000000, 0.000000000000000000, 0.000000000000000000 ) ) ;
#222 = DIRECTION ( 'NONE',  ( -2.166288828536891009E-16, 1.000000000000000000, -0.000000000000000000 ) ) ;
#223 = ORIENTED_EDGE ( 'NONE', *, *, #308, .T. ) ;
#224 = EDGE_CURVE ( 'NONE', #3, #715, #448, .T. ) ;
#225 = DIRECTION ( 'NONE',  ( 0.000000000000000000, -1.000000000000000000, 0.000000000000000000 ) ) ;
#226 = DIRECTION ( 'NONE',  ( -0.000000000000000000, 1.000000000000000000, -0.000000000000000000 ) ) ;
#227 = LINE ( 'NONE', #774, #160 ) ;
#228 = ORIENTED_EDGE ( 'NONE', *, *, #333, .F. ) ;
#229 = CARTESIAN_POINT ( 'NONE',  ( 3617.567567567566130, 728.3783783783794661, 151.0000000000000000 ) ) ;
#230 = ADVANCED_FACE ( 'NONE', ( #729 ), #726, .F. ) ;
#231 = VECTOR ( 'NONE', #157, 1000.000000000000000 ) ;
#232 = AXIS2_PLACEMENT_3D ( 'NONE', #83, #584, #509 ) ;
#233 = PLANE ( 'NONE',  #5 ) ;
#234 = DIRECTION ( 'NONE',  ( -1.000000000000000000, -0.000000000000000000, -0.000000000000000000 ) ) ;
#235 = VERTEX_POINT ( 'NONE', #668 ) ;
#236 = DIRECTION ( 'NONE',  ( 2.166288828536891256E-16, -1.000000000000000000, 0.000000000000000000 ) ) ;
#237 = ADVANCED_FACE ( 'NONE', ( #797 ), #597, .F. ) ;
#238 = DIRECTION ( 'NONE',  ( 0.000000000000000000, -1.000000000000000000, 0.000000000000000000 ) ) ;
#239 = VERTEX_POINT ( 'NONE', #600 ) ;
#240 = CARTESIAN_POINT ( 'NONE',  ( -2382.432432432432051, -921.6216216216201929, 150.0000000000000000 ) ) ;
#241 = LINE ( 'NONE', #518, #708 ) ;
#242 = EDGE_CURVE ( 'NONE', #396, #880, #385, .T. ) ;
#243 = ORIENTED_EDGE ( 'NONE', *, *, #673, .F. ) ;
#244 = CARTESIAN_POINT ( 'NONE',  ( 3617.567567567566130, 728.3783783783794661, 151.0000000000000000 ) ) ;
#245 = PRODUCT_DEFINITION_SHAPE ( 'NONE', 'NONE',  #723 ) ;
#246 = VECTOR ( 'NONE', #81, 1000.000000000000000 ) ;
#247 = VECTOR ( 'NONE', #24, 1000.000000000000000 ) ;
#248 = FACE_OUTER_BOUND ( 'NONE', #794, .T. ) ;
#249 = ORIENTED_EDGE ( 'NONE', *, *, #808, .F. ) ;
#250 = CARTESIAN_POINT ( 'NONE',  ( 3667.567567567565220, 1128.378378378379693, 150.0000000000000000 ) ) ;
#251 = DIRECTION ( 'NONE',  ( 1.000000000000000000, 1.110223024625160485E-15, 0.000000000000000000 ) ) ;
#252 = VERTEX_POINT ( 'NONE', #656 ) ;
#253 = FACE_OUTER_BOUND ( 'NONE', #645, .T. ) ;
#254 = EDGE_CURVE ( 'NONE', #661, #809, #536, .T. ) ;
#255 = LINE ( 'NONE', #184, #304 ) ;
#256 = ORIENTED_EDGE ( 'NONE', *, *, #450, .T. ) ;
#257 = DIRECTION ( 'NONE',  ( -2.166288828536891009E-16, 1.000000000000000000, -0.000000000000000000 ) ) ;
#258 = EDGE_CURVE ( 'NONE', #865, #350, #255, .T. ) ;
#259 = CARTESIAN_POINT ( 'NONE',  ( -1382.432432432432734, 1078.378378378379466, 51.00000000000000711 ) ) ;
#260 = VECTOR ( 'NONE', #151, 1000.000000000000000 ) ;
#261 = VERTEX_POINT ( 'NONE', #732 ) ;
#262 = CARTESIAN_POINT ( 'NONE',  ( 3617.567567567565675, 1078.378378378379466, 150.0000000000000000 ) ) ;
#263 = ORIENTED_EDGE ( 'NONE', *, *, #748, .F. ) ;
#264 = DIRECTION ( 'NONE',  ( 1.000000000000000000, 0.000000000000000000, 0.000000000000000000 ) ) ;
#265 = LINE ( 'NONE', #470, #534 ) ;
#266 = EDGE_LOOP ( 'NONE', ( #571, #810, #212, #335 ) ) ;
#267 = ORIENTED_EDGE ( 'NONE', *, *, #78, .T. ) ;
#268 = FACE_OUTER_BOUND ( 'NONE', #49, .T. ) ;
#269 = CARTESIAN_POINT ( 'NONE',  ( -2432.432432432432506, 1128.378378378379693, 150.0000000000000000 ) ) ;
#270 = VERTEX_POINT ( 'NONE', #464 ) ;
#271 = AXIS2_PLACEMENT_3D ( 'NONE', #269, #555, #671 ) ;
#272 = VECTOR ( 'NONE', #324, 1000.000000000000000 ) ;
#273 = PRODUCT_DEFINITION_CONTEXT ( 'detailed design', #878, 'design' ) ;
#274 = FACE_OUTER_BOUND ( 'NONE', #601, .T. ) ;
#275 = FACE_OUTER_BOUND ( 'NONE', #649, .T. ) ;
#276 = ORIENTED_EDGE ( 'NONE', *, *, #20, .F. ) ;
#277 = ORIENTED_EDGE ( 'NONE', *, *, #659, .F. ) ;
#278 = CARTESIAN_POINT ( 'NONE',  ( -2432.432432432432506, 1128.378378378379693, 150.0000000000000000 ) ) ;
#279 = DIRECTION ( 'NONE',  ( -1.000000000000000000, -2.166288828536891256E-16, 0.000000000000000000 ) ) ;
#280 = ORIENTED_EDGE ( 'NONE', *, *, #620, .T. ) ;
#281 = LINE ( 'NONE', #689, #817 ) ;
#282 = DIRECTION ( 'NONE',  ( -1.000000000000000000, -2.220446049250320969E-15, -0.000000000000000000 ) ) ;
#283 = CARTESIAN_POINT ( 'NONE',  ( 3667.567567567565220, 728.3783783783794661, 150.0000000000000000 ) ) ;
#284 = VECTOR ( 'NONE', #30, 1000.000000000000000 ) ;
#285 = AXIS2_PLACEMENT_3D ( 'NONE', #751, #58, #189 ) ;
#286 = CARTESIAN_POINT ( 'NONE',  ( -182.4324324324323925, 778.3783783783795798, 50.00000000000000000 ) ) ;
#287 = DIRECTION ( 'NONE',  ( -0.000000000000000000, -0.000000000000000000, -1.000000000000000000 ) ) ;
#288 = EDGE_CURVE ( 'NONE', #605, #113, #870, .T. ) ;
#289 =( NAMED_UNIT ( * ) PLANE_ANGLE_UNIT ( ) SI_UNIT ( $, .RADIAN. ) );
#290 = ADVANCED_FACE ( 'NONE', ( #691 ), #124, .F. ) ;
#291 = CARTESIAN_POINT ( 'NONE',  ( -2382.432432432432051, -871.6216216216201929, 48.99999999999998579 ) ) ;
#292 = ORIENTED_EDGE ( 'NONE', *, *, #804, .T. ) ;
#293 = DIRECTION ( 'NONE',  ( -0.000000000000000000, -0.000000000000000000, 1.000000000000000000 ) ) ;
#294 = LINE ( 'NONE', #569, #376 ) ;
#295 = CARTESIAN_POINT ( 'NONE',  ( 0.000000000000000000, 0.000000000000000000, 151.0000000000000000 ) ) ;
#296 = ORIENTED_EDGE ( 'NONE', *, *, #739, .T. ) ;
#297 = LINE ( 'NONE', #712, #750 ) ;
#298 = DIRECTION ( 'NONE',  ( -0.000000000000000000, 1.000000000000000000, -0.000000000000000000 ) ) ;
#299 = LINE ( 'NONE', #152, #576 ) ;
#300 = VERTEX_POINT ( 'NONE', #337 ) ;
#301 = EDGE_CURVE ( 'NONE', #153, #703, #608, .T. ) ;
#302 = EDGE_CURVE ( 'NONE', #715, #727, #7, .T. ) ;
#303 = DIRECTION ( 'NONE',  ( -0.000000000000000000, -0.000000000000000000, -1.000000000000000000 ) ) ;
#304 = VECTOR ( 'NONE', #181, 1000.000000000000000 ) ;
#305 = CARTESIAN_POINT ( 'NONE',  ( -2382.432432432432506, 78.37837837837957977, 51.00000000000000711 ) ) ;
#306 = ORIENTED_EDGE ( 'NONE', *, *, #705, .F. ) ;
#307 = CARTESIAN_POINT ( 'NONE',  ( 3667.567567567565675, -471.6216216216201929, 151.0000000000000000 ) ) ;
#308 = EDGE_CURVE ( 'NONE', #327, #270, #203, .T. ) ;
#309 = ADVANCED_FACE ( 'NONE', ( #756 ), #2, .F. ) ;
#310 = DIRECTION ( 'NONE',  ( 0.000000000000000000, -1.000000000000000000, 0.000000000000000000 ) ) ;
#311 = ORIENTED_EDGE ( 'NONE', *, *, #614, .F. ) ;
#312 = CARTESIAN_POINT ( 'NONE',  ( -2432.432432432432506, 1078.378378378379466, 50.00000000000000000 ) ) ;
#313 = DIRECTION ( 'NONE',  ( 0.000000000000000000, 0.000000000000000000, -1.000000000000000000 ) ) ;
#314 = ORIENTED_EDGE ( 'NONE', *, *, #838, .F. ) ;
#315 = DIRECTION ( 'NONE',  ( -1.000000000000000000, -0.000000000000000000, -0.000000000000000000 ) ) ;
#316 = AXIS2_PLACEMENT_3D ( 'NONE', #738, #318, #720 ) ;
#317 = VECTOR ( 'NONE', #767, 1000.000000000000000 ) ;
#318 = DIRECTION ( 'NONE',  ( 0.000000000000000000, 1.000000000000000000, 0.000000000000000000 ) ) ;
#319 = ORIENTED_EDGE ( 'NONE', *, *, #301, .F. ) ;
#320 = LINE ( 'NONE', #177, #75 ) ;
#321 = DIRECTION ( 'NONE',  ( 2.166288828536891009E-16, -1.000000000000000000, 0.000000000000000000 ) ) ;
#322 = ORIENTED_EDGE ( 'NONE', *, *, #854, .F. ) ;
#323 = EDGE_CURVE ( 'NONE', #97, #703, #821, .T. ) ;
#324 = DIRECTION ( 'NONE',  ( -0.000000000000000000, -0.000000000000000000, -1.000000000000000000 ) ) ;
#325 = ADVANCED_FACE ( 'NONE', ( #275 ), #743, .F. ) ;
#326 = DIRECTION ( 'NONE',  ( -0.000000000000000000, 1.000000000000000000, 0.000000000000000000 ) ) ;
#327 = VERTEX_POINT ( 'NONE', #807 ) ;
#328 = FACE_OUTER_BOUND ( 'NONE', #567, .T. ) ;
#329 = VECTOR ( 'NONE', #547, 1000.000000000000000 ) ;
#330 = VECTOR ( 'NONE', #731, 1000.000000000000000 ) ;
#331 = VERTEX_POINT ( 'NONE', #409 ) ;
#332 = FACE_OUTER_BOUND ( 'NONE', #657, .T. ) ;
#333 = EDGE_CURVE ( 'NONE', #378, #459, #128, .T. ) ;
#334 = DIRECTION ( 'NONE',  ( -1.000000000000000000, -1.110223024625160485E-15, 0.000000000000000000 ) ) ;
#335 = ORIENTED_EDGE ( 'NONE', *, *, #517, .F. ) ;
#336 = PRESENTATION_STYLE_ASSIGNMENT (( #65 ) ) ;
#337 = CARTESIAN_POINT ( 'NONE',  ( -2382.432432432432051, 78.37837837837957977, 51.00000000000000711 ) ) ;
#338 = DIRECTION ( 'NONE',  ( -1.000000000000000000, 0.000000000000000000, 0.000000000000000000 ) ) ;
#339 = ORIENTED_EDGE ( 'NONE', *, *, #258, .T. ) ;
#340 =( NAMED_UNIT ( * ) PLANE_ANGLE_UNIT ( ) SI_UNIT ( $, .RADIAN. ) );
#341 = FACE_OUTER_BOUND ( 'NONE', #577, .T. ) ;
#342 =( NAMED_UNIT ( * ) SI_UNIT ( $, .STERADIAN. ) SOLID_ANGLE_UNIT ( ) );
#343 = VERTEX_POINT ( 'NONE', #208 ) ;
#344 = VECTOR ( 'NONE', #35, 1000.000000000000000 ) ;
#345 = AXIS2_PLACEMENT_3D ( 'NONE', #278, #622, #62 ) ;
#346 = CARTESIAN_POINT ( 'NONE',  ( -2382.432432432432506, 1078.378378378379466, 51.00000000000000711 ) ) ;
#347 = DIRECTION ( 'NONE',  ( 1.000000000000000000, 0.000000000000000000, 0.000000000000000000 ) ) ;
#348 = ADVANCED_FACE ( 'NONE', ( #413 ), #191, .T. ) ;
#349 = ORIENTED_EDGE ( 'NONE', *, *, #607, .T. ) ;
#350 = VERTEX_POINT ( 'NONE', #13 ) ;
#351 = SURFACE_SIDE_STYLE ('',( #214 ) ) ;
#352 = CARTESIAN_POINT ( 'NONE',  ( 0.000000000000000000, 0.000000000000000000, 150.0000000000000000 ) ) ;
#353 = CARTESIAN_POINT ( 'NONE',  ( -2432.432432432432506, 1128.378378378379693, 0.000000000000000000 ) ) ;
#354 = CARTESIAN_POINT ( 'NONE',  ( 3617.567567567566130, 728.3783783783794661, 151.0000000000000000 ) ) ;
#355 = EDGE_CURVE ( 'NONE', #822, #343, #265, .T. ) ;
#356 = FACE_OUTER_BOUND ( 'NONE', #619, .T. ) ;
#357 = EDGE_LOOP ( 'NONE', ( #437, #711, #876, #218, #36, #515, #402, #68 ) ) ;
#358 = VECTOR ( 'NONE', #142, 1000.000000000000000 ) ;
#359 = ORIENTED_EDGE ( 'NONE', *, *, #659, .T. ) ;
#360 = VECTOR ( 'NONE', #257, 1000.000000000000000 ) ;
#361 = PLANE ( 'NONE',  #389 ) ;
#362 = DIRECTION ( 'NONE',  ( 2.166288828536891009E-16, -1.000000000000000000, 0.000000000000000000 ) ) ;
#363 = ADVANCED_FACE ( 'NONE', ( #542 ), #746, .T. ) ;
#364 = FACE_OUTER_BOUND ( 'NONE', #537, .T. ) ;
#365 = ADVANCED_FACE ( 'NONE', ( #328 ), #138, .T. ) ;
#366 = ORIENTED_EDGE ( 'NONE', *, *, #602, .T. ) ;
#367 = CARTESIAN_POINT ( 'NONE',  ( 2617.567567567565675, 1078.378378378379466, 51.00000000000000711 ) ) ;
#368 = CARTESIAN_POINT ( 'NONE',  ( 3617.567567567566130, -871.6216216216201929, 48.99999999999998579 ) ) ;
#369 = CARTESIAN_POINT ( 'NONE',  ( -1382.432432432432734, 1078.378378378379466, 50.00000000000000000 ) ) ;
#370 = ORIENTED_EDGE ( 'NONE', *, *, #580, .T. ) ;
#371 = LINE ( 'NONE', #579, #463 ) ;
#372 = CARTESIAN_POINT ( 'NONE',  ( -2382.432432432432051, -871.6216216216201929, 48.99999999999998579 ) ) ;
#373 = ORIENTED_EDGE ( 'NONE', *, *, #748, .T. ) ;
#374 = EDGE_CURVE ( 'NONE', #343, #239, #70, .T. ) ;
#375 = PLANE ( 'NONE',  #61 ) ;
#376 = VECTOR ( 'NONE', #226, 1000.000000000000000 ) ;
#377 = LINE ( 'NONE', #453, #19 ) ;
#378 = VERTEX_POINT ( 'NONE', #63 ) ;
#379 = LINE ( 'NONE', #446, #272 ) ;
#380 = EDGE_CURVE ( 'NONE', #469, #97, #604, .T. ) ;
#381 = ADVANCED_FACE ( 'NONE', ( #341 ), #616, .T. ) ;
#382 = DIRECTION ( 'NONE',  ( 1.000000000000000000, 0.000000000000000000, 0.000000000000000000 ) ) ;
#383 = ORIENTED_EDGE ( 'NONE', *, *, #308, .F. ) ;
#384 = FACE_OUTER_BOUND ( 'NONE', #799, .T. ) ;
#385 = LINE ( 'NONE', #867, #416 ) ;
#386 = ORIENTED_EDGE ( 'NONE', *, *, #193, .F. ) ;
#387 = LINE ( 'NONE', #658, #787 ) ;
#388 = VECTOR ( 'NONE', #611, 1000.000000000000000 ) ;
#389 = AXIS2_PLACEMENT_3D ( 'NONE', #367, #641, #425 ) ;
#390 = LINE ( 'NONE', #594, #60 ) ;
#391 = EDGE_CURVE ( 'NONE', #10, #819, #419, .T. ) ;
#392 = VERTEX_POINT ( 'NONE', #95 ) ;
#393 = DIRECTION ( 'NONE',  ( 1.000000000000000000, 0.000000000000000000, 0.000000000000000000 ) ) ;
#394 = CARTESIAN_POINT ( 'NONE',  ( 3617.567567567566130, -471.6216216216202497, 151.0000000000000000 ) ) ;
#395 = EDGE_CURVE ( 'NONE', #235, #469, #707, .T. ) ;
#396 = VERTEX_POINT ( 'NONE', #763 ) ;
#397 = CARTESIAN_POINT ( 'NONE',  ( 3667.567567567565220, 1128.378378378379693, 0.000000000000000000 ) ) ;
#398 = CARTESIAN_POINT ( 'NONE',  ( -182.4324324324324493, 1078.378378378379466, 51.00000000000000711 ) ) ;
#399 = ORIENTED_EDGE ( 'NONE', *, *, #242, .F. ) ;
#400 = VECTOR ( 'NONE', #435, 1000.000000000000000 ) ;
#401 = CARTESIAN_POINT ( 'NONE',  ( 3617.567567567565675, 1128.378378378379693, 150.0000000000000000 ) ) ;
#402 = ORIENTED_EDGE ( 'NONE', *, *, #26, .T. ) ;
#403 = PLANE ( 'NONE',  #106 ) ;
#404 = EDGE_CURVE ( 'NONE', #392, #97, #488, .T. ) ;
#405 = DIRECTION ( 'NONE',  ( -0.000000000000000000, -0.000000000000000000, 1.000000000000000000 ) ) ;
#406 = ORIENTED_EDGE ( 'NONE', *, *, #101, .T. ) ;
#407 = ORIENTED_EDGE ( 'NONE', *, *, #681, .F. ) ;
#408 = DIRECTION ( 'NONE',  ( -0.000000000000000000, -0.000000000000000000, 1.000000000000000000 ) ) ;
#409 = CARTESIAN_POINT ( 'NONE',  ( -2382.432432432432051, -921.6216216216201929, 48.99999999999998579 ) ) ;
#410 = ORIENTED_EDGE ( 'NONE', *, *, #804, .F. ) ;
#411 = VERTEX_POINT ( 'NONE', #701 ) ;
#412 = DIRECTION ( 'NONE',  ( -1.000000000000000000, -2.166288828536891256E-16, 0.000000000000000000 ) ) ;
#413 = FACE_OUTER_BOUND ( 'NONE', #57, .T. ) ;
#414 = ADVANCED_FACE ( 'NONE', ( #356 ), #211, .F. ) ;
#415 = VERTEX_POINT ( 'NONE', #574 ) ;
#416 = VECTOR ( 'NONE', #660, 1000.000000000000000 ) ;
#417 = AXIS2_PLACEMENT_3D ( 'NONE', #16, #156, #428 ) ;
#418 = PLANE ( 'NONE',  #117 ) ;
#419 = LINE ( 'NONE', #713, #648 ) ;
#420 = ORIENTED_EDGE ( 'NONE', *, *, #452, .T. ) ;
#421 = LINE ( 'NONE', #771, #130 ) ;
#422 = LINE ( 'NONE', #760, #284 ) ;
#423 = CARTESIAN_POINT ( 'NONE',  ( -2432.432432432432051, -921.6216216216201929, 150.0000000000000000 ) ) ;
#424 = ORIENTED_EDGE ( 'NONE', *, *, #395, .T. ) ;
#425 = DIRECTION ( 'NONE',  ( 0.000000000000000000, 0.000000000000000000, 1.000000000000000000 ) ) ;
#426 = EDGE_CURVE ( 'NONE', #832, #609, #91, .T. ) ;
#427 = LINE ( 'NONE', #839, #773 ) ;
#428 = DIRECTION ( 'NONE',  ( 1.000000000000000000, 0.000000000000000000, 0.000000000000000000 ) ) ;
#429 = DIRECTION ( 'NONE',  ( 1.000000000000000000, 1.850371707708594070E-16, -0.000000000000000000 ) ) ;
#430 = AXIS2_PLACEMENT_3D ( 'NONE', #352, #697, #627 ) ;
#431 = ORIENTED_EDGE ( 'NONE', *, *, #607, .F. ) ;
#432 = VECTOR ( 'NONE', #303, 1000.000000000000000 ) ;
#433 = FACE_OUTER_BOUND ( 'NONE', #813, .T. ) ;
#434 = EDGE_CURVE ( 'NONE', #856, #411, #427, .T. ) ;
#435 = DIRECTION ( 'NONE',  ( -0.000000000000000000, -0.000000000000000000, -1.000000000000000000 ) ) ;
#436 = ORIENTED_EDGE ( 'NONE', *, *, #115, .F. ) ;
#437 = ORIENTED_EDGE ( 'NONE', *, *, #41, .T. ) ;
#438 = CARTESIAN_POINT ( 'NONE',  ( -2432.432432432432051, -921.6216216216201929, 0.000000000000000000 ) ) ;
#439 = ORIENTED_EDGE ( 'NONE', *, *, #626, .T. ) ;
#440 = ORIENTED_EDGE ( 'NONE', *, *, #84, .F. ) ;
#441 = CARTESIAN_POINT ( 'NONE',  ( 3617.567567567566130, -471.6216216216202497, 150.0000000000000000 ) ) ;
#442 = EDGE_CURVE ( 'NONE', #557, #125, #422, .T. ) ;
#443 = PLANE ( 'NONE',  #316 ) ;
#444 = EDGE_CURVE ( 'NONE', #727, #10, #834, .T. ) ;
#445 = ORIENTED_EDGE ( 'NONE', *, *, #301, .T. ) ;
#446 = CARTESIAN_POINT ( 'NONE',  ( -1382.432432432432734, 1078.378378378379466, 51.00000000000000711 ) ) ;
#447 = VECTOR ( 'NONE', #178, 1000.000000000000000 ) ;
#448 = LINE ( 'NONE', #394, #546 ) ;
#449 = ORIENTED_EDGE ( 'NONE', *, *, #224, .F. ) ;
#450 = EDGE_CURVE ( 'NONE', #270, #28, #85, .T. ) ;
#451 = CARTESIAN_POINT ( 'NONE',  ( 3617.567567567566130, 728.3783783783794661, 151.0000000000000000 ) ) ;
#452 = EDGE_CURVE ( 'NONE', #378, #557, #147, .T. ) ;
#453 = CARTESIAN_POINT ( 'NONE',  ( 617.5675675675676075, 1078.378378378379466, 51.00000000000000711 ) ) ;
#454 = ORIENTED_EDGE ( 'NONE', *, *, #452, .F. ) ;
#455 = CARTESIAN_POINT ( 'NONE',  ( 1817.567567567565447, 278.3783783783795229, 51.00000000000000711 ) ) ;
#456 = EDGE_CURVE ( 'NONE', #153, #661, #216, .T. ) ;
#457 = CARTESIAN_POINT ( 'NONE',  ( 3667.567567567565675, -921.6216216216201929, 0.000000000000000000 ) ) ;
#458 = EDGE_CURVE ( 'NONE', #252, #179, #294, .T. ) ;
#459 = VERTEX_POINT ( 'NONE', #631 ) ;
#460 = PLANE ( 'NONE',  #873 ) ;
#461 = VECTOR ( 'NONE', #709, 1000.000000000000000 ) ;
#462 = EDGE_CURVE ( 'NONE', #411, #239, #21, .T. ) ;
#463 = VECTOR ( 'NONE', #293, 1000.000000000000000 ) ;
#464 = CARTESIAN_POINT ( 'NONE',  ( 1817.567567567564765, 1078.378378378379466, 50.00000000000000000 ) ) ;
#465 = ORIENTED_EDGE ( 'NONE', *, *, #41, .F. ) ;
#466 = DIRECTION ( 'NONE',  ( -1.000000000000000000, -0.000000000000000000, -0.000000000000000000 ) ) ;
#467 = CARTESIAN_POINT ( 'NONE',  ( 3617.567567567566130, -871.6216216216201929, 48.99999999999998579 ) ) ;
#468 = ADVANCED_FACE ( 'NONE', ( #504 ), #233, .T. ) ;
#469 = VERTEX_POINT ( 'NONE', #145 ) ;
#470 = CARTESIAN_POINT ( 'NONE',  ( 1817.567567567565447, 278.3783783783795229, 50.00000000000000000 ) ) ;
#471 = EDGE_LOOP ( 'NONE', ( #775, #507, #511, #210 ) ) ;
#472 = ADVANCED_FACE ( 'NONE', ( #141 ), #418, .T. ) ;
#473 = ORIENTED_EDGE ( 'NONE', *, *, #137, .T. ) ;
#474 =( LENGTH_UNIT ( ) NAMED_UNIT ( * ) SI_UNIT ( .MILLI., .METRE. ) );
#475 = VECTOR ( 'NONE', #551, 1000.000000000000000 ) ;
#476 = CARTESIAN_POINT ( 'NONE',  ( 0.000000000000000000, 0.000000000000000000, 51.00000000000000711 ) ) ;
#477 = ORIENTED_EDGE ( 'NONE', *, *, #614, .T. ) ;
#478 = VERTEX_POINT ( 'NONE', #696 ) ;
#479 = CARTESIAN_POINT ( 'NONE',  ( 3617.567567567565675, 1128.378378378379693, 50.00000000000000000 ) ) ;
#480 = ORIENTED_EDGE ( 'NONE', *, *, #450, .F. ) ;
#481 = CARTESIAN_POINT ( 'NONE',  ( 0.000000000000000000, 0.000000000000000000, 51.00000000000000711 ) ) ;
#482 = ADVANCED_FACE ( 'NONE', ( #332 ), #606, .F. ) ;
#483 = CARTESIAN_POINT ( 'NONE',  ( 1817.567567567565447, 1078.378378378379466, 51.00000000000000711 ) ) ;
#484 = EDGE_CURVE ( 'NONE', #501, #609, #281, .T. ) ;
#485 = EDGE_LOOP ( 'NONE', ( #733, #243, #449, #373 ) ) ;
#486 = ORIENTED_EDGE ( 'NONE', *, *, #101, .F. ) ;
#487 = CARTESIAN_POINT ( 'NONE',  ( -2382.432432432432051, -921.6216216216201929, 48.99999999999998579 ) ) ;
#488 = LINE ( 'NONE', #155, #246 ) ;
#489 = DIRECTION ( 'NONE',  ( -0.000000000000000000, 0.000000000000000000, -1.000000000000000000 ) ) ;
#490 = ORIENTED_EDGE ( 'NONE', *, *, #201, .T. ) ;
#491 = AXIS2_PLACEMENT_3D ( 'NONE', #295, #38, #382 ) ;
#492 = VECTOR ( 'NONE', #408, 1000.000000000000000 ) ;
#493 = DIRECTION ( 'NONE',  ( -0.000000000000000000, -0.000000000000000000, 1.000000000000000000 ) ) ;
#494 = DIRECTION ( 'NONE',  ( -1.000000000000000000, 0.000000000000000000, 0.000000000000000000 ) ) ;
#495 = SHAPE_DEFINITION_REPRESENTATION ( #245, #496 ) ;
#496 = ADVANCED_BREP_SHAPE_REPRESENTATION ( 'martial zone', ( #512, #417 ), #523 ) ;
#497 = ORIENTED_EDGE ( 'NONE', *, *, #115, .T. ) ;
#498 = ORIENTED_EDGE ( 'NONE', *, *, #302, .F. ) ;
#499 = LINE ( 'NONE', #438, #317 ) ;
#500 = CARTESIAN_POINT ( 'NONE',  ( -2432.432432432432506, 1078.378378378379466, 150.0000000000000000 ) ) ;
#501 = VERTEX_POINT ( 'NONE', #877 ) ;
#502 = ORIENTED_EDGE ( 'NONE', *, *, #258, .F. ) ;
#503 = DIRECTION ( 'NONE',  ( -0.000000000000000000, -0.000000000000000000, -1.000000000000000000 ) ) ;
#504 = FACE_OUTER_BOUND ( 'NONE', #598, .T. ) ;
#505 = ORIENTED_EDGE ( 'NONE', *, *, #798, .F. ) ;
#506 = VECTOR ( 'NONE', #313, 1000.000000000000000 ) ;
#507 = ORIENTED_EDGE ( 'NONE', *, *, #462, .F. ) ;
#508 = VECTOR ( 'NONE', #704, 1000.000000000000000 ) ;
#509 = DIRECTION ( 'NONE',  ( 0.000000000000000000, -0.000000000000000000, 1.000000000000000000 ) ) ;
#510 = ORIENTED_EDGE ( 'NONE', *, *, #374, .F. ) ;
#511 = ORIENTED_EDGE ( 'NONE', *, *, #434, .F. ) ;
#512 = MANIFOLD_SOLID_BREP ( 'Cut-Extrude1', #676 ) ;
#513 = DIRECTION ( 'NONE',  ( 2.220446049250313081E-16, -1.000000000000000000, 0.000000000000000000 ) ) ;
#514 = FACE_OUTER_BOUND ( 'NONE', #679, .T. ) ;
#515 = ORIENTED_EDGE ( 'NONE', *, *, #741, .T. ) ;
#516 = CARTESIAN_POINT ( 'NONE',  ( -1382.432432432432506, 78.37837837837957977, 51.00000000000000711 ) ) ;
#517 = EDGE_CURVE ( 'NONE', #809, #478, #1, .T. ) ;
#518 = CARTESIAN_POINT ( 'NONE',  ( -2382.432432432432506, 1128.378378378379693, 150.0000000000000000 ) ) ;
#519 = ADVANCED_FACE ( 'NONE', ( #268 ), #558, .F. ) ;
#520 = ORIENTED_EDGE ( 'NONE', *, *, #426, .F. ) ;
#521 = DIRECTION ( 'NONE',  ( -0.000000000000000000, -0.000000000000000000, -1.000000000000000000 ) ) ;
#522 = VECTOR ( 'NONE', #238, 1000.000000000000000 ) ;
#523 =( GEOMETRIC_REPRESENTATION_CONTEXT ( 3 ) GLOBAL_UNCERTAINTY_ASSIGNED_CONTEXT ( ( #853 ) ) GLOBAL_UNIT_ASSIGNED_CONTEXT ( ( #633, #289, #342 ) ) REPRESENTATION_CONTEXT ( 'NONE', 'WORKASPACE' ) );
#524 = DIRECTION ( 'NONE',  ( 1.000000000000000000, 0.000000000000000000, 0.000000000000000000 ) ) ;
#525 = ORIENTED_EDGE ( 'NONE', *, *, #434, .T. ) ;
#526 = CARTESIAN_POINT ( 'NONE',  ( -2382.432432432432506, 78.37837837837957977, 51.00000000000000711 ) ) ;
#527 = EDGE_CURVE ( 'NONE', #331, #235, #136, .T. ) ;
#528 = DIRECTION ( 'NONE',  ( 0.000000000000000000, -0.000000000000000000, 1.000000000000000000 ) ) ;
#529 = ORIENTED_EDGE ( 'NONE', *, *, #559, .F. ) ;
#530 = DIRECTION ( 'NONE',  ( 0.000000000000000000, -1.000000000000000000, 0.000000000000000000 ) ) ;
#531 = DIRECTION ( 'NONE',  ( 2.166288828536891256E-16, -1.000000000000000000, 0.000000000000000000 ) ) ;
#532 = ORIENTED_EDGE ( 'NONE', *, *, #323, .F. ) ;
#533 = LINE ( 'NONE', #526, #200 ) ;
#534 = VECTOR ( 'NONE', #347, 1000.000000000000000 ) ;
#535 = VECTOR ( 'NONE', #69, 1000.000000000000000 ) ;
#536 = LINE ( 'NONE', #42, #506 ) ;
#537 = EDGE_LOOP ( 'NONE', ( #752, #871, #826, #539 ) ) ;
#538 = CARTESIAN_POINT ( 'NONE',  ( -182.4324324324323925, 778.3783783783795798, 50.00000000000000000 ) ) ;
#539 = ORIENTED_EDGE ( 'NONE', *, *, #780, .T. ) ;
#540 = EDGE_CURVE ( 'NONE', #8, #392, #758, .T. ) ;
#541 = DIRECTION ( 'NONE',  ( 1.000000000000000000, 0.000000000000000000, 0.000000000000000000 ) ) ;
#542 = FACE_OUTER_BOUND ( 'NONE', #107, .T. ) ;
#543 = ORIENTED_EDGE ( 'NONE', *, *, #540, .F. ) ;
#544 = ORIENTED_EDGE ( 'NONE', *, *, #803, .T. ) ;
#545 = DIRECTION ( 'NONE',  ( -0.000000000000000000, 0.000000000000000000, 1.000000000000000000 ) ) ;
#546 = VECTOR ( 'NONE', #251, 1000.000000000000000 ) ;
#547 = DIRECTION ( 'NONE',  ( 1.850371707708594070E-16, -1.000000000000000000, 0.000000000000000000 ) ) ;
#548 = VECTOR ( 'NONE', #114, 1000.000000000000000 ) ;
#549 = ORIENTED_EDGE ( 'NONE', *, *, #858, .F. ) ;
#550 = CARTESIAN_POINT ( 'NONE',  ( 0.000000000000000000, 0.000000000000000000, 51.00000000000000711 ) ) ;
#551 = DIRECTION ( 'NONE',  ( -0.000000000000000000, 1.000000000000000000, -0.000000000000000000 ) ) ;
#552 = ORIENTED_EDGE ( 'NONE', *, *, #838, .T. ) ;
#553 = DIRECTION ( 'NONE',  ( -0.000000000000000000, 0.000000000000000000, 1.000000000000000000 ) ) ;
#554 = ADVANCED_FACE ( 'NONE', ( #274 ), #403, .T. ) ;
#555 = DIRECTION ( 'NONE',  ( 1.000000000000000000, 2.166288828536891256E-16, -0.000000000000000000 ) ) ;
#556 = ORIENTED_EDGE ( 'NONE', *, *, #780, .F. ) ;
#557 = VERTEX_POINT ( 'NONE', #811 ) ;
#558 = PLANE ( 'NONE',  #345 ) ;
#559 = EDGE_CURVE ( 'NONE', #350, #195, #820, .T. ) ;
#560 = DIRECTION ( 'NONE',  ( 0.000000000000000000, -0.000000000000000000, 1.000000000000000000 ) ) ;
#561 = DIRECTION ( 'NONE',  ( -2.166288828536891009E-16, 1.000000000000000000, -0.000000000000000000 ) ) ;
#562 = VECTOR ( 'NONE', #66, 1000.000000000000000 ) ;
#563 = ORIENTED_EDGE ( 'NONE', *, *, #602, .F. ) ;
#564 = CARTESIAN_POINT ( 'NONE',  ( 0.000000000000000000, 0.000000000000000000, 50.00000000000000000 ) ) ;
#565 = CARTESIAN_POINT ( 'NONE',  ( 0.000000000000000000, 0.000000000000000000, 48.99999999999998579 ) ) ;
#566 = CARTESIAN_POINT ( 'NONE',  ( 617.5675675675676075, 778.3783783783795798, 50.00000000000000000 ) ) ;
#567 = EDGE_LOOP ( 'NONE', ( #532, #54, #613, #43, #497, #263, #687, #164, #158, #445 ) ) ;
#568 = LINE ( 'NONE', #652, #508 ) ;
#569 = CARTESIAN_POINT ( 'NONE',  ( 617.5675675675676075, 1078.378378378379466, 51.00000000000000711 ) ) ;
#570 = LINE ( 'NONE', #291, #522 ) ;
#571 = ORIENTED_EDGE ( 'NONE', *, *, #206, .T. ) ;
#572 = ADVANCED_FACE ( 'NONE', ( #680 ), #205, .T. ) ;
#573 = FACE_OUTER_BOUND ( 'NONE', #654, .T. ) ;
#574 = CARTESIAN_POINT ( 'NONE',  ( 3617.567567567566130, -471.6216216216202497, 150.0000000000000000 ) ) ;
#575 = PLANE ( 'NONE',  #47 ) ;
#576 = VECTOR ( 'NONE', #234, 1000.000000000000000 ) ;
#577 = EDGE_LOOP ( 'NONE', ( #436, #339, #666, #102 ) ) ;
#578 = VECTOR ( 'NONE', #503, 1000.000000000000000 ) ;
#579 = CARTESIAN_POINT ( 'NONE',  ( -2382.432432432432051, -921.6216216216201929, 48.99999999999998579 ) ) ;
#580 = EDGE_CURVE ( 'NONE', #87, #761, #202, .T. ) ;
#581 = ADVANCED_FACE ( 'NONE', ( #433 ), #375, .T. ) ;
#582 = LINE ( 'NONE', #714, #736 ) ;
#583 = ORIENTED_EDGE ( 'NONE', *, *, #803, .F. ) ;
#584 = DIRECTION ( 'NONE',  ( 0.000000000000000000, 1.000000000000000000, 0.000000000000000000 ) ) ;
#585 = CARTESIAN_POINT ( 'NONE',  ( 3617.567567567566130, 728.3783783783794661, 151.0000000000000000 ) ) ;
#586 = EDGE_LOOP ( 'NONE', ( #625, #782, #556, #168 ) ) ;
#587 = CARTESIAN_POINT ( 'NONE',  ( 1817.567567567565447, 1078.378378378379466, 51.00000000000000711 ) ) ;
#588 = DIRECTION ( 'NONE',  ( -0.000000000000000000, -0.000000000000000000, -1.000000000000000000 ) ) ;
#589 = ADVANCED_FACE ( 'NONE', ( #159 ), #361, .F. ) ;
#590 = EDGE_LOOP ( 'NONE', ( #788, #543, #549, #219 ) ) ;
#591 = CARTESIAN_POINT ( 'NONE',  ( 3617.567567567566130, -921.6216216216201929, 150.0000000000000000 ) ) ;
#592 = VECTOR ( 'NONE', #362, 1000.000000000000000 ) ;
#593 = VECTOR ( 'NONE', #513, 1000.000000000000000 ) ;
#594 = CARTESIAN_POINT ( 'NONE',  ( -2382.432432432432506, 1078.378378378379466, 51.00000000000000711 ) ) ;
#595 = ORIENTED_EDGE ( 'NONE', *, *, #620, .F. ) ;
#596 = CARTESIAN_POINT ( 'NONE',  ( 3617.567567567566130, -471.6216216216202497, 151.0000000000000000 ) ) ;
#597 = PLANE ( 'NONE',  #690 ) ;
#598 = EDGE_LOOP ( 'NONE', ( #267, #204, #424, #744 ) ) ;
#599 = PLANE ( 'NONE',  #186 ) ;
#600 = CARTESIAN_POINT ( 'NONE',  ( 2617.567567567565675, 1078.378378378379466, 50.00000000000000000 ) ) ;
#601 = EDGE_LOOP ( 'NONE', ( #296, #79, #525, #14 ) ) ;
#602 = EDGE_CURVE ( 'NONE', #459, #605, #646, .T. ) ;
#603 = VECTOR ( 'NONE', #165, 1000.000000000000000 ) ;
#604 = LINE ( 'NONE', #467, #828 ) ;
#605 = VERTEX_POINT ( 'NONE', #286 ) ;
#606 = PLANE ( 'NONE',  #615 ) ;
#607 = EDGE_CURVE ( 'NONE', #179, #378, #421, .T. ) ;
#608 = LINE ( 'NONE', #262, #388 ) ;
#609 = VERTEX_POINT ( 'NONE', #779 ) ;
#610 = CARTESIAN_POINT ( 'NONE',  ( 0.000000000000000000, 0.000000000000000000, 150.0000000000000000 ) ) ;
#611 = DIRECTION ( 'NONE',  ( 0.000000000000000000, 0.000000000000000000, -1.000000000000000000 ) ) ;
#612 = CARTESIAN_POINT ( 'NONE',  ( -2382.432432432432506, 1078.378378378379466, 51.00000000000000711 ) ) ;
#613 = ORIENTED_EDGE ( 'NONE', *, *, #395, .F. ) ;
#614 = EDGE_CURVE ( 'NONE', #270, #822, #568, .T. ) ;
#615 = AXIS2_PLACEMENT_3D ( 'NONE', #827, #412, #823 ) ;
#616 = PLANE ( 'NONE',  #430 ) ;
#617 = STYLED_ITEM ( 'NONE', ( #336 ), #512 ) ;
#618 = APPLICATION_PROTOCOL_DEFINITION ( 'draft international standard', 'automotive_design', 1998, #99 ) ;
#619 = EDGE_LOOP ( 'NONE', ( #806, #187, #694, #175 ) ) ;
#620 = EDGE_CURVE ( 'NONE', #609, #195, #499, .T. ) ;
#621 = EDGE_LOOP ( 'NONE', ( #640, #486, #814, #366 ) ) ;
#622 = DIRECTION ( 'NONE',  ( 0.000000000000000000, -1.000000000000000000, 0.000000000000000000 ) ) ;
#623 = CARTESIAN_POINT ( 'NONE',  ( 617.5675675675676075, 1078.378378378379466, 51.00000000000000711 ) ) ;
#624 = ORIENTED_EDGE ( 'NONE', *, *, #46, .T. ) ;
#625 = ORIENTED_EDGE ( 'NONE', *, *, #391, .T. ) ;
#626 = EDGE_CURVE ( 'NONE', #396, #392, #297, .T. ) ;
#627 = DIRECTION ( 'NONE',  ( 1.000000000000000000, 0.000000000000000000, 0.000000000000000000 ) ) ;
#628 = CARTESIAN_POINT ( 'NONE',  ( 3667.567567567565220, 1128.378378378379693, 0.000000000000000000 ) ) ;
#629 = DIRECTION ( 'NONE',  ( 2.220446049250320969E-15, -1.000000000000000000, 0.000000000000000000 ) ) ;
#630 = ADVANCED_FACE ( 'NONE', ( #29 ), #154, .T. ) ;
#631 = CARTESIAN_POINT ( 'NONE',  ( -182.4324324324323925, 778.3783783783795798, 51.00000000000000711 ) ) ;
#632 = VECTOR ( 'NONE', #222, 1000.000000000000000 ) ;
#633 =( LENGTH_UNIT ( ) NAMED_UNIT ( * ) SI_UNIT ( .MILLI., .METRE. ) );
#634 = LINE ( 'NONE', #305, #74 ) ;
#635 = PRESENTATION_LAYER_ASSIGNMENT (  '', '', ( #617 ) ) ;
#636 = ORIENTED_EDGE ( 'NONE', *, *, #51, .F. ) ;
#637 = CARTESIAN_POINT ( 'NONE',  ( 3667.567567567565220, 1128.378378378379693, 150.0000000000000000 ) ) ;
#638 = CARTESIAN_POINT ( 'NONE',  ( 3667.567567567565675, 728.3783783783795798, 151.0000000000000000 ) ) ;
#639 = CARTESIAN_POINT ( 'NONE',  ( -182.4324324324323925, 778.3783783783795798, 51.00000000000000711 ) ) ;
#640 = ORIENTED_EDGE ( 'NONE', *, *, #288, .T. ) ;
#641 = DIRECTION ( 'NONE',  ( -1.000000000000000000, 0.000000000000000000, 0.000000000000000000 ) ) ;
#642 = CARTESIAN_POINT ( 'NONE',  ( 2617.567567567565675, 1078.378378378379466, 51.00000000000000711 ) ) ;
#643 = LINE ( 'NONE', #850, #231 ) ;
#644 = ADVANCED_FACE ( 'NONE', ( #573 ), #88, .F. ) ;
#645 = EDGE_LOOP ( 'NONE', ( #477, #314, #718, #223 ) ) ;
#646 = LINE ( 'NONE', #220, #578 ) ;
#647 = LINE ( 'NONE', #423, #461 ) ;
#648 = VECTOR ( 'NONE', #282, 1000.000000000000000 ) ;
#649 = EDGE_LOOP ( 'NONE', ( #544, #32, #182, #406 ) ) ;
#650 = EDGE_CURVE ( 'NONE', #778, #819, #37, .T. ) ;
#651 = VECTOR ( 'NONE', #521, 1000.000000000000000 ) ;
#652 = CARTESIAN_POINT ( 'NONE',  ( 1817.567567567565447, 1078.378378378379466, 50.00000000000000000 ) ) ;
#653 = LINE ( 'NONE', #585, #104 ) ;
#654 = EDGE_LOOP ( 'NONE', ( #72, #386, #505, #552 ) ) ;
#655 = CARTESIAN_POINT ( 'NONE',  ( 3617.567567567565675, 728.3783783783794661, 150.0000000000000000 ) ) ;
#656 = CARTESIAN_POINT ( 'NONE',  ( 617.5675675675676075, 778.3783783783795798, 51.00000000000000711 ) ) ;
#657 = EDGE_LOOP ( 'NONE', ( #624, #757, #836, #766, #498, #846, #276, #851 ) ) ;
#658 = CARTESIAN_POINT ( 'NONE',  ( -2432.432432432432506, 1128.378378378379693, 150.0000000000000000 ) ) ;
#659 = EDGE_CURVE ( 'NONE', #125, #880, #98, .T. ) ;
#660 = DIRECTION ( 'NONE',  ( 1.000000000000000000, 0.000000000000000000, 0.000000000000000000 ) ) ;
#661 = VERTEX_POINT ( 'NONE', #776 ) ;
#662 = CARTESIAN_POINT ( 'NONE',  ( 2617.567567567565675, 278.3783783783795229, 51.00000000000000711 ) ) ;
#663 = AXIS2_PLACEMENT_3D ( 'NONE', #875, #818, #334 ) ;
#664 = VECTOR ( 'NONE', #338, 1000.000000000000000 ) ;
#665 = DIRECTION ( 'NONE',  ( -0.000000000000000000, -0.000000000000000000, -1.000000000000000000 ) ) ;
#666 = ORIENTED_EDGE ( 'NONE', *, *, #20, .T. ) ;
#667 = CARTESIAN_POINT ( 'NONE',  ( -2432.432432432432506, 1128.378378378379693, 0.000000000000000000 ) ) ;
#668 = CARTESIAN_POINT ( 'NONE',  ( 3617.567567567566130, -921.6216216216201929, 48.99999999999998579 ) ) ;
#669 = ORIENTED_EDGE ( 'NONE', *, *, #333, .T. ) ;
#670 = CARTESIAN_POINT ( 'NONE',  ( 3667.567567567565675, -471.6216216216201929, 150.0000000000000000 ) ) ;
#671 = DIRECTION ( 'NONE',  ( -2.166288828536891256E-16, 1.000000000000000000, 0.000000000000000000 ) ) ;
#672 = ORIENTED_EDGE ( 'NONE', *, *, #11, .T. ) ;
#673 = EDGE_CURVE ( 'NONE', #715, #791, #849, .T. ) ;
#674 = AXIS2_PLACEMENT_3D ( 'NONE', #15, #772, #560 ) ;
#675 = FILL_AREA_STYLE ('',( #80 ) ) ;
#676 = CLOSED_SHELL ( 'NONE', ( #572, #630, #581, #363, #309, #166, #482, #519, #381, #149, #365, #414, #786, #472, #874, #644, #589, #554, #127, #230, #325, #348, #290, #706, #131, #237, #468 ) ) ;
#677 = PRODUCT_DEFINITION_FORMATION_WITH_SPECIFIED_SOURCE ( 'ANY', '', #734, .NOT_KNOWN. ) ;
#678 = DIRECTION ( 'NONE',  ( -0.000000000000000000, 1.000000000000000000, -0.000000000000000000 ) ) ;
#679 = EDGE_LOOP ( 'NONE', ( #129, #563, #228, #420 ) ) ;
#680 = FACE_OUTER_BOUND ( 'NONE', #357, .T. ) ;
#681 = EDGE_CURVE ( 'NONE', #331, #825, #371, .T. ) ;
#682 = DIRECTION ( 'NONE',  ( -0.000000000000000000, 0.000000000000000000, 1.000000000000000000 ) ) ;
#683 = ORIENTED_EDGE ( 'NONE', *, *, #192, .T. ) ;
#684 = ORIENTED_EDGE ( 'NONE', *, *, #808, .T. ) ;
#685 =( NAMED_UNIT ( * ) SI_UNIT ( $, .STERADIAN. ) SOLID_ANGLE_UNIT ( ) );
#686 = DIRECTION ( 'NONE',  ( 2.166288828536891256E-16, -1.000000000000000000, 0.000000000000000000 ) ) ;
#687 = ORIENTED_EDGE ( 'NONE', *, *, #176, .F. ) ;
#688 = ORIENTED_EDGE ( 'NONE', *, *, #681, .T. ) ;
#689 = CARTESIAN_POINT ( 'NONE',  ( -2432.432432432432051, -921.6216216216201929, 150.0000000000000000 ) ) ;
#690 = AXIS2_PLACEMENT_3D ( 'NONE', #109, #326, #793 ) ;
#691 = FACE_OUTER_BOUND ( 'NONE', #485, .T. ) ;
#692 = AXIS2_PLACEMENT_3D ( 'NONE', #354, #629, #18 ) ;
#693 = CARTESIAN_POINT ( 'NONE',  ( -1382.432432432432506, 78.37837837837957977, 50.00000000000000000 ) ) ;
#694 = ORIENTED_EDGE ( 'NONE', *, *, #765, .F. ) ;
#695 = EDGE_CURVE ( 'NONE', #415, #791, #169, .T. ) ;
#696 = CARTESIAN_POINT ( 'NONE',  ( -1382.432432432432506, 1078.378378378379466, 51.00000000000000711 ) ) ;
#697 = DIRECTION ( 'NONE',  ( -0.000000000000000000, 0.000000000000000000, 1.000000000000000000 ) ) ;
#698 = LINE ( 'NONE', #831, #872 ) ;
#699 = ORIENTED_EDGE ( 'NONE', *, *, #207, .F. ) ;
#700 = DIRECTION ( 'NONE',  ( 1.000000000000000000, 0.000000000000000000, 0.000000000000000000 ) ) ;
#701 = CARTESIAN_POINT ( 'NONE',  ( 2617.567567567565675, 1078.378378378379466, 51.00000000000000711 ) ) ;
#702 = LINE ( 'NONE', #639, #801 ) ;
#703 = VERTEX_POINT ( 'NONE', #103 ) ;
#704 = DIRECTION ( 'NONE',  ( 0.000000000000000000, -1.000000000000000000, 0.000000000000000000 ) ) ;
#705 = EDGE_CURVE ( 'NONE', #235, #865, #837, .T. ) ;
#706 = ADVANCED_FACE ( 'NONE', ( #762 ), #150, .F. ) ;
#707 = LINE ( 'NONE', #368, #260 ) ;
#708 = VECTOR ( 'NONE', #531, 1000.000000000000000 ) ;
#709 = DIRECTION ( 'NONE',  ( 1.000000000000000000, 0.000000000000000000, 0.000000000000000000 ) ) ;
#710 = VECTOR ( 'NONE', #466, 1000.000000000000000 ) ;
#711 = ORIENTED_EDGE ( 'NONE', *, *, #201, .F. ) ;
#712 = CARTESIAN_POINT ( 'NONE',  ( -2382.432432432432506, 1128.378378378379693, 50.00000000000000000 ) ) ;
#713 = CARTESIAN_POINT ( 'NONE',  ( 3617.567567567566130, 728.3783783783794661, 150.0000000000000000 ) ) ;
#714 = CARTESIAN_POINT ( 'NONE',  ( 617.5675675675676075, 778.3783783783795798, 51.00000000000000711 ) ) ;
#715 = VERTEX_POINT ( 'NONE', #869 ) ;
#716 = DIRECTION ( 'NONE',  ( -1.000000000000000000, -0.000000000000000000, -0.000000000000000000 ) ) ;
#717 = CARTESIAN_POINT ( 'NONE',  ( -1382.432432432432506, 78.37837837837957977, 51.00000000000000711 ) ) ;
#718 = ORIENTED_EDGE ( 'NONE', *, *, #739, .F. ) ;
#719 = DIRECTION ( 'NONE',  ( 1.000000000000000000, 1.110223024625160485E-15, 0.000000000000000000 ) ) ;
#720 = DIRECTION ( 'NONE',  ( 0.000000000000000000, -0.000000000000000000, 1.000000000000000000 ) ) ;
#721 = AXIS2_PLACEMENT_3D ( 'NONE', #476, #682, #753 ) ;
#722 = EDGE_LOOP ( 'NONE', ( #730, #171, #699, #73 ) ) ;
#723 = PRODUCT_DEFINITION ( 'UNKNOWN', '', #677, #273 ) ;
#724 = VECTOR ( 'NONE', #530, 1000.000000000000000 ) ;
#725 = CARTESIAN_POINT ( 'NONE',  ( 1817.567567567565447, 1078.378378378379466, 51.00000000000000711 ) ) ;
#726 = PLANE ( 'NONE',  #213 ) ;
#727 = VERTEX_POINT ( 'NONE', #120 ) ;
#728 = LINE ( 'NONE', #596, #90 ) ;
#729 = FACE_OUTER_BOUND ( 'NONE', #621, .T. ) ;
#730 = ORIENTED_EDGE ( 'NONE', *, *, #426, .T. ) ;
#731 = DIRECTION ( 'NONE',  ( -0.000000000000000000, -0.000000000000000000, -1.000000000000000000 ) ) ;
#732 = CARTESIAN_POINT ( 'NONE',  ( 1817.567567567565447, 278.3783783783795229, 51.00000000000000711 ) ) ;
#733 = ORIENTED_EDGE ( 'NONE', *, *, #695, .T. ) ;
#734 = PRODUCT ( 'martial zone', 'martial zone', '', ( #217 ) ) ;
#735 = CARTESIAN_POINT ( 'NONE',  ( -1382.432432432432734, 1078.378378378379466, 51.00000000000000711 ) ) ;
#736 = VECTOR ( 'NONE', #170, 1000.000000000000000 ) ;
#737 = VECTOR ( 'NONE', #393, 1000.000000000000000 ) ;
#738 = CARTESIAN_POINT ( 'NONE',  ( -2432.432432432432051, -921.6216216216201929, 150.0000000000000000 ) ) ;
#739 = EDGE_CURVE ( 'NONE', #327, #261, #111, .T. ) ;
#740 = ORIENTED_EDGE ( 'NONE', *, *, #50, .F. ) ;
#741 = EDGE_CURVE ( 'NONE', #10, #87, #52, .T. ) ;
#742 = LINE ( 'NONE', #67, #548 ) ;
#743 = PLANE ( 'NONE',  #173 ) ;
#744 = ORIENTED_EDGE ( 'NONE', *, *, #858, .T. ) ;
#745 = CARTESIAN_POINT ( 'NONE',  ( -2382.432432432432051, -871.6216216216201929, 48.99999999999998579 ) ) ;
#746 = PLANE ( 'NONE',  #285 ) ;
#747 = EDGE_LOOP ( 'NONE', ( #841, #740, #110, #359, #399, #439, #119, #198, #292, #510, #122, #311, #256, #583 ) ) ;
#748 = EDGE_CURVE ( 'NONE', #3, #415, #728, .T. ) ;
#749 = VECTOR ( 'NONE', #829, 1000.000000000000000 ) ;
#750 = VECTOR ( 'NONE', #236, 1000.000000000000000 ) ;
#751 = CARTESIAN_POINT ( 'NONE',  ( -2382.432432432432506, 1128.378378378379693, 150.0000000000000000 ) ) ;
#752 = ORIENTED_EDGE ( 'NONE', *, *, #176, .T. ) ;
#753 = DIRECTION ( 'NONE',  ( 1.000000000000000000, 0.000000000000000000, 0.000000000000000000 ) ) ;
#754 = ORIENTED_EDGE ( 'NONE', *, *, #540, .T. ) ;
#755 = DIRECTION ( 'NONE',  ( 1.000000000000000000, 0.000000000000000000, 0.000000000000000000 ) ) ;
#756 = FACE_OUTER_BOUND ( 'NONE', #722, .T. ) ;
#757 = ORIENTED_EDGE ( 'NONE', *, *, #580, .F. ) ;
#758 = LINE ( 'NONE', #745, #492 ) ;
#759 = VECTOR ( 'NONE', #287, 1000.000000000000000 ) ;
#760 = CARTESIAN_POINT ( 'NONE',  ( -2432.432432432432506, 1078.378378378379466, 50.00000000000000000 ) ) ;
#761 = VERTEX_POINT ( 'NONE', #397 ) ;
#762 = FACE_OUTER_BOUND ( 'NONE', #586, .T. ) ;
#763 = CARTESIAN_POINT ( 'NONE',  ( -2382.432432432432051, 78.37837837837957977, 50.00000000000000000 ) ) ;
#764 = LINE ( 'NONE', #628, #845 ) ;
#765 = EDGE_CURVE ( 'NONE', #300, #39, #533, .T. ) ;
#766 = ORIENTED_EDGE ( 'NONE', *, *, #444, .F. ) ;
#767 = DIRECTION ( 'NONE',  ( 1.000000000000000000, 0.000000000000000000, 0.000000000000000000 ) ) ;
#768 = DIRECTION ( 'NONE',  ( -1.000000000000000000, 0.000000000000000000, 0.000000000000000000 ) ) ;
#769 = CARTESIAN_POINT ( 'NONE',  ( 3617.567567567566130, -871.6216216216201929, 50.00000000000000000 ) ) ;
#770 = ORIENTED_EDGE ( 'NONE', *, *, #46, .F. ) ;
#771 = CARTESIAN_POINT ( 'NONE',  ( -182.4324324324324493, 1078.378378378379466, 51.00000000000000711 ) ) ;
#772 = DIRECTION ( 'NONE',  ( 0.000000000000000000, 1.000000000000000000, 0.000000000000000000 ) ) ;
#773 = VECTOR ( 'NONE', #298, 1000.000000000000000 ) ;
#774 = CARTESIAN_POINT ( 'NONE',  ( -182.4324324324324493, 1078.378378378379466, 50.00000000000000000 ) ) ;
#775 = ORIENTED_EDGE ( 'NONE', *, *, #374, .T. ) ;
#776 = CARTESIAN_POINT ( 'NONE',  ( -2382.432432432432506, 1078.378378378379466, 150.0000000000000000 ) ) ;
#777 = CARTESIAN_POINT ( 'NONE',  ( 3617.567567567566130, -471.6216216216202497, 151.0000000000000000 ) ) ;
#778 = VERTEX_POINT ( 'NONE', #244 ) ;
#779 = CARTESIAN_POINT ( 'NONE',  ( -2432.432432432432051, -921.6216216216201929, 0.000000000000000000 ) ) ;
#780 = EDGE_CURVE ( 'NONE', #727, #778, #800, .T. ) ;
#781 = CARTESIAN_POINT ( 'NONE',  ( -182.4324324324324493, 1078.378378378379466, 51.00000000000000711 ) ) ;
#782 = ORIENTED_EDGE ( 'NONE', *, *, #650, .F. ) ;
#783 = DIRECTION ( 'NONE',  ( 1.000000000000000000, 0.000000000000000000, -0.000000000000000000 ) ) ;
#784 = FACE_OUTER_BOUND ( 'NONE', #23, .T. ) ;
#785 = VECTOR ( 'NONE', #768, 1000.000000000000000 ) ;
#786 = ADVANCED_FACE ( 'NONE', ( #384 ), #460, .T. ) ;
#787 = VECTOR ( 'NONE', #44, 1000.000000000000000 ) ;
#788 = ORIENTED_EDGE ( 'NONE', *, *, #404, .F. ) ;
#789 = CARTESIAN_POINT ( 'NONE',  ( -2432.432432432432506, 1128.378378378379693, 150.0000000000000000 ) ) ;
#790 = CARTESIAN_POINT ( 'NONE',  ( 3617.567567567565675, 1078.378378378379466, 150.0000000000000000 ) ) ;
#791 = VERTEX_POINT ( 'NONE', #670 ) ;
#792 = CARTESIAN_POINT ( 'NONE',  ( 1817.567567567565447, 278.3783783783795229, 51.00000000000000711 ) ) ;
#793 = DIRECTION ( 'NONE',  ( 0.000000000000000000, -0.000000000000000000, 1.000000000000000000 ) ) ;
#794 = EDGE_LOOP ( 'NONE', ( #520, #636, #770, #595 ) ) ;
#795 = CARTESIAN_POINT ( 'NONE',  ( 1817.567567567565447, 1078.378378378379466, 51.00000000000000711 ) ) ;
#796 = EDGE_CURVE ( 'NONE', #411, #327, #863, .T. ) ;
#797 = FACE_OUTER_BOUND ( 'NONE', #590, .T. ) ;
#798 = EDGE_CURVE ( 'NONE', #261, #856, #123, .T. ) ;
#799 = EDGE_LOOP ( 'NONE', ( #277, #249, #683, #143 ) ) ;
#800 = LINE ( 'NONE', #451, #161 ) ;
#801 = VECTOR ( 'NONE', #840, 1000.000000000000000 ) ;
#802 = MECHANICAL_DESIGN_GEOMETRIC_PRESENTATION_REPRESENTATION (  '', ( #617 ), #6 ) ;
#803 = EDGE_CURVE ( 'NONE', #113, #28, #742, .T. ) ;
#804 = EDGE_CURVE ( 'NONE', #703, #239, #180, .T. ) ;
#805 = LINE ( 'NONE', #859, #815 ) ;
#806 = ORIENTED_EDGE ( 'NONE', *, *, #242, .T. ) ;
#807 = CARTESIAN_POINT ( 'NONE',  ( 1817.567567567565447, 1078.378378378379466, 51.00000000000000711 ) ) ;
#808 = EDGE_CURVE ( 'NONE', #478, #125, #379, .T. ) ;
#809 = VERTEX_POINT ( 'NONE', #612 ) ;
#810 = ORIENTED_EDGE ( 'NONE', *, *, #765, .T. ) ;
#811 = CARTESIAN_POINT ( 'NONE',  ( -182.4324324324324493, 1078.378378378379466, 50.00000000000000000 ) ) ;
#812 = DIRECTION ( 'NONE',  ( -1.000000000000000000, 0.000000000000000000, 0.000000000000000000 ) ) ;
#813 = EDGE_LOOP ( 'NONE', ( #139, #454, #431, #473, #480, #383, #862, #868, #410, #319, #140, #135, #167, #684 ) ) ;
#814 = ORIENTED_EDGE ( 'NONE', *, *, #11, .F. ) ;
#815 = VECTOR ( 'NONE', #588, 1000.000000000000000 ) ;
#816 = DIRECTION ( 'NONE',  ( 1.000000000000000000, 0.000000000000000000, 0.000000000000000000 ) ) ;
#817 = VECTOR ( 'NONE', #12, 1000.000000000000000 ) ;
#818 = DIRECTION ( 'NONE',  ( -1.110223024625160485E-15, 1.000000000000000000, 0.000000000000000000 ) ) ;
#819 = VERTEX_POINT ( 'NONE', #655 ) ;
#820 = LINE ( 'NONE', #196, #861 ) ;
#821 = LINE ( 'NONE', #479, #358 ) ;
#822 = VERTEX_POINT ( 'NONE', #857 ) ;
#823 = DIRECTION ( 'NONE',  ( 2.166288828536891256E-16, -1.000000000000000000, 0.000000000000000000 ) ) ;
#824 = DIRECTION ( 'NONE',  ( -0.000000000000000000, 0.000000000000000000, 1.000000000000000000 ) ) ;
#825 = VERTEX_POINT ( 'NONE', #240 ) ;
#826 = ORIENTED_EDGE ( 'NONE', *, *, #302, .T. ) ;
#827 = CARTESIAN_POINT ( 'NONE',  ( 3667.567567567565220, 1128.378378378379693, 150.0000000000000000 ) ) ;
#828 = VECTOR ( 'NONE', #405, 1000.000000000000000 ) ;
#829 = DIRECTION ( 'NONE',  ( -0.000000000000000000, -0.000000000000000000, -1.000000000000000000 ) ) ;
#830 = VECTOR ( 'NONE', #493, 1000.000000000000000 ) ;
#831 = CARTESIAN_POINT ( 'NONE',  ( 3617.567567567565675, 1128.378378378379693, 150.0000000000000000 ) ) ;
#832 = VERTEX_POINT ( 'NONE', #667 ) ;
#833 = CARTESIAN_POINT ( 'NONE',  ( -2432.432432432432506, 1078.378378378379466, 150.0000000000000000 ) ) ;
#834 = LINE ( 'NONE', #638, #400 ) ;
#835 = CARTESIAN_POINT ( 'NONE',  ( 3667.567567567565220, 1128.378378378379693, 150.0000000000000000 ) ) ;
#836 = ORIENTED_EDGE ( 'NONE', *, *, #741, .F. ) ;
#837 = LINE ( 'NONE', #852, #830 ) ;
#838 = EDGE_CURVE ( 'NONE', #261, #822, #55, .T. ) ;
#839 = CARTESIAN_POINT ( 'NONE',  ( 2617.567567567565675, 1078.378378378379466, 51.00000000000000711 ) ) ;
#840 = DIRECTION ( 'NONE',  ( 1.000000000000000000, 0.000000000000000000, 0.000000000000000000 ) ) ;
#841 = ORIENTED_EDGE ( 'NONE', *, *, #288, .F. ) ;
#842 = EDGE_CURVE ( 'NONE', #39, #880, #40, .T. ) ;
#843 = CARTESIAN_POINT ( 'NONE',  ( -1382.432432432432734, 1078.378378378379466, 50.00000000000000000 ) ) ;
#844 = CARTESIAN_POINT ( 'NONE',  ( -182.4324324324324493, 1078.378378378379466, 51.00000000000000711 ) ) ;
#845 = VECTOR ( 'NONE', #561, 1000.000000000000000 ) ;
#846 = ORIENTED_EDGE ( 'NONE', *, *, #673, .T. ) ;
#847 = VECTOR ( 'NONE', #719, 1000.000000000000000 ) ;
#848 = VERTEX_POINT ( 'NONE', #789 ) ;
#849 = LINE ( 'NONE', #307, #603 ) ;
#850 = CARTESIAN_POINT ( 'NONE',  ( 3617.567567567565675, 1128.378378378379693, 150.0000000000000000 ) ) ;
#851 = ORIENTED_EDGE ( 'NONE', *, *, #559, .T. ) ;
#852 = CARTESIAN_POINT ( 'NONE',  ( 3617.567567567566130, -921.6216216216201929, 48.99999999999998579 ) ) ;
#853 = UNCERTAINTY_MEASURE_WITH_UNIT (LENGTH_MEASURE( 1.000000000000000082E-05 ), #633, 'distance_accuracy_value', 'NONE');
#854 = EDGE_CURVE ( 'NONE', #848, #832, #387, .T. ) ;
#855 = LINE ( 'NONE', #259, #447 ) ;
#856 = VERTEX_POINT ( 'NONE', #662 ) ;
#857 = CARTESIAN_POINT ( 'NONE',  ( 1817.567567567565447, 278.3783783783795229, 50.00000000000000000 ) ) ;
#858 = EDGE_CURVE ( 'NONE', #469, #8, #320, .T. ) ;
#859 = CARTESIAN_POINT ( 'NONE',  ( 2617.567567567565675, 278.3783783783795229, 51.00000000000000711 ) ) ;
#860 = VECTOR ( 'NONE', #321, 1000.000000000000000 ) ;
#861 = VECTOR ( 'NONE', #132, 1000.000000000000000 ) ;
#862 = ORIENTED_EDGE ( 'NONE', *, *, #796, .F. ) ;
#863 = LINE ( 'NONE', #587, #710 ) ;
#864 = DIRECTION ( 'NONE',  ( -0.000000000000000000, 0.000000000000000000, 1.000000000000000000 ) ) ;
#865 = VERTEX_POINT ( 'NONE', #591 ) ;
#866 = DIRECTION ( 'NONE',  ( -1.000000000000000000, -2.220446049250320969E-15, -0.000000000000000000 ) ) ;
#867 = CARTESIAN_POINT ( 'NONE',  ( -2382.432432432432506, 78.37837837837957977, 50.00000000000000000 ) ) ;
#868 = ORIENTED_EDGE ( 'NONE', *, *, #462, .T. ) ;
#869 = CARTESIAN_POINT ( 'NONE',  ( 3667.567567567565675, -471.6216216216201929, 151.0000000000000000 ) ) ;
#870 = LINE ( 'NONE', #538, #562 ) ;
#871 = ORIENTED_EDGE ( 'NONE', *, *, #224, .T. ) ;
#872 = VECTOR ( 'NONE', #17, 1000.000000000000000 ) ;
#873 = AXIS2_PLACEMENT_3D ( 'NONE', #735, #108, #188 ) ;
#874 = ADVANCED_FACE ( 'NONE', ( #253 ), #599, .F. ) ;
#875 = CARTESIAN_POINT ( 'NONE',  ( 3617.567567567566130, -471.6216216216202497, 151.0000000000000000 ) ) ;
#876 = ORIENTED_EDGE ( 'NONE', *, *, #456, .F. ) ;
#877 = CARTESIAN_POINT ( 'NONE',  ( -2432.432432432432051, -921.6216216216201929, 150.0000000000000000 ) ) ;
#878 = APPLICATION_CONTEXT ( 'automotive_design' ) ;
#879 = DIRECTION ( 'NONE',  ( -0.000000000000000000, -0.000000000000000000, -1.000000000000000000 ) ) ;
#880 = VERTEX_POINT ( 'NONE', #693 ) ;
ENDSEC;
END-ISO-10303-21;
