ISO-10303-21;
HEADER;
/* Generated by software containing ST-Developer
 * from STEP Tools, Inc. (www.steptools.com) 
 */

FILE_DESCRIPTION(
/* description */ (''),
/* implementation_level */ '2;1');

FILE_NAME(
/* name */ 'my_forest.step',
/* time_stamp */ '2026-01-18T16:16:09+05:30',
/* author */ (''),
/* organization */ (''),
/* preprocessor_version */ 'ST-DEVELOPER v20.1',
/* originating_system */ 'Autodesk Translation Framework v14.21.0.0',
/* authorisation */ '');

FILE_SCHEMA (('AUTOMOTIVE_DESIGN { 1 0 10303 214 3 1 1 }'));
ENDSEC;

DATA;
#10=MECHANICAL_DESIGN_GEOMETRIC_PRESENTATION_REPRESENTATION('',(#17),#955);
#11=ITEM_DEFINED_TRANSFORMATION($,$,#603,#638);
#12=(
REPRESENTATION_RELATIONSHIP($,$,#966,#965)
REPRESENTATION_RELATIONSHIP_WITH_TRANSFORMATION(#11)
SHAPE_REPRESENTATION_RELATIONSHIP()
);
#13=CONTEXT_DEPENDENT_SHAPE_REPRESENTATION(#12,#964);
#14=NEXT_ASSEMBLY_USAGE_OCCURRENCE('Forest_Center:1','Forest_Center:1',
'Forest_Center:1',#968,#969,'Forest_Center:1');
#15=SHAPE_REPRESENTATION_RELATIONSHIP('SRR','None',#966,#16);
#16=ADVANCED_BREP_SHAPE_REPRESENTATION('',(#18),#954);
#17=STYLED_ITEM('',(#979),#18);
#18=MANIFOLD_SOLID_BREP('Body1',#589);
#19=FACE_OUTER_BOUND('',#53,.T.);
#20=FACE_OUTER_BOUND('',#54,.T.);
#21=FACE_OUTER_BOUND('',#55,.T.);
#22=FACE_OUTER_BOUND('',#56,.T.);
#23=FACE_OUTER_BOUND('',#57,.T.);
#24=FACE_OUTER_BOUND('',#58,.T.);
#25=FACE_OUTER_BOUND('',#59,.T.);
#26=FACE_OUTER_BOUND('',#60,.T.);
#27=FACE_OUTER_BOUND('',#61,.T.);
#28=FACE_OUTER_BOUND('',#62,.T.);
#29=FACE_OUTER_BOUND('',#63,.T.);
#30=FACE_OUTER_BOUND('',#64,.T.);
#31=FACE_OUTER_BOUND('',#65,.T.);
#32=FACE_OUTER_BOUND('',#66,.T.);
#33=FACE_OUTER_BOUND('',#67,.T.);
#34=FACE_OUTER_BOUND('',#68,.T.);
#35=FACE_OUTER_BOUND('',#69,.T.);
#36=FACE_OUTER_BOUND('',#70,.T.);
#37=FACE_OUTER_BOUND('',#71,.T.);
#38=FACE_OUTER_BOUND('',#72,.T.);
#39=FACE_OUTER_BOUND('',#73,.T.);
#40=FACE_OUTER_BOUND('',#74,.T.);
#41=FACE_OUTER_BOUND('',#75,.T.);
#42=FACE_OUTER_BOUND('',#76,.T.);
#43=FACE_OUTER_BOUND('',#77,.T.);
#44=FACE_OUTER_BOUND('',#78,.T.);
#45=FACE_OUTER_BOUND('',#79,.T.);
#46=FACE_OUTER_BOUND('',#80,.T.);
#47=FACE_OUTER_BOUND('',#81,.T.);
#48=FACE_OUTER_BOUND('',#82,.T.);
#49=FACE_OUTER_BOUND('',#83,.T.);
#50=FACE_OUTER_BOUND('',#84,.T.);
#51=FACE_OUTER_BOUND('',#85,.T.);
#52=FACE_OUTER_BOUND('',#86,.T.);
#53=EDGE_LOOP('',(#365,#366,#367,#368));
#54=EDGE_LOOP('',(#369,#370,#371,#372));
#55=EDGE_LOOP('',(#373,#374,#375,#376));
#56=EDGE_LOOP('',(#377,#378,#379,#380,#381,#382,#383,#384));
#57=EDGE_LOOP('',(#385,#386,#387,#388));
#58=EDGE_LOOP('',(#389,#390,#391,#392));
#59=EDGE_LOOP('',(#393,#394,#395,#396));
#60=EDGE_LOOP('',(#397,#398,#399,#400));
#61=EDGE_LOOP('',(#401,#402,#403,#404));
#62=EDGE_LOOP('',(#405,#406,#407,#408));
#63=EDGE_LOOP('',(#409,#410,#411,#412,#413,#414,#415,#416,#417,#418));
#64=EDGE_LOOP('',(#419,#420,#421,#422));
#65=EDGE_LOOP('',(#423,#424,#425,#426));
#66=EDGE_LOOP('',(#427,#428,#429,#430));
#67=EDGE_LOOP('',(#431,#432,#433,#434));
#68=EDGE_LOOP('',(#435,#436,#437,#438));
#69=EDGE_LOOP('',(#439,#440,#441,#442));
#70=EDGE_LOOP('',(#443,#444,#445,#446));
#71=EDGE_LOOP('',(#447,#448,#449,#450));
#72=EDGE_LOOP('',(#451,#452,#453,#454));
#73=EDGE_LOOP('',(#455,#456,#457,#458));
#74=EDGE_LOOP('',(#459,#460,#461,#462));
#75=EDGE_LOOP('',(#463,#464,#465,#466));
#76=EDGE_LOOP('',(#467,#468,#469,#470));
#77=EDGE_LOOP('',(#471,#472,#473,#474));
#78=EDGE_LOOP('',(#475,#476,#477,#478));
#79=EDGE_LOOP('',(#479,#480,#481,#482));
#80=EDGE_LOOP('',(#483,#484,#485,#486));
#81=EDGE_LOOP('',(#487,#488,#489,#490));
#82=EDGE_LOOP('',(#491,#492,#493,#494));
#83=EDGE_LOOP('',(#495,#496,#497,#498));
#84=EDGE_LOOP('',(#499,#500,#501,#502,#503,#504,#505,#506));
#85=EDGE_LOOP('',(#507,#508,#509,#510,#511,#512,#513,#514,#515,#516));
#86=EDGE_LOOP('',(#517,#518,#519,#520));
#87=LINE('',#796,#165);
#88=LINE('',#798,#166);
#89=LINE('',#800,#167);
#90=LINE('',#801,#168);
#91=LINE('',#805,#169);
#92=LINE('',#806,#170);
#93=LINE('',#807,#171);
#94=LINE('',#810,#172);
#95=LINE('',#812,#173);
#96=LINE('',#813,#174);
#97=LINE('',#816,#175);
#98=LINE('',#818,#176);
#99=LINE('',#820,#177);
#100=LINE('',#822,#178);
#101=LINE('',#824,#179);
#102=LINE('',#825,#180);
#103=LINE('',#828,#181);
#104=LINE('',#830,#182);
#105=LINE('',#831,#183);
#106=LINE('',#834,#184);
#107=LINE('',#835,#185);
#108=LINE('',#838,#186);
#109=LINE('',#840,#187);
#110=LINE('',#841,#188);
#111=LINE('',#843,#189);
#112=LINE('',#846,#190);
#113=LINE('',#848,#191);
#114=LINE('',#849,#192);
#115=LINE('',#851,#193);
#116=LINE('',#854,#194);
#117=LINE('',#856,#195);
#118=LINE('',#858,#196);
#119=LINE('',#860,#197);
#120=LINE('',#862,#198);
#121=LINE('',#864,#199);
#122=LINE('',#865,#200);
#123=LINE('',#867,#201);
#124=LINE('',#871,#202);
#125=LINE('',#873,#203);
#126=LINE('',#875,#204);
#127=LINE('',#876,#205);
#128=LINE('',#878,#206);
#129=LINE('',#879,#207);
#130=LINE('',#880,#208);
#131=LINE('',#882,#209);
#132=LINE('',#884,#210);
#133=LINE('',#885,#211);
#134=LINE('',#888,#212);
#135=LINE('',#889,#213);
#136=LINE('',#892,#214);
#137=LINE('',#894,#215);
#138=LINE('',#895,#216);
#139=LINE('',#898,#217);
#140=LINE('',#899,#218);
#141=LINE('',#902,#219);
#142=LINE('',#903,#220);
#143=LINE('',#906,#221);
#144=LINE('',#907,#222);
#145=LINE('',#910,#223);
#146=LINE('',#912,#224);
#147=LINE('',#913,#225);
#148=LINE('',#915,#226);
#149=LINE('',#916,#227);
#150=LINE('',#920,#228);
#151=LINE('',#922,#229);
#152=LINE('',#924,#230);
#153=LINE('',#925,#231);
#154=LINE('',#928,#232);
#155=LINE('',#930,#233);
#156=LINE('',#931,#234);
#157=LINE('',#933,#235);
#158=LINE('',#934,#236);
#159=LINE('',#938,#237);
#160=LINE('',#939,#238);
#161=LINE('',#941,#239);
#162=LINE('',#944,#240);
#163=LINE('',#945,#241);
#164=LINE('',#947,#242);
#165=VECTOR('',#645,10.);
#166=VECTOR('',#646,10.);
#167=VECTOR('',#647,10.);
#168=VECTOR('',#648,10.);
#169=VECTOR('',#651,10.);
#170=VECTOR('',#652,10.);
#171=VECTOR('',#653,10.);
#172=VECTOR('',#656,10.);
#173=VECTOR('',#657,10.);
#174=VECTOR('',#658,10.);
#175=VECTOR('',#661,10.);
#176=VECTOR('',#662,10.);
#177=VECTOR('',#663,10.);
#178=VECTOR('',#664,10.);
#179=VECTOR('',#665,10.);
#180=VECTOR('',#666,10.);
#181=VECTOR('',#669,10.);
#182=VECTOR('',#670,10.);
#183=VECTOR('',#671,10.);
#184=VECTOR('',#674,10.);
#185=VECTOR('',#675,10.);
#186=VECTOR('',#678,10.);
#187=VECTOR('',#679,10.);
#188=VECTOR('',#680,10.);
#189=VECTOR('',#683,10.);
#190=VECTOR('',#686,10.);
#191=VECTOR('',#687,10.);
#192=VECTOR('',#688,10.);
#193=VECTOR('',#691,10.);
#194=VECTOR('',#694,10.);
#195=VECTOR('',#695,10.);
#196=VECTOR('',#696,10.);
#197=VECTOR('',#697,10.);
#198=VECTOR('',#698,10.);
#199=VECTOR('',#699,10.);
#200=VECTOR('',#700,10.);
#201=VECTOR('',#703,10.);
#202=VECTOR('',#706,10.);
#203=VECTOR('',#707,10.);
#204=VECTOR('',#708,10.);
#205=VECTOR('',#709,10.);
#206=VECTOR('',#712,10.);
#207=VECTOR('',#713,10.);
#208=VECTOR('',#714,10.);
#209=VECTOR('',#717,10.);
#210=VECTOR('',#720,10.);
#211=VECTOR('',#721,10.);
#212=VECTOR('',#724,10.);
#213=VECTOR('',#725,10.);
#214=VECTOR('',#728,10.);
#215=VECTOR('',#729,10.);
#216=VECTOR('',#730,10.);
#217=VECTOR('',#733,10.);
#218=VECTOR('',#734,10.);
#219=VECTOR('',#737,10.);
#220=VECTOR('',#738,10.);
#221=VECTOR('',#741,10.);
#222=VECTOR('',#742,10.);
#223=VECTOR('',#747,10.);
#224=VECTOR('',#748,10.);
#225=VECTOR('',#749,10.);
#226=VECTOR('',#752,10.);
#227=VECTOR('',#753,10.);
#228=VECTOR('',#758,10.);
#229=VECTOR('',#759,10.);
#230=VECTOR('',#760,10.);
#231=VECTOR('',#761,10.);
#232=VECTOR('',#764,10.);
#233=VECTOR('',#765,10.);
#234=VECTOR('',#766,10.);
#235=VECTOR('',#769,10.);
#236=VECTOR('',#770,10.);
#237=VECTOR('',#775,10.);
#238=VECTOR('',#776,10.);
#239=VECTOR('',#779,10.);
#240=VECTOR('',#782,10.);
#241=VECTOR('',#783,10.);
#242=VECTOR('',#786,10.);
#243=VERTEX_POINT('',#794);
#244=VERTEX_POINT('',#795);
#245=VERTEX_POINT('',#797);
#246=VERTEX_POINT('',#799);
#247=VERTEX_POINT('',#803);
#248=VERTEX_POINT('',#804);
#249=VERTEX_POINT('',#809);
#250=VERTEX_POINT('',#811);
#251=VERTEX_POINT('',#815);
#252=VERTEX_POINT('',#817);
#253=VERTEX_POINT('',#819);
#254=VERTEX_POINT('',#821);
#255=VERTEX_POINT('',#823);
#256=VERTEX_POINT('',#827);
#257=VERTEX_POINT('',#829);
#258=VERTEX_POINT('',#833);
#259=VERTEX_POINT('',#837);
#260=VERTEX_POINT('',#839);
#261=VERTEX_POINT('',#845);
#262=VERTEX_POINT('',#847);
#263=VERTEX_POINT('',#853);
#264=VERTEX_POINT('',#855);
#265=VERTEX_POINT('',#857);
#266=VERTEX_POINT('',#859);
#267=VERTEX_POINT('',#861);
#268=VERTEX_POINT('',#863);
#269=VERTEX_POINT('',#869);
#270=VERTEX_POINT('',#870);
#271=VERTEX_POINT('',#872);
#272=VERTEX_POINT('',#874);
#273=VERTEX_POINT('',#887);
#274=VERTEX_POINT('',#891);
#275=VERTEX_POINT('',#893);
#276=VERTEX_POINT('',#897);
#277=VERTEX_POINT('',#901);
#278=VERTEX_POINT('',#905);
#279=VERTEX_POINT('',#911);
#280=VERTEX_POINT('',#919);
#281=VERTEX_POINT('',#921);
#282=VERTEX_POINT('',#923);
#283=VERTEX_POINT('',#927);
#284=VERTEX_POINT('',#929);
#285=VERTEX_POINT('',#937);
#286=VERTEX_POINT('',#943);
#287=EDGE_CURVE('',#243,#244,#87,.T.);
#288=EDGE_CURVE('',#245,#243,#88,.T.);
#289=EDGE_CURVE('',#245,#246,#89,.T.);
#290=EDGE_CURVE('',#244,#246,#90,.T.);
#291=EDGE_CURVE('',#247,#248,#91,.T.);
#292=EDGE_CURVE('',#246,#247,#92,.T.);
#293=EDGE_CURVE('',#248,#245,#93,.T.);
#294=EDGE_CURVE('',#249,#247,#94,.T.);
#295=EDGE_CURVE('',#249,#250,#95,.T.);
#296=EDGE_CURVE('',#246,#250,#96,.T.);
#297=EDGE_CURVE('',#248,#251,#97,.T.);
#298=EDGE_CURVE('',#251,#252,#98,.T.);
#299=EDGE_CURVE('',#253,#252,#99,.T.);
#300=EDGE_CURVE('',#254,#253,#100,.T.);
#301=EDGE_CURVE('',#254,#255,#101,.T.);
#302=EDGE_CURVE('',#255,#249,#102,.T.);
#303=EDGE_CURVE('',#256,#243,#103,.T.);
#304=EDGE_CURVE('',#257,#256,#104,.T.);
#305=EDGE_CURVE('',#257,#245,#105,.T.);
#306=EDGE_CURVE('',#245,#258,#106,.T.);
#307=EDGE_CURVE('',#258,#251,#107,.T.);
#308=EDGE_CURVE('',#245,#259,#108,.T.);
#309=EDGE_CURVE('',#260,#259,#109,.T.);
#310=EDGE_CURVE('',#260,#258,#110,.T.);
#311=EDGE_CURVE('',#252,#260,#111,.T.);
#312=EDGE_CURVE('',#261,#246,#112,.T.);
#313=EDGE_CURVE('',#250,#262,#113,.T.);
#314=EDGE_CURVE('',#261,#262,#114,.T.);
#315=EDGE_CURVE('',#262,#255,#115,.T.);
#316=EDGE_CURVE('',#259,#263,#116,.T.);
#317=EDGE_CURVE('',#263,#264,#117,.T.);
#318=EDGE_CURVE('',#264,#265,#118,.T.);
#319=EDGE_CURVE('',#265,#266,#119,.T.);
#320=EDGE_CURVE('',#266,#267,#120,.T.);
#321=EDGE_CURVE('',#268,#267,#121,.T.);
#322=EDGE_CURVE('',#253,#268,#122,.T.);
#323=EDGE_CURVE('',#263,#257,#123,.T.);
#324=EDGE_CURVE('',#269,#270,#124,.T.);
#325=EDGE_CURVE('',#269,#271,#125,.T.);
#326=EDGE_CURVE('',#271,#272,#126,.T.);
#327=EDGE_CURVE('',#270,#272,#127,.T.);
#328=EDGE_CURVE('',#246,#271,#128,.T.);
#329=EDGE_CURVE('',#269,#271,#129,.T.);
#330=EDGE_CURVE('',#244,#269,#130,.T.);
#331=EDGE_CURVE('',#272,#261,#131,.T.);
#332=EDGE_CURVE('',#269,#256,#132,.T.);
#333=EDGE_CURVE('',#271,#257,#133,.T.);
#334=EDGE_CURVE('',#257,#273,#134,.T.);
#335=EDGE_CURVE('',#273,#264,#135,.T.);
#336=EDGE_CURVE('',#270,#274,#136,.T.);
#337=EDGE_CURVE('',#274,#275,#137,.T.);
#338=EDGE_CURVE('',#275,#269,#138,.T.);
#339=EDGE_CURVE('',#276,#275,#139,.T.);
#340=EDGE_CURVE('',#276,#271,#140,.T.);
#341=EDGE_CURVE('',#277,#276,#141,.T.);
#342=EDGE_CURVE('',#257,#277,#142,.T.);
#343=EDGE_CURVE('',#278,#274,#143,.T.);
#344=EDGE_CURVE('',#278,#276,#144,.T.);
#345=EDGE_CURVE('',#277,#266,#145,.T.);
#346=EDGE_CURVE('',#265,#279,#146,.T.);
#347=EDGE_CURVE('',#277,#279,#147,.T.);
#348=EDGE_CURVE('',#277,#279,#148,.T.);
#349=EDGE_CURVE('',#279,#273,#149,.T.);
#350=EDGE_CURVE('',#276,#280,#150,.T.);
#351=EDGE_CURVE('',#281,#280,#151,.T.);
#352=EDGE_CURVE('',#281,#282,#152,.T.);
#353=EDGE_CURVE('',#276,#282,#153,.T.);
#354=EDGE_CURVE('',#283,#277,#154,.T.);
#355=EDGE_CURVE('',#279,#284,#155,.T.);
#356=EDGE_CURVE('',#283,#284,#156,.T.);
#357=EDGE_CURVE('',#282,#279,#157,.T.);
#358=EDGE_CURVE('',#284,#281,#158,.T.);
#359=EDGE_CURVE('',#285,#278,#159,.T.);
#360=EDGE_CURVE('',#280,#285,#160,.T.);
#361=EDGE_CURVE('',#267,#283,#161,.T.);
#362=EDGE_CURVE('',#286,#285,#162,.T.);
#363=EDGE_CURVE('',#268,#286,#163,.T.);
#364=EDGE_CURVE('',#286,#254,#164,.T.);
#365=ORIENTED_EDGE('',*,*,#287,.F.);
#366=ORIENTED_EDGE('',*,*,#288,.F.);
#367=ORIENTED_EDGE('',*,*,#289,.T.);
#368=ORIENTED_EDGE('',*,*,#290,.F.);
#369=ORIENTED_EDGE('',*,*,#291,.F.);
#370=ORIENTED_EDGE('',*,*,#292,.F.);
#371=ORIENTED_EDGE('',*,*,#289,.F.);
#372=ORIENTED_EDGE('',*,*,#293,.F.);
#373=ORIENTED_EDGE('',*,*,#292,.T.);
#374=ORIENTED_EDGE('',*,*,#294,.F.);
#375=ORIENTED_EDGE('',*,*,#295,.T.);
#376=ORIENTED_EDGE('',*,*,#296,.F.);
#377=ORIENTED_EDGE('',*,*,#291,.T.);
#378=ORIENTED_EDGE('',*,*,#297,.T.);
#379=ORIENTED_EDGE('',*,*,#298,.T.);
#380=ORIENTED_EDGE('',*,*,#299,.F.);
#381=ORIENTED_EDGE('',*,*,#300,.F.);
#382=ORIENTED_EDGE('',*,*,#301,.T.);
#383=ORIENTED_EDGE('',*,*,#302,.T.);
#384=ORIENTED_EDGE('',*,*,#294,.T.);
#385=ORIENTED_EDGE('',*,*,#288,.T.);
#386=ORIENTED_EDGE('',*,*,#303,.F.);
#387=ORIENTED_EDGE('',*,*,#304,.F.);
#388=ORIENTED_EDGE('',*,*,#305,.T.);
#389=ORIENTED_EDGE('',*,*,#293,.T.);
#390=ORIENTED_EDGE('',*,*,#306,.T.);
#391=ORIENTED_EDGE('',*,*,#307,.T.);
#392=ORIENTED_EDGE('',*,*,#297,.F.);
#393=ORIENTED_EDGE('',*,*,#308,.T.);
#394=ORIENTED_EDGE('',*,*,#309,.F.);
#395=ORIENTED_EDGE('',*,*,#310,.T.);
#396=ORIENTED_EDGE('',*,*,#306,.F.);
#397=ORIENTED_EDGE('',*,*,#298,.F.);
#398=ORIENTED_EDGE('',*,*,#307,.F.);
#399=ORIENTED_EDGE('',*,*,#310,.F.);
#400=ORIENTED_EDGE('',*,*,#311,.F.);
#401=ORIENTED_EDGE('',*,*,#312,.T.);
#402=ORIENTED_EDGE('',*,*,#296,.T.);
#403=ORIENTED_EDGE('',*,*,#313,.T.);
#404=ORIENTED_EDGE('',*,*,#314,.F.);
#405=ORIENTED_EDGE('',*,*,#302,.F.);
#406=ORIENTED_EDGE('',*,*,#315,.F.);
#407=ORIENTED_EDGE('',*,*,#313,.F.);
#408=ORIENTED_EDGE('',*,*,#295,.F.);
#409=ORIENTED_EDGE('',*,*,#311,.T.);
#410=ORIENTED_EDGE('',*,*,#309,.T.);
#411=ORIENTED_EDGE('',*,*,#316,.T.);
#412=ORIENTED_EDGE('',*,*,#317,.T.);
#413=ORIENTED_EDGE('',*,*,#318,.T.);
#414=ORIENTED_EDGE('',*,*,#319,.T.);
#415=ORIENTED_EDGE('',*,*,#320,.T.);
#416=ORIENTED_EDGE('',*,*,#321,.F.);
#417=ORIENTED_EDGE('',*,*,#322,.F.);
#418=ORIENTED_EDGE('',*,*,#299,.T.);
#419=ORIENTED_EDGE('',*,*,#308,.F.);
#420=ORIENTED_EDGE('',*,*,#305,.F.);
#421=ORIENTED_EDGE('',*,*,#323,.F.);
#422=ORIENTED_EDGE('',*,*,#316,.F.);
#423=ORIENTED_EDGE('',*,*,#324,.F.);
#424=ORIENTED_EDGE('',*,*,#325,.T.);
#425=ORIENTED_EDGE('',*,*,#326,.T.);
#426=ORIENTED_EDGE('',*,*,#327,.F.);
#427=ORIENTED_EDGE('',*,*,#290,.T.);
#428=ORIENTED_EDGE('',*,*,#328,.T.);
#429=ORIENTED_EDGE('',*,*,#329,.F.);
#430=ORIENTED_EDGE('',*,*,#330,.F.);
#431=ORIENTED_EDGE('',*,*,#312,.F.);
#432=ORIENTED_EDGE('',*,*,#331,.F.);
#433=ORIENTED_EDGE('',*,*,#326,.F.);
#434=ORIENTED_EDGE('',*,*,#328,.F.);
#435=ORIENTED_EDGE('',*,*,#304,.T.);
#436=ORIENTED_EDGE('',*,*,#332,.F.);
#437=ORIENTED_EDGE('',*,*,#329,.T.);
#438=ORIENTED_EDGE('',*,*,#333,.T.);
#439=ORIENTED_EDGE('',*,*,#323,.T.);
#440=ORIENTED_EDGE('',*,*,#334,.T.);
#441=ORIENTED_EDGE('',*,*,#335,.T.);
#442=ORIENTED_EDGE('',*,*,#317,.F.);
#443=ORIENTED_EDGE('',*,*,#324,.T.);
#444=ORIENTED_EDGE('',*,*,#336,.T.);
#445=ORIENTED_EDGE('',*,*,#337,.T.);
#446=ORIENTED_EDGE('',*,*,#338,.T.);
#447=ORIENTED_EDGE('',*,*,#338,.F.);
#448=ORIENTED_EDGE('',*,*,#339,.F.);
#449=ORIENTED_EDGE('',*,*,#340,.T.);
#450=ORIENTED_EDGE('',*,*,#325,.F.);
#451=ORIENTED_EDGE('',*,*,#333,.F.);
#452=ORIENTED_EDGE('',*,*,#340,.F.);
#453=ORIENTED_EDGE('',*,*,#341,.F.);
#454=ORIENTED_EDGE('',*,*,#342,.F.);
#455=ORIENTED_EDGE('',*,*,#339,.T.);
#456=ORIENTED_EDGE('',*,*,#337,.F.);
#457=ORIENTED_EDGE('',*,*,#343,.F.);
#458=ORIENTED_EDGE('',*,*,#344,.T.);
#459=ORIENTED_EDGE('',*,*,#287,.T.);
#460=ORIENTED_EDGE('',*,*,#330,.T.);
#461=ORIENTED_EDGE('',*,*,#332,.T.);
#462=ORIENTED_EDGE('',*,*,#303,.T.);
#463=ORIENTED_EDGE('',*,*,#345,.T.);
#464=ORIENTED_EDGE('',*,*,#319,.F.);
#465=ORIENTED_EDGE('',*,*,#346,.T.);
#466=ORIENTED_EDGE('',*,*,#347,.F.);
#467=ORIENTED_EDGE('',*,*,#342,.T.);
#468=ORIENTED_EDGE('',*,*,#348,.T.);
#469=ORIENTED_EDGE('',*,*,#349,.T.);
#470=ORIENTED_EDGE('',*,*,#334,.F.);
#471=ORIENTED_EDGE('',*,*,#335,.F.);
#472=ORIENTED_EDGE('',*,*,#349,.F.);
#473=ORIENTED_EDGE('',*,*,#346,.F.);
#474=ORIENTED_EDGE('',*,*,#318,.F.);
#475=ORIENTED_EDGE('',*,*,#350,.T.);
#476=ORIENTED_EDGE('',*,*,#351,.F.);
#477=ORIENTED_EDGE('',*,*,#352,.T.);
#478=ORIENTED_EDGE('',*,*,#353,.F.);
#479=ORIENTED_EDGE('',*,*,#354,.T.);
#480=ORIENTED_EDGE('',*,*,#347,.T.);
#481=ORIENTED_EDGE('',*,*,#355,.T.);
#482=ORIENTED_EDGE('',*,*,#356,.F.);
#483=ORIENTED_EDGE('',*,*,#357,.F.);
#484=ORIENTED_EDGE('',*,*,#352,.F.);
#485=ORIENTED_EDGE('',*,*,#358,.F.);
#486=ORIENTED_EDGE('',*,*,#355,.F.);
#487=ORIENTED_EDGE('',*,*,#341,.T.);
#488=ORIENTED_EDGE('',*,*,#353,.T.);
#489=ORIENTED_EDGE('',*,*,#357,.T.);
#490=ORIENTED_EDGE('',*,*,#348,.F.);
#491=ORIENTED_EDGE('',*,*,#344,.F.);
#492=ORIENTED_EDGE('',*,*,#359,.F.);
#493=ORIENTED_EDGE('',*,*,#360,.F.);
#494=ORIENTED_EDGE('',*,*,#350,.F.);
#495=ORIENTED_EDGE('',*,*,#345,.F.);
#496=ORIENTED_EDGE('',*,*,#354,.F.);
#497=ORIENTED_EDGE('',*,*,#361,.F.);
#498=ORIENTED_EDGE('',*,*,#320,.F.);
#499=ORIENTED_EDGE('',*,*,#351,.T.);
#500=ORIENTED_EDGE('',*,*,#360,.T.);
#501=ORIENTED_EDGE('',*,*,#362,.F.);
#502=ORIENTED_EDGE('',*,*,#363,.F.);
#503=ORIENTED_EDGE('',*,*,#321,.T.);
#504=ORIENTED_EDGE('',*,*,#361,.T.);
#505=ORIENTED_EDGE('',*,*,#356,.T.);
#506=ORIENTED_EDGE('',*,*,#358,.T.);
#507=ORIENTED_EDGE('',*,*,#315,.T.);
#508=ORIENTED_EDGE('',*,*,#301,.F.);
#509=ORIENTED_EDGE('',*,*,#364,.F.);
#510=ORIENTED_EDGE('',*,*,#362,.T.);
#511=ORIENTED_EDGE('',*,*,#359,.T.);
#512=ORIENTED_EDGE('',*,*,#343,.T.);
#513=ORIENTED_EDGE('',*,*,#336,.F.);
#514=ORIENTED_EDGE('',*,*,#327,.T.);
#515=ORIENTED_EDGE('',*,*,#331,.T.);
#516=ORIENTED_EDGE('',*,*,#314,.T.);
#517=ORIENTED_EDGE('',*,*,#300,.T.);
#518=ORIENTED_EDGE('',*,*,#322,.T.);
#519=ORIENTED_EDGE('',*,*,#363,.T.);
#520=ORIENTED_EDGE('',*,*,#364,.T.);
#521=PLANE('',#604);
#522=PLANE('',#605);
#523=PLANE('',#606);
#524=PLANE('',#607);
#525=PLANE('',#608);
#526=PLANE('',#609);
#527=PLANE('',#610);
#528=PLANE('',#611);
#529=PLANE('',#612);
#530=PLANE('',#613);
#531=PLANE('',#614);
#532=PLANE('',#615);
#533=PLANE('',#616);
#534=PLANE('',#617);
#535=PLANE('',#618);
#536=PLANE('',#619);
#537=PLANE('',#620);
#538=PLANE('',#621);
#539=PLANE('',#622);
#540=PLANE('',#623);
#541=PLANE('',#624);
#542=PLANE('',#625);
#543=PLANE('',#626);
#544=PLANE('',#627);
#545=PLANE('',#628);
#546=PLANE('',#629);
#547=PLANE('',#630);
#548=PLANE('',#631);
#549=PLANE('',#632);
#550=PLANE('',#633);
#551=PLANE('',#634);
#552=PLANE('',#635);
#553=PLANE('',#636);
#554=PLANE('',#637);
#555=ADVANCED_FACE('',(#19),#521,.F.);
#556=ADVANCED_FACE('',(#20),#522,.F.);
#557=ADVANCED_FACE('',(#21),#523,.F.);
#558=ADVANCED_FACE('',(#22),#524,.T.);
#559=ADVANCED_FACE('',(#23),#525,.F.);
#560=ADVANCED_FACE('',(#24),#526,.F.);
#561=ADVANCED_FACE('',(#25),#527,.F.);
#562=ADVANCED_FACE('',(#26),#528,.F.);
#563=ADVANCED_FACE('',(#27),#529,.F.);
#564=ADVANCED_FACE('',(#28),#530,.F.);
#565=ADVANCED_FACE('',(#29),#531,.T.);
#566=ADVANCED_FACE('',(#30),#532,.F.);
#567=ADVANCED_FACE('',(#31),#533,.F.);
#568=ADVANCED_FACE('',(#32),#534,.F.);
#569=ADVANCED_FACE('',(#33),#535,.F.);
#570=ADVANCED_FACE('',(#34),#536,.F.);
#571=ADVANCED_FACE('',(#35),#537,.F.);
#572=ADVANCED_FACE('',(#36),#538,.T.);
#573=ADVANCED_FACE('',(#37),#539,.F.);
#574=ADVANCED_FACE('',(#38),#540,.F.);
#575=ADVANCED_FACE('',(#39),#541,.F.);
#576=ADVANCED_FACE('',(#40),#542,.T.);
#577=ADVANCED_FACE('',(#41),#543,.F.);
#578=ADVANCED_FACE('',(#42),#544,.F.);
#579=ADVANCED_FACE('',(#43),#545,.F.);
#580=ADVANCED_FACE('',(#44),#546,.F.);
#581=ADVANCED_FACE('',(#45),#547,.F.);
#582=ADVANCED_FACE('',(#46),#548,.F.);
#583=ADVANCED_FACE('',(#47),#549,.F.);
#584=ADVANCED_FACE('',(#48),#550,.F.);
#585=ADVANCED_FACE('',(#49),#551,.F.);
#586=ADVANCED_FACE('',(#50),#552,.T.);
#587=ADVANCED_FACE('',(#51),#553,.T.);
#588=ADVANCED_FACE('',(#52),#554,.F.);
#589=CLOSED_SHELL('',(#555,#556,#557,#558,#559,#560,#561,#562,#563,#564,
#565,#566,#567,#568,#569,#570,#571,#572,#573,#574,#575,#576,#577,#578,#579,
#580,#581,#582,#583,#584,#585,#586,#587,#588));
#590=DERIVED_UNIT_ELEMENT(#592,1.);
#591=DERIVED_UNIT_ELEMENT(#957,-3.);
#592=(
MASS_UNIT()
NAMED_UNIT(*)
SI_UNIT(.KILO.,.GRAM.)
);
#593=DERIVED_UNIT((#590,#591));
#594=MEASURE_REPRESENTATION_ITEM('density measure',
POSITIVE_RATIO_MEASURE(7850.),#593);
#595=PROPERTY_DEFINITION_REPRESENTATION(#600,#597);
#596=PROPERTY_DEFINITION_REPRESENTATION(#601,#598);
#597=REPRESENTATION('material name',(#599),#954);
#598=REPRESENTATION('density',(#594),#954);
#599=DESCRIPTIVE_REPRESENTATION_ITEM('Steel','Steel');
#600=PROPERTY_DEFINITION('material property','material name',#969);
#601=PROPERTY_DEFINITION('material property','density of part',#969);
#602=AXIS2_PLACEMENT_3D('',#791,#639,#640);
#603=AXIS2_PLACEMENT_3D('',#792,#641,#642);
#604=AXIS2_PLACEMENT_3D('',#793,#643,#644);
#605=AXIS2_PLACEMENT_3D('',#802,#649,#650);
#606=AXIS2_PLACEMENT_3D('',#808,#654,#655);
#607=AXIS2_PLACEMENT_3D('',#814,#659,#660);
#608=AXIS2_PLACEMENT_3D('',#826,#667,#668);
#609=AXIS2_PLACEMENT_3D('',#832,#672,#673);
#610=AXIS2_PLACEMENT_3D('',#836,#676,#677);
#611=AXIS2_PLACEMENT_3D('',#842,#681,#682);
#612=AXIS2_PLACEMENT_3D('',#844,#684,#685);
#613=AXIS2_PLACEMENT_3D('',#850,#689,#690);
#614=AXIS2_PLACEMENT_3D('',#852,#692,#693);
#615=AXIS2_PLACEMENT_3D('',#866,#701,#702);
#616=AXIS2_PLACEMENT_3D('',#868,#704,#705);
#617=AXIS2_PLACEMENT_3D('',#877,#710,#711);
#618=AXIS2_PLACEMENT_3D('',#881,#715,#716);
#619=AXIS2_PLACEMENT_3D('',#883,#718,#719);
#620=AXIS2_PLACEMENT_3D('',#886,#722,#723);
#621=AXIS2_PLACEMENT_3D('',#890,#726,#727);
#622=AXIS2_PLACEMENT_3D('',#896,#731,#732);
#623=AXIS2_PLACEMENT_3D('',#900,#735,#736);
#624=AXIS2_PLACEMENT_3D('',#904,#739,#740);
#625=AXIS2_PLACEMENT_3D('',#908,#743,#744);
#626=AXIS2_PLACEMENT_3D('',#909,#745,#746);
#627=AXIS2_PLACEMENT_3D('',#914,#750,#751);
#628=AXIS2_PLACEMENT_3D('',#917,#754,#755);
#629=AXIS2_PLACEMENT_3D('',#918,#756,#757);
#630=AXIS2_PLACEMENT_3D('',#926,#762,#763);
#631=AXIS2_PLACEMENT_3D('',#932,#767,#768);
#632=AXIS2_PLACEMENT_3D('',#935,#771,#772);
#633=AXIS2_PLACEMENT_3D('',#936,#773,#774);
#634=AXIS2_PLACEMENT_3D('',#940,#777,#778);
#635=AXIS2_PLACEMENT_3D('',#942,#780,#781);
#636=AXIS2_PLACEMENT_3D('',#946,#784,#785);
#637=AXIS2_PLACEMENT_3D('',#948,#787,#788);
#638=AXIS2_PLACEMENT_3D('',#949,#789,#790);
#639=DIRECTION('axis',(0.,0.,1.));
#640=DIRECTION('refdir',(1.,0.,0.));
#641=DIRECTION('axis',(0.,0.,1.));
#642=DIRECTION('refdir',(1.,0.,0.));
#643=DIRECTION('center_axis',(0.,1.,0.));
#644=DIRECTION('ref_axis',(1.,0.,0.));
#645=DIRECTION('',(1.,0.,0.));
#646=DIRECTION('',(0.,0.,1.));
#647=DIRECTION('',(1.,0.,0.));
#648=DIRECTION('',(0.,0.,-1.));
#649=DIRECTION('center_axis',(0.,0.,-1.));
#650=DIRECTION('ref_axis',(-1.,0.,0.));
#651=DIRECTION('',(-1.,0.,0.));
#652=DIRECTION('',(0.,-1.,0.));
#653=DIRECTION('',(0.,1.,0.));
#654=DIRECTION('center_axis',(-1.,0.,0.));
#655=DIRECTION('ref_axis',(0.,1.,0.));
#656=DIRECTION('',(0.,0.,1.));
#657=DIRECTION('',(0.,1.,0.));
#658=DIRECTION('',(0.,0.,-1.));
#659=DIRECTION('center_axis',(0.,-1.,0.));
#660=DIRECTION('ref_axis',(1.,0.,0.));
#661=DIRECTION('',(0.,0.,-1.));
#662=DIRECTION('',(-1.,0.,0.));
#663=DIRECTION('',(0.,0.,1.));
#664=DIRECTION('',(-1.,0.,0.));
#665=DIRECTION('',(0.,0.,1.));
#666=DIRECTION('',(-1.,0.,0.));
#667=DIRECTION('center_axis',(1.,0.,0.));
#668=DIRECTION('ref_axis',(0.,-1.,0.));
#669=DIRECTION('',(0.,-1.,0.));
#670=DIRECTION('',(0.,0.,1.));
#671=DIRECTION('',(0.,-1.,0.));
#672=DIRECTION('center_axis',(1.,0.,0.));
#673=DIRECTION('ref_axis',(0.,-1.,0.));
#674=DIRECTION('',(0.,0.,-1.));
#675=DIRECTION('',(0.,-1.,0.));
#676=DIRECTION('center_axis',(0.,1.,0.));
#677=DIRECTION('ref_axis',(1.,0.,0.));
#678=DIRECTION('',(-1.,0.,0.));
#679=DIRECTION('',(0.,0.,1.));
#680=DIRECTION('',(1.,0.,0.));
#681=DIRECTION('center_axis',(0.,0.,-1.));
#682=DIRECTION('ref_axis',(-1.,0.,0.));
#683=DIRECTION('',(0.,1.,0.));
#684=DIRECTION('center_axis',(0.,1.,0.));
#685=DIRECTION('ref_axis',(1.,0.,0.));
#686=DIRECTION('',(-1.,0.,0.));
#687=DIRECTION('',(1.,0.,0.));
#688=DIRECTION('',(0.,0.,-1.));
#689=DIRECTION('center_axis',(0.,0.,-1.));
#690=DIRECTION('ref_axis',(-1.,0.,0.));
#691=DIRECTION('',(0.,-1.,0.));
#692=DIRECTION('center_axis',(-1.,0.,0.));
#693=DIRECTION('ref_axis',(0.,-1.,0.));
#694=DIRECTION('',(0.,1.,0.));
#695=DIRECTION('',(0.,0.,-1.));
#696=DIRECTION('',(0.,1.,0.));
#697=DIRECTION('',(0.,0.,1.));
#698=DIRECTION('',(0.,1.,0.));
#699=DIRECTION('',(0.,0.,1.));
#700=DIRECTION('',(0.,1.,0.));
#701=DIRECTION('center_axis',(0.,0.,-1.));
#702=DIRECTION('ref_axis',(-1.,0.,0.));
#703=DIRECTION('',(1.,0.,0.));
#704=DIRECTION('center_axis',(0.,1.,0.));
#705=DIRECTION('ref_axis',(1.,0.,0.));
#706=DIRECTION('',(1.,0.,0.));
#707=DIRECTION('',(0.,0.,-1.));
#708=DIRECTION('',(1.,0.,0.));
#709=DIRECTION('',(0.,0.,-1.));
#710=DIRECTION('center_axis',(-1.,0.,0.));
#711=DIRECTION('ref_axis',(0.,1.,0.));
#712=DIRECTION('',(0.,1.,0.));
#713=DIRECTION('',(0.,0.,-1.));
#714=DIRECTION('',(0.,1.,0.));
#715=DIRECTION('center_axis',(0.,0.,-1.));
#716=DIRECTION('ref_axis',(-1.,0.,0.));
#717=DIRECTION('',(0.,-1.,0.));
#718=DIRECTION('center_axis',(0.,-1.,0.));
#719=DIRECTION('ref_axis',(-1.,0.,0.));
#720=DIRECTION('',(-1.,0.,0.));
#721=DIRECTION('',(-1.,0.,0.));
#722=DIRECTION('center_axis',(0.,-1.,0.));
#723=DIRECTION('ref_axis',(-1.,0.,0.));
#724=DIRECTION('',(0.,0.,-1.));
#725=DIRECTION('',(-1.,0.,0.));
#726=DIRECTION('center_axis',(0.,0.,1.));
#727=DIRECTION('ref_axis',(1.,0.,0.));
#728=DIRECTION('',(0.,1.,0.));
#729=DIRECTION('',(-1.,0.,0.));
#730=DIRECTION('',(0.,-1.,0.));
#731=DIRECTION('center_axis',(1.,0.,0.));
#732=DIRECTION('ref_axis',(0.,-1.,0.));
#733=DIRECTION('',(0.,0.,1.));
#734=DIRECTION('',(0.,-1.,0.));
#735=DIRECTION('center_axis',(0.,0.,-1.));
#736=DIRECTION('ref_axis',(-1.,0.,0.));
#737=DIRECTION('',(1.,0.,0.));
#738=DIRECTION('',(0.,1.,0.));
#739=DIRECTION('center_axis',(0.,-1.,0.));
#740=DIRECTION('ref_axis',(-1.,0.,0.));
#741=DIRECTION('',(0.,0.,1.));
#742=DIRECTION('',(-1.,0.,0.));
#743=DIRECTION('center_axis',(0.,0.,1.));
#744=DIRECTION('ref_axis',(1.,0.,0.));
#745=DIRECTION('center_axis',(0.,1.,0.));
#746=DIRECTION('ref_axis',(1.,0.,0.));
#747=DIRECTION('',(-1.,0.,0.));
#748=DIRECTION('',(1.,0.,0.));
#749=DIRECTION('',(0.,0.,-1.));
#750=DIRECTION('center_axis',(1.,0.,0.));
#751=DIRECTION('ref_axis',(0.,-1.,0.));
#752=DIRECTION('',(0.,0.,-1.));
#753=DIRECTION('',(0.,-1.,0.));
#754=DIRECTION('center_axis',(0.,0.,-1.));
#755=DIRECTION('ref_axis',(-1.,0.,0.));
#756=DIRECTION('center_axis',(1.,0.,0.));
#757=DIRECTION('ref_axis',(0.,-1.,0.));
#758=DIRECTION('',(0.,1.,0.));
#759=DIRECTION('',(0.,0.,1.));
#760=DIRECTION('',(0.,-1.,0.));
#761=DIRECTION('',(0.,0.,-1.));
#762=DIRECTION('center_axis',(-1.,0.,0.));
#763=DIRECTION('ref_axis',(0.,1.,0.));
#764=DIRECTION('',(0.,-1.,0.));
#765=DIRECTION('',(0.,1.,0.));
#766=DIRECTION('',(0.,0.,-1.));
#767=DIRECTION('center_axis',(0.,0.,-1.));
#768=DIRECTION('ref_axis',(-1.,0.,0.));
#769=DIRECTION('',(-1.,0.,0.));
#770=DIRECTION('',(1.,0.,0.));
#771=DIRECTION('center_axis',(0.,-1.,0.));
#772=DIRECTION('ref_axis',(-1.,0.,0.));
#773=DIRECTION('center_axis',(0.,0.,-1.));
#774=DIRECTION('ref_axis',(-1.,0.,0.));
#775=DIRECTION('',(0.,-1.,0.));
#776=DIRECTION('',(1.,0.,0.));
#777=DIRECTION('center_axis',(0.,0.,-1.));
#778=DIRECTION('ref_axis',(-1.,0.,0.));
#779=DIRECTION('',(1.,0.,0.));
#780=DIRECTION('center_axis',(0.,1.,0.));
#781=DIRECTION('ref_axis',(-1.,0.,0.));
#782=DIRECTION('',(0.,0.,1.));
#783=DIRECTION('',(1.,0.,0.));
#784=DIRECTION('center_axis',(1.,0.,0.));
#785=DIRECTION('ref_axis',(0.,1.,0.));
#786=DIRECTION('',(0.,-1.,0.));
#787=DIRECTION('center_axis',(0.,0.,1.));
#788=DIRECTION('ref_axis',(1.,0.,0.));
#789=DIRECTION('',(0.,0.,1.));
#790=DIRECTION('',(1.,0.,0.));
#791=CARTESIAN_POINT('',(0.,0.,0.));
#792=CARTESIAN_POINT('',(0.,0.,0.));
#793=CARTESIAN_POINT('Origin',(-600.,-1200.,600.));
#794=CARTESIAN_POINT('',(-600.,-1200.,600.));
#795=CARTESIAN_POINT('',(600.,-1200.,600.));
#796=CARTESIAN_POINT('',(-300.,-1200.,600.));
#797=CARTESIAN_POINT('',(-600.,-1200.,400.));
#798=CARTESIAN_POINT('',(-600.,-1200.,600.));
#799=CARTESIAN_POINT('',(600.,-1200.,400.));
#800=CARTESIAN_POINT('',(-600.,-1200.,400.));
#801=CARTESIAN_POINT('',(600.,-1200.,600.));
#802=CARTESIAN_POINT('Origin',(0.,-1800.,400.));
#803=CARTESIAN_POINT('',(600.,-2400.,400.));
#804=CARTESIAN_POINT('',(-600.,-2400.,400.));
#805=CARTESIAN_POINT('',(-900.,-2400.,400.));
#806=CARTESIAN_POINT('',(600.,-1500.,400.));
#807=CARTESIAN_POINT('',(-600.,-900.,400.));
#808=CARTESIAN_POINT('Origin',(600.,-1200.,600.));
#809=CARTESIAN_POINT('',(600.,-2400.,200.));
#810=CARTESIAN_POINT('',(600.,-2400.,300.));
#811=CARTESIAN_POINT('',(600.,-1200.,200.));
#812=CARTESIAN_POINT('',(600.,-2400.,200.));
#813=CARTESIAN_POINT('',(600.,-1200.,600.));
#814=CARTESIAN_POINT('Origin',(-1800.,-2400.,0.));
#815=CARTESIAN_POINT('',(-600.,-2400.,200.));
#816=CARTESIAN_POINT('',(-600.,-2400.,300.));
#817=CARTESIAN_POINT('',(-1800.,-2400.,200.));
#818=CARTESIAN_POINT('',(-1500.,-2400.,200.));
#819=CARTESIAN_POINT('',(-1800.,-2400.,0.));
#820=CARTESIAN_POINT('',(-1800.,-2400.,0.));
#821=CARTESIAN_POINT('',(1800.,-2400.,0.));
#822=CARTESIAN_POINT('',(1800.,-2400.,0.));
#823=CARTESIAN_POINT('',(1800.,-2400.,200.));
#824=CARTESIAN_POINT('',(1800.,-2400.,0.));
#825=CARTESIAN_POINT('',(-300.,-2400.,200.));
#826=CARTESIAN_POINT('Origin',(-600.,0.,600.));
#827=CARTESIAN_POINT('',(-600.,0.,600.));
#828=CARTESIAN_POINT('',(-600.,0.,600.));
#829=CARTESIAN_POINT('',(-600.,0.,400.));
#830=CARTESIAN_POINT('',(-600.,0.,600.));
#831=CARTESIAN_POINT('',(-600.,0.,400.));
#832=CARTESIAN_POINT('Origin',(-600.,0.,600.));
#833=CARTESIAN_POINT('',(-600.,-1200.,200.));
#834=CARTESIAN_POINT('',(-600.,-1200.,600.));
#835=CARTESIAN_POINT('',(-600.,-1200.,200.));
#836=CARTESIAN_POINT('Origin',(-1800.,-1200.,600.));
#837=CARTESIAN_POINT('',(-1800.,-1200.,400.));
#838=CARTESIAN_POINT('',(-600.,-1200.,400.));
#839=CARTESIAN_POINT('',(-1800.,-1200.,200.));
#840=CARTESIAN_POINT('',(-1800.,-1200.,300.));
#841=CARTESIAN_POINT('',(-1800.,-1200.,200.));
#842=CARTESIAN_POINT('Origin',(-1200.,-1800.,200.));
#843=CARTESIAN_POINT('',(-1800.,300.,200.));
#844=CARTESIAN_POINT('Origin',(600.,-1200.,600.));
#845=CARTESIAN_POINT('',(1800.,-1200.,400.));
#846=CARTESIAN_POINT('',(1800.,-1200.,400.));
#847=CARTESIAN_POINT('',(1800.,-1200.,200.));
#848=CARTESIAN_POINT('',(600.,-1200.,200.));
#849=CARTESIAN_POINT('',(1800.,-1200.,300.));
#850=CARTESIAN_POINT('Origin',(1200.,-1800.,200.));
#851=CARTESIAN_POINT('',(1800.,-2100.,200.));
#852=CARTESIAN_POINT('Origin',(-1800.,2400.,0.));
#853=CARTESIAN_POINT('',(-1800.,0.,400.));
#854=CARTESIAN_POINT('',(-1800.,900.,400.));
#855=CARTESIAN_POINT('',(-1800.,0.,200.));
#856=CARTESIAN_POINT('',(-1800.,0.,300.));
#857=CARTESIAN_POINT('',(-1800.,1200.,200.));
#858=CARTESIAN_POINT('',(-1800.,1500.,200.));
#859=CARTESIAN_POINT('',(-1800.,1200.,400.));
#860=CARTESIAN_POINT('',(-1800.,1200.,300.));
#861=CARTESIAN_POINT('',(-1800.,2400.,400.));
#862=CARTESIAN_POINT('',(-1800.,2100.,400.));
#863=CARTESIAN_POINT('',(-1800.,2400.,0.));
#864=CARTESIAN_POINT('',(-1800.,2400.,0.));
#865=CARTESIAN_POINT('',(-1800.,-2400.,0.));
#866=CARTESIAN_POINT('Origin',(-1200.,-600.,400.));
#867=CARTESIAN_POINT('',(-900.,0.,400.));
#868=CARTESIAN_POINT('Origin',(600.,0.,600.));
#869=CARTESIAN_POINT('',(600.,0.,600.));
#870=CARTESIAN_POINT('',(1800.,0.,600.));
#871=CARTESIAN_POINT('',(300.,0.,600.));
#872=CARTESIAN_POINT('',(600.,0.,400.));
#873=CARTESIAN_POINT('',(600.,0.,600.));
#874=CARTESIAN_POINT('',(1800.,0.,400.));
#875=CARTESIAN_POINT('',(600.,0.,400.));
#876=CARTESIAN_POINT('',(1800.,0.,300.));
#877=CARTESIAN_POINT('Origin',(600.,-1200.,600.));
#878=CARTESIAN_POINT('',(600.,-1200.,400.));
#879=CARTESIAN_POINT('',(600.,0.,600.));
#880=CARTESIAN_POINT('',(600.,-600.,600.));
#881=CARTESIAN_POINT('Origin',(1200.,-600.,400.));
#882=CARTESIAN_POINT('',(1800.,-1500.,400.));
#883=CARTESIAN_POINT('Origin',(-600.,0.,600.));
#884=CARTESIAN_POINT('',(300.,0.,600.));
#885=CARTESIAN_POINT('',(600.,0.,400.));
#886=CARTESIAN_POINT('Origin',(-600.,0.,600.));
#887=CARTESIAN_POINT('',(-600.,0.,200.));
#888=CARTESIAN_POINT('',(-600.,0.,600.));
#889=CARTESIAN_POINT('',(-600.,0.,200.));
#890=CARTESIAN_POINT('Origin',(0.,0.,600.));
#891=CARTESIAN_POINT('',(1800.,1200.,600.));
#892=CARTESIAN_POINT('',(1800.,2400.,600.));
#893=CARTESIAN_POINT('',(600.,1200.,600.));
#894=CARTESIAN_POINT('',(300.,1200.,600.));
#895=CARTESIAN_POINT('',(600.,600.,600.));
#896=CARTESIAN_POINT('Origin',(600.,1200.,600.));
#897=CARTESIAN_POINT('',(600.,1200.,400.));
#898=CARTESIAN_POINT('',(600.,1200.,600.));
#899=CARTESIAN_POINT('',(600.,1200.,400.));
#900=CARTESIAN_POINT('Origin',(0.,600.,400.));
#901=CARTESIAN_POINT('',(-600.,1200.,400.));
#902=CARTESIAN_POINT('',(900.,1200.,400.));
#903=CARTESIAN_POINT('',(-600.,900.,400.));
#904=CARTESIAN_POINT('Origin',(1800.,1200.,600.));
#905=CARTESIAN_POINT('',(1800.,1200.,400.));
#906=CARTESIAN_POINT('',(1800.,1200.,300.));
#907=CARTESIAN_POINT('',(1800.,1200.,400.));
#908=CARTESIAN_POINT('Origin',(0.,0.,600.));
#909=CARTESIAN_POINT('Origin',(-1800.,1200.,600.));
#910=CARTESIAN_POINT('',(-600.,1200.,400.));
#911=CARTESIAN_POINT('',(-600.,1200.,200.));
#912=CARTESIAN_POINT('',(-1800.,1200.,200.));
#913=CARTESIAN_POINT('',(-600.,1200.,600.));
#914=CARTESIAN_POINT('Origin',(-600.,1200.,600.));
#915=CARTESIAN_POINT('',(-600.,1200.,600.));
#916=CARTESIAN_POINT('',(-600.,1200.,200.));
#917=CARTESIAN_POINT('Origin',(-1200.,600.,200.));
#918=CARTESIAN_POINT('Origin',(600.,2400.,600.));
#919=CARTESIAN_POINT('',(600.,2400.,400.));
#920=CARTESIAN_POINT('',(600.,1200.,400.));
#921=CARTESIAN_POINT('',(600.,2400.,200.));
#922=CARTESIAN_POINT('',(600.,2400.,300.));
#923=CARTESIAN_POINT('',(600.,1200.,200.));
#924=CARTESIAN_POINT('',(600.,2400.,200.));
#925=CARTESIAN_POINT('',(600.,1200.,600.));
#926=CARTESIAN_POINT('Origin',(-600.,1200.,600.));
#927=CARTESIAN_POINT('',(-600.,2400.,400.));
#928=CARTESIAN_POINT('',(-600.,1200.,400.));
#929=CARTESIAN_POINT('',(-600.,2400.,200.));
#930=CARTESIAN_POINT('',(-600.,1200.,200.));
#931=CARTESIAN_POINT('',(-600.,2400.,300.));
#932=CARTESIAN_POINT('Origin',(-2.8421709430404E-13,1800.,200.));
#933=CARTESIAN_POINT('',(600.,1200.,200.));
#934=CARTESIAN_POINT('',(900.,2400.,200.));
#935=CARTESIAN_POINT('Origin',(1800.,1200.,600.));
#936=CARTESIAN_POINT('Origin',(1200.,1800.,400.));
#937=CARTESIAN_POINT('',(1800.,2400.,400.));
#938=CARTESIAN_POINT('',(1800.,-300.,400.));
#939=CARTESIAN_POINT('',(1500.,2400.,400.));
#940=CARTESIAN_POINT('Origin',(-1200.,1800.,400.));
#941=CARTESIAN_POINT('',(300.,2400.,400.));
#942=CARTESIAN_POINT('Origin',(1800.,2400.,0.));
#943=CARTESIAN_POINT('',(1800.,2400.,0.));
#944=CARTESIAN_POINT('',(1800.,2400.,0.));
#945=CARTESIAN_POINT('',(-1800.,2400.,0.));
#946=CARTESIAN_POINT('Origin',(1800.,-2400.,0.));
#947=CARTESIAN_POINT('',(1800.,2400.,0.));
#948=CARTESIAN_POINT('Origin',(0.,0.,0.));
#949=CARTESIAN_POINT('',(0.,0.,0.));
#950=UNCERTAINTY_MEASURE_WITH_UNIT(LENGTH_MEASURE(0.01),#956,
'DISTANCE_ACCURACY_VALUE',
'Maximum model space distance between geometric entities at asserted c
onnectivities');
#951=UNCERTAINTY_MEASURE_WITH_UNIT(LENGTH_MEASURE(0.01),#956,
'DISTANCE_ACCURACY_VALUE',
'Maximum model space distance between geometric entities at asserted c
onnectivities');
#952=UNCERTAINTY_MEASURE_WITH_UNIT(LENGTH_MEASURE(0.01),#956,
'DISTANCE_ACCURACY_VALUE',
'Maximum model space distance between geometric entities at asserted c
onnectivities');
#953=(
GEOMETRIC_REPRESENTATION_CONTEXT(3)
GLOBAL_UNCERTAINTY_ASSIGNED_CONTEXT((#950))
GLOBAL_UNIT_ASSIGNED_CONTEXT((#956,#958,#959))
REPRESENTATION_CONTEXT('','3D')
);
#954=(
GEOMETRIC_REPRESENTATION_CONTEXT(3)
GLOBAL_UNCERTAINTY_ASSIGNED_CONTEXT((#951))
GLOBAL_UNIT_ASSIGNED_CONTEXT((#956,#958,#959))
REPRESENTATION_CONTEXT('','3D')
);
#955=(
GEOMETRIC_REPRESENTATION_CONTEXT(3)
GLOBAL_UNCERTAINTY_ASSIGNED_CONTEXT((#952))
GLOBAL_UNIT_ASSIGNED_CONTEXT((#956,#958,#959))
REPRESENTATION_CONTEXT('','3D')
);
#956=(
LENGTH_UNIT()
NAMED_UNIT(*)
SI_UNIT(.MILLI.,.METRE.)
);
#957=(
LENGTH_UNIT()
NAMED_UNIT(*)
SI_UNIT($,.METRE.)
);
#958=(
NAMED_UNIT(*)
PLANE_ANGLE_UNIT()
SI_UNIT($,.RADIAN.)
);
#959=(
NAMED_UNIT(*)
SI_UNIT($,.STERADIAN.)
SOLID_ANGLE_UNIT()
);
#960=SHAPE_DEFINITION_REPRESENTATION(#962,#965);
#961=SHAPE_DEFINITION_REPRESENTATION(#963,#966);
#962=PRODUCT_DEFINITION_SHAPE('',$,#968);
#963=PRODUCT_DEFINITION_SHAPE('',$,#969);
#964=PRODUCT_DEFINITION_SHAPE($,$,#14);
#965=SHAPE_REPRESENTATION('',(#602,#638),#953);
#966=SHAPE_REPRESENTATION('',(#603),#954);
#967=PRODUCT_DEFINITION_CONTEXT('part definition',#975,'design');
#968=PRODUCT_DEFINITION('2026-01-18-15-58-33-125','my_forest',#970,#967);
#969=PRODUCT_DEFINITION('2026-01-18-16-14-45-830','Forest_Center',#971,
#967);
#970=PRODUCT_DEFINITION_FORMATION('',$,#977);
#971=PRODUCT_DEFINITION_FORMATION('',$,#978);
#972=PRODUCT_RELATED_PRODUCT_CATEGORY('my_forest','my_forest',(#977));
#973=PRODUCT_RELATED_PRODUCT_CATEGORY('Forest_Center','Forest_Center',(#978));
#974=APPLICATION_PROTOCOL_DEFINITION('international standard',
'automotive_design',2009,#975);
#975=APPLICATION_CONTEXT(
'Core Data for Automotive Mechanical Design Process');
#976=PRODUCT_CONTEXT('part definition',#975,'mechanical');
#977=PRODUCT('2026-01-18-15-58-33-125','my_forest',$,(#976));
#978=PRODUCT('2026-01-18-16-14-45-830','Forest_Center',$,(#976));
#979=PRESENTATION_STYLE_ASSIGNMENT((#980));
#980=SURFACE_STYLE_USAGE(.BOTH.,#981);
#981=SURFACE_SIDE_STYLE('',(#982));
#982=SURFACE_STYLE_FILL_AREA(#983);
#983=FILL_AREA_STYLE('Steel - Satin',(#984));
#984=FILL_AREA_STYLE_COLOUR('Steel - Satin',#985);
#985=COLOUR_RGB('Steel - Satin',0.627450980392157,0.627450980392157,0.627450980392157);
ENDSEC;
END-ISO-10303-21;
