ISO-10303-21;
HEADER;
/* Generated by software containing ST-Developer
 * from STEP Tools, Inc. (www.steptools.com) 
 */

FILE_DESCRIPTION(
/* description */ (''),
/* implementation_level */ '2;1');

FILE_NAME(
/* name */ 'Staff_Rack.step',
/* time_stamp */ '2026-01-18T16:17:47+05:30',
/* author */ (''),
/* organization */ (''),
/* preprocessor_version */ 'ST-DEVELOPER v20.1',
/* originating_system */ 'Autodesk Translation Framework v14.21.0.0',
/* authorisation */ '');

FILE_SCHEMA (('AUTOMOTIVE_DESIGN { 1 0 10303 214 3 1 1 }'));
ENDSEC;

DATA;
#10=MECHANICAL_DESIGN_GEOMETRIC_PRESENTATION_REPRESENTATION('',(#75,#76,
#77,#78,#79),#2146);
#11=ITEM_DEFINED_TRANSFORMATION($,$,#1382,#1417);
#12=ITEM_DEFINED_TRANSFORMATION($,$,#1322,#1418);
#13=ITEM_DEFINED_TRANSFORMATION($,$,#1335,#1419);
#14=ITEM_DEFINED_TRANSFORMATION($,$,#1348,#1420);
#15=ITEM_DEFINED_TRANSFORMATION($,$,#1381,#1421);
#16=(
REPRESENTATION_RELATIONSHIP($,$,#2173,#2172)
REPRESENTATION_RELATIONSHIP_WITH_TRANSFORMATION(#11)
SHAPE_REPRESENTATION_RELATIONSHIP()
);
#17=(
REPRESENTATION_RELATIONSHIP($,$,#2169,#2168)
REPRESENTATION_RELATIONSHIP_WITH_TRANSFORMATION(#12)
SHAPE_REPRESENTATION_RELATIONSHIP()
);
#18=(
REPRESENTATION_RELATIONSHIP($,$,#2170,#2168)
REPRESENTATION_RELATIONSHIP_WITH_TRANSFORMATION(#13)
SHAPE_REPRESENTATION_RELATIONSHIP()
);
#19=(
REPRESENTATION_RELATIONSHIP($,$,#2171,#2168)
REPRESENTATION_RELATIONSHIP_WITH_TRANSFORMATION(#14)
SHAPE_REPRESENTATION_RELATIONSHIP()
);
#20=(
REPRESENTATION_RELATIONSHIP($,$,#2172,#2168)
REPRESENTATION_RELATIONSHIP_WITH_TRANSFORMATION(#15)
SHAPE_REPRESENTATION_RELATIONSHIP()
);
#21=CONTEXT_DEPENDENT_SHAPE_REPRESENTATION(#16,#2163);
#22=CONTEXT_DEPENDENT_SHAPE_REPRESENTATION(#17,#2164);
#23=CONTEXT_DEPENDENT_SHAPE_REPRESENTATION(#18,#2165);
#24=CONTEXT_DEPENDENT_SHAPE_REPRESENTATION(#19,#2166);
#25=CONTEXT_DEPENDENT_SHAPE_REPRESENTATION(#20,#2167);
#26=NEXT_ASSEMBLY_USAGE_OCCURRENCE('Bottom_Shelf:1','Bottom_Shelf:1',
'Bottom_Shelf:1',#2179,#2180,'Bottom_Shelf:1');
#27=NEXT_ASSEMBLY_USAGE_OCCURRENCE('Left_leg:1','Left_leg:1',
'Left_leg:1',#2175,#2176,'Left_leg:1');
#28=NEXT_ASSEMBLY_USAGE_OCCURRENCE('Right_leg:1','Right_leg:1',
'Right_leg:1',#2175,#2177,'Right_leg:1');
#29=NEXT_ASSEMBLY_USAGE_OCCURRENCE('Top_shelf:1','Top_shelf:1',
'Top_shelf:1',#2175,#2178,'Top_shelf:1');
#30=NEXT_ASSEMBLY_USAGE_OCCURRENCE('Bottom_Column:1','Bottom_Column:1',
'Bottom_Column:1',#2175,#2179,'Bottom_Column:1');
#31=FACE_BOUND('',#219,.T.);
#32=FACE_BOUND('',#220,.T.);
#33=FACE_BOUND('',#221,.T.);
#34=FACE_BOUND('',#222,.T.);
#35=CIRCLE('',#1352,12.5);
#36=CIRCLE('',#1353,12.5);
#37=CIRCLE('',#1357,12.5);
#38=CIRCLE('',#1358,12.5);
#39=CIRCLE('',#1362,12.5);
#40=CIRCLE('',#1363,12.5);
#41=CIRCLE('',#1367,12.5);
#42=CIRCLE('',#1368,12.5);
#43=CIRCLE('',#1384,12.5);
#44=CIRCLE('',#1385,12.5);
#45=CIRCLE('',#1388,12.5);
#46=CIRCLE('',#1389,12.5);
#47=CIRCLE('',#1392,12.5);
#48=CIRCLE('',#1393,12.5);
#49=CIRCLE('',#1396,12.5);
#50=CIRCLE('',#1397,12.5);
#51=CIRCLE('',#1400,20.);
#52=CIRCLE('',#1401,20.);
#53=CIRCLE('',#1404,20.);
#54=CIRCLE('',#1406,20.);
#55=CYLINDRICAL_SURFACE('',#1351,12.5);
#56=CYLINDRICAL_SURFACE('',#1356,12.5);
#57=CYLINDRICAL_SURFACE('',#1361,12.5);
#58=CYLINDRICAL_SURFACE('',#1366,12.5);
#59=CYLINDRICAL_SURFACE('',#1383,12.5);
#60=CYLINDRICAL_SURFACE('',#1387,12.5);
#61=CYLINDRICAL_SURFACE('',#1391,12.5);
#62=CYLINDRICAL_SURFACE('',#1395,12.5);
#63=CYLINDRICAL_SURFACE('',#1399,20.);
#64=CYLINDRICAL_SURFACE('',#1405,20.);
#65=SHAPE_REPRESENTATION_RELATIONSHIP('SRR','None',#2169,#70);
#66=SHAPE_REPRESENTATION_RELATIONSHIP('SRR','None',#2170,#71);
#67=SHAPE_REPRESENTATION_RELATIONSHIP('SRR','None',#2171,#72);
#68=SHAPE_REPRESENTATION_RELATIONSHIP('SRR','None',#2173,#73);
#69=SHAPE_REPRESENTATION_RELATIONSHIP('SRR','None',#2172,#74);
#70=ADVANCED_BREP_SHAPE_REPRESENTATION('',(#80),#2141);
#71=ADVANCED_BREP_SHAPE_REPRESENTATION('',(#81),#2142);
#72=ADVANCED_BREP_SHAPE_REPRESENTATION('',(#82),#2143);
#73=ADVANCED_BREP_SHAPE_REPRESENTATION('',(#83),#2145);
#74=ADVANCED_BREP_SHAPE_REPRESENTATION('',(#84),#2144);
#75=STYLED_ITEM('',(#2202),#80);
#76=STYLED_ITEM('',(#2202),#81);
#77=STYLED_ITEM('',(#2202),#82);
#78=STYLED_ITEM('',(#2202),#83);
#79=STYLED_ITEM('',(#2202),#84);
#80=MANIFOLD_SOLID_BREP('Body1',#1271);
#81=MANIFOLD_SOLID_BREP('Body1',#1272);
#82=MANIFOLD_SOLID_BREP('Body1',#1273);
#83=MANIFOLD_SOLID_BREP('Body1',#1274);
#84=MANIFOLD_SOLID_BREP('Body1',#1275);
#85=FACE_OUTER_BOUND('',#155,.T.);
#86=FACE_OUTER_BOUND('',#156,.T.);
#87=FACE_OUTER_BOUND('',#157,.T.);
#88=FACE_OUTER_BOUND('',#158,.T.);
#89=FACE_OUTER_BOUND('',#159,.T.);
#90=FACE_OUTER_BOUND('',#160,.T.);
#91=FACE_OUTER_BOUND('',#161,.T.);
#92=FACE_OUTER_BOUND('',#162,.T.);
#93=FACE_OUTER_BOUND('',#163,.T.);
#94=FACE_OUTER_BOUND('',#164,.T.);
#95=FACE_OUTER_BOUND('',#165,.T.);
#96=FACE_OUTER_BOUND('',#166,.T.);
#97=FACE_OUTER_BOUND('',#167,.T.);
#98=FACE_OUTER_BOUND('',#168,.T.);
#99=FACE_OUTER_BOUND('',#169,.T.);
#100=FACE_OUTER_BOUND('',#170,.T.);
#101=FACE_OUTER_BOUND('',#171,.T.);
#102=FACE_OUTER_BOUND('',#172,.T.);
#103=FACE_OUTER_BOUND('',#173,.T.);
#104=FACE_OUTER_BOUND('',#174,.T.);
#105=FACE_OUTER_BOUND('',#175,.T.);
#106=FACE_OUTER_BOUND('',#176,.T.);
#107=FACE_OUTER_BOUND('',#177,.T.);
#108=FACE_OUTER_BOUND('',#178,.T.);
#109=FACE_OUTER_BOUND('',#179,.T.);
#110=FACE_OUTER_BOUND('',#180,.T.);
#111=FACE_OUTER_BOUND('',#181,.T.);
#112=FACE_OUTER_BOUND('',#182,.T.);
#113=FACE_OUTER_BOUND('',#183,.T.);
#114=FACE_OUTER_BOUND('',#184,.T.);
#115=FACE_OUTER_BOUND('',#185,.T.);
#116=FACE_OUTER_BOUND('',#186,.T.);
#117=FACE_OUTER_BOUND('',#187,.T.);
#118=FACE_OUTER_BOUND('',#188,.T.);
#119=FACE_OUTER_BOUND('',#189,.T.);
#120=FACE_OUTER_BOUND('',#190,.T.);
#121=FACE_OUTER_BOUND('',#191,.T.);
#122=FACE_OUTER_BOUND('',#192,.T.);
#123=FACE_OUTER_BOUND('',#193,.T.);
#124=FACE_OUTER_BOUND('',#194,.T.);
#125=FACE_OUTER_BOUND('',#195,.T.);
#126=FACE_OUTER_BOUND('',#196,.T.);
#127=FACE_OUTER_BOUND('',#197,.T.);
#128=FACE_OUTER_BOUND('',#198,.T.);
#129=FACE_OUTER_BOUND('',#199,.T.);
#130=FACE_OUTER_BOUND('',#200,.T.);
#131=FACE_OUTER_BOUND('',#201,.T.);
#132=FACE_OUTER_BOUND('',#202,.T.);
#133=FACE_OUTER_BOUND('',#203,.T.);
#134=FACE_OUTER_BOUND('',#204,.T.);
#135=FACE_OUTER_BOUND('',#205,.T.);
#136=FACE_OUTER_BOUND('',#206,.T.);
#137=FACE_OUTER_BOUND('',#207,.T.);
#138=FACE_OUTER_BOUND('',#208,.T.);
#139=FACE_OUTER_BOUND('',#209,.T.);
#140=FACE_OUTER_BOUND('',#210,.T.);
#141=FACE_OUTER_BOUND('',#211,.T.);
#142=FACE_OUTER_BOUND('',#212,.T.);
#143=FACE_OUTER_BOUND('',#213,.T.);
#144=FACE_OUTER_BOUND('',#214,.T.);
#145=FACE_OUTER_BOUND('',#215,.T.);
#146=FACE_OUTER_BOUND('',#216,.T.);
#147=FACE_OUTER_BOUND('',#217,.T.);
#148=FACE_OUTER_BOUND('',#218,.T.);
#149=FACE_OUTER_BOUND('',#223,.T.);
#150=FACE_OUTER_BOUND('',#224,.T.);
#151=FACE_OUTER_BOUND('',#225,.T.);
#152=FACE_OUTER_BOUND('',#226,.T.);
#153=FACE_OUTER_BOUND('',#227,.T.);
#154=FACE_OUTER_BOUND('',#228,.T.);
#155=EDGE_LOOP('',(#805,#806,#807,#808));
#156=EDGE_LOOP('',(#809,#810,#811,#812));
#157=EDGE_LOOP('',(#813,#814,#815,#816));
#158=EDGE_LOOP('',(#817,#818,#819,#820));
#159=EDGE_LOOP('',(#821,#822,#823,#824));
#160=EDGE_LOOP('',(#825,#826,#827,#828));
#161=EDGE_LOOP('',(#829,#830,#831,#832));
#162=EDGE_LOOP('',(#833,#834,#835,#836));
#163=EDGE_LOOP('',(#837,#838,#839,#840,#841,#842,#843,#844,#845,#846));
#164=EDGE_LOOP('',(#847,#848,#849,#850));
#165=EDGE_LOOP('',(#851,#852,#853,#854,#855,#856,#857,#858,#859,#860));
#166=EDGE_LOOP('',(#861,#862,#863,#864));
#167=EDGE_LOOP('',(#865,#866,#867,#868));
#168=EDGE_LOOP('',(#869,#870,#871,#872));
#169=EDGE_LOOP('',(#873,#874,#875,#876));
#170=EDGE_LOOP('',(#877,#878,#879,#880));
#171=EDGE_LOOP('',(#881,#882,#883,#884));
#172=EDGE_LOOP('',(#885,#886,#887,#888));
#173=EDGE_LOOP('',(#889,#890,#891,#892));
#174=EDGE_LOOP('',(#893,#894,#895,#896));
#175=EDGE_LOOP('',(#897,#898,#899,#900,#901,#902,#903,#904,#905,#906));
#176=EDGE_LOOP('',(#907,#908,#909,#910));
#177=EDGE_LOOP('',(#911,#912,#913,#914,#915,#916,#917,#918,#919,#920));
#178=EDGE_LOOP('',(#921,#922,#923,#924));
#179=EDGE_LOOP('',(#925,#926,#927,#928));
#180=EDGE_LOOP('',(#929,#930,#931,#932));
#181=EDGE_LOOP('',(#933,#934,#935,#936));
#182=EDGE_LOOP('',(#937,#938,#939,#940));
#183=EDGE_LOOP('',(#941,#942,#943,#944));
#184=EDGE_LOOP('',(#945,#946,#947,#948));
#185=EDGE_LOOP('',(#949,#950,#951,#952));
#186=EDGE_LOOP('',(#953,#954,#955,#956));
#187=EDGE_LOOP('',(#957,#958,#959,#960));
#188=EDGE_LOOP('',(#961,#962,#963,#964));
#189=EDGE_LOOP('',(#965,#966,#967,#968));
#190=EDGE_LOOP('',(#969,#970,#971,#972));
#191=EDGE_LOOP('',(#973,#974,#975,#976));
#192=EDGE_LOOP('',(#977,#978,#979,#980));
#193=EDGE_LOOP('',(#981,#982,#983,#984));
#194=EDGE_LOOP('',(#985,#986,#987,#988));
#195=EDGE_LOOP('',(#989,#990,#991,#992));
#196=EDGE_LOOP('',(#993,#994,#995,#996,#997,#998,#999,#1000,#1001,#1002,
#1003,#1004,#1005,#1006,#1007,#1008,#1009,#1010,#1011,#1012));
#197=EDGE_LOOP('',(#1013,#1014,#1015,#1016));
#198=EDGE_LOOP('',(#1017,#1018,#1019,#1020,#1021,#1022));
#199=EDGE_LOOP('',(#1023,#1024,#1025,#1026));
#200=EDGE_LOOP('',(#1027,#1028,#1029,#1030,#1031,#1032));
#201=EDGE_LOOP('',(#1033,#1034,#1035,#1036,#1037,#1038,#1039,#1040,#1041,
#1042,#1043,#1044,#1045,#1046,#1047,#1048,#1049,#1050,#1051,#1052));
#202=EDGE_LOOP('',(#1053,#1054,#1055,#1056));
#203=EDGE_LOOP('',(#1057,#1058,#1059,#1060));
#204=EDGE_LOOP('',(#1061));
#205=EDGE_LOOP('',(#1062,#1063,#1064,#1065));
#206=EDGE_LOOP('',(#1066));
#207=EDGE_LOOP('',(#1067,#1068,#1069,#1070));
#208=EDGE_LOOP('',(#1071));
#209=EDGE_LOOP('',(#1072,#1073,#1074,#1075));
#210=EDGE_LOOP('',(#1076));
#211=EDGE_LOOP('',(#1077,#1078,#1079,#1080));
#212=EDGE_LOOP('',(#1081,#1082,#1083,#1084));
#213=EDGE_LOOP('',(#1085,#1086,#1087,#1088,#1089,#1090));
#214=EDGE_LOOP('',(#1091,#1092,#1093,#1094));
#215=EDGE_LOOP('',(#1095,#1096,#1097,#1098));
#216=EDGE_LOOP('',(#1099,#1100,#1101,#1102));
#217=EDGE_LOOP('',(#1103,#1104,#1105,#1106));
#218=EDGE_LOOP('',(#1107,#1108,#1109,#1110,#1111,#1112));
#219=EDGE_LOOP('',(#1113));
#220=EDGE_LOOP('',(#1114));
#221=EDGE_LOOP('',(#1115));
#222=EDGE_LOOP('',(#1116));
#223=EDGE_LOOP('',(#1117,#1118,#1119,#1120));
#224=EDGE_LOOP('',(#1121,#1122,#1123,#1124));
#225=EDGE_LOOP('',(#1125,#1126,#1127,#1128));
#226=EDGE_LOOP('',(#1129,#1130,#1131,#1132));
#227=EDGE_LOOP('',(#1133,#1134,#1135,#1136));
#228=EDGE_LOOP('',(#1137,#1138,#1139,#1140));
#229=LINE('',#1777,#377);
#230=LINE('',#1779,#378);
#231=LINE('',#1781,#379);
#232=LINE('',#1782,#380);
#233=LINE('',#1786,#381);
#234=LINE('',#1787,#382);
#235=LINE('',#1788,#383);
#236=LINE('',#1791,#384);
#237=LINE('',#1793,#385);
#238=LINE('',#1794,#386);
#239=LINE('',#1797,#387);
#240=LINE('',#1799,#388);
#241=LINE('',#1800,#389);
#242=LINE('',#1804,#390);
#243=LINE('',#1806,#391);
#244=LINE('',#1808,#392);
#245=LINE('',#1809,#393);
#246=LINE('',#1811,#394);
#247=LINE('',#1812,#395);
#248=LINE('',#1815,#396);
#249=LINE('',#1817,#397);
#250=LINE('',#1818,#398);
#251=LINE('',#1822,#399);
#252=LINE('',#1823,#400);
#253=LINE('',#1824,#401);
#254=LINE('',#1827,#402);
#255=LINE('',#1828,#403);
#256=LINE('',#1831,#404);
#257=LINE('',#1832,#405);
#258=LINE('',#1834,#406);
#259=LINE('',#1840,#407);
#260=LINE('',#1842,#408);
#261=LINE('',#1844,#409);
#262=LINE('',#1845,#410);
#263=LINE('',#1849,#411);
#264=LINE('',#1850,#412);
#265=LINE('',#1851,#413);
#266=LINE('',#1854,#414);
#267=LINE('',#1856,#415);
#268=LINE('',#1857,#416);
#269=LINE('',#1860,#417);
#270=LINE('',#1862,#418);
#271=LINE('',#1863,#419);
#272=LINE('',#1867,#420);
#273=LINE('',#1869,#421);
#274=LINE('',#1871,#422);
#275=LINE('',#1872,#423);
#276=LINE('',#1874,#424);
#277=LINE('',#1875,#425);
#278=LINE('',#1878,#426);
#279=LINE('',#1880,#427);
#280=LINE('',#1881,#428);
#281=LINE('',#1885,#429);
#282=LINE('',#1886,#430);
#283=LINE('',#1887,#431);
#284=LINE('',#1890,#432);
#285=LINE('',#1891,#433);
#286=LINE('',#1894,#434);
#287=LINE('',#1895,#435);
#288=LINE('',#1897,#436);
#289=LINE('',#1903,#437);
#290=LINE('',#1905,#438);
#291=LINE('',#1907,#439);
#292=LINE('',#1908,#440);
#293=LINE('',#1912,#441);
#294=LINE('',#1914,#442);
#295=LINE('',#1916,#443);
#296=LINE('',#1917,#444);
#297=LINE('',#1924,#445);
#298=LINE('',#1926,#446);
#299=LINE('',#1928,#447);
#300=LINE('',#1929,#448);
#301=LINE('',#1933,#449);
#302=LINE('',#1935,#450);
#303=LINE('',#1937,#451);
#304=LINE('',#1938,#452);
#305=LINE('',#1945,#453);
#306=LINE('',#1947,#454);
#307=LINE('',#1949,#455);
#308=LINE('',#1950,#456);
#309=LINE('',#1954,#457);
#310=LINE('',#1956,#458);
#311=LINE('',#1958,#459);
#312=LINE('',#1959,#460);
#313=LINE('',#1966,#461);
#314=LINE('',#1968,#462);
#315=LINE('',#1970,#463);
#316=LINE('',#1971,#464);
#317=LINE('',#1975,#465);
#318=LINE('',#1977,#466);
#319=LINE('',#1979,#467);
#320=LINE('',#1980,#468);
#321=LINE('',#1986,#469);
#322=LINE('',#1988,#470);
#323=LINE('',#1989,#471);
#324=LINE('',#1992,#472);
#325=LINE('',#1994,#473);
#326=LINE('',#1995,#474);
#327=LINE('',#1997,#475);
#328=LINE('',#1998,#476);
#329=LINE('',#2000,#477);
#330=LINE('',#2001,#478);
#331=LINE('',#2003,#479);
#332=LINE('',#2004,#480);
#333=LINE('',#2007,#481);
#334=LINE('',#2009,#482);
#335=LINE('',#2010,#483);
#336=LINE('',#2013,#484);
#337=LINE('',#2015,#485);
#338=LINE('',#2016,#486);
#339=LINE('',#2019,#487);
#340=LINE('',#2021,#488);
#341=LINE('',#2022,#489);
#342=LINE('',#2025,#490);
#343=LINE('',#2026,#491);
#344=LINE('',#2029,#492);
#345=LINE('',#2030,#493);
#346=LINE('',#2032,#494);
#347=LINE('',#2040,#495);
#348=LINE('',#2047,#496);
#349=LINE('',#2054,#497);
#350=LINE('',#2061,#498);
#351=LINE('',#2069,#499);
#352=LINE('',#2072,#500);
#353=LINE('',#2075,#501);
#354=LINE('',#2077,#502);
#355=LINE('',#2078,#503);
#356=LINE('',#2081,#504);
#357=LINE('',#2085,#505);
#358=LINE('',#2086,#506);
#359=LINE('',#2091,#507);
#360=LINE('',#2092,#508);
#361=LINE('',#2095,#509);
#362=LINE('',#2096,#510);
#363=LINE('',#2098,#511);
#364=LINE('',#2100,#512);
#365=LINE('',#2105,#513);
#366=LINE('',#2107,#514);
#367=LINE('',#2109,#515);
#368=LINE('',#2110,#516);
#369=LINE('',#2113,#517);
#370=LINE('',#2115,#518);
#371=LINE('',#2116,#519);
#372=LINE('',#2119,#520);
#373=LINE('',#2121,#521);
#374=LINE('',#2122,#522);
#375=LINE('',#2124,#523);
#376=LINE('',#2125,#524);
#377=VECTOR('',#1428,10.);
#378=VECTOR('',#1429,10.);
#379=VECTOR('',#1430,10.);
#380=VECTOR('',#1431,10.);
#381=VECTOR('',#1434,10.);
#382=VECTOR('',#1435,10.);
#383=VECTOR('',#1436,10.);
#384=VECTOR('',#1439,10.);
#385=VECTOR('',#1440,10.);
#386=VECTOR('',#1441,10.);
#387=VECTOR('',#1444,10.);
#388=VECTOR('',#1445,10.);
#389=VECTOR('',#1446,10.);
#390=VECTOR('',#1449,10.);
#391=VECTOR('',#1450,10.);
#392=VECTOR('',#1451,10.);
#393=VECTOR('',#1452,10.);
#394=VECTOR('',#1455,10.);
#395=VECTOR('',#1456,10.);
#396=VECTOR('',#1459,10.);
#397=VECTOR('',#1460,10.);
#398=VECTOR('',#1461,10.);
#399=VECTOR('',#1464,10.);
#400=VECTOR('',#1465,10.);
#401=VECTOR('',#1466,10.);
#402=VECTOR('',#1469,10.);
#403=VECTOR('',#1470,10.);
#404=VECTOR('',#1473,10.);
#405=VECTOR('',#1474,10.);
#406=VECTOR('',#1477,10.);
#407=VECTOR('',#1484,10.);
#408=VECTOR('',#1485,10.);
#409=VECTOR('',#1486,10.);
#410=VECTOR('',#1487,10.);
#411=VECTOR('',#1490,10.);
#412=VECTOR('',#1491,10.);
#413=VECTOR('',#1492,10.);
#414=VECTOR('',#1495,10.);
#415=VECTOR('',#1496,10.);
#416=VECTOR('',#1497,10.);
#417=VECTOR('',#1500,10.);
#418=VECTOR('',#1501,10.);
#419=VECTOR('',#1502,10.);
#420=VECTOR('',#1505,10.);
#421=VECTOR('',#1506,10.);
#422=VECTOR('',#1507,10.);
#423=VECTOR('',#1508,10.);
#424=VECTOR('',#1511,10.);
#425=VECTOR('',#1512,10.);
#426=VECTOR('',#1515,10.);
#427=VECTOR('',#1516,10.);
#428=VECTOR('',#1517,10.);
#429=VECTOR('',#1520,10.);
#430=VECTOR('',#1521,10.);
#431=VECTOR('',#1522,10.);
#432=VECTOR('',#1525,10.);
#433=VECTOR('',#1526,10.);
#434=VECTOR('',#1529,10.);
#435=VECTOR('',#1530,10.);
#436=VECTOR('',#1533,10.);
#437=VECTOR('',#1540,10.);
#438=VECTOR('',#1541,10.);
#439=VECTOR('',#1542,10.);
#440=VECTOR('',#1543,10.);
#441=VECTOR('',#1546,10.);
#442=VECTOR('',#1547,10.);
#443=VECTOR('',#1548,10.);
#444=VECTOR('',#1549,10.);
#445=VECTOR('',#1558,10.);
#446=VECTOR('',#1559,10.);
#447=VECTOR('',#1560,10.);
#448=VECTOR('',#1561,10.);
#449=VECTOR('',#1564,10.);
#450=VECTOR('',#1565,10.);
#451=VECTOR('',#1566,10.);
#452=VECTOR('',#1567,10.);
#453=VECTOR('',#1576,10.);
#454=VECTOR('',#1577,10.);
#455=VECTOR('',#1578,10.);
#456=VECTOR('',#1579,10.);
#457=VECTOR('',#1582,10.);
#458=VECTOR('',#1583,10.);
#459=VECTOR('',#1584,10.);
#460=VECTOR('',#1585,10.);
#461=VECTOR('',#1594,10.);
#462=VECTOR('',#1595,10.);
#463=VECTOR('',#1596,10.);
#464=VECTOR('',#1597,10.);
#465=VECTOR('',#1600,10.);
#466=VECTOR('',#1601,10.);
#467=VECTOR('',#1602,10.);
#468=VECTOR('',#1603,10.);
#469=VECTOR('',#1612,10.);
#470=VECTOR('',#1613,10.);
#471=VECTOR('',#1614,10.);
#472=VECTOR('',#1617,10.);
#473=VECTOR('',#1618,10.);
#474=VECTOR('',#1619,10.);
#475=VECTOR('',#1622,10.);
#476=VECTOR('',#1623,10.);
#477=VECTOR('',#1626,10.);
#478=VECTOR('',#1627,10.);
#479=VECTOR('',#1630,10.);
#480=VECTOR('',#1631,10.);
#481=VECTOR('',#1634,10.);
#482=VECTOR('',#1635,10.);
#483=VECTOR('',#1636,10.);
#484=VECTOR('',#1639,10.);
#485=VECTOR('',#1640,10.);
#486=VECTOR('',#1641,10.);
#487=VECTOR('',#1644,10.);
#488=VECTOR('',#1645,10.);
#489=VECTOR('',#1646,10.);
#490=VECTOR('',#1649,10.);
#491=VECTOR('',#1650,10.);
#492=VECTOR('',#1653,10.);
#493=VECTOR('',#1654,10.);
#494=VECTOR('',#1657,10.);
#495=VECTOR('',#1668,12.5);
#496=VECTOR('',#1677,12.5);
#497=VECTOR('',#1686,12.5);
#498=VECTOR('',#1695,12.5);
#499=VECTOR('',#1704,10.);
#500=VECTOR('',#1707,10.);
#501=VECTOR('',#1710,10.);
#502=VECTOR('',#1711,10.);
#503=VECTOR('',#1712,10.);
#504=VECTOR('',#1715,10.);
#505=VECTOR('',#1718,10.);
#506=VECTOR('',#1719,10.);
#507=VECTOR('',#1724,10.);
#508=VECTOR('',#1725,10.);
#509=VECTOR('',#1728,10.);
#510=VECTOR('',#1729,10.);
#511=VECTOR('',#1732,10.);
#512=VECTOR('',#1735,10.);
#513=VECTOR('',#1740,10.);
#514=VECTOR('',#1741,10.);
#515=VECTOR('',#1742,10.);
#516=VECTOR('',#1743,10.);
#517=VECTOR('',#1746,10.);
#518=VECTOR('',#1747,10.);
#519=VECTOR('',#1748,10.);
#520=VECTOR('',#1751,10.);
#521=VECTOR('',#1752,10.);
#522=VECTOR('',#1753,10.);
#523=VECTOR('',#1756,10.);
#524=VECTOR('',#1757,10.);
#525=VERTEX_POINT('',#1775);
#526=VERTEX_POINT('',#1776);
#527=VERTEX_POINT('',#1778);
#528=VERTEX_POINT('',#1780);
#529=VERTEX_POINT('',#1784);
#530=VERTEX_POINT('',#1785);
#531=VERTEX_POINT('',#1790);
#532=VERTEX_POINT('',#1792);
#533=VERTEX_POINT('',#1796);
#534=VERTEX_POINT('',#1798);
#535=VERTEX_POINT('',#1802);
#536=VERTEX_POINT('',#1803);
#537=VERTEX_POINT('',#1805);
#538=VERTEX_POINT('',#1807);
#539=VERTEX_POINT('',#1814);
#540=VERTEX_POINT('',#1816);
#541=VERTEX_POINT('',#1820);
#542=VERTEX_POINT('',#1821);
#543=VERTEX_POINT('',#1826);
#544=VERTEX_POINT('',#1830);
#545=VERTEX_POINT('',#1838);
#546=VERTEX_POINT('',#1839);
#547=VERTEX_POINT('',#1841);
#548=VERTEX_POINT('',#1843);
#549=VERTEX_POINT('',#1847);
#550=VERTEX_POINT('',#1848);
#551=VERTEX_POINT('',#1853);
#552=VERTEX_POINT('',#1855);
#553=VERTEX_POINT('',#1859);
#554=VERTEX_POINT('',#1861);
#555=VERTEX_POINT('',#1865);
#556=VERTEX_POINT('',#1866);
#557=VERTEX_POINT('',#1868);
#558=VERTEX_POINT('',#1870);
#559=VERTEX_POINT('',#1877);
#560=VERTEX_POINT('',#1879);
#561=VERTEX_POINT('',#1883);
#562=VERTEX_POINT('',#1884);
#563=VERTEX_POINT('',#1889);
#564=VERTEX_POINT('',#1893);
#565=VERTEX_POINT('',#1901);
#566=VERTEX_POINT('',#1902);
#567=VERTEX_POINT('',#1904);
#568=VERTEX_POINT('',#1906);
#569=VERTEX_POINT('',#1910);
#570=VERTEX_POINT('',#1911);
#571=VERTEX_POINT('',#1913);
#572=VERTEX_POINT('',#1915);
#573=VERTEX_POINT('',#1922);
#574=VERTEX_POINT('',#1923);
#575=VERTEX_POINT('',#1925);
#576=VERTEX_POINT('',#1927);
#577=VERTEX_POINT('',#1931);
#578=VERTEX_POINT('',#1932);
#579=VERTEX_POINT('',#1934);
#580=VERTEX_POINT('',#1936);
#581=VERTEX_POINT('',#1943);
#582=VERTEX_POINT('',#1944);
#583=VERTEX_POINT('',#1946);
#584=VERTEX_POINT('',#1948);
#585=VERTEX_POINT('',#1952);
#586=VERTEX_POINT('',#1953);
#587=VERTEX_POINT('',#1955);
#588=VERTEX_POINT('',#1957);
#589=VERTEX_POINT('',#1964);
#590=VERTEX_POINT('',#1965);
#591=VERTEX_POINT('',#1967);
#592=VERTEX_POINT('',#1969);
#593=VERTEX_POINT('',#1973);
#594=VERTEX_POINT('',#1974);
#595=VERTEX_POINT('',#1976);
#596=VERTEX_POINT('',#1978);
#597=VERTEX_POINT('',#1985);
#598=VERTEX_POINT('',#1987);
#599=VERTEX_POINT('',#1991);
#600=VERTEX_POINT('',#1993);
#601=VERTEX_POINT('',#2006);
#602=VERTEX_POINT('',#2008);
#603=VERTEX_POINT('',#2012);
#604=VERTEX_POINT('',#2014);
#605=VERTEX_POINT('',#2018);
#606=VERTEX_POINT('',#2020);
#607=VERTEX_POINT('',#2024);
#608=VERTEX_POINT('',#2028);
#609=VERTEX_POINT('',#2037);
#610=VERTEX_POINT('',#2039);
#611=VERTEX_POINT('',#2044);
#612=VERTEX_POINT('',#2046);
#613=VERTEX_POINT('',#2051);
#614=VERTEX_POINT('',#2053);
#615=VERTEX_POINT('',#2058);
#616=VERTEX_POINT('',#2060);
#617=VERTEX_POINT('',#2065);
#618=VERTEX_POINT('',#2066);
#619=VERTEX_POINT('',#2068);
#620=VERTEX_POINT('',#2070);
#621=VERTEX_POINT('',#2074);
#622=VERTEX_POINT('',#2076);
#623=VERTEX_POINT('',#2080);
#624=VERTEX_POINT('',#2082);
#625=VERTEX_POINT('',#2084);
#626=VERTEX_POINT('',#2088);
#627=VERTEX_POINT('',#2089);
#628=VERTEX_POINT('',#2094);
#629=VERTEX_POINT('',#2103);
#630=VERTEX_POINT('',#2104);
#631=VERTEX_POINT('',#2106);
#632=VERTEX_POINT('',#2108);
#633=VERTEX_POINT('',#2112);
#634=VERTEX_POINT('',#2114);
#635=VERTEX_POINT('',#2118);
#636=VERTEX_POINT('',#2120);
#637=EDGE_CURVE('',#525,#526,#229,.T.);
#638=EDGE_CURVE('',#525,#527,#230,.T.);
#639=EDGE_CURVE('',#528,#527,#231,.T.);
#640=EDGE_CURVE('',#526,#528,#232,.T.);
#641=EDGE_CURVE('',#529,#530,#233,.T.);
#642=EDGE_CURVE('',#529,#528,#234,.T.);
#643=EDGE_CURVE('',#527,#530,#235,.T.);
#644=EDGE_CURVE('',#530,#531,#236,.T.);
#645=EDGE_CURVE('',#531,#532,#237,.T.);
#646=EDGE_CURVE('',#532,#529,#238,.T.);
#647=EDGE_CURVE('',#526,#533,#239,.T.);
#648=EDGE_CURVE('',#534,#533,#240,.T.);
#649=EDGE_CURVE('',#525,#534,#241,.T.);
#650=EDGE_CURVE('',#535,#536,#242,.T.);
#651=EDGE_CURVE('',#535,#537,#243,.T.);
#652=EDGE_CURVE('',#538,#537,#244,.T.);
#653=EDGE_CURVE('',#536,#538,#245,.T.);
#654=EDGE_CURVE('',#533,#538,#246,.T.);
#655=EDGE_CURVE('',#537,#534,#247,.T.);
#656=EDGE_CURVE('',#536,#539,#248,.T.);
#657=EDGE_CURVE('',#539,#540,#249,.T.);
#658=EDGE_CURVE('',#540,#535,#250,.T.);
#659=EDGE_CURVE('',#541,#542,#251,.T.);
#660=EDGE_CURVE('',#541,#532,#252,.T.);
#661=EDGE_CURVE('',#542,#531,#253,.T.);
#662=EDGE_CURVE('',#542,#543,#254,.T.);
#663=EDGE_CURVE('',#543,#540,#255,.T.);
#664=EDGE_CURVE('',#543,#544,#256,.T.);
#665=EDGE_CURVE('',#544,#539,#257,.T.);
#666=EDGE_CURVE('',#544,#541,#258,.T.);
#667=EDGE_CURVE('',#545,#546,#259,.T.);
#668=EDGE_CURVE('',#545,#547,#260,.T.);
#669=EDGE_CURVE('',#548,#547,#261,.T.);
#670=EDGE_CURVE('',#546,#548,#262,.T.);
#671=EDGE_CURVE('',#549,#550,#263,.T.);
#672=EDGE_CURVE('',#549,#548,#264,.T.);
#673=EDGE_CURVE('',#547,#550,#265,.T.);
#674=EDGE_CURVE('',#550,#551,#266,.T.);
#675=EDGE_CURVE('',#551,#552,#267,.T.);
#676=EDGE_CURVE('',#552,#549,#268,.T.);
#677=EDGE_CURVE('',#546,#553,#269,.T.);
#678=EDGE_CURVE('',#554,#553,#270,.T.);
#679=EDGE_CURVE('',#545,#554,#271,.T.);
#680=EDGE_CURVE('',#555,#556,#272,.T.);
#681=EDGE_CURVE('',#555,#557,#273,.T.);
#682=EDGE_CURVE('',#558,#557,#274,.T.);
#683=EDGE_CURVE('',#556,#558,#275,.T.);
#684=EDGE_CURVE('',#553,#558,#276,.T.);
#685=EDGE_CURVE('',#557,#554,#277,.T.);
#686=EDGE_CURVE('',#556,#559,#278,.T.);
#687=EDGE_CURVE('',#559,#560,#279,.T.);
#688=EDGE_CURVE('',#560,#555,#280,.T.);
#689=EDGE_CURVE('',#561,#562,#281,.T.);
#690=EDGE_CURVE('',#561,#552,#282,.T.);
#691=EDGE_CURVE('',#562,#551,#283,.T.);
#692=EDGE_CURVE('',#562,#563,#284,.T.);
#693=EDGE_CURVE('',#563,#560,#285,.T.);
#694=EDGE_CURVE('',#563,#564,#286,.T.);
#695=EDGE_CURVE('',#564,#559,#287,.T.);
#696=EDGE_CURVE('',#564,#561,#288,.T.);
#697=EDGE_CURVE('',#565,#566,#289,.T.);
#698=EDGE_CURVE('',#567,#565,#290,.T.);
#699=EDGE_CURVE('',#568,#567,#291,.T.);
#700=EDGE_CURVE('',#566,#568,#292,.T.);
#701=EDGE_CURVE('',#569,#570,#293,.T.);
#702=EDGE_CURVE('',#569,#571,#294,.T.);
#703=EDGE_CURVE('',#572,#571,#295,.T.);
#704=EDGE_CURVE('',#570,#572,#296,.T.);
#705=EDGE_CURVE('',#566,#569,#35,.T.);
#706=EDGE_CURVE('',#571,#568,#36,.T.);
#707=EDGE_CURVE('',#573,#574,#297,.T.);
#708=EDGE_CURVE('',#575,#573,#298,.T.);
#709=EDGE_CURVE('',#576,#575,#299,.T.);
#710=EDGE_CURVE('',#574,#576,#300,.T.);
#711=EDGE_CURVE('',#577,#578,#301,.T.);
#712=EDGE_CURVE('',#577,#579,#302,.T.);
#713=EDGE_CURVE('',#580,#579,#303,.T.);
#714=EDGE_CURVE('',#578,#580,#304,.T.);
#715=EDGE_CURVE('',#574,#577,#37,.T.);
#716=EDGE_CURVE('',#579,#576,#38,.T.);
#717=EDGE_CURVE('',#581,#582,#305,.T.);
#718=EDGE_CURVE('',#583,#581,#306,.T.);
#719=EDGE_CURVE('',#584,#583,#307,.T.);
#720=EDGE_CURVE('',#582,#584,#308,.T.);
#721=EDGE_CURVE('',#585,#586,#309,.T.);
#722=EDGE_CURVE('',#585,#587,#310,.T.);
#723=EDGE_CURVE('',#588,#587,#311,.T.);
#724=EDGE_CURVE('',#586,#588,#312,.T.);
#725=EDGE_CURVE('',#582,#585,#39,.T.);
#726=EDGE_CURVE('',#587,#584,#40,.T.);
#727=EDGE_CURVE('',#589,#590,#313,.T.);
#728=EDGE_CURVE('',#591,#589,#314,.T.);
#729=EDGE_CURVE('',#592,#591,#315,.T.);
#730=EDGE_CURVE('',#590,#592,#316,.T.);
#731=EDGE_CURVE('',#593,#594,#317,.T.);
#732=EDGE_CURVE('',#593,#595,#318,.T.);
#733=EDGE_CURVE('',#596,#595,#319,.T.);
#734=EDGE_CURVE('',#594,#596,#320,.T.);
#735=EDGE_CURVE('',#590,#593,#41,.T.);
#736=EDGE_CURVE('',#595,#592,#42,.T.);
#737=EDGE_CURVE('',#596,#597,#321,.T.);
#738=EDGE_CURVE('',#597,#598,#322,.T.);
#739=EDGE_CURVE('',#598,#594,#323,.T.);
#740=EDGE_CURVE('',#581,#599,#324,.T.);
#741=EDGE_CURVE('',#599,#600,#325,.T.);
#742=EDGE_CURVE('',#600,#583,#326,.T.);
#743=EDGE_CURVE('',#580,#591,#327,.T.);
#744=EDGE_CURVE('',#589,#578,#328,.T.);
#745=EDGE_CURVE('',#565,#586,#329,.T.);
#746=EDGE_CURVE('',#588,#567,#330,.T.);
#747=EDGE_CURVE('',#572,#575,#331,.T.);
#748=EDGE_CURVE('',#573,#570,#332,.T.);
#749=EDGE_CURVE('',#601,#600,#333,.T.);
#750=EDGE_CURVE('',#601,#602,#334,.T.);
#751=EDGE_CURVE('',#597,#602,#335,.T.);
#752=EDGE_CURVE('',#602,#603,#336,.T.);
#753=EDGE_CURVE('',#604,#601,#337,.T.);
#754=EDGE_CURVE('',#603,#604,#338,.T.);
#755=EDGE_CURVE('',#605,#603,#339,.T.);
#756=EDGE_CURVE('',#605,#606,#340,.T.);
#757=EDGE_CURVE('',#606,#598,#341,.T.);
#758=EDGE_CURVE('',#607,#604,#342,.T.);
#759=EDGE_CURVE('',#607,#605,#343,.T.);
#760=EDGE_CURVE('',#608,#599,#344,.T.);
#761=EDGE_CURVE('',#608,#607,#345,.T.);
#762=EDGE_CURVE('',#606,#608,#346,.T.);
#763=EDGE_CURVE('',#609,#609,#43,.T.);
#764=EDGE_CURVE('',#609,#610,#347,.T.);
#765=EDGE_CURVE('',#610,#610,#44,.T.);
#766=EDGE_CURVE('',#611,#611,#45,.T.);
#767=EDGE_CURVE('',#611,#612,#348,.T.);
#768=EDGE_CURVE('',#612,#612,#46,.T.);
#769=EDGE_CURVE('',#613,#613,#47,.T.);
#770=EDGE_CURVE('',#613,#614,#349,.T.);
#771=EDGE_CURVE('',#614,#614,#48,.T.);
#772=EDGE_CURVE('',#615,#615,#49,.T.);
#773=EDGE_CURVE('',#615,#616,#350,.T.);
#774=EDGE_CURVE('',#616,#616,#50,.T.);
#775=EDGE_CURVE('',#617,#618,#51,.T.);
#776=EDGE_CURVE('',#618,#619,#351,.T.);
#777=EDGE_CURVE('',#619,#620,#52,.T.);
#778=EDGE_CURVE('',#620,#617,#352,.T.);
#779=EDGE_CURVE('',#620,#621,#353,.T.);
#780=EDGE_CURVE('',#621,#622,#354,.T.);
#781=EDGE_CURVE('',#617,#622,#355,.T.);
#782=EDGE_CURVE('',#623,#619,#356,.T.);
#783=EDGE_CURVE('',#624,#623,#53,.T.);
#784=EDGE_CURVE('',#625,#624,#357,.T.);
#785=EDGE_CURVE('',#621,#625,#358,.T.);
#786=EDGE_CURVE('',#626,#627,#54,.T.);
#787=EDGE_CURVE('',#627,#624,#359,.T.);
#788=EDGE_CURVE('',#623,#626,#360,.T.);
#789=EDGE_CURVE('',#628,#627,#361,.T.);
#790=EDGE_CURVE('',#625,#628,#362,.T.);
#791=EDGE_CURVE('',#626,#618,#363,.T.);
#792=EDGE_CURVE('',#622,#628,#364,.T.);
#793=EDGE_CURVE('',#629,#630,#365,.T.);
#794=EDGE_CURVE('',#630,#631,#366,.T.);
#795=EDGE_CURVE('',#632,#631,#367,.T.);
#796=EDGE_CURVE('',#629,#632,#368,.T.);
#797=EDGE_CURVE('',#633,#629,#369,.T.);
#798=EDGE_CURVE('',#634,#632,#370,.T.);
#799=EDGE_CURVE('',#633,#634,#371,.T.);
#800=EDGE_CURVE('',#635,#633,#372,.T.);
#801=EDGE_CURVE('',#636,#634,#373,.T.);
#802=EDGE_CURVE('',#635,#636,#374,.T.);
#803=EDGE_CURVE('',#630,#635,#375,.T.);
#804=EDGE_CURVE('',#631,#636,#376,.T.);
#805=ORIENTED_EDGE('',*,*,#637,.F.);
#806=ORIENTED_EDGE('',*,*,#638,.T.);
#807=ORIENTED_EDGE('',*,*,#639,.F.);
#808=ORIENTED_EDGE('',*,*,#640,.F.);
#809=ORIENTED_EDGE('',*,*,#641,.F.);
#810=ORIENTED_EDGE('',*,*,#642,.T.);
#811=ORIENTED_EDGE('',*,*,#639,.T.);
#812=ORIENTED_EDGE('',*,*,#643,.T.);
#813=ORIENTED_EDGE('',*,*,#641,.T.);
#814=ORIENTED_EDGE('',*,*,#644,.T.);
#815=ORIENTED_EDGE('',*,*,#645,.T.);
#816=ORIENTED_EDGE('',*,*,#646,.T.);
#817=ORIENTED_EDGE('',*,*,#637,.T.);
#818=ORIENTED_EDGE('',*,*,#647,.T.);
#819=ORIENTED_EDGE('',*,*,#648,.F.);
#820=ORIENTED_EDGE('',*,*,#649,.F.);
#821=ORIENTED_EDGE('',*,*,#650,.F.);
#822=ORIENTED_EDGE('',*,*,#651,.T.);
#823=ORIENTED_EDGE('',*,*,#652,.F.);
#824=ORIENTED_EDGE('',*,*,#653,.F.);
#825=ORIENTED_EDGE('',*,*,#654,.T.);
#826=ORIENTED_EDGE('',*,*,#652,.T.);
#827=ORIENTED_EDGE('',*,*,#655,.T.);
#828=ORIENTED_EDGE('',*,*,#648,.T.);
#829=ORIENTED_EDGE('',*,*,#650,.T.);
#830=ORIENTED_EDGE('',*,*,#656,.T.);
#831=ORIENTED_EDGE('',*,*,#657,.T.);
#832=ORIENTED_EDGE('',*,*,#658,.T.);
#833=ORIENTED_EDGE('',*,*,#659,.F.);
#834=ORIENTED_EDGE('',*,*,#660,.T.);
#835=ORIENTED_EDGE('',*,*,#645,.F.);
#836=ORIENTED_EDGE('',*,*,#661,.F.);
#837=ORIENTED_EDGE('',*,*,#662,.F.);
#838=ORIENTED_EDGE('',*,*,#661,.T.);
#839=ORIENTED_EDGE('',*,*,#644,.F.);
#840=ORIENTED_EDGE('',*,*,#643,.F.);
#841=ORIENTED_EDGE('',*,*,#638,.F.);
#842=ORIENTED_EDGE('',*,*,#649,.T.);
#843=ORIENTED_EDGE('',*,*,#655,.F.);
#844=ORIENTED_EDGE('',*,*,#651,.F.);
#845=ORIENTED_EDGE('',*,*,#658,.F.);
#846=ORIENTED_EDGE('',*,*,#663,.F.);
#847=ORIENTED_EDGE('',*,*,#664,.F.);
#848=ORIENTED_EDGE('',*,*,#663,.T.);
#849=ORIENTED_EDGE('',*,*,#657,.F.);
#850=ORIENTED_EDGE('',*,*,#665,.F.);
#851=ORIENTED_EDGE('',*,*,#666,.F.);
#852=ORIENTED_EDGE('',*,*,#665,.T.);
#853=ORIENTED_EDGE('',*,*,#656,.F.);
#854=ORIENTED_EDGE('',*,*,#653,.T.);
#855=ORIENTED_EDGE('',*,*,#654,.F.);
#856=ORIENTED_EDGE('',*,*,#647,.F.);
#857=ORIENTED_EDGE('',*,*,#640,.T.);
#858=ORIENTED_EDGE('',*,*,#642,.F.);
#859=ORIENTED_EDGE('',*,*,#646,.F.);
#860=ORIENTED_EDGE('',*,*,#660,.F.);
#861=ORIENTED_EDGE('',*,*,#666,.T.);
#862=ORIENTED_EDGE('',*,*,#659,.T.);
#863=ORIENTED_EDGE('',*,*,#662,.T.);
#864=ORIENTED_EDGE('',*,*,#664,.T.);
#865=ORIENTED_EDGE('',*,*,#667,.F.);
#866=ORIENTED_EDGE('',*,*,#668,.T.);
#867=ORIENTED_EDGE('',*,*,#669,.F.);
#868=ORIENTED_EDGE('',*,*,#670,.F.);
#869=ORIENTED_EDGE('',*,*,#671,.F.);
#870=ORIENTED_EDGE('',*,*,#672,.T.);
#871=ORIENTED_EDGE('',*,*,#669,.T.);
#872=ORIENTED_EDGE('',*,*,#673,.T.);
#873=ORIENTED_EDGE('',*,*,#671,.T.);
#874=ORIENTED_EDGE('',*,*,#674,.T.);
#875=ORIENTED_EDGE('',*,*,#675,.T.);
#876=ORIENTED_EDGE('',*,*,#676,.T.);
#877=ORIENTED_EDGE('',*,*,#667,.T.);
#878=ORIENTED_EDGE('',*,*,#677,.T.);
#879=ORIENTED_EDGE('',*,*,#678,.F.);
#880=ORIENTED_EDGE('',*,*,#679,.F.);
#881=ORIENTED_EDGE('',*,*,#680,.F.);
#882=ORIENTED_EDGE('',*,*,#681,.T.);
#883=ORIENTED_EDGE('',*,*,#682,.F.);
#884=ORIENTED_EDGE('',*,*,#683,.F.);
#885=ORIENTED_EDGE('',*,*,#684,.T.);
#886=ORIENTED_EDGE('',*,*,#682,.T.);
#887=ORIENTED_EDGE('',*,*,#685,.T.);
#888=ORIENTED_EDGE('',*,*,#678,.T.);
#889=ORIENTED_EDGE('',*,*,#680,.T.);
#890=ORIENTED_EDGE('',*,*,#686,.T.);
#891=ORIENTED_EDGE('',*,*,#687,.T.);
#892=ORIENTED_EDGE('',*,*,#688,.T.);
#893=ORIENTED_EDGE('',*,*,#689,.F.);
#894=ORIENTED_EDGE('',*,*,#690,.T.);
#895=ORIENTED_EDGE('',*,*,#675,.F.);
#896=ORIENTED_EDGE('',*,*,#691,.F.);
#897=ORIENTED_EDGE('',*,*,#692,.F.);
#898=ORIENTED_EDGE('',*,*,#691,.T.);
#899=ORIENTED_EDGE('',*,*,#674,.F.);
#900=ORIENTED_EDGE('',*,*,#673,.F.);
#901=ORIENTED_EDGE('',*,*,#668,.F.);
#902=ORIENTED_EDGE('',*,*,#679,.T.);
#903=ORIENTED_EDGE('',*,*,#685,.F.);
#904=ORIENTED_EDGE('',*,*,#681,.F.);
#905=ORIENTED_EDGE('',*,*,#688,.F.);
#906=ORIENTED_EDGE('',*,*,#693,.F.);
#907=ORIENTED_EDGE('',*,*,#694,.F.);
#908=ORIENTED_EDGE('',*,*,#693,.T.);
#909=ORIENTED_EDGE('',*,*,#687,.F.);
#910=ORIENTED_EDGE('',*,*,#695,.F.);
#911=ORIENTED_EDGE('',*,*,#696,.F.);
#912=ORIENTED_EDGE('',*,*,#695,.T.);
#913=ORIENTED_EDGE('',*,*,#686,.F.);
#914=ORIENTED_EDGE('',*,*,#683,.T.);
#915=ORIENTED_EDGE('',*,*,#684,.F.);
#916=ORIENTED_EDGE('',*,*,#677,.F.);
#917=ORIENTED_EDGE('',*,*,#670,.T.);
#918=ORIENTED_EDGE('',*,*,#672,.F.);
#919=ORIENTED_EDGE('',*,*,#676,.F.);
#920=ORIENTED_EDGE('',*,*,#690,.F.);
#921=ORIENTED_EDGE('',*,*,#696,.T.);
#922=ORIENTED_EDGE('',*,*,#689,.T.);
#923=ORIENTED_EDGE('',*,*,#692,.T.);
#924=ORIENTED_EDGE('',*,*,#694,.T.);
#925=ORIENTED_EDGE('',*,*,#697,.F.);
#926=ORIENTED_EDGE('',*,*,#698,.F.);
#927=ORIENTED_EDGE('',*,*,#699,.F.);
#928=ORIENTED_EDGE('',*,*,#700,.F.);
#929=ORIENTED_EDGE('',*,*,#701,.F.);
#930=ORIENTED_EDGE('',*,*,#702,.T.);
#931=ORIENTED_EDGE('',*,*,#703,.F.);
#932=ORIENTED_EDGE('',*,*,#704,.F.);
#933=ORIENTED_EDGE('',*,*,#705,.F.);
#934=ORIENTED_EDGE('',*,*,#700,.T.);
#935=ORIENTED_EDGE('',*,*,#706,.F.);
#936=ORIENTED_EDGE('',*,*,#702,.F.);
#937=ORIENTED_EDGE('',*,*,#707,.F.);
#938=ORIENTED_EDGE('',*,*,#708,.F.);
#939=ORIENTED_EDGE('',*,*,#709,.F.);
#940=ORIENTED_EDGE('',*,*,#710,.F.);
#941=ORIENTED_EDGE('',*,*,#711,.F.);
#942=ORIENTED_EDGE('',*,*,#712,.T.);
#943=ORIENTED_EDGE('',*,*,#713,.F.);
#944=ORIENTED_EDGE('',*,*,#714,.F.);
#945=ORIENTED_EDGE('',*,*,#715,.F.);
#946=ORIENTED_EDGE('',*,*,#710,.T.);
#947=ORIENTED_EDGE('',*,*,#716,.F.);
#948=ORIENTED_EDGE('',*,*,#712,.F.);
#949=ORIENTED_EDGE('',*,*,#717,.F.);
#950=ORIENTED_EDGE('',*,*,#718,.F.);
#951=ORIENTED_EDGE('',*,*,#719,.F.);
#952=ORIENTED_EDGE('',*,*,#720,.F.);
#953=ORIENTED_EDGE('',*,*,#721,.F.);
#954=ORIENTED_EDGE('',*,*,#722,.T.);
#955=ORIENTED_EDGE('',*,*,#723,.F.);
#956=ORIENTED_EDGE('',*,*,#724,.F.);
#957=ORIENTED_EDGE('',*,*,#725,.F.);
#958=ORIENTED_EDGE('',*,*,#720,.T.);
#959=ORIENTED_EDGE('',*,*,#726,.F.);
#960=ORIENTED_EDGE('',*,*,#722,.F.);
#961=ORIENTED_EDGE('',*,*,#727,.F.);
#962=ORIENTED_EDGE('',*,*,#728,.F.);
#963=ORIENTED_EDGE('',*,*,#729,.F.);
#964=ORIENTED_EDGE('',*,*,#730,.F.);
#965=ORIENTED_EDGE('',*,*,#731,.F.);
#966=ORIENTED_EDGE('',*,*,#732,.T.);
#967=ORIENTED_EDGE('',*,*,#733,.F.);
#968=ORIENTED_EDGE('',*,*,#734,.F.);
#969=ORIENTED_EDGE('',*,*,#735,.F.);
#970=ORIENTED_EDGE('',*,*,#730,.T.);
#971=ORIENTED_EDGE('',*,*,#736,.F.);
#972=ORIENTED_EDGE('',*,*,#732,.F.);
#973=ORIENTED_EDGE('',*,*,#734,.T.);
#974=ORIENTED_EDGE('',*,*,#737,.T.);
#975=ORIENTED_EDGE('',*,*,#738,.T.);
#976=ORIENTED_EDGE('',*,*,#739,.T.);
#977=ORIENTED_EDGE('',*,*,#718,.T.);
#978=ORIENTED_EDGE('',*,*,#740,.T.);
#979=ORIENTED_EDGE('',*,*,#741,.T.);
#980=ORIENTED_EDGE('',*,*,#742,.T.);
#981=ORIENTED_EDGE('',*,*,#714,.T.);
#982=ORIENTED_EDGE('',*,*,#743,.T.);
#983=ORIENTED_EDGE('',*,*,#728,.T.);
#984=ORIENTED_EDGE('',*,*,#744,.T.);
#985=ORIENTED_EDGE('',*,*,#698,.T.);
#986=ORIENTED_EDGE('',*,*,#745,.T.);
#987=ORIENTED_EDGE('',*,*,#724,.T.);
#988=ORIENTED_EDGE('',*,*,#746,.T.);
#989=ORIENTED_EDGE('',*,*,#704,.T.);
#990=ORIENTED_EDGE('',*,*,#747,.T.);
#991=ORIENTED_EDGE('',*,*,#708,.T.);
#992=ORIENTED_EDGE('',*,*,#748,.T.);
#993=ORIENTED_EDGE('',*,*,#703,.T.);
#994=ORIENTED_EDGE('',*,*,#706,.T.);
#995=ORIENTED_EDGE('',*,*,#699,.T.);
#996=ORIENTED_EDGE('',*,*,#746,.F.);
#997=ORIENTED_EDGE('',*,*,#723,.T.);
#998=ORIENTED_EDGE('',*,*,#726,.T.);
#999=ORIENTED_EDGE('',*,*,#719,.T.);
#1000=ORIENTED_EDGE('',*,*,#742,.F.);
#1001=ORIENTED_EDGE('',*,*,#749,.F.);
#1002=ORIENTED_EDGE('',*,*,#750,.T.);
#1003=ORIENTED_EDGE('',*,*,#751,.F.);
#1004=ORIENTED_EDGE('',*,*,#737,.F.);
#1005=ORIENTED_EDGE('',*,*,#733,.T.);
#1006=ORIENTED_EDGE('',*,*,#736,.T.);
#1007=ORIENTED_EDGE('',*,*,#729,.T.);
#1008=ORIENTED_EDGE('',*,*,#743,.F.);
#1009=ORIENTED_EDGE('',*,*,#713,.T.);
#1010=ORIENTED_EDGE('',*,*,#716,.T.);
#1011=ORIENTED_EDGE('',*,*,#709,.T.);
#1012=ORIENTED_EDGE('',*,*,#747,.F.);
#1013=ORIENTED_EDGE('',*,*,#752,.F.);
#1014=ORIENTED_EDGE('',*,*,#750,.F.);
#1015=ORIENTED_EDGE('',*,*,#753,.F.);
#1016=ORIENTED_EDGE('',*,*,#754,.F.);
#1017=ORIENTED_EDGE('',*,*,#751,.T.);
#1018=ORIENTED_EDGE('',*,*,#752,.T.);
#1019=ORIENTED_EDGE('',*,*,#755,.F.);
#1020=ORIENTED_EDGE('',*,*,#756,.T.);
#1021=ORIENTED_EDGE('',*,*,#757,.T.);
#1022=ORIENTED_EDGE('',*,*,#738,.F.);
#1023=ORIENTED_EDGE('',*,*,#754,.T.);
#1024=ORIENTED_EDGE('',*,*,#758,.F.);
#1025=ORIENTED_EDGE('',*,*,#759,.T.);
#1026=ORIENTED_EDGE('',*,*,#755,.T.);
#1027=ORIENTED_EDGE('',*,*,#749,.T.);
#1028=ORIENTED_EDGE('',*,*,#741,.F.);
#1029=ORIENTED_EDGE('',*,*,#760,.F.);
#1030=ORIENTED_EDGE('',*,*,#761,.T.);
#1031=ORIENTED_EDGE('',*,*,#758,.T.);
#1032=ORIENTED_EDGE('',*,*,#753,.T.);
#1033=ORIENTED_EDGE('',*,*,#701,.T.);
#1034=ORIENTED_EDGE('',*,*,#748,.F.);
#1035=ORIENTED_EDGE('',*,*,#707,.T.);
#1036=ORIENTED_EDGE('',*,*,#715,.T.);
#1037=ORIENTED_EDGE('',*,*,#711,.T.);
#1038=ORIENTED_EDGE('',*,*,#744,.F.);
#1039=ORIENTED_EDGE('',*,*,#727,.T.);
#1040=ORIENTED_EDGE('',*,*,#735,.T.);
#1041=ORIENTED_EDGE('',*,*,#731,.T.);
#1042=ORIENTED_EDGE('',*,*,#739,.F.);
#1043=ORIENTED_EDGE('',*,*,#757,.F.);
#1044=ORIENTED_EDGE('',*,*,#762,.T.);
#1045=ORIENTED_EDGE('',*,*,#760,.T.);
#1046=ORIENTED_EDGE('',*,*,#740,.F.);
#1047=ORIENTED_EDGE('',*,*,#717,.T.);
#1048=ORIENTED_EDGE('',*,*,#725,.T.);
#1049=ORIENTED_EDGE('',*,*,#721,.T.);
#1050=ORIENTED_EDGE('',*,*,#745,.F.);
#1051=ORIENTED_EDGE('',*,*,#697,.T.);
#1052=ORIENTED_EDGE('',*,*,#705,.T.);
#1053=ORIENTED_EDGE('',*,*,#762,.F.);
#1054=ORIENTED_EDGE('',*,*,#756,.F.);
#1055=ORIENTED_EDGE('',*,*,#759,.F.);
#1056=ORIENTED_EDGE('',*,*,#761,.F.);
#1057=ORIENTED_EDGE('',*,*,#763,.F.);
#1058=ORIENTED_EDGE('',*,*,#764,.T.);
#1059=ORIENTED_EDGE('',*,*,#765,.T.);
#1060=ORIENTED_EDGE('',*,*,#764,.F.);
#1061=ORIENTED_EDGE('',*,*,#765,.F.);
#1062=ORIENTED_EDGE('',*,*,#766,.F.);
#1063=ORIENTED_EDGE('',*,*,#767,.T.);
#1064=ORIENTED_EDGE('',*,*,#768,.T.);
#1065=ORIENTED_EDGE('',*,*,#767,.F.);
#1066=ORIENTED_EDGE('',*,*,#768,.F.);
#1067=ORIENTED_EDGE('',*,*,#769,.F.);
#1068=ORIENTED_EDGE('',*,*,#770,.T.);
#1069=ORIENTED_EDGE('',*,*,#771,.T.);
#1070=ORIENTED_EDGE('',*,*,#770,.F.);
#1071=ORIENTED_EDGE('',*,*,#771,.F.);
#1072=ORIENTED_EDGE('',*,*,#772,.F.);
#1073=ORIENTED_EDGE('',*,*,#773,.T.);
#1074=ORIENTED_EDGE('',*,*,#774,.T.);
#1075=ORIENTED_EDGE('',*,*,#773,.F.);
#1076=ORIENTED_EDGE('',*,*,#774,.F.);
#1077=ORIENTED_EDGE('',*,*,#775,.T.);
#1078=ORIENTED_EDGE('',*,*,#776,.T.);
#1079=ORIENTED_EDGE('',*,*,#777,.T.);
#1080=ORIENTED_EDGE('',*,*,#778,.T.);
#1081=ORIENTED_EDGE('',*,*,#778,.F.);
#1082=ORIENTED_EDGE('',*,*,#779,.T.);
#1083=ORIENTED_EDGE('',*,*,#780,.T.);
#1084=ORIENTED_EDGE('',*,*,#781,.F.);
#1085=ORIENTED_EDGE('',*,*,#777,.F.);
#1086=ORIENTED_EDGE('',*,*,#782,.F.);
#1087=ORIENTED_EDGE('',*,*,#783,.F.);
#1088=ORIENTED_EDGE('',*,*,#784,.F.);
#1089=ORIENTED_EDGE('',*,*,#785,.F.);
#1090=ORIENTED_EDGE('',*,*,#779,.F.);
#1091=ORIENTED_EDGE('',*,*,#786,.T.);
#1092=ORIENTED_EDGE('',*,*,#787,.T.);
#1093=ORIENTED_EDGE('',*,*,#783,.T.);
#1094=ORIENTED_EDGE('',*,*,#788,.T.);
#1095=ORIENTED_EDGE('',*,*,#787,.F.);
#1096=ORIENTED_EDGE('',*,*,#789,.F.);
#1097=ORIENTED_EDGE('',*,*,#790,.F.);
#1098=ORIENTED_EDGE('',*,*,#784,.T.);
#1099=ORIENTED_EDGE('',*,*,#776,.F.);
#1100=ORIENTED_EDGE('',*,*,#791,.F.);
#1101=ORIENTED_EDGE('',*,*,#788,.F.);
#1102=ORIENTED_EDGE('',*,*,#782,.T.);
#1103=ORIENTED_EDGE('',*,*,#785,.T.);
#1104=ORIENTED_EDGE('',*,*,#790,.T.);
#1105=ORIENTED_EDGE('',*,*,#792,.F.);
#1106=ORIENTED_EDGE('',*,*,#780,.F.);
#1107=ORIENTED_EDGE('',*,*,#775,.F.);
#1108=ORIENTED_EDGE('',*,*,#781,.T.);
#1109=ORIENTED_EDGE('',*,*,#792,.T.);
#1110=ORIENTED_EDGE('',*,*,#789,.T.);
#1111=ORIENTED_EDGE('',*,*,#786,.F.);
#1112=ORIENTED_EDGE('',*,*,#791,.T.);
#1113=ORIENTED_EDGE('',*,*,#763,.T.);
#1114=ORIENTED_EDGE('',*,*,#766,.T.);
#1115=ORIENTED_EDGE('',*,*,#769,.T.);
#1116=ORIENTED_EDGE('',*,*,#772,.T.);
#1117=ORIENTED_EDGE('',*,*,#793,.T.);
#1118=ORIENTED_EDGE('',*,*,#794,.T.);
#1119=ORIENTED_EDGE('',*,*,#795,.F.);
#1120=ORIENTED_EDGE('',*,*,#796,.F.);
#1121=ORIENTED_EDGE('',*,*,#797,.T.);
#1122=ORIENTED_EDGE('',*,*,#796,.T.);
#1123=ORIENTED_EDGE('',*,*,#798,.F.);
#1124=ORIENTED_EDGE('',*,*,#799,.F.);
#1125=ORIENTED_EDGE('',*,*,#800,.T.);
#1126=ORIENTED_EDGE('',*,*,#799,.T.);
#1127=ORIENTED_EDGE('',*,*,#801,.F.);
#1128=ORIENTED_EDGE('',*,*,#802,.F.);
#1129=ORIENTED_EDGE('',*,*,#803,.T.);
#1130=ORIENTED_EDGE('',*,*,#802,.T.);
#1131=ORIENTED_EDGE('',*,*,#804,.F.);
#1132=ORIENTED_EDGE('',*,*,#794,.F.);
#1133=ORIENTED_EDGE('',*,*,#804,.T.);
#1134=ORIENTED_EDGE('',*,*,#801,.T.);
#1135=ORIENTED_EDGE('',*,*,#798,.T.);
#1136=ORIENTED_EDGE('',*,*,#795,.T.);
#1137=ORIENTED_EDGE('',*,*,#803,.F.);
#1138=ORIENTED_EDGE('',*,*,#793,.F.);
#1139=ORIENTED_EDGE('',*,*,#797,.F.);
#1140=ORIENTED_EDGE('',*,*,#800,.F.);
#1141=PLANE('',#1323);
#1142=PLANE('',#1324);
#1143=PLANE('',#1325);
#1144=PLANE('',#1326);
#1145=PLANE('',#1327);
#1146=PLANE('',#1328);
#1147=PLANE('',#1329);
#1148=PLANE('',#1330);
#1149=PLANE('',#1331);
#1150=PLANE('',#1332);
#1151=PLANE('',#1333);
#1152=PLANE('',#1334);
#1153=PLANE('',#1336);
#1154=PLANE('',#1337);
#1155=PLANE('',#1338);
#1156=PLANE('',#1339);
#1157=PLANE('',#1340);
#1158=PLANE('',#1341);
#1159=PLANE('',#1342);
#1160=PLANE('',#1343);
#1161=PLANE('',#1344);
#1162=PLANE('',#1345);
#1163=PLANE('',#1346);
#1164=PLANE('',#1347);
#1165=PLANE('',#1349);
#1166=PLANE('',#1350);
#1167=PLANE('',#1354);
#1168=PLANE('',#1355);
#1169=PLANE('',#1359);
#1170=PLANE('',#1360);
#1171=PLANE('',#1364);
#1172=PLANE('',#1365);
#1173=PLANE('',#1369);
#1174=PLANE('',#1370);
#1175=PLANE('',#1371);
#1176=PLANE('',#1372);
#1177=PLANE('',#1373);
#1178=PLANE('',#1374);
#1179=PLANE('',#1375);
#1180=PLANE('',#1376);
#1181=PLANE('',#1377);
#1182=PLANE('',#1378);
#1183=PLANE('',#1379);
#1184=PLANE('',#1380);
#1185=PLANE('',#1386);
#1186=PLANE('',#1390);
#1187=PLANE('',#1394);
#1188=PLANE('',#1398);
#1189=PLANE('',#1402);
#1190=PLANE('',#1403);
#1191=PLANE('',#1407);
#1192=PLANE('',#1408);
#1193=PLANE('',#1409);
#1194=PLANE('',#1410);
#1195=PLANE('',#1411);
#1196=PLANE('',#1412);
#1197=PLANE('',#1413);
#1198=PLANE('',#1414);
#1199=PLANE('',#1415);
#1200=PLANE('',#1416);
#1201=ADVANCED_FACE('',(#85),#1141,.T.);
#1202=ADVANCED_FACE('',(#86),#1142,.T.);
#1203=ADVANCED_FACE('',(#87),#1143,.T.);
#1204=ADVANCED_FACE('',(#88),#1144,.T.);
#1205=ADVANCED_FACE('',(#89),#1145,.T.);
#1206=ADVANCED_FACE('',(#90),#1146,.T.);
#1207=ADVANCED_FACE('',(#91),#1147,.T.);
#1208=ADVANCED_FACE('',(#92),#1148,.T.);
#1209=ADVANCED_FACE('',(#93),#1149,.T.);
#1210=ADVANCED_FACE('',(#94),#1150,.T.);
#1211=ADVANCED_FACE('',(#95),#1151,.T.);
#1212=ADVANCED_FACE('',(#96),#1152,.F.);
#1213=ADVANCED_FACE('',(#97),#1153,.T.);
#1214=ADVANCED_FACE('',(#98),#1154,.T.);
#1215=ADVANCED_FACE('',(#99),#1155,.T.);
#1216=ADVANCED_FACE('',(#100),#1156,.T.);
#1217=ADVANCED_FACE('',(#101),#1157,.T.);
#1218=ADVANCED_FACE('',(#102),#1158,.T.);
#1219=ADVANCED_FACE('',(#103),#1159,.T.);
#1220=ADVANCED_FACE('',(#104),#1160,.T.);
#1221=ADVANCED_FACE('',(#105),#1161,.T.);
#1222=ADVANCED_FACE('',(#106),#1162,.T.);
#1223=ADVANCED_FACE('',(#107),#1163,.T.);
#1224=ADVANCED_FACE('',(#108),#1164,.F.);
#1225=ADVANCED_FACE('',(#109),#1165,.F.);
#1226=ADVANCED_FACE('',(#110),#1166,.F.);
#1227=ADVANCED_FACE('',(#111),#55,.F.);
#1228=ADVANCED_FACE('',(#112),#1167,.F.);
#1229=ADVANCED_FACE('',(#113),#1168,.F.);
#1230=ADVANCED_FACE('',(#114),#56,.F.);
#1231=ADVANCED_FACE('',(#115),#1169,.F.);
#1232=ADVANCED_FACE('',(#116),#1170,.F.);
#1233=ADVANCED_FACE('',(#117),#57,.F.);
#1234=ADVANCED_FACE('',(#118),#1171,.F.);
#1235=ADVANCED_FACE('',(#119),#1172,.F.);
#1236=ADVANCED_FACE('',(#120),#58,.F.);
#1237=ADVANCED_FACE('',(#121),#1173,.T.);
#1238=ADVANCED_FACE('',(#122),#1174,.T.);
#1239=ADVANCED_FACE('',(#123),#1175,.T.);
#1240=ADVANCED_FACE('',(#124),#1176,.T.);
#1241=ADVANCED_FACE('',(#125),#1177,.T.);
#1242=ADVANCED_FACE('',(#126),#1178,.F.);
#1243=ADVANCED_FACE('',(#127),#1179,.F.);
#1244=ADVANCED_FACE('',(#128),#1180,.T.);
#1245=ADVANCED_FACE('',(#129),#1181,.T.);
#1246=ADVANCED_FACE('',(#130),#1182,.T.);
#1247=ADVANCED_FACE('',(#131),#1183,.T.);
#1248=ADVANCED_FACE('',(#132),#1184,.F.);
#1249=ADVANCED_FACE('',(#133),#59,.F.);
#1250=ADVANCED_FACE('',(#134),#1185,.T.);
#1251=ADVANCED_FACE('',(#135),#60,.F.);
#1252=ADVANCED_FACE('',(#136),#1186,.T.);
#1253=ADVANCED_FACE('',(#137),#61,.F.);
#1254=ADVANCED_FACE('',(#138),#1187,.T.);
#1255=ADVANCED_FACE('',(#139),#62,.F.);
#1256=ADVANCED_FACE('',(#140),#1188,.T.);
#1257=ADVANCED_FACE('',(#141),#63,.T.);
#1258=ADVANCED_FACE('',(#142),#1189,.T.);
#1259=ADVANCED_FACE('',(#143),#1190,.F.);
#1260=ADVANCED_FACE('',(#144),#64,.T.);
#1261=ADVANCED_FACE('',(#145),#1191,.T.);
#1262=ADVANCED_FACE('',(#146),#1192,.T.);
#1263=ADVANCED_FACE('',(#147),#1193,.T.);
#1264=ADVANCED_FACE('',(#148,#31,#32,#33,#34),#1194,.T.);
#1265=ADVANCED_FACE('',(#149),#1195,.T.);
#1266=ADVANCED_FACE('',(#150),#1196,.T.);
#1267=ADVANCED_FACE('',(#151),#1197,.T.);
#1268=ADVANCED_FACE('',(#152),#1198,.T.);
#1269=ADVANCED_FACE('',(#153),#1199,.T.);
#1270=ADVANCED_FACE('',(#154),#1200,.F.);
#1271=CLOSED_SHELL('',(#1201,#1202,#1203,#1204,#1205,#1206,#1207,#1208,
#1209,#1210,#1211,#1212));
#1272=CLOSED_SHELL('',(#1213,#1214,#1215,#1216,#1217,#1218,#1219,#1220,
#1221,#1222,#1223,#1224));
#1273=CLOSED_SHELL('',(#1225,#1226,#1227,#1228,#1229,#1230,#1231,#1232,
#1233,#1234,#1235,#1236,#1237,#1238,#1239,#1240,#1241,#1242,#1243,#1244,
#1245,#1246,#1247,#1248));
#1274=CLOSED_SHELL('',(#1249,#1250,#1251,#1252,#1253,#1254,#1255,#1256,
#1257,#1258,#1259,#1260,#1261,#1262,#1263,#1264));
#1275=CLOSED_SHELL('',(#1265,#1266,#1267,#1268,#1269,#1270));
#1276=DERIVED_UNIT_ELEMENT(#1284,1.);
#1277=DERIVED_UNIT_ELEMENT(#2148,-3.);
#1278=DERIVED_UNIT_ELEMENT(#1284,1.);
#1279=DERIVED_UNIT_ELEMENT(#2148,-3.);
#1280=DERIVED_UNIT_ELEMENT(#1284,1.);
#1281=DERIVED_UNIT_ELEMENT(#2148,-3.);
#1282=DERIVED_UNIT_ELEMENT(#1284,1.);
#1283=DERIVED_UNIT_ELEMENT(#2148,-3.);
#1284=(
MASS_UNIT()
NAMED_UNIT(*)
SI_UNIT(.KILO.,.GRAM.)
);
#1285=DERIVED_UNIT((#1276,#1277));
#1286=DERIVED_UNIT((#1278,#1279));
#1287=DERIVED_UNIT((#1280,#1281));
#1288=DERIVED_UNIT((#1282,#1283));
#1289=MEASURE_REPRESENTATION_ITEM('density measure',
POSITIVE_RATIO_MEASURE(7850.),#1285);
#1290=MEASURE_REPRESENTATION_ITEM('density measure',
POSITIVE_RATIO_MEASURE(7850.),#1286);
#1291=MEASURE_REPRESENTATION_ITEM('density measure',
POSITIVE_RATIO_MEASURE(7850.),#1287);
#1292=MEASURE_REPRESENTATION_ITEM('density measure',
POSITIVE_RATIO_MEASURE(7850.),#1288);
#1293=PROPERTY_DEFINITION_REPRESENTATION(#1313,#1301);
#1294=PROPERTY_DEFINITION_REPRESENTATION(#1314,#1302);
#1295=PROPERTY_DEFINITION_REPRESENTATION(#1315,#1303);
#1296=PROPERTY_DEFINITION_REPRESENTATION(#1316,#1304);
#1297=PROPERTY_DEFINITION_REPRESENTATION(#1317,#1305);
#1298=PROPERTY_DEFINITION_REPRESENTATION(#1318,#1306);
#1299=PROPERTY_DEFINITION_REPRESENTATION(#1319,#1307);
#1300=PROPERTY_DEFINITION_REPRESENTATION(#1320,#1308);
#1301=REPRESENTATION('material name',(#1309),#2141);
#1302=REPRESENTATION('density',(#1289),#2141);
#1303=REPRESENTATION('material name',(#1310),#2142);
#1304=REPRESENTATION('density',(#1290),#2142);
#1305=REPRESENTATION('material name',(#1311),#2143);
#1306=REPRESENTATION('density',(#1291),#2143);
#1307=REPRESENTATION('material name',(#1312),#2145);
#1308=REPRESENTATION('density',(#1292),#2145);
#1309=DESCRIPTIVE_REPRESENTATION_ITEM('Steel','Steel');
#1310=DESCRIPTIVE_REPRESENTATION_ITEM('Steel','Steel');
#1311=DESCRIPTIVE_REPRESENTATION_ITEM('Steel','Steel');
#1312=DESCRIPTIVE_REPRESENTATION_ITEM('Steel','Steel');
#1313=PROPERTY_DEFINITION('material property','material name',#2176);
#1314=PROPERTY_DEFINITION('material property','density of part',#2176);
#1315=PROPERTY_DEFINITION('material property','material name',#2177);
#1316=PROPERTY_DEFINITION('material property','density of part',#2177);
#1317=PROPERTY_DEFINITION('material property','material name',#2178);
#1318=PROPERTY_DEFINITION('material property','density of part',#2178);
#1319=PROPERTY_DEFINITION('material property','material name',#2180);
#1320=PROPERTY_DEFINITION('material property','density of part',#2180);
#1321=AXIS2_PLACEMENT_3D('',#1772,#1422,#1423);
#1322=AXIS2_PLACEMENT_3D('',#1773,#1424,#1425);
#1323=AXIS2_PLACEMENT_3D('',#1774,#1426,#1427);
#1324=AXIS2_PLACEMENT_3D('',#1783,#1432,#1433);
#1325=AXIS2_PLACEMENT_3D('',#1789,#1437,#1438);
#1326=AXIS2_PLACEMENT_3D('',#1795,#1442,#1443);
#1327=AXIS2_PLACEMENT_3D('',#1801,#1447,#1448);
#1328=AXIS2_PLACEMENT_3D('',#1810,#1453,#1454);
#1329=AXIS2_PLACEMENT_3D('',#1813,#1457,#1458);
#1330=AXIS2_PLACEMENT_3D('',#1819,#1462,#1463);
#1331=AXIS2_PLACEMENT_3D('',#1825,#1467,#1468);
#1332=AXIS2_PLACEMENT_3D('',#1829,#1471,#1472);
#1333=AXIS2_PLACEMENT_3D('',#1833,#1475,#1476);
#1334=AXIS2_PLACEMENT_3D('',#1835,#1478,#1479);
#1335=AXIS2_PLACEMENT_3D('',#1836,#1480,#1481);
#1336=AXIS2_PLACEMENT_3D('',#1837,#1482,#1483);
#1337=AXIS2_PLACEMENT_3D('',#1846,#1488,#1489);
#1338=AXIS2_PLACEMENT_3D('',#1852,#1493,#1494);
#1339=AXIS2_PLACEMENT_3D('',#1858,#1498,#1499);
#1340=AXIS2_PLACEMENT_3D('',#1864,#1503,#1504);
#1341=AXIS2_PLACEMENT_3D('',#1873,#1509,#1510);
#1342=AXIS2_PLACEMENT_3D('',#1876,#1513,#1514);
#1343=AXIS2_PLACEMENT_3D('',#1882,#1518,#1519);
#1344=AXIS2_PLACEMENT_3D('',#1888,#1523,#1524);
#1345=AXIS2_PLACEMENT_3D('',#1892,#1527,#1528);
#1346=AXIS2_PLACEMENT_3D('',#1896,#1531,#1532);
#1347=AXIS2_PLACEMENT_3D('',#1898,#1534,#1535);
#1348=AXIS2_PLACEMENT_3D('',#1899,#1536,#1537);
#1349=AXIS2_PLACEMENT_3D('',#1900,#1538,#1539);
#1350=AXIS2_PLACEMENT_3D('',#1909,#1544,#1545);
#1351=AXIS2_PLACEMENT_3D('',#1918,#1550,#1551);
#1352=AXIS2_PLACEMENT_3D('',#1919,#1552,#1553);
#1353=AXIS2_PLACEMENT_3D('',#1920,#1554,#1555);
#1354=AXIS2_PLACEMENT_3D('',#1921,#1556,#1557);
#1355=AXIS2_PLACEMENT_3D('',#1930,#1562,#1563);
#1356=AXIS2_PLACEMENT_3D('',#1939,#1568,#1569);
#1357=AXIS2_PLACEMENT_3D('',#1940,#1570,#1571);
#1358=AXIS2_PLACEMENT_3D('',#1941,#1572,#1573);
#1359=AXIS2_PLACEMENT_3D('',#1942,#1574,#1575);
#1360=AXIS2_PLACEMENT_3D('',#1951,#1580,#1581);
#1361=AXIS2_PLACEMENT_3D('',#1960,#1586,#1587);
#1362=AXIS2_PLACEMENT_3D('',#1961,#1588,#1589);
#1363=AXIS2_PLACEMENT_3D('',#1962,#1590,#1591);
#1364=AXIS2_PLACEMENT_3D('',#1963,#1592,#1593);
#1365=AXIS2_PLACEMENT_3D('',#1972,#1598,#1599);
#1366=AXIS2_PLACEMENT_3D('',#1981,#1604,#1605);
#1367=AXIS2_PLACEMENT_3D('',#1982,#1606,#1607);
#1368=AXIS2_PLACEMENT_3D('',#1983,#1608,#1609);
#1369=AXIS2_PLACEMENT_3D('',#1984,#1610,#1611);
#1370=AXIS2_PLACEMENT_3D('',#1990,#1615,#1616);
#1371=AXIS2_PLACEMENT_3D('',#1996,#1620,#1621);
#1372=AXIS2_PLACEMENT_3D('',#1999,#1624,#1625);
#1373=AXIS2_PLACEMENT_3D('',#2002,#1628,#1629);
#1374=AXIS2_PLACEMENT_3D('',#2005,#1632,#1633);
#1375=AXIS2_PLACEMENT_3D('',#2011,#1637,#1638);
#1376=AXIS2_PLACEMENT_3D('',#2017,#1642,#1643);
#1377=AXIS2_PLACEMENT_3D('',#2023,#1647,#1648);
#1378=AXIS2_PLACEMENT_3D('',#2027,#1651,#1652);
#1379=AXIS2_PLACEMENT_3D('',#2031,#1655,#1656);
#1380=AXIS2_PLACEMENT_3D('',#2033,#1658,#1659);
#1381=AXIS2_PLACEMENT_3D('',#2034,#1660,#1661);
#1382=AXIS2_PLACEMENT_3D('',#2035,#1662,#1663);
#1383=AXIS2_PLACEMENT_3D('',#2036,#1664,#1665);
#1384=AXIS2_PLACEMENT_3D('',#2038,#1666,#1667);
#1385=AXIS2_PLACEMENT_3D('',#2041,#1669,#1670);
#1386=AXIS2_PLACEMENT_3D('',#2042,#1671,#1672);
#1387=AXIS2_PLACEMENT_3D('',#2043,#1673,#1674);
#1388=AXIS2_PLACEMENT_3D('',#2045,#1675,#1676);
#1389=AXIS2_PLACEMENT_3D('',#2048,#1678,#1679);
#1390=AXIS2_PLACEMENT_3D('',#2049,#1680,#1681);
#1391=AXIS2_PLACEMENT_3D('',#2050,#1682,#1683);
#1392=AXIS2_PLACEMENT_3D('',#2052,#1684,#1685);
#1393=AXIS2_PLACEMENT_3D('',#2055,#1687,#1688);
#1394=AXIS2_PLACEMENT_3D('',#2056,#1689,#1690);
#1395=AXIS2_PLACEMENT_3D('',#2057,#1691,#1692);
#1396=AXIS2_PLACEMENT_3D('',#2059,#1693,#1694);
#1397=AXIS2_PLACEMENT_3D('',#2062,#1696,#1697);
#1398=AXIS2_PLACEMENT_3D('',#2063,#1698,#1699);
#1399=AXIS2_PLACEMENT_3D('',#2064,#1700,#1701);
#1400=AXIS2_PLACEMENT_3D('',#2067,#1702,#1703);
#1401=AXIS2_PLACEMENT_3D('',#2071,#1705,#1706);
#1402=AXIS2_PLACEMENT_3D('',#2073,#1708,#1709);
#1403=AXIS2_PLACEMENT_3D('',#2079,#1713,#1714);
#1404=AXIS2_PLACEMENT_3D('',#2083,#1716,#1717);
#1405=AXIS2_PLACEMENT_3D('',#2087,#1720,#1721);
#1406=AXIS2_PLACEMENT_3D('',#2090,#1722,#1723);
#1407=AXIS2_PLACEMENT_3D('',#2093,#1726,#1727);
#1408=AXIS2_PLACEMENT_3D('',#2097,#1730,#1731);
#1409=AXIS2_PLACEMENT_3D('',#2099,#1733,#1734);
#1410=AXIS2_PLACEMENT_3D('',#2101,#1736,#1737);
#1411=AXIS2_PLACEMENT_3D('',#2102,#1738,#1739);
#1412=AXIS2_PLACEMENT_3D('',#2111,#1744,#1745);
#1413=AXIS2_PLACEMENT_3D('',#2117,#1749,#1750);
#1414=AXIS2_PLACEMENT_3D('',#2123,#1754,#1755);
#1415=AXIS2_PLACEMENT_3D('',#2126,#1758,#1759);
#1416=AXIS2_PLACEMENT_3D('',#2127,#1760,#1761);
#1417=AXIS2_PLACEMENT_3D('',#2128,#1762,#1763);
#1418=AXIS2_PLACEMENT_3D('',#2129,#1764,#1765);
#1419=AXIS2_PLACEMENT_3D('',#2130,#1766,#1767);
#1420=AXIS2_PLACEMENT_3D('',#2131,#1768,#1769);
#1421=AXIS2_PLACEMENT_3D('',#2132,#1770,#1771);
#1422=DIRECTION('axis',(0.,0.,1.));
#1423=DIRECTION('refdir',(1.,0.,0.));
#1424=DIRECTION('axis',(0.,0.,1.));
#1425=DIRECTION('refdir',(1.,0.,0.));
#1426=DIRECTION('center_axis',(0.,0.,1.));
#1427=DIRECTION('ref_axis',(0.,-1.,0.));
#1428=DIRECTION('',(0.,1.,0.));
#1429=DIRECTION('',(1.,0.,0.));
#1430=DIRECTION('',(0.,-1.,0.));
#1431=DIRECTION('',(1.,0.,0.));
#1432=DIRECTION('center_axis',(1.,0.,0.));
#1433=DIRECTION('ref_axis',(0.,0.,-1.));
#1434=DIRECTION('',(0.,-1.,0.));
#1435=DIRECTION('',(0.,0.,1.));
#1436=DIRECTION('',(0.,0.,-1.));
#1437=DIRECTION('center_axis',(0.,0.,1.));
#1438=DIRECTION('ref_axis',(1.,0.,0.));
#1439=DIRECTION('',(1.,0.,0.));
#1440=DIRECTION('',(0.,1.,0.));
#1441=DIRECTION('',(-1.,0.,0.));
#1442=DIRECTION('center_axis',(1.,0.,0.));
#1443=DIRECTION('ref_axis',(0.,1.,0.));
#1444=DIRECTION('',(0.,0.,1.));
#1445=DIRECTION('',(0.,1.,0.));
#1446=DIRECTION('',(0.,0.,1.));
#1447=DIRECTION('center_axis',(-1.,0.,0.));
#1448=DIRECTION('ref_axis',(0.,-1.,0.));
#1449=DIRECTION('',(0.,1.,0.));
#1450=DIRECTION('',(0.,0.,1.));
#1451=DIRECTION('',(0.,-1.,0.));
#1452=DIRECTION('',(0.,0.,1.));
#1453=DIRECTION('center_axis',(0.,0.,1.));
#1454=DIRECTION('ref_axis',(1.,0.,0.));
#1455=DIRECTION('',(-1.,0.,0.));
#1456=DIRECTION('',(1.,0.,0.));
#1457=DIRECTION('center_axis',(0.,0.,1.));
#1458=DIRECTION('ref_axis',(1.,0.,0.));
#1459=DIRECTION('',(-1.,0.,0.));
#1460=DIRECTION('',(0.,-1.,0.));
#1461=DIRECTION('',(1.,0.,0.));
#1462=DIRECTION('center_axis',(1.,0.,0.));
#1463=DIRECTION('ref_axis',(0.,1.,0.));
#1464=DIRECTION('',(0.,-1.,0.));
#1465=DIRECTION('',(0.,0.,1.));
#1466=DIRECTION('',(0.,0.,1.));
#1467=DIRECTION('center_axis',(0.,-1.,0.));
#1468=DIRECTION('ref_axis',(1.,0.,0.));
#1469=DIRECTION('',(-1.,0.,0.));
#1470=DIRECTION('',(0.,0.,1.));
#1471=DIRECTION('center_axis',(-1.,0.,0.));
#1472=DIRECTION('ref_axis',(0.,-1.,0.));
#1473=DIRECTION('',(0.,1.,0.));
#1474=DIRECTION('',(0.,0.,1.));
#1475=DIRECTION('center_axis',(0.,1.,0.));
#1476=DIRECTION('ref_axis',(-1.,0.,0.));
#1477=DIRECTION('',(1.,0.,0.));
#1478=DIRECTION('center_axis',(0.,0.,1.));
#1479=DIRECTION('ref_axis',(1.,0.,0.));
#1480=DIRECTION('axis',(0.,0.,1.));
#1481=DIRECTION('refdir',(1.,0.,0.));
#1482=DIRECTION('center_axis',(0.,0.,1.));
#1483=DIRECTION('ref_axis',(0.,-1.,0.));
#1484=DIRECTION('',(0.,1.,0.));
#1485=DIRECTION('',(1.,0.,0.));
#1486=DIRECTION('',(0.,-1.,0.));
#1487=DIRECTION('',(1.,0.,0.));
#1488=DIRECTION('center_axis',(1.,0.,0.));
#1489=DIRECTION('ref_axis',(0.,0.,-1.));
#1490=DIRECTION('',(0.,-1.,0.));
#1491=DIRECTION('',(0.,0.,1.));
#1492=DIRECTION('',(0.,0.,-1.));
#1493=DIRECTION('center_axis',(0.,0.,1.));
#1494=DIRECTION('ref_axis',(1.,0.,0.));
#1495=DIRECTION('',(1.,0.,0.));
#1496=DIRECTION('',(0.,1.,0.));
#1497=DIRECTION('',(-1.,0.,0.));
#1498=DIRECTION('center_axis',(1.,0.,0.));
#1499=DIRECTION('ref_axis',(0.,1.,0.));
#1500=DIRECTION('',(0.,0.,1.));
#1501=DIRECTION('',(0.,1.,0.));
#1502=DIRECTION('',(0.,0.,1.));
#1503=DIRECTION('center_axis',(-1.,0.,0.));
#1504=DIRECTION('ref_axis',(0.,-1.,0.));
#1505=DIRECTION('',(0.,1.,0.));
#1506=DIRECTION('',(0.,0.,1.));
#1507=DIRECTION('',(0.,-1.,0.));
#1508=DIRECTION('',(0.,0.,1.));
#1509=DIRECTION('center_axis',(0.,0.,1.));
#1510=DIRECTION('ref_axis',(1.,0.,0.));
#1511=DIRECTION('',(-1.,0.,0.));
#1512=DIRECTION('',(1.,0.,0.));
#1513=DIRECTION('center_axis',(0.,0.,1.));
#1514=DIRECTION('ref_axis',(1.,0.,0.));
#1515=DIRECTION('',(-1.,0.,0.));
#1516=DIRECTION('',(0.,-1.,0.));
#1517=DIRECTION('',(1.,0.,0.));
#1518=DIRECTION('center_axis',(1.,0.,0.));
#1519=DIRECTION('ref_axis',(0.,1.,0.));
#1520=DIRECTION('',(0.,-1.,0.));
#1521=DIRECTION('',(0.,0.,1.));
#1522=DIRECTION('',(0.,0.,1.));
#1523=DIRECTION('center_axis',(0.,-1.,0.));
#1524=DIRECTION('ref_axis',(1.,0.,0.));
#1525=DIRECTION('',(-1.,0.,0.));
#1526=DIRECTION('',(0.,0.,1.));
#1527=DIRECTION('center_axis',(-1.,0.,0.));
#1528=DIRECTION('ref_axis',(0.,-1.,0.));
#1529=DIRECTION('',(0.,1.,0.));
#1530=DIRECTION('',(0.,0.,1.));
#1531=DIRECTION('center_axis',(0.,1.,0.));
#1532=DIRECTION('ref_axis',(-1.,0.,0.));
#1533=DIRECTION('',(1.,0.,0.));
#1534=DIRECTION('center_axis',(0.,0.,1.));
#1535=DIRECTION('ref_axis',(1.,0.,0.));
#1536=DIRECTION('axis',(0.,0.,1.));
#1537=DIRECTION('refdir',(1.,0.,0.));
#1538=DIRECTION('center_axis',(0.,-1.,0.));
#1539=DIRECTION('ref_axis',(-1.,0.,0.));
#1540=DIRECTION('',(-1.,0.,2.22044604925031E-16));
#1541=DIRECTION('',(2.22044604925031E-16,0.,1.));
#1542=DIRECTION('',(1.,0.,-2.22044604925031E-16));
#1543=DIRECTION('',(0.,0.,-1.));
#1544=DIRECTION('center_axis',(0.,1.,0.));
#1545=DIRECTION('ref_axis',(1.,0.,0.));
#1546=DIRECTION('',(1.,0.,-2.22044604925031E-16));
#1547=DIRECTION('',(0.,0.,-1.));
#1548=DIRECTION('',(-1.,0.,2.22044604925031E-16));
#1549=DIRECTION('',(-2.22044604925031E-16,0.,-1.));
#1550=DIRECTION('center_axis',(0.,0.,-1.));
#1551=DIRECTION('ref_axis',(-1.,0.,0.));
#1552=DIRECTION('center_axis',(-2.22044604925031E-16,0.,-1.));
#1553=DIRECTION('ref_axis',(-1.,0.,0.));
#1554=DIRECTION('center_axis',(2.22044604925031E-16,0.,1.));
#1555=DIRECTION('ref_axis',(-1.,0.,0.));
#1556=DIRECTION('center_axis',(0.,-1.,0.));
#1557=DIRECTION('ref_axis',(-1.,0.,0.));
#1558=DIRECTION('',(-1.,0.,2.22044604925031E-16));
#1559=DIRECTION('',(2.22044604925031E-16,0.,1.));
#1560=DIRECTION('',(1.,0.,-2.22044604925031E-16));
#1561=DIRECTION('',(0.,0.,-1.));
#1562=DIRECTION('center_axis',(0.,1.,0.));
#1563=DIRECTION('ref_axis',(1.,0.,0.));
#1564=DIRECTION('',(1.,0.,-2.22044604925031E-16));
#1565=DIRECTION('',(0.,0.,-1.));
#1566=DIRECTION('',(-1.,0.,2.22044604925031E-16));
#1567=DIRECTION('',(-2.22044604925031E-16,0.,-1.));
#1568=DIRECTION('center_axis',(0.,0.,-1.));
#1569=DIRECTION('ref_axis',(-1.,0.,0.));
#1570=DIRECTION('center_axis',(-2.22044604925031E-16,0.,-1.));
#1571=DIRECTION('ref_axis',(-1.,0.,0.));
#1572=DIRECTION('center_axis',(2.22044604925031E-16,0.,1.));
#1573=DIRECTION('ref_axis',(-1.,0.,0.));
#1574=DIRECTION('center_axis',(0.,-1.,0.));
#1575=DIRECTION('ref_axis',(-1.,0.,0.));
#1576=DIRECTION('',(-1.,0.,2.22044604925031E-16));
#1577=DIRECTION('',(2.22044604925031E-16,0.,1.));
#1578=DIRECTION('',(1.,0.,-2.22044604925031E-16));
#1579=DIRECTION('',(0.,0.,-1.));
#1580=DIRECTION('center_axis',(0.,1.,0.));
#1581=DIRECTION('ref_axis',(1.,0.,0.));
#1582=DIRECTION('',(1.,0.,-2.22044604925031E-16));
#1583=DIRECTION('',(0.,0.,-1.));
#1584=DIRECTION('',(-1.,0.,2.22044604925031E-16));
#1585=DIRECTION('',(-2.22044604925031E-16,0.,-1.));
#1586=DIRECTION('center_axis',(0.,0.,-1.));
#1587=DIRECTION('ref_axis',(-1.,0.,0.));
#1588=DIRECTION('center_axis',(-2.22044604925031E-16,0.,-1.));
#1589=DIRECTION('ref_axis',(-1.,0.,0.));
#1590=DIRECTION('center_axis',(2.22044604925031E-16,0.,1.));
#1591=DIRECTION('ref_axis',(-1.,0.,0.));
#1592=DIRECTION('center_axis',(0.,-1.,0.));
#1593=DIRECTION('ref_axis',(-1.,0.,0.));
#1594=DIRECTION('',(-1.,0.,2.22044604925031E-16));
#1595=DIRECTION('',(2.22044604925031E-16,0.,1.));
#1596=DIRECTION('',(1.,0.,-2.22044604925031E-16));
#1597=DIRECTION('',(0.,0.,-1.));
#1598=DIRECTION('center_axis',(0.,1.,0.));
#1599=DIRECTION('ref_axis',(1.,0.,0.));
#1600=DIRECTION('',(1.,0.,-2.22044604925031E-16));
#1601=DIRECTION('',(0.,0.,-1.));
#1602=DIRECTION('',(-1.,0.,2.22044604925031E-16));
#1603=DIRECTION('',(-2.22044604925031E-16,0.,-1.));
#1604=DIRECTION('center_axis',(0.,0.,-1.));
#1605=DIRECTION('ref_axis',(-1.,0.,0.));
#1606=DIRECTION('center_axis',(-2.22044604925031E-16,0.,-1.));
#1607=DIRECTION('ref_axis',(-1.,0.,0.));
#1608=DIRECTION('center_axis',(2.22044604925031E-16,0.,1.));
#1609=DIRECTION('ref_axis',(-1.,0.,0.));
#1610=DIRECTION('center_axis',(1.,0.,-2.22044604925031E-16));
#1611=DIRECTION('ref_axis',(-2.22044604925031E-16,0.,-1.));
#1612=DIRECTION('',(0.,1.,0.));
#1613=DIRECTION('',(2.22044604925031E-16,0.,1.));
#1614=DIRECTION('',(0.,-1.,0.));
#1615=DIRECTION('center_axis',(1.,0.,-2.22044604925031E-16));
#1616=DIRECTION('ref_axis',(-2.22044604925031E-16,0.,-1.));
#1617=DIRECTION('',(0.,-1.,0.));
#1618=DIRECTION('',(-2.22044604925031E-16,0.,-1.));
#1619=DIRECTION('',(0.,1.,0.));
#1620=DIRECTION('center_axis',(1.,0.,-2.22044604925031E-16));
#1621=DIRECTION('ref_axis',(-2.22044604925031E-16,0.,-1.));
#1622=DIRECTION('',(0.,1.,0.));
#1623=DIRECTION('',(0.,-1.,0.));
#1624=DIRECTION('center_axis',(1.,0.,-2.22044604925031E-16));
#1625=DIRECTION('ref_axis',(-2.22044604925031E-16,0.,-1.));
#1626=DIRECTION('',(0.,-1.,0.));
#1627=DIRECTION('',(0.,1.,0.));
#1628=DIRECTION('center_axis',(1.,0.,-2.22044604925031E-16));
#1629=DIRECTION('ref_axis',(-2.22044604925031E-16,0.,-1.));
#1630=DIRECTION('',(0.,1.,0.));
#1631=DIRECTION('',(0.,-1.,0.));
#1632=DIRECTION('center_axis',(2.22044604925031E-16,0.,1.));
#1633=DIRECTION('ref_axis',(0.,1.,0.));
#1634=DIRECTION('',(1.,0.,-2.22044604925031E-16));
#1635=DIRECTION('',(0.,1.,0.));
#1636=DIRECTION('',(-1.,0.,2.22044604925031E-16));
#1637=DIRECTION('center_axis',(-1.,0.,2.22044604925031E-16));
#1638=DIRECTION('ref_axis',(2.22044604925031E-16,0.,1.));
#1639=DIRECTION('',(-2.22044604925031E-16,0.,-1.));
#1640=DIRECTION('',(2.22044604925031E-16,0.,1.));
#1641=DIRECTION('',(0.,-1.,0.));
#1642=DIRECTION('center_axis',(0.,1.,0.));
#1643=DIRECTION('ref_axis',(2.22044604925031E-16,0.,1.));
#1644=DIRECTION('',(1.,0.,-2.22044604925031E-16));
#1645=DIRECTION('',(2.22044604925031E-16,0.,1.));
#1646=DIRECTION('',(1.,0.,-2.22044604925031E-16));
#1647=DIRECTION('center_axis',(-2.22044604925031E-16,0.,-1.));
#1648=DIRECTION('ref_axis',(0.,1.,0.));
#1649=DIRECTION('',(1.,0.,-2.22044604925031E-16));
#1650=DIRECTION('',(0.,1.,0.));
#1651=DIRECTION('center_axis',(0.,-1.,0.));
#1652=DIRECTION('ref_axis',(-2.22044604925031E-16,0.,-1.));
#1653=DIRECTION('',(1.,0.,-2.22044604925031E-16));
#1654=DIRECTION('',(-2.22044604925031E-16,0.,-1.));
#1655=DIRECTION('center_axis',(2.22044604925031E-16,0.,1.));
#1656=DIRECTION('ref_axis',(0.,-1.,0.));
#1657=DIRECTION('',(0.,-1.,0.));
#1658=DIRECTION('center_axis',(1.,0.,-2.22044604925031E-16));
#1659=DIRECTION('ref_axis',(-2.22044604925031E-16,0.,-1.));
#1660=DIRECTION('axis',(0.,0.,1.));
#1661=DIRECTION('refdir',(1.,0.,0.));
#1662=DIRECTION('axis',(0.,0.,1.));
#1663=DIRECTION('refdir',(1.,0.,0.));
#1664=DIRECTION('center_axis',(0.,0.,-1.));
#1665=DIRECTION('ref_axis',(-1.,0.,0.));
#1666=DIRECTION('center_axis',(0.,0.,-1.));
#1667=DIRECTION('ref_axis',(-1.,0.,0.));
#1668=DIRECTION('',(0.,0.,-1.));
#1669=DIRECTION('center_axis',(0.,0.,-1.));
#1670=DIRECTION('ref_axis',(-1.,0.,0.));
#1671=DIRECTION('center_axis',(0.,0.,1.));
#1672=DIRECTION('ref_axis',(-1.,0.,0.));
#1673=DIRECTION('center_axis',(0.,0.,-1.));
#1674=DIRECTION('ref_axis',(-1.,0.,0.));
#1675=DIRECTION('center_axis',(0.,0.,-1.));
#1676=DIRECTION('ref_axis',(-1.,0.,0.));
#1677=DIRECTION('',(0.,0.,-1.));
#1678=DIRECTION('center_axis',(0.,0.,-1.));
#1679=DIRECTION('ref_axis',(-1.,0.,0.));
#1680=DIRECTION('center_axis',(0.,0.,1.));
#1681=DIRECTION('ref_axis',(-1.,0.,0.));
#1682=DIRECTION('center_axis',(0.,0.,-1.));
#1683=DIRECTION('ref_axis',(-1.,0.,0.));
#1684=DIRECTION('center_axis',(0.,0.,-1.));
#1685=DIRECTION('ref_axis',(-1.,0.,0.));
#1686=DIRECTION('',(0.,0.,-1.));
#1687=DIRECTION('center_axis',(0.,0.,-1.));
#1688=DIRECTION('ref_axis',(-1.,0.,0.));
#1689=DIRECTION('center_axis',(0.,0.,1.));
#1690=DIRECTION('ref_axis',(-1.,0.,0.));
#1691=DIRECTION('center_axis',(0.,0.,-1.));
#1692=DIRECTION('ref_axis',(-1.,0.,0.));
#1693=DIRECTION('center_axis',(0.,0.,-1.));
#1694=DIRECTION('ref_axis',(-1.,0.,0.));
#1695=DIRECTION('',(0.,0.,-1.));
#1696=DIRECTION('center_axis',(0.,0.,-1.));
#1697=DIRECTION('ref_axis',(-1.,0.,0.));
#1698=DIRECTION('center_axis',(0.,0.,1.));
#1699=DIRECTION('ref_axis',(-1.,0.,0.));
#1700=DIRECTION('center_axis',(0.,0.,1.));
#1701=DIRECTION('ref_axis',(0.707106781186547,0.707106781186547,0.));
#1702=DIRECTION('center_axis',(0.,0.,-1.));
#1703=DIRECTION('ref_axis',(0.707106781186547,0.707106781186547,0.));
#1704=DIRECTION('',(0.,0.,-1.));
#1705=DIRECTION('center_axis',(0.,0.,1.));
#1706=DIRECTION('ref_axis',(0.707106781186547,0.707106781186547,0.));
#1707=DIRECTION('',(0.,0.,1.));
#1708=DIRECTION('center_axis',(0.,1.,0.));
#1709=DIRECTION('ref_axis',(-1.,0.,0.));
#1710=DIRECTION('',(-1.,0.,0.));
#1711=DIRECTION('',(0.,0.,1.));
#1712=DIRECTION('',(-1.,0.,0.));
#1713=DIRECTION('center_axis',(0.,0.,1.));
#1714=DIRECTION('ref_axis',(-1.,0.,0.));
#1715=DIRECTION('',(0.,1.,0.));
#1716=DIRECTION('center_axis',(0.,0.,1.));
#1717=DIRECTION('ref_axis',(0.707106781186547,-0.707106781186547,0.));
#1718=DIRECTION('',(1.,0.,0.));
#1719=DIRECTION('',(0.,-1.,0.));
#1720=DIRECTION('center_axis',(0.,0.,1.));
#1721=DIRECTION('ref_axis',(0.707106781186547,-0.707106781186547,0.));
#1722=DIRECTION('center_axis',(0.,0.,-1.));
#1723=DIRECTION('ref_axis',(0.707106781186547,-0.707106781186547,0.));
#1724=DIRECTION('',(0.,0.,-1.));
#1725=DIRECTION('',(0.,0.,1.));
#1726=DIRECTION('center_axis',(0.,-1.,0.));
#1727=DIRECTION('ref_axis',(1.,0.,0.));
#1728=DIRECTION('',(1.,0.,0.));
#1729=DIRECTION('',(0.,0.,1.));
#1730=DIRECTION('center_axis',(1.,0.,0.));
#1731=DIRECTION('ref_axis',(0.,1.,0.));
#1732=DIRECTION('',(0.,1.,0.));
#1733=DIRECTION('center_axis',(-1.,0.,0.));
#1734=DIRECTION('ref_axis',(0.,-1.,0.));
#1735=DIRECTION('',(0.,-1.,0.));
#1736=DIRECTION('center_axis',(0.,0.,1.));
#1737=DIRECTION('ref_axis',(1.,0.,0.));
#1738=DIRECTION('center_axis',(0.,1.,0.));
#1739=DIRECTION('ref_axis',(-1.,0.,0.));
#1740=DIRECTION('',(-1.,0.,0.));
#1741=DIRECTION('',(0.,0.,1.));
#1742=DIRECTION('',(-1.,0.,0.));
#1743=DIRECTION('',(0.,0.,1.));
#1744=DIRECTION('center_axis',(1.,0.,0.));
#1745=DIRECTION('ref_axis',(0.,1.,0.));
#1746=DIRECTION('',(0.,1.,0.));
#1747=DIRECTION('',(0.,1.,0.));
#1748=DIRECTION('',(0.,0.,1.));
#1749=DIRECTION('center_axis',(0.,-1.,0.));
#1750=DIRECTION('ref_axis',(1.,0.,0.));
#1751=DIRECTION('',(1.,0.,0.));
#1752=DIRECTION('',(1.,0.,0.));
#1753=DIRECTION('',(0.,0.,1.));
#1754=DIRECTION('center_axis',(-1.,0.,0.));
#1755=DIRECTION('ref_axis',(0.,-1.,0.));
#1756=DIRECTION('',(0.,-1.,0.));
#1757=DIRECTION('',(0.,-1.,0.));
#1758=DIRECTION('center_axis',(0.,0.,1.));
#1759=DIRECTION('ref_axis',(1.,0.,0.));
#1760=DIRECTION('center_axis',(0.,0.,1.));
#1761=DIRECTION('ref_axis',(1.,0.,0.));
#1762=DIRECTION('',(0.,0.,1.));
#1763=DIRECTION('',(1.,0.,0.));
#1764=DIRECTION('',(0.,0.,1.));
#1765=DIRECTION('',(1.,0.,0.));
#1766=DIRECTION('',(0.,0.,1.));
#1767=DIRECTION('',(1.,0.,0.));
#1768=DIRECTION('',(-1.11022302462516E-16,7.88860905221012E-31,1.));
#1769=DIRECTION('',(1.,1.97215226305253E-30,1.11022302462516E-16));
#1770=DIRECTION('',(0.,0.,1.));
#1771=DIRECTION('',(1.,0.,0.));
#1772=CARTESIAN_POINT('',(0.,0.,0.));
#1773=CARTESIAN_POINT('',(0.,0.,0.));
#1774=CARTESIAN_POINT('Origin',(-100.,40.,80.));
#1775=CARTESIAN_POINT('',(-100.,0.,80.));
#1776=CARTESIAN_POINT('',(-100.,40.,80.));
#1777=CARTESIAN_POINT('',(-100.,20.,80.));
#1778=CARTESIAN_POINT('',(-80.,0.,80.));
#1779=CARTESIAN_POINT('',(-100.,0.,80.));
#1780=CARTESIAN_POINT('',(-80.,40.,80.));
#1781=CARTESIAN_POINT('',(-80.,0.,80.));
#1782=CARTESIAN_POINT('',(-100.,40.,80.));
#1783=CARTESIAN_POINT('Origin',(-80.,20.,60.));
#1784=CARTESIAN_POINT('',(-80.,40.,40.));
#1785=CARTESIAN_POINT('',(-80.,0.,40.));
#1786=CARTESIAN_POINT('',(-80.,20.,40.));
#1787=CARTESIAN_POINT('',(-80.,40.,80.));
#1788=CARTESIAN_POINT('',(-80.,0.,40.));
#1789=CARTESIAN_POINT('Origin',(-150.,20.,40.));
#1790=CARTESIAN_POINT('',(0.,0.,40.));
#1791=CARTESIAN_POINT('',(0.,0.,40.));
#1792=CARTESIAN_POINT('',(0.,40.,40.));
#1793=CARTESIAN_POINT('',(0.,40.,40.));
#1794=CARTESIAN_POINT('',(-300.,40.,40.));
#1795=CARTESIAN_POINT('Origin',(-100.,0.,40.));
#1796=CARTESIAN_POINT('',(-100.,40.,500.));
#1797=CARTESIAN_POINT('',(-100.,40.,40.));
#1798=CARTESIAN_POINT('',(-100.,0.,500.));
#1799=CARTESIAN_POINT('',(-100.,40.,500.));
#1800=CARTESIAN_POINT('',(-100.,0.,40.));
#1801=CARTESIAN_POINT('Origin',(-140.,40.,40.));
#1802=CARTESIAN_POINT('',(-140.,0.,40.));
#1803=CARTESIAN_POINT('',(-140.,40.,40.));
#1804=CARTESIAN_POINT('',(-140.,30.,40.));
#1805=CARTESIAN_POINT('',(-140.,0.,500.));
#1806=CARTESIAN_POINT('',(-140.,0.,40.));
#1807=CARTESIAN_POINT('',(-140.,40.,500.));
#1808=CARTESIAN_POINT('',(-140.,0.,500.));
#1809=CARTESIAN_POINT('',(-140.,40.,40.));
#1810=CARTESIAN_POINT('Origin',(-120.,20.,500.));
#1811=CARTESIAN_POINT('',(-140.,40.,500.));
#1812=CARTESIAN_POINT('',(-100.,0.,500.));
#1813=CARTESIAN_POINT('Origin',(-150.,20.,40.));
#1814=CARTESIAN_POINT('',(-300.,40.,40.));
#1815=CARTESIAN_POINT('',(-300.,40.,40.));
#1816=CARTESIAN_POINT('',(-300.,0.,40.));
#1817=CARTESIAN_POINT('',(-300.,0.,40.));
#1818=CARTESIAN_POINT('',(0.,0.,40.));
#1819=CARTESIAN_POINT('Origin',(0.,0.,0.));
#1820=CARTESIAN_POINT('',(0.,40.,0.));
#1821=CARTESIAN_POINT('',(0.,0.,0.));
#1822=CARTESIAN_POINT('',(0.,40.,0.));
#1823=CARTESIAN_POINT('',(0.,40.,0.));
#1824=CARTESIAN_POINT('',(0.,0.,0.));
#1825=CARTESIAN_POINT('Origin',(-300.,0.,0.));
#1826=CARTESIAN_POINT('',(-300.,0.,0.));
#1827=CARTESIAN_POINT('',(0.,0.,0.));
#1828=CARTESIAN_POINT('',(-300.,0.,0.));
#1829=CARTESIAN_POINT('Origin',(-300.,40.,0.));
#1830=CARTESIAN_POINT('',(-300.,40.,0.));
#1831=CARTESIAN_POINT('',(-300.,0.,0.));
#1832=CARTESIAN_POINT('',(-300.,40.,0.));
#1833=CARTESIAN_POINT('Origin',(0.,40.,0.));
#1834=CARTESIAN_POINT('',(-300.,40.,0.));
#1835=CARTESIAN_POINT('Origin',(-150.,20.,0.));
#1836=CARTESIAN_POINT('',(0.,0.,0.));
#1837=CARTESIAN_POINT('Origin',(-100.,800.,80.));
#1838=CARTESIAN_POINT('',(-100.,760.,80.));
#1839=CARTESIAN_POINT('',(-100.,800.,80.));
#1840=CARTESIAN_POINT('',(-100.,780.,80.));
#1841=CARTESIAN_POINT('',(-80.,760.,80.));
#1842=CARTESIAN_POINT('',(-100.,760.,80.));
#1843=CARTESIAN_POINT('',(-80.,800.,80.));
#1844=CARTESIAN_POINT('',(-80.,760.,80.));
#1845=CARTESIAN_POINT('',(-100.,800.,80.));
#1846=CARTESIAN_POINT('Origin',(-80.,780.,60.));
#1847=CARTESIAN_POINT('',(-80.,800.,40.));
#1848=CARTESIAN_POINT('',(-80.,760.,40.));
#1849=CARTESIAN_POINT('',(-80.,780.,40.));
#1850=CARTESIAN_POINT('',(-80.,800.,80.));
#1851=CARTESIAN_POINT('',(-80.,760.,40.));
#1852=CARTESIAN_POINT('Origin',(-150.,780.,40.));
#1853=CARTESIAN_POINT('',(0.,760.,40.));
#1854=CARTESIAN_POINT('',(0.,760.,40.));
#1855=CARTESIAN_POINT('',(0.,800.,40.));
#1856=CARTESIAN_POINT('',(0.,800.,40.));
#1857=CARTESIAN_POINT('',(-300.,800.,40.));
#1858=CARTESIAN_POINT('Origin',(-100.,760.,40.));
#1859=CARTESIAN_POINT('',(-100.,800.,500.));
#1860=CARTESIAN_POINT('',(-100.,800.,40.));
#1861=CARTESIAN_POINT('',(-100.,760.,500.));
#1862=CARTESIAN_POINT('',(-100.,800.,500.));
#1863=CARTESIAN_POINT('',(-100.,760.,40.));
#1864=CARTESIAN_POINT('Origin',(-140.,800.,40.));
#1865=CARTESIAN_POINT('',(-140.,760.,40.));
#1866=CARTESIAN_POINT('',(-140.,800.,40.));
#1867=CARTESIAN_POINT('',(-140.,790.,40.));
#1868=CARTESIAN_POINT('',(-140.,760.,500.));
#1869=CARTESIAN_POINT('',(-140.,760.,40.));
#1870=CARTESIAN_POINT('',(-140.,800.,500.));
#1871=CARTESIAN_POINT('',(-140.,760.,500.));
#1872=CARTESIAN_POINT('',(-140.,800.,40.));
#1873=CARTESIAN_POINT('Origin',(-120.,780.,500.));
#1874=CARTESIAN_POINT('',(-140.,800.,500.));
#1875=CARTESIAN_POINT('',(-100.,760.,500.));
#1876=CARTESIAN_POINT('Origin',(-150.,780.,40.));
#1877=CARTESIAN_POINT('',(-300.,800.,40.));
#1878=CARTESIAN_POINT('',(-300.,800.,40.));
#1879=CARTESIAN_POINT('',(-300.,760.,40.));
#1880=CARTESIAN_POINT('',(-300.,760.,40.));
#1881=CARTESIAN_POINT('',(0.,760.,40.));
#1882=CARTESIAN_POINT('Origin',(0.,760.,0.));
#1883=CARTESIAN_POINT('',(0.,800.,0.));
#1884=CARTESIAN_POINT('',(0.,760.,0.));
#1885=CARTESIAN_POINT('',(0.,800.,0.));
#1886=CARTESIAN_POINT('',(0.,800.,0.));
#1887=CARTESIAN_POINT('',(0.,760.,0.));
#1888=CARTESIAN_POINT('Origin',(-300.,760.,0.));
#1889=CARTESIAN_POINT('',(-300.,760.,0.));
#1890=CARTESIAN_POINT('',(0.,760.,0.));
#1891=CARTESIAN_POINT('',(-300.,760.,0.));
#1892=CARTESIAN_POINT('Origin',(-300.,800.,0.));
#1893=CARTESIAN_POINT('',(-300.,800.,0.));
#1894=CARTESIAN_POINT('',(-300.,760.,0.));
#1895=CARTESIAN_POINT('',(-300.,800.,0.));
#1896=CARTESIAN_POINT('Origin',(0.,800.,0.));
#1897=CARTESIAN_POINT('',(-300.,800.,0.));
#1898=CARTESIAN_POINT('Origin',(-150.,780.,0.));
#1899=CARTESIAN_POINT('',(0.,0.,0.));
#1900=CARTESIAN_POINT('Origin',(-94.1941343258504,285.124773088243,510.));
#1901=CARTESIAN_POINT('',(-94.1941343258504,285.124773088243,510.));
#1902=CARTESIAN_POINT('',(-114.19413432585,285.124773088243,510.));
#1903=CARTESIAN_POINT('',(-114.19413432585,285.124773088243,510.));
#1904=CARTESIAN_POINT('',(-94.1941343258504,285.124773088243,505.));
#1905=CARTESIAN_POINT('',(-94.1941343258504,285.124773088243,500.));
#1906=CARTESIAN_POINT('',(-114.19413432585,285.124773088243,505.));
#1907=CARTESIAN_POINT('',(-94.1941343258504,285.124773088243,505.));
#1908=CARTESIAN_POINT('',(-114.19413432585,285.124773088243,510.));
#1909=CARTESIAN_POINT('Origin',(-114.19413432585,310.124773088243,510.));
#1910=CARTESIAN_POINT('',(-114.19413432585,310.124773088243,510.));
#1911=CARTESIAN_POINT('',(-94.1941343258504,310.124773088243,510.));
#1912=CARTESIAN_POINT('',(-124.19413432585,310.124773088243,510.));
#1913=CARTESIAN_POINT('',(-114.19413432585,310.124773088243,505.));
#1914=CARTESIAN_POINT('',(-114.19413432585,310.124773088243,510.));
#1915=CARTESIAN_POINT('',(-94.1941343258504,310.124773088243,505.));
#1916=CARTESIAN_POINT('',(-104.19413432585,310.124773088243,505.));
#1917=CARTESIAN_POINT('',(-94.1941343258504,310.124773088243,500.));
#1918=CARTESIAN_POINT('Origin',(-114.19413432585,297.624773088243,510.));
#1919=CARTESIAN_POINT('Origin',(-114.19413432585,297.624773088243,510.));
#1920=CARTESIAN_POINT('Origin',(-114.19413432585,297.624773088243,505.));
#1921=CARTESIAN_POINT('Origin',(-94.1941343258504,485.124773088243,510.));
#1922=CARTESIAN_POINT('',(-94.1941343258504,485.124773088243,510.));
#1923=CARTESIAN_POINT('',(-114.19413432585,485.124773088243,510.));
#1924=CARTESIAN_POINT('',(-114.19413432585,485.124773088243,510.));
#1925=CARTESIAN_POINT('',(-94.1941343258504,485.124773088243,505.));
#1926=CARTESIAN_POINT('',(-94.1941343258504,485.124773088243,500.));
#1927=CARTESIAN_POINT('',(-114.19413432585,485.124773088243,505.));
#1928=CARTESIAN_POINT('',(-94.1941343258504,485.124773088243,505.));
#1929=CARTESIAN_POINT('',(-114.19413432585,485.124773088243,510.));
#1930=CARTESIAN_POINT('Origin',(-114.19413432585,510.124773088243,510.));
#1931=CARTESIAN_POINT('',(-114.19413432585,510.124773088243,510.));
#1932=CARTESIAN_POINT('',(-94.1941343258504,510.124773088243,510.));
#1933=CARTESIAN_POINT('',(-124.19413432585,510.124773088243,510.));
#1934=CARTESIAN_POINT('',(-114.19413432585,510.124773088243,505.));
#1935=CARTESIAN_POINT('',(-114.19413432585,510.124773088243,510.));
#1936=CARTESIAN_POINT('',(-94.1941343258504,510.124773088243,505.));
#1937=CARTESIAN_POINT('',(-104.19413432585,510.124773088243,505.));
#1938=CARTESIAN_POINT('',(-94.1941343258504,510.124773088243,500.));
#1939=CARTESIAN_POINT('Origin',(-114.19413432585,497.624773088243,510.));
#1940=CARTESIAN_POINT('Origin',(-114.19413432585,497.624773088243,510.));
#1941=CARTESIAN_POINT('Origin',(-114.19413432585,497.624773088243,505.));
#1942=CARTESIAN_POINT('Origin',(-94.1941343258504,85.1247730882433,510.));
#1943=CARTESIAN_POINT('',(-94.1941343258504,85.1247730882433,510.));
#1944=CARTESIAN_POINT('',(-114.19413432585,85.1247730882433,510.));
#1945=CARTESIAN_POINT('',(-114.19413432585,85.1247730882433,510.));
#1946=CARTESIAN_POINT('',(-94.1941343258504,85.1247730882433,505.));
#1947=CARTESIAN_POINT('',(-94.1941343258504,85.1247730882433,500.));
#1948=CARTESIAN_POINT('',(-114.19413432585,85.1247730882433,505.));
#1949=CARTESIAN_POINT('',(-94.1941343258504,85.1247730882433,505.));
#1950=CARTESIAN_POINT('',(-114.19413432585,85.1247730882433,510.));
#1951=CARTESIAN_POINT('Origin',(-114.19413432585,110.124773088243,510.));
#1952=CARTESIAN_POINT('',(-114.19413432585,110.124773088243,510.));
#1953=CARTESIAN_POINT('',(-94.1941343258504,110.124773088243,510.));
#1954=CARTESIAN_POINT('',(-124.19413432585,110.124773088243,510.));
#1955=CARTESIAN_POINT('',(-114.19413432585,110.124773088243,505.));
#1956=CARTESIAN_POINT('',(-114.19413432585,110.124773088243,510.));
#1957=CARTESIAN_POINT('',(-94.1941343258504,110.124773088243,505.));
#1958=CARTESIAN_POINT('',(-104.19413432585,110.124773088243,505.));
#1959=CARTESIAN_POINT('',(-94.1941343258504,110.124773088243,500.));
#1960=CARTESIAN_POINT('Origin',(-114.19413432585,97.6247730882433,510.));
#1961=CARTESIAN_POINT('Origin',(-114.19413432585,97.6247730882433,510.));
#1962=CARTESIAN_POINT('Origin',(-114.19413432585,97.6247730882433,505.));
#1963=CARTESIAN_POINT('Origin',(-94.1941343258504,685.124773088243,510.));
#1964=CARTESIAN_POINT('',(-94.1941343258504,685.124773088243,510.));
#1965=CARTESIAN_POINT('',(-114.19413432585,685.124773088243,510.));
#1966=CARTESIAN_POINT('',(-114.19413432585,685.124773088243,510.));
#1967=CARTESIAN_POINT('',(-94.1941343258504,685.124773088243,505.));
#1968=CARTESIAN_POINT('',(-94.1941343258504,685.124773088243,500.));
#1969=CARTESIAN_POINT('',(-114.19413432585,685.124773088243,505.));
#1970=CARTESIAN_POINT('',(-94.1941343258504,685.124773088243,505.));
#1971=CARTESIAN_POINT('',(-114.19413432585,685.124773088243,510.));
#1972=CARTESIAN_POINT('Origin',(-114.19413432585,710.124773088243,510.));
#1973=CARTESIAN_POINT('',(-114.19413432585,710.124773088243,510.));
#1974=CARTESIAN_POINT('',(-94.1941343258504,710.124773088243,510.));
#1975=CARTESIAN_POINT('',(-124.19413432585,710.124773088243,510.));
#1976=CARTESIAN_POINT('',(-114.19413432585,710.124773088243,505.));
#1977=CARTESIAN_POINT('',(-114.19413432585,710.124773088243,510.));
#1978=CARTESIAN_POINT('',(-94.1941343258504,710.124773088243,505.));
#1979=CARTESIAN_POINT('',(-104.19413432585,710.124773088243,505.));
#1980=CARTESIAN_POINT('',(-94.1941343258504,710.124773088243,500.));
#1981=CARTESIAN_POINT('Origin',(-114.19413432585,697.624773088243,510.));
#1982=CARTESIAN_POINT('Origin',(-114.19413432585,697.624773088243,510.));
#1983=CARTESIAN_POINT('Origin',(-114.19413432585,697.624773088243,505.));
#1984=CARTESIAN_POINT('Origin',(-94.1941343258504,397.624773088243,490.));
#1985=CARTESIAN_POINT('',(-94.1941343258504,757.624773088243,505.));
#1986=CARTESIAN_POINT('',(-94.1941343258504,217.624773088243,505.));
#1987=CARTESIAN_POINT('',(-94.1941343258504,757.624773088243,510.));
#1988=CARTESIAN_POINT('',(-94.1941343258504,757.624773088243,470.));
#1989=CARTESIAN_POINT('',(-94.1941343258504,757.624773088243,510.));
#1990=CARTESIAN_POINT('Origin',(-94.1941343258504,397.624773088243,490.));
#1991=CARTESIAN_POINT('',(-94.1941343258504,37.6247730882433,510.));
#1992=CARTESIAN_POINT('',(-94.1941343258504,757.624773088243,510.));
#1993=CARTESIAN_POINT('',(-94.1941343258504,37.6247730882433,505.));
#1994=CARTESIAN_POINT('',(-94.1941343258504,37.6247730882432,510.));
#1995=CARTESIAN_POINT('',(-94.1941343258504,217.624773088243,505.));
#1996=CARTESIAN_POINT('Origin',(-94.1941343258504,397.624773088243,490.));
#1997=CARTESIAN_POINT('',(-94.1941343258504,217.624773088243,505.));
#1998=CARTESIAN_POINT('',(-94.1941343258504,757.624773088243,510.));
#1999=CARTESIAN_POINT('Origin',(-94.1941343258504,397.624773088243,490.));
#2000=CARTESIAN_POINT('',(-94.1941343258504,757.624773088243,510.));
#2001=CARTESIAN_POINT('',(-94.1941343258504,217.624773088243,505.));
#2002=CARTESIAN_POINT('Origin',(-94.1941343258504,397.624773088243,490.));
#2003=CARTESIAN_POINT('',(-94.1941343258504,217.624773088243,505.));
#2004=CARTESIAN_POINT('',(-94.1941343258504,757.624773088243,510.));
#2005=CARTESIAN_POINT('Origin',(-94.1941343258504,37.6247730882433,505.));
#2006=CARTESIAN_POINT('',(-129.19413432585,37.6247730882433,505.));
#2007=CARTESIAN_POINT('',(-114.19413432585,37.6247730882432,505.));
#2008=CARTESIAN_POINT('',(-129.19413432585,757.624773088243,505.));
#2009=CARTESIAN_POINT('',(-129.19413432585,37.6247730882433,505.));
#2010=CARTESIAN_POINT('',(-114.19413432585,757.624773088243,505.));
#2011=CARTESIAN_POINT('Origin',(-129.19413432585,397.624773088243,487.5));
#2012=CARTESIAN_POINT('',(-129.19413432585,757.624773088243,470.));
#2013=CARTESIAN_POINT('',(-129.19413432585,757.624773088243,478.75));
#2014=CARTESIAN_POINT('',(-129.19413432585,37.6247730882433,470.));
#2015=CARTESIAN_POINT('',(-129.19413432585,37.6247730882432,498.75));
#2016=CARTESIAN_POINT('',(-129.19413432585,217.624773088243,470.));
#2017=CARTESIAN_POINT('Origin',(-134.19413432585,757.624773088243,470.));
#2018=CARTESIAN_POINT('',(-134.19413432585,757.624773088243,470.));
#2019=CARTESIAN_POINT('',(-134.19413432585,757.624773088243,470.));
#2020=CARTESIAN_POINT('',(-134.19413432585,757.624773088243,510.));
#2021=CARTESIAN_POINT('',(-134.19413432585,757.624773088243,470.));
#2022=CARTESIAN_POINT('',(-134.19413432585,757.624773088243,510.));
#2023=CARTESIAN_POINT('Origin',(-134.19413432585,37.6247730882432,470.));
#2024=CARTESIAN_POINT('',(-134.19413432585,37.6247730882432,470.));
#2025=CARTESIAN_POINT('',(-134.19413432585,37.6247730882432,470.));
#2026=CARTESIAN_POINT('',(-134.19413432585,37.6247730882432,470.));
#2027=CARTESIAN_POINT('Origin',(-134.19413432585,37.6247730882432,510.));
#2028=CARTESIAN_POINT('',(-134.19413432585,37.6247730882433,510.));
#2029=CARTESIAN_POINT('',(-134.19413432585,37.6247730882433,510.));
#2030=CARTESIAN_POINT('',(-134.19413432585,37.6247730882432,510.));
#2031=CARTESIAN_POINT('Origin',(-134.19413432585,757.624773088243,510.));
#2032=CARTESIAN_POINT('',(-134.19413432585,757.624773088243,510.));
#2033=CARTESIAN_POINT('Origin',(-134.19413432585,397.624773088243,490.));
#2034=CARTESIAN_POINT('',(0.,0.,0.));
#2035=CARTESIAN_POINT('',(0.,0.,0.));
#2036=CARTESIAN_POINT('Origin',(270.,300.,48.));
#2037=CARTESIAN_POINT('',(282.5,300.,48.));
#2038=CARTESIAN_POINT('Origin',(270.,300.,48.));
#2039=CARTESIAN_POINT('',(282.5,300.,43.));
#2040=CARTESIAN_POINT('',(282.5,300.,48.));
#2041=CARTESIAN_POINT('Origin',(270.,300.,43.));
#2042=CARTESIAN_POINT('Origin',(270.,300.,43.));
#2043=CARTESIAN_POINT('Origin',(270.,500.,48.));
#2044=CARTESIAN_POINT('',(282.5,500.,48.));
#2045=CARTESIAN_POINT('Origin',(270.,500.,48.));
#2046=CARTESIAN_POINT('',(282.5,500.,43.));
#2047=CARTESIAN_POINT('',(282.5,500.,48.));
#2048=CARTESIAN_POINT('Origin',(270.,500.,43.));
#2049=CARTESIAN_POINT('Origin',(270.,500.,43.));
#2050=CARTESIAN_POINT('Origin',(270.,100.,48.));
#2051=CARTESIAN_POINT('',(282.5,100.,48.));
#2052=CARTESIAN_POINT('Origin',(270.,100.,48.));
#2053=CARTESIAN_POINT('',(282.5,100.,43.));
#2054=CARTESIAN_POINT('',(282.5,100.,48.));
#2055=CARTESIAN_POINT('Origin',(270.,100.,43.));
#2056=CARTESIAN_POINT('Origin',(270.,100.,43.));
#2057=CARTESIAN_POINT('Origin',(270.,700.,48.));
#2058=CARTESIAN_POINT('',(282.5,700.,48.));
#2059=CARTESIAN_POINT('Origin',(270.,700.,48.));
#2060=CARTESIAN_POINT('',(282.5,700.,43.));
#2061=CARTESIAN_POINT('',(282.5,700.,48.));
#2062=CARTESIAN_POINT('Origin',(270.,700.,43.));
#2063=CARTESIAN_POINT('Origin',(270.,700.,43.));
#2064=CARTESIAN_POINT('Origin',(270.,780.,40.));
#2065=CARTESIAN_POINT('',(270.,800.,48.));
#2066=CARTESIAN_POINT('',(290.,780.,48.));
#2067=CARTESIAN_POINT('Origin',(270.,780.,48.));
#2068=CARTESIAN_POINT('',(290.,780.,40.));
#2069=CARTESIAN_POINT('',(290.,780.,40.));
#2070=CARTESIAN_POINT('',(270.,800.,40.));
#2071=CARTESIAN_POINT('Origin',(270.,780.,40.));
#2072=CARTESIAN_POINT('',(270.,800.,40.));
#2073=CARTESIAN_POINT('Origin',(290.,800.,40.));
#2074=CARTESIAN_POINT('',(250.,800.,40.));
#2075=CARTESIAN_POINT('',(290.,800.,40.));
#2076=CARTESIAN_POINT('',(250.,800.,48.));
#2077=CARTESIAN_POINT('',(250.,800.,40.));
#2078=CARTESIAN_POINT('',(290.,800.,48.));
#2079=CARTESIAN_POINT('Origin',(270.,400.,40.));
#2080=CARTESIAN_POINT('',(290.,20.,40.));
#2081=CARTESIAN_POINT('',(290.,0.,40.));
#2082=CARTESIAN_POINT('',(270.,0.,40.));
#2083=CARTESIAN_POINT('Origin',(270.,20.,40.));
#2084=CARTESIAN_POINT('',(250.,0.,40.));
#2085=CARTESIAN_POINT('',(250.,0.,40.));
#2086=CARTESIAN_POINT('',(250.,800.,40.));
#2087=CARTESIAN_POINT('Origin',(270.,20.,40.));
#2088=CARTESIAN_POINT('',(290.,20.,48.));
#2089=CARTESIAN_POINT('',(270.,0.,48.));
#2090=CARTESIAN_POINT('Origin',(270.,20.,48.));
#2091=CARTESIAN_POINT('',(270.,0.,40.));
#2092=CARTESIAN_POINT('',(290.,20.,40.));
#2093=CARTESIAN_POINT('Origin',(250.,0.,40.));
#2094=CARTESIAN_POINT('',(250.,0.,48.));
#2095=CARTESIAN_POINT('',(250.,0.,48.));
#2096=CARTESIAN_POINT('',(250.,0.,40.));
#2097=CARTESIAN_POINT('Origin',(290.,0.,40.));
#2098=CARTESIAN_POINT('',(290.,0.,48.));
#2099=CARTESIAN_POINT('Origin',(250.,800.,40.));
#2100=CARTESIAN_POINT('',(250.,800.,48.));
#2101=CARTESIAN_POINT('Origin',(270.,400.,48.));
#2102=CARTESIAN_POINT('Origin',(140.,800.,0.));
#2103=CARTESIAN_POINT('',(140.,800.,0.));
#2104=CARTESIAN_POINT('',(100.,800.,0.));
#2105=CARTESIAN_POINT('',(140.,800.,0.));
#2106=CARTESIAN_POINT('',(100.,800.,40.));
#2107=CARTESIAN_POINT('',(100.,800.,0.));
#2108=CARTESIAN_POINT('',(140.,800.,40.));
#2109=CARTESIAN_POINT('',(140.,800.,40.));
#2110=CARTESIAN_POINT('',(140.,800.,0.));
#2111=CARTESIAN_POINT('Origin',(140.,0.,0.));
#2112=CARTESIAN_POINT('',(140.,0.,0.));
#2113=CARTESIAN_POINT('',(140.,0.,0.));
#2114=CARTESIAN_POINT('',(140.,0.,40.));
#2115=CARTESIAN_POINT('',(140.,0.,40.));
#2116=CARTESIAN_POINT('',(140.,0.,0.));
#2117=CARTESIAN_POINT('Origin',(100.,0.,0.));
#2118=CARTESIAN_POINT('',(100.,0.,0.));
#2119=CARTESIAN_POINT('',(100.,0.,0.));
#2120=CARTESIAN_POINT('',(100.,0.,40.));
#2121=CARTESIAN_POINT('',(100.,0.,40.));
#2122=CARTESIAN_POINT('',(100.,0.,0.));
#2123=CARTESIAN_POINT('Origin',(100.,800.,0.));
#2124=CARTESIAN_POINT('',(100.,800.,0.));
#2125=CARTESIAN_POINT('',(100.,800.,40.));
#2126=CARTESIAN_POINT('Origin',(120.,400.,40.));
#2127=CARTESIAN_POINT('Origin',(120.,400.,0.));
#2128=CARTESIAN_POINT('',(-110.,0.,-8.));
#2129=CARTESIAN_POINT('',(0.,0.,0.));
#2130=CARTESIAN_POINT('',(0.,0.,0.));
#2131=CARTESIAN_POINT('',(-5.8058656741496,2.3752269117567,-10.));
#2132=CARTESIAN_POINT('',(-180.,0.,40.));
#2133=UNCERTAINTY_MEASURE_WITH_UNIT(LENGTH_MEASURE(0.01),#2147,
'DISTANCE_ACCURACY_VALUE',
'Maximum model space distance between geometric entities at asserted c
onnectivities');
#2134=UNCERTAINTY_MEASURE_WITH_UNIT(LENGTH_MEASURE(0.01),#2147,
'DISTANCE_ACCURACY_VALUE',
'Maximum model space distance between geometric entities at asserted c
onnectivities');
#2135=UNCERTAINTY_MEASURE_WITH_UNIT(LENGTH_MEASURE(0.01),#2147,
'DISTANCE_ACCURACY_VALUE',
'Maximum model space distance between geometric entities at asserted c
onnectivities');
#2136=UNCERTAINTY_MEASURE_WITH_UNIT(LENGTH_MEASURE(0.01),#2147,
'DISTANCE_ACCURACY_VALUE',
'Maximum model space distance between geometric entities at asserted c
onnectivities');
#2137=UNCERTAINTY_MEASURE_WITH_UNIT(LENGTH_MEASURE(0.01),#2147,
'DISTANCE_ACCURACY_VALUE',
'Maximum model space distance between geometric entities at asserted c
onnectivities');
#2138=UNCERTAINTY_MEASURE_WITH_UNIT(LENGTH_MEASURE(0.01),#2147,
'DISTANCE_ACCURACY_VALUE',
'Maximum model space distance between geometric entities at asserted c
onnectivities');
#2139=UNCERTAINTY_MEASURE_WITH_UNIT(LENGTH_MEASURE(0.01),#2147,
'DISTANCE_ACCURACY_VALUE',
'Maximum model space distance between geometric entities at asserted c
onnectivities');
#2140=(
GEOMETRIC_REPRESENTATION_CONTEXT(3)
GLOBAL_UNCERTAINTY_ASSIGNED_CONTEXT((#2133))
GLOBAL_UNIT_ASSIGNED_CONTEXT((#2147,#2149,#2150))
REPRESENTATION_CONTEXT('','3D')
);
#2141=(
GEOMETRIC_REPRESENTATION_CONTEXT(3)
GLOBAL_UNCERTAINTY_ASSIGNED_CONTEXT((#2134))
GLOBAL_UNIT_ASSIGNED_CONTEXT((#2147,#2149,#2150))
REPRESENTATION_CONTEXT('','3D')
);
#2142=(
GEOMETRIC_REPRESENTATION_CONTEXT(3)
GLOBAL_UNCERTAINTY_ASSIGNED_CONTEXT((#2135))
GLOBAL_UNIT_ASSIGNED_CONTEXT((#2147,#2149,#2150))
REPRESENTATION_CONTEXT('','3D')
);
#2143=(
GEOMETRIC_REPRESENTATION_CONTEXT(3)
GLOBAL_UNCERTAINTY_ASSIGNED_CONTEXT((#2136))
GLOBAL_UNIT_ASSIGNED_CONTEXT((#2147,#2149,#2150))
REPRESENTATION_CONTEXT('','3D')
);
#2144=(
GEOMETRIC_REPRESENTATION_CONTEXT(3)
GLOBAL_UNCERTAINTY_ASSIGNED_CONTEXT((#2137))
GLOBAL_UNIT_ASSIGNED_CONTEXT((#2147,#2149,#2150))
REPRESENTATION_CONTEXT('','3D')
);
#2145=(
GEOMETRIC_REPRESENTATION_CONTEXT(3)
GLOBAL_UNCERTAINTY_ASSIGNED_CONTEXT((#2138))
GLOBAL_UNIT_ASSIGNED_CONTEXT((#2147,#2149,#2150))
REPRESENTATION_CONTEXT('','3D')
);
#2146=(
GEOMETRIC_REPRESENTATION_CONTEXT(3)
GLOBAL_UNCERTAINTY_ASSIGNED_CONTEXT((#2139))
GLOBAL_UNIT_ASSIGNED_CONTEXT((#2147,#2149,#2150))
REPRESENTATION_CONTEXT('','3D')
);
#2147=(
LENGTH_UNIT()
NAMED_UNIT(*)
SI_UNIT(.MILLI.,.METRE.)
);
#2148=(
LENGTH_UNIT()
NAMED_UNIT(*)
SI_UNIT($,.METRE.)
);
#2149=(
NAMED_UNIT(*)
PLANE_ANGLE_UNIT()
SI_UNIT($,.RADIAN.)
);
#2150=(
NAMED_UNIT(*)
SI_UNIT($,.STERADIAN.)
SOLID_ANGLE_UNIT()
);
#2151=SHAPE_DEFINITION_REPRESENTATION(#2157,#2168);
#2152=SHAPE_DEFINITION_REPRESENTATION(#2158,#2169);
#2153=SHAPE_DEFINITION_REPRESENTATION(#2159,#2170);
#2154=SHAPE_DEFINITION_REPRESENTATION(#2160,#2171);
#2155=SHAPE_DEFINITION_REPRESENTATION(#2161,#2172);
#2156=SHAPE_DEFINITION_REPRESENTATION(#2162,#2173);
#2157=PRODUCT_DEFINITION_SHAPE('',$,#2175);
#2158=PRODUCT_DEFINITION_SHAPE('',$,#2176);
#2159=PRODUCT_DEFINITION_SHAPE('',$,#2177);
#2160=PRODUCT_DEFINITION_SHAPE('',$,#2178);
#2161=PRODUCT_DEFINITION_SHAPE('',$,#2179);
#2162=PRODUCT_DEFINITION_SHAPE('',$,#2180);
#2163=PRODUCT_DEFINITION_SHAPE($,$,#26);
#2164=PRODUCT_DEFINITION_SHAPE($,$,#27);
#2165=PRODUCT_DEFINITION_SHAPE($,$,#28);
#2166=PRODUCT_DEFINITION_SHAPE($,$,#29);
#2167=PRODUCT_DEFINITION_SHAPE($,$,#30);
#2168=SHAPE_REPRESENTATION('',(#1321,#1418,#1419,#1420,#1421),#2140);
#2169=SHAPE_REPRESENTATION('',(#1322),#2141);
#2170=SHAPE_REPRESENTATION('',(#1335),#2142);
#2171=SHAPE_REPRESENTATION('',(#1348),#2143);
#2172=SHAPE_REPRESENTATION('',(#1381,#1417),#2144);
#2173=SHAPE_REPRESENTATION('',(#1382),#2145);
#2174=PRODUCT_DEFINITION_CONTEXT('part definition',#2194,'design');
#2175=PRODUCT_DEFINITION('2026-01-17-23-56-37-888','Staff_Rack',#2181,#2174);
#2176=PRODUCT_DEFINITION('2026-01-18-00-21-34-010','Left_leg',#2182,#2174);
#2177=PRODUCT_DEFINITION('2026-01-18-00-21-40-719','Right_leg',#2183,#2174);
#2178=PRODUCT_DEFINITION('2026-01-18-00-22-32-985','Top_shelf',#2184,#2174);
#2179=PRODUCT_DEFINITION('2026-01-18-01-36-07-973','Bottom_Column',#2185,
#2174);
#2180=PRODUCT_DEFINITION('2026-01-18-01-37-54-274','Bottom_Shelf',#2186,
#2174);
#2181=PRODUCT_DEFINITION_FORMATION('',$,#2196);
#2182=PRODUCT_DEFINITION_FORMATION('',$,#2197);
#2183=PRODUCT_DEFINITION_FORMATION('',$,#2198);
#2184=PRODUCT_DEFINITION_FORMATION('',$,#2199);
#2185=PRODUCT_DEFINITION_FORMATION('',$,#2200);
#2186=PRODUCT_DEFINITION_FORMATION('',$,#2201);
#2187=PRODUCT_RELATED_PRODUCT_CATEGORY('Staff_Rack','Staff_Rack',(#2196));
#2188=PRODUCT_RELATED_PRODUCT_CATEGORY('Left_leg','Left_leg',(#2197));
#2189=PRODUCT_RELATED_PRODUCT_CATEGORY('Right_leg','Right_leg',(#2198));
#2190=PRODUCT_RELATED_PRODUCT_CATEGORY('Top_shelf','Top_shelf',(#2199));
#2191=PRODUCT_RELATED_PRODUCT_CATEGORY('Bottom_Column','Bottom_Column',
(#2200));
#2192=PRODUCT_RELATED_PRODUCT_CATEGORY('Bottom_Shelf','Bottom_Shelf',(#2201));
#2193=APPLICATION_PROTOCOL_DEFINITION('international standard',
'automotive_design',2009,#2194);
#2194=APPLICATION_CONTEXT(
'Core Data for Automotive Mechanical Design Process');
#2195=PRODUCT_CONTEXT('part definition',#2194,'mechanical');
#2196=PRODUCT('2026-01-17-23-56-37-888','Staff_Rack',$,(#2195));
#2197=PRODUCT('2026-01-18-00-21-34-010','Left_leg',$,(#2195));
#2198=PRODUCT('2026-01-18-00-21-40-719','Right_leg',$,(#2195));
#2199=PRODUCT('2026-01-18-00-22-32-985','Top_shelf',$,(#2195));
#2200=PRODUCT('2026-01-18-01-36-07-973','Bottom_Column',$,(#2195));
#2201=PRODUCT('2026-01-18-01-37-54-274','Bottom_Shelf',$,(#2195));
#2202=PRESENTATION_STYLE_ASSIGNMENT((#2203));
#2203=SURFACE_STYLE_USAGE(.BOTH.,#2204);
#2204=SURFACE_SIDE_STYLE('',(#2205));
#2205=SURFACE_STYLE_FILL_AREA(#2206);
#2206=FILL_AREA_STYLE('Steel - Satin',(#2207));
#2207=FILL_AREA_STYLE_COLOUR('Steel - Satin',#2208);
#2208=COLOUR_RGB('Steel - Satin',0.627450980392157,0.627450980392157,0.627450980392157);
ENDSEC;
END-ISO-10303-21;
