ISO-10303-21;
HEADER;
FILE_DESCRIPTION (( 'STEP AP203' ),
    '1' );
FILE_NAME ('tyre assembly.STEP',
    '2026-01-07T13:01:32',
    ( '' ),
    ( '' ),
    'SwSTEP 2.0',
    'SolidWorks 2025',
    '' );
FILE_SCHEMA (( 'CONFIG_CONTROL_DESIGN' ));
ENDSEC;

DATA;
#1 = DIRECTION ( 'NONE',  ( 0.000000000000000000, 0.000000000000000000, 1.000000000000000000 ) ) ;
#2 = EDGE_LOOP ( 'NONE', ( #120, #800, #1196, #15 ) ) ;
#3 = ORIENTED_EDGE ( 'NONE', *, *, #423, .F. ) ;
#4 = AXIS2_PLACEMENT_3D ( 'NONE', #1159, #322, #697 ) ;
#5 = ITEM_DEFINED_TRANSFORMATION ( 'NONE', 'NONE', #889,  #854 ) ;
#6 = DIRECTION ( 'NONE',  ( 1.000000000000000000, 0.000000000000000000, 0.000000000000000000 ) ) ;
#7 = PRODUCT_RELATED_PRODUCT_CATEGORY ( 'detail', '', ( #619 ) ) ;
#8 = ORIENTED_EDGE ( 'NONE', *, *, #856, .T. ) ;
#9 = EDGE_CURVE ( 'NONE', #360, #905, #599, .T. ) ;
#10 = APPROVAL_STATUS ( 'not_yet_approved' ) ;
#11 = CARTESIAN_POINT ( 'NONE',  ( 2.804585283553005648E-18, 1.381659106186107180E-34, -0.009315081319873221022 ) ) ;
#12 = APPLICATION_CONTEXT ( 'configuration controlled 3d designs of mechanical parts and assemblies' ) ;
#13 = CC_DESIGN_PERSON_AND_ORGANIZATION_ASSIGNMENT ( #558, #839, ( #565 ) ) ;
#14 = APPROVAL_PERSON_ORGANIZATION ( #202, #396, #1055 ) ;
#15 = ORIENTED_EDGE ( 'NONE', *, *, #1107, .T. ) ;
#16 = EDGE_CURVE ( 'NONE', #837, #740, #872, .T. ) ;
#17 = CONTEXT_DEPENDENT_SHAPE_REPRESENTATION ( #523, #432 ) ;
#18 = CIRCLE ( 'NONE', #235, 0.08000000000000000167 ) ;
#19 = DIRECTION ( 'NONE',  ( 1.000000000000000000, 0.000000000000000000, 0.000000000000000000 ) ) ;
#20 = CIRCLE ( 'NONE', #610, 0.02000000000000000042 ) ;
#21 = CARTESIAN_POINT ( 'NONE',  ( 2.804585283553005648E-18, 1.381659106186107180E-34, 0.02068491868012677787 ) ) ;
#22 = APPLICATION_CONTEXT ( 'configuration controlled 3d designs of mechanical parts and assemblies' ) ;
#23 = PRODUCT_DEFINITION ( 'UNKNOWN', '', #464, #618 ) ;
#24 = PERSON_AND_ORGANIZATION_ROLE ( 'classification_officer' ) ;
#25 = ADVANCED_FACE ( 'NONE', ( #676 ), #158, .T. ) ;
#26 = DIRECTION ( 'NONE',  ( 0.000000000000000000, 0.000000000000000000, 1.000000000000000000 ) ) ;
#27 = PRODUCT ( 'tyre', 'tyre', '', ( #623 ) ) ;
#28 = VERTEX_POINT ( 'NONE', #500 ) ;
#29 = DATE_AND_TIME ( #1051, #804 ) ;
#30 = LOCAL_TIME ( 18, 31, 32.00000000000000000, #840 ) ;
#31 = VERTEX_POINT ( 'NONE', #884 ) ;
#32 = FACE_OUTER_BOUND ( 'NONE', #1168, .T. ) ;
#33 = PLANE ( 'NONE',  #399 ) ;
#34 = CC_DESIGN_DATE_AND_TIME_ASSIGNMENT ( #1205, #1047, ( #565 ) ) ;
#35 = APPLICATION_CONTEXT ( 'configuration controlled 3d designs of mechanical parts and assemblies' ) ;
#36 = PLANE ( 'NONE',  #534 ) ;
#37 = VECTOR ( 'NONE', #818, 1.000000000000000000 ) ;
#38 = ORIENTED_EDGE ( 'NONE', *, *, #743, .F. ) ;
#39 = COORDINATED_UNIVERSAL_TIME_OFFSET ( 5, 30, .AHEAD. ) ;
#40 = AXIS2_PLACEMENT_3D ( 'NONE', #770, #363, #445 ) ;
#41 = ORIENTED_EDGE ( 'NONE', *, *, #272, .F. ) ;
#42 = CARTESIAN_POINT ( 'NONE',  ( 8.102447783841936887E-19, 1.622875959434772825E-35, -0.007387306203013630813 ) ) ;
#43 = CARTESIAN_POINT ( 'NONE',  ( -0.08000000000000000167, -3.974257710632856227E-35, 0.004999999999999995767 ) ) ;
#44 = CC_DESIGN_PERSON_AND_ORGANIZATION_ASSIGNMENT ( #677, #502, ( #464 ) ) ;
#45 = SECURITY_CLASSIFICATION_LEVEL ( 'unclassified' ) ;
#46 = ORIENTED_EDGE ( 'NONE', *, *, #353, .F. ) ;
#47 = CC_DESIGN_APPROVAL ( #817, ( #1061 ) ) ;
#48 = CARTESIAN_POINT ( 'NONE',  ( -0.1000000000000000056, -3.974257710632856227E-35, 0.005000000000000006176 ) ) ;
#49 = CARTESIAN_POINT ( 'NONE',  ( 2.804585283553005648E-18, 1.381659106186107180E-34, 0.07068491868012677370 ) ) ;
#50 = EDGE_CURVE ( 'NONE', #419, #739, #915, .T. ) ;
#51 = ORIENTED_EDGE ( 'NONE', *, *, #714, .F. ) ;
#52 = APPLICATION_PROTOCOL_DEFINITION ( 'international standard', 'config_control_design', 1994, #12 ) ;
#53 = CARTESIAN_POINT ( 'NONE',  ( 2.804585283553005648E-18, 1.381659106186107180E-34, 0.07068491868012677370 ) ) ;
#54 = CARTESIAN_POINT ( 'NONE',  ( 0.06708203932499369471, -0.02000000000000000042, 0.07068491868012677370 ) ) ;
#55 = PERSON_AND_ORGANIZATION_ROLE ( 'design_owner' ) ;
#56 = LOCAL_TIME ( 18, 31, 32.00000000000000000, #180 ) ;
#57 = CARTESIAN_POINT ( 'NONE',  ( 0.08000000000000000167, -3.974257710632856227E-35, 0.04499999999999999833 ) ) ;
#58 = AXIS2_PLACEMENT_3D ( 'NONE', #1116, #540, #1101 ) ;
#59 = DIRECTION ( 'NONE',  ( -0.000000000000000000, -0.000000000000000000, -1.000000000000000000 ) ) ;
#60 = AXIS2_PLACEMENT_3D ( 'NONE', #686, #602, #505 ) ;
#61 = PERSON_AND_ORGANIZATION_ROLE ( 'classification_officer' ) ;
#62 = DIRECTION ( 'NONE',  ( 1.000000000000000000, 0.000000000000000000, 0.000000000000000000 ) ) ;
#63 = DIRECTION ( 'NONE',  ( -1.000000000000000000, 0.000000000000000000, 0.000000000000000000 ) ) ;
#64 = APPROVAL_ROLE ( '' ) ;
#65 = APPROVAL_STATUS ( 'not_yet_approved' ) ;
#66 = LINE ( 'NONE', #929, #727 ) ;
#67 = APPROVAL ( #160, 'UNSPECIFIED' ) ;
#68 = DIRECTION ( 'NONE',  ( 1.224646799147353207E-16, 1.000000000000000000, -0.000000000000000000 ) ) ;
#69 = EDGE_LOOP ( 'NONE', ( #1170, #942, #550 ) ) ;
#70 = EDGE_LOOP ( 'NONE', ( #721, #126, #844, #1112, #361 ) ) ;
#71 = TOROIDAL_SURFACE ( 'NONE', #95, 0.08000000000000000167, 0.02000000000000000042 ) ;
#72 = DIRECTION ( 'NONE',  ( -0.6489381998582612887, 0.7608411218938676557, 3.053113317719179993E-16 ) ) ;
#73 = APPROVAL_ROLE ( '' ) ;
#74 = CYLINDRICAL_SURFACE ( 'NONE', #935, 0.08000000000000000167 ) ;
#75 = CIRCLE ( 'NONE', #532, 0.1000000000000000056 ) ;
#76 = ORIENTED_EDGE ( 'NONE', *, *, #1067, .T. ) ;
#77 = VERTEX_POINT ( 'NONE', #577 ) ;
#78 = PERSON ( 'UNSPECIFIED', 'UNSPECIFIED', 'UNSPECIFIED', ('UNSPECIFIED'), ('UNSPECIFIED'), ('UNSPECIFIED') ) ;
#79 = CC_DESIGN_PERSON_AND_ORGANIZATION_ASSIGNMENT ( #388, #102, ( #464 ) ) ;
#80 = DATE_AND_TIME ( #567, #30 ) ;
#81 = CARTESIAN_POINT ( 'NONE',  ( -0.1000000000000000056, -3.974257710632856227E-35, 0.02499999999999999445 ) ) ;
#82 = DIRECTION ( 'NONE',  ( 1.000000000000000000, 0.000000000000000000, 0.000000000000000000 ) ) ;
#83 = APPROVAL_PERSON_ORGANIZATION ( #989, #123, #695 ) ;
#84 = UNCERTAINTY_MEASURE_WITH_UNIT (LENGTH_MEASURE( 1.000000000000000082E-05 ), #1136, 'distance_accuracy_value', 'NONE');
#85 = ORIENTED_EDGE ( 'NONE', *, *, #994, .T. ) ;
#86 = EDGE_CURVE ( 'NONE', #291, #837, #487, .T. ) ;
#87 = PERSON_AND_ORGANIZATION_ROLE ( 'creator' ) ;
#88 = EDGE_CURVE ( 'NONE', #28, #206, #977, .T. ) ;
#89 = CARTESIAN_POINT ( 'NONE',  ( -0.07000000000000000666, 9.184850993605150286E-18, 0.02261269379698636894 ) ) ;
#90 = DIRECTION ( 'NONE',  ( 0.000000000000000000, 0.000000000000000000, -1.000000000000000000 ) ) ;
#91 = EDGE_LOOP ( 'NONE', ( #76, #331 ) ) ;
#92 = ORIENTED_EDGE ( 'NONE', *, *, #111, .F. ) ;
#93 =( NAMED_UNIT ( * ) SI_UNIT ( $, .STERADIAN. ) SOLID_ANGLE_UNIT ( ) );
#94 = CALENDAR_DATE ( 2026, 7, 1 ) ;
#95 = AXIS2_PLACEMENT_3D ( 'NONE', #918, #1173, #702 ) ;
#96 =( LENGTH_UNIT ( ) NAMED_UNIT ( * ) SI_UNIT ( $, .METRE. ) );
#97 = CARTESIAN_POINT ( 'NONE',  ( 2.804585283553005648E-18, 1.381659106186107180E-34, 0.02068491868012677787 ) ) ;
#98 = DESIGN_CONTEXT ( 'detailed design', #35, 'design' ) ;
#99 = AXIS2_PLACEMENT_3D ( 'NONE', #1023, #161, #447 ) ;
#100 = ORIENTED_EDGE ( 'NONE', *, *, #714, .T. ) ;
#101 = CIRCLE ( 'NONE', #282, 0.08000000000000000167 ) ;
#102 = PERSON_AND_ORGANIZATION_ROLE ( 'design_supplier' ) ;
#103 = EDGE_CURVE ( 'NONE', #757, #614, #964, .T. ) ;
#104 = CARTESIAN_POINT ( 'NONE',  ( -0.08000000000000000167, -3.974257710632856227E-35, 0.004999999999999995767 ) ) ;
#105 = EDGE_LOOP ( 'NONE', ( #460, #85, #827, #338 ) ) ;
#106 = CC_DESIGN_APPROVAL ( #195, ( #565 ) ) ;
#107 = ITEM_DEFINED_TRANSFORMATION ( 'NONE', 'NONE', #416,  #854 ) ;
#108 = EDGE_CURVE ( 'NONE', #360, #1212, #183, .T. ) ;
#109 = CC_DESIGN_DATE_AND_TIME_ASSIGNMENT ( #847, #751, ( #1165 ) ) ;
#110 = DIRECTION ( 'NONE',  ( 1.000000000000000000, 0.000000000000000000, 0.000000000000000000 ) ) ;
#111 = EDGE_CURVE ( 'NONE', #757, #475, #112, .T. ) ;
#112 = LINE ( 'NONE', #878, #122 ) ;
#113 = DATE_TIME_ROLE ( 'classification_date' ) ;
#114 = DIRECTION ( 'NONE',  ( 1.000000000000000000, 0.000000000000000000, 0.000000000000000000 ) ) ;
#115 = ORIENTED_EDGE ( 'NONE', *, *, #218, .F. ) ;
#116 = APPROVAL_ROLE ( '' ) ;
#117 = VECTOR ( 'NONE', #382, 1.000000000000000000 ) ;
#118 = VERTEX_POINT ( 'NONE', #868 ) ;
#119 = CARTESIAN_POINT ( 'NONE',  ( 1.988024782637211730E-18, -3.974257710632856227E-35, 0.04499999999999999833 ) ) ;
#120 = ORIENTED_EDGE ( 'NONE', *, *, #86, .F. ) ;
#121 = CLOSED_SHELL ( 'NONE', ( #25, #981, #631, #159, #576, #589 ) ) ;
#122 = VECTOR ( 'NONE', #682, 1.000000000000000000 ) ;
#123 = APPROVAL ( #333, 'UNSPECIFIED' ) ;
#124 = LOCAL_TIME ( 18, 31, 32.00000000000000000, #146 ) ;
#125 = CARTESIAN_POINT ( 'NONE',  ( -0.08000000000000000167, 1.381659106186107180E-34, 0.01068491868012677593 ) ) ;
#126 = ORIENTED_EDGE ( 'NONE', *, *, #490, .F. ) ;
#127 = PERSON_AND_ORGANIZATION ( #78, #280 ) ;
#128 = LINE ( 'NONE', #882, #753 ) ;
#129 = AXIS2_PLACEMENT_3D ( 'NONE', #393, #594, #963 ) ;
#130 = DIRECTION ( 'NONE',  ( 0.000000000000000000, 0.000000000000000000, 1.000000000000000000 ) ) ;
#131 = EDGE_LOOP ( 'NONE', ( #227, #171, #820, #650 ) ) ;
#132 = PERSON_AND_ORGANIZATION_ROLE ( 'creator' ) ;
#133 = CIRCLE ( 'NONE', #154, 0.07000000000000000666 ) ;
#134 = ORIENTED_EDGE ( 'NONE', *, *, #436, .F. ) ;
#135 = CARTESIAN_POINT ( 'NONE',  ( 0.06708203932499369471, 0.02000000000000000042, 0.07068491868012677370 ) ) ;
#136 = ADVANCED_FACE ( 'NONE', ( #777 ), #1065, .T. ) ;
#137 = CARTESIAN_POINT ( 'NONE',  ( 1.988024782637211730E-18, -3.974257710632856227E-35, -0.01499999999999999771 ) ) ;
#138 = PERSON_AND_ORGANIZATION ( #78, #280 ) ;
#139 =( REPRESENTATION_RELATIONSHIP ('NONE','NONE', #927, #672 ) REPRESENTATION_RELATIONSHIP_WITH_TRANSFORMATION ( #107 )SHAPE_REPRESENTATION_RELATIONSHIP( ) );
#140 = LOCAL_TIME ( 18, 31, 32.00000000000000000, #944 ) ;
#141 = CYLINDRICAL_SURFACE ( 'NONE', #597, 0.08000000000000000167 ) ;
#142 = CC_DESIGN_PERSON_AND_ORGANIZATION_ASSIGNMENT ( #1199, #545, ( #619 ) ) ;
#143 = CARTESIAN_POINT ( 'NONE',  ( 1.988024782637211730E-18, -3.974257710632856227E-35, 0.02499999999999999445 ) ) ;
#144 = ADVANCED_FACE ( 'NONE', ( #980 ), #766, .T. ) ;
#145 = ORIENTED_EDGE ( 'NONE', *, *, #1107, .F. ) ;
#146 = COORDINATED_UNIVERSAL_TIME_OFFSET ( 5, 30, .AHEAD. ) ;
#147 = LOCAL_TIME ( 18, 31, 32.00000000000000000, #309 ) ;
#148 = DIRECTION ( 'NONE',  ( 0.000000000000000000, 0.000000000000000000, 1.000000000000000000 ) ) ;
#149 = PRODUCT_DEFINITION_SHAPE ( 'NONE', 'NONE',  #404 ) ;
#150 = AXIS2_PLACEMENT_3D ( 'NONE', #49, #348, #434 ) ;
#151 = PLANE ( 'NONE',  #885 ) ;
#152 = ORIENTED_EDGE ( 'NONE', *, *, #679, .F. ) ;
#153 = PERSON_AND_ORGANIZATION ( #78, #280 ) ;
#154 = AXIS2_PLACEMENT_3D ( 'NONE', #265, #660, #358 ) ;
#155 = LINE ( 'NONE', #287, #1124 ) ;
#156 = AXIS2_PLACEMENT_3D ( 'NONE', #119, #1074, #760 ) ;
#157 = DIRECTION ( 'NONE',  ( 1.000000000000000000, 0.000000000000000000, 0.000000000000000000 ) ) ;
#158 = TOROIDAL_SURFACE ( 'NONE', #225, 0.07000000000000000666, 0.01000000000000000021 ) ;
#159 = ADVANCED_FACE ( 'NONE', ( #596 ), #33, .T. ) ;
#160 = APPROVAL_STATUS ( 'not_yet_approved' ) ;
#161 = DIRECTION ( 'NONE',  ( 0.000000000000000000, 0.000000000000000000, 1.000000000000000000 ) ) ;
#162 = LOCAL_TIME ( 18, 31, 32.00000000000000000, #554 ) ;
#163 = DIRECTION ( 'NONE',  ( -0.000000000000000000, -0.000000000000000000, -1.000000000000000000 ) ) ;
#164 = VERTEX_POINT ( 'NONE', #329 ) ;
#165 = CALENDAR_DATE ( 2026, 7, 1 ) ;
#166 = APPROVAL_DATE_TIME ( #559, #712 ) ;
#167 = CC_DESIGN_APPROVAL ( #830, ( #684 ) ) ;
#168 = DIRECTION ( 'NONE',  ( -0.000000000000000000, -0.000000000000000000, -1.000000000000000000 ) ) ;
#169 = CARTESIAN_POINT ( 'NONE',  ( 0.08000000000000000167, -3.974257710632856227E-35, 0.02500000000000000833 ) ) ;
#170 = UNCERTAINTY_MEASURE_WITH_UNIT (LENGTH_MEASURE( 1.000000000000000082E-05 ), #479, 'distance_accuracy_value', 'NONE');
#171 = ORIENTED_EDGE ( 'NONE', *, *, #525, .F. ) ;
#172 = ORIENTED_EDGE ( 'NONE', *, *, #795, .F. ) ;
#173 = CALENDAR_DATE ( 2026, 7, 1 ) ;
#174 = PERSON_AND_ORGANIZATION ( #78, #280 ) ;
#175 = DIRECTION ( 'NONE',  ( -0.000000000000000000, -0.000000000000000000, -1.000000000000000000 ) ) ;
#176 = EDGE_CURVE ( 'NONE', #1139, #563, #990, .T. ) ;
#177 = DIRECTION ( 'NONE',  ( 0.000000000000000000, 0.000000000000000000, 1.000000000000000000 ) ) ;
#178 = ORIENTED_EDGE ( 'NONE', *, *, #436, .T. ) ;
#179 = ORIENTED_EDGE ( 'NONE', *, *, #325, .T. ) ;
#180 = COORDINATED_UNIVERSAL_TIME_OFFSET ( 5, 30, .AHEAD. ) ;
#181 = PERSON_AND_ORGANIZATION_ROLE ( 'creator' ) ;
#182 = CARTESIAN_POINT ( 'NONE',  ( 2.804585283553005648E-18, 1.381659106186107180E-34, 0.01068491868012677593 ) ) ;
#183 = CIRCLE ( 'NONE', #1181, 0.1000000000000000056 ) ;
#184 = DIRECTION ( 'NONE',  ( -0.000000000000000000, -0.000000000000000000, -1.000000000000000000 ) ) ;
#185 = APPROVAL_PERSON_ORGANIZATION ( #651, #1030, #286 ) ;
#186 = ORIENTED_EDGE ( 'NONE', *, *, #108, .F. ) ;
#187 = CALENDAR_DATE ( 2026, 7, 1 ) ;
#188 = APPROVAL_DATE_TIME ( #1038, #67 ) ;
#189 =( NAMED_UNIT ( * ) SI_UNIT ( $, .STERADIAN. ) SOLID_ANGLE_UNIT ( ) );
#190 = VECTOR ( 'NONE', #725, 1.000000000000000000 ) ;
#191 = FACE_OUTER_BOUND ( 'NONE', #643, .T. ) ;
#192 = ORGANIZATION ( 'NAUO-ORG1', 'UNSPECIFIED', 'UNSPECIFIED' ) ;
#193 = ORIENTED_EDGE ( 'NONE', *, *, #330, .T. ) ;
#194 = ORIENTED_EDGE ( 'NONE', *, *, #176, .F. ) ;
#195 = APPROVAL ( #1050, 'UNSPECIFIED' ) ;
#196 = AXIS2_PLACEMENT_3D ( 'NONE', #1189, #835, #274 ) ;
#197 = EDGE_CURVE ( 'NONE', #905, #377, #825, .T. ) ;
#198 = DIRECTION ( 'NONE',  ( 1.000000000000000000, 0.000000000000000000, 0.000000000000000000 ) ) ;
#199 = DIRECTION ( 'NONE',  ( 0.000000000000000000, 0.000000000000000000, 1.000000000000000000 ) ) ;
#200 = ORIENTED_EDGE ( 'NONE', *, *, #781, .F. ) ;
#201 = AXIS2_PLACEMENT_3D ( 'NONE', #690, #667, #871 ) ;
#202 = PERSON_AND_ORGANIZATION ( #685, #1171 ) ;
#203 = CC_DESIGN_PERSON_AND_ORGANIZATION_ASSIGNMENT ( #527, #132, ( #404 ) ) ;
#204 = EDGE_CURVE ( 'NONE', #31, #757, #20, .T. ) ;
#205 = DIRECTION ( 'NONE',  ( 0.000000000000000000, 0.000000000000000000, 1.000000000000000000 ) ) ;
#206 = VERTEX_POINT ( 'NONE', #43 ) ;
#207 = SECURITY_CLASSIFICATION ( '', '', #627 ) ;
#208 = CALENDAR_DATE ( 2026, 7, 1 ) ;
#209 = SHAPE_REPRESENTATION_RELATIONSHIP ( 'NONE' , 'NONE' ,  #335, #744 ) ;
#210 = CARTESIAN_POINT ( 'NONE',  ( 2.804585283553005648E-18, -0.02000000000000000042, 0.07068491868012677370 ) ) ;
#211 = DESIGN_CONTEXT ( 'detailed design', #250, 'design' ) ;
#212 = APPROVAL ( #873, 'UNSPECIFIED' ) ;
#213 = CC_DESIGN_SECURITY_CLASSIFICATION ( #501, ( #464 ) ) ;
#214 = DIRECTION ( 'NONE',  ( 0.000000000000000000, 0.000000000000000000, 1.000000000000000000 ) ) ;
#215 = COORDINATED_UNIVERSAL_TIME_OFFSET ( 5, 30, .AHEAD. ) ;
#216 = SHAPE_REPRESENTATION ( 'rim other side', ( #854 ), #971 ) ;
#217 = CIRCLE ( 'NONE', #848, 0.08000000000000000167 ) ;
#218 = EDGE_CURVE ( 'NONE', #531, #377, #625, .T. ) ;
#219 = CARTESIAN_POINT ( 'NONE',  ( 1.988024782637211730E-18, -3.974257710632856227E-35, 0.02500000000000000833 ) ) ;
#220 = EDGE_CURVE ( 'NONE', #118, #828, #398, .T. ) ;
#221 = DIRECTION ( 'NONE',  ( -0.000000000000000000, -0.000000000000000000, -1.000000000000000000 ) ) ;
#222 = TOROIDAL_SURFACE ( 'NONE', #673, 0.07000000000000000666, 0.01000000000000000021 ) ;
#223 = DATE_AND_TIME ( #1060, #595 ) ;
#224 = CIRCLE ( 'NONE', #573, 0.07000000000000000666 ) ;
#225 = AXIS2_PLACEMENT_3D ( 'NONE', #410, #773, #1161 ) ;
#226 = DIRECTION ( 'NONE',  ( -1.000000000000000000, 0.000000000000000000, 0.000000000000000000 ) ) ;
#227 = ORIENTED_EDGE ( 'NONE', *, *, #1188, .F. ) ;
#228 = PERSON_AND_ORGANIZATION_ROLE ( 'design_supplier' ) ;
#229 = PLANE ( 'NONE',  #870 ) ;
#230 = PLANE ( 'NONE',  #765 ) ;
#231 = EDGE_CURVE ( 'NONE', #1212, #360, #1208, .T. ) ;
#232 = DATE_AND_TIME ( #327, #247 ) ;
#233 = PRODUCT_DEFINITION_SHAPE ( 'NONE', 'NONE',  #565 ) ;
#234 = FACE_OUTER_BOUND ( 'NONE', #1020, .T. ) ;
#235 = AXIS2_PLACEMENT_3D ( 'NONE', #849, #163, #1122 ) ;
#236 = CARTESIAN_POINT ( 'NONE',  ( 2.804585283553005648E-18, 1.381659106186107180E-34, 0.02068491868012677787 ) ) ;
#237 = VERTEX_POINT ( 'NONE', #1167 ) ;
#238 = APPROVAL_DATE_TIME ( #809, #801 ) ;
#239 = CIRCLE ( 'NONE', #99, 0.08000000000000000167 ) ;
#240 = CC_DESIGN_DATE_AND_TIME_ASSIGNMENT ( #468, #853, ( #298 ) ) ;
#241 = DIRECTION ( 'NONE',  ( -0.000000000000000000, -0.000000000000000000, 1.000000000000000000 ) ) ;
#242 = ADVANCED_FACE ( 'NONE', ( #1005 ), #151, .T. ) ;
#243 = LINE ( 'NONE', #995, #823 ) ;
#244 = ORIENTED_EDGE ( 'NONE', *, *, #1131, .T. ) ;
#245 = PRODUCT_DEFINITION_SHAPE ( 'NONE', 'NONE',  #1216 ) ;
#246 = PERSON_AND_ORGANIZATION ( #78, #280 ) ;
#247 = LOCAL_TIME ( 18, 31, 32.00000000000000000, #431 ) ;
#248 = DIRECTION ( 'NONE',  ( 1.000000000000000000, 0.000000000000000000, 0.000000000000000000 ) ) ;
#249 = CARTESIAN_POINT ( 'NONE',  ( 0.1000000000000000056, 1.224646799147353269E-17, 0.02499999999999999445 ) ) ;
#250 = APPLICATION_CONTEXT ( 'configuration controlled 3d designs of mechanical parts and assemblies' ) ;
#251 = PERSON_AND_ORGANIZATION ( #78, #280 ) ;
#252 = ORGANIZATION ( 'NAUO-ORG3', 'UNSPECIFIED', 'UNSPECIFIED' ) ;
#253 = DIRECTION ( 'NONE',  ( 1.000000000000000000, 0.000000000000000000, 0.000000000000000000 ) ) ;
#254 = VECTOR ( 'NONE', #720, 1.000000000000000000 ) ;
#255 = CARTESIAN_POINT ( 'NONE',  ( 0.08000000000000000167, 9.797174393178825534E-18, -0.009315081319873221022 ) ) ;
#256 = ADVANCED_FACE ( 'NONE', ( #537 ), #71, .T. ) ;
#257 = ORIENTED_EDGE ( 'NONE', *, *, #815, .T. ) ;
#258 = COORDINATED_UNIVERSAL_TIME_OFFSET ( 5, 30, .AHEAD. ) ;
#259 = DIRECTION ( 'NONE',  ( -0.000000000000000000, -0.000000000000000000, -1.000000000000000000 ) ) ;
#260 = CIRCLE ( 'NONE', #1103, 0.08000000000000000167 ) ;
#261 = CARTESIAN_POINT ( 'NONE',  ( 1.988024782637211730E-18, -3.974257710632856227E-35, 0.005000000000000006176 ) ) ;
#262 = ORIENTED_EDGE ( 'NONE', *, *, #1131, .F. ) ;
#263 = DIRECTION ( 'NONE',  ( -1.347754361657812850E-16, 2.863283760203652103E-16, -1.000000000000000000 ) ) ;
#264 = CALENDAR_DATE ( 2026, 7, 1 ) ;
#265 = CARTESIAN_POINT ( 'NONE',  ( 8.102447783841936887E-19, 1.622875959434772825E-35, 0.02261269379698636894 ) ) ;
#266 = APPROVAL_PERSON_ORGANIZATION ( #1128, #817, #64 ) ;
#267 = APPLICATION_CONTEXT ( 'configuration controlled 3d designs of mechanical parts and assemblies' ) ;
#268 = CYLINDRICAL_SURFACE ( 'NONE', #300, 0.08000000000000000167 ) ;
#269 = EDGE_LOOP ( 'NONE', ( #515, #385, #100, #1026 ) ) ;
#270 = DIRECTION ( 'NONE',  ( 0.8791037310088298806, -0.4766304964292096824, -3.330669073875469621E-16 ) ) ;
#271 = PERSON_AND_ORGANIZATION ( #78, #280 ) ;
#272 = EDGE_CURVE ( 'NONE', #739, #77, #243, .T. ) ;
#273 = CARTESIAN_POINT ( 'NONE',  ( 0.07000000000000000666, 1.622875959434772825E-35, 0.02261269379698636894 ) ) ;
#274 = DIRECTION ( 'NONE',  ( 1.000000000000000000, 0.000000000000000000, 0.000000000000000000 ) ) ;
#275 = ORIENTED_EDGE ( 'NONE', *, *, #525, .T. ) ;
#276 = EDGE_LOOP ( 'NONE', ( #193, #780, #851, #349, #703 ) ) ;
#277 =( NAMED_UNIT ( * ) SI_UNIT ( $, .STERADIAN. ) SOLID_ANGLE_UNIT ( ) );
#278 = APPLICATION_PROTOCOL_DEFINITION ( 'international standard', 'config_control_design', 1994, #774 ) ;
#279 = DIRECTION ( 'NONE',  ( 1.000000000000000000, 0.000000000000000000, 0.000000000000000000 ) ) ;
#280 = ORGANIZATION ( 'UNSPECIFIED', 'UNSPECIFIED', '' ) ;
#281 = DIRECTION ( 'NONE',  ( 1.000000000000000000, 0.000000000000000000, 0.000000000000000000 ) ) ;
#282 = AXIS2_PLACEMENT_3D ( 'NONE', #11, #26, #110 ) ;
#283 = VERTEX_POINT ( 'NONE', #255 ) ;
#284 = ORIENTED_EDGE ( 'NONE', *, *, #231, .T. ) ;
#285 = COORDINATED_UNIVERSAL_TIME_OFFSET ( 5, 30, .AHEAD. ) ;
#286 = APPROVAL_ROLE ( '' ) ;
#287 = CARTESIAN_POINT ( 'NONE',  ( 0.06708203932499369471, 0.02000000000000000042, 0.02068491868012675705 ) ) ;
#288 = AXIS2_PLACEMENT_3D ( 'NONE', #590, #968, #1143 ) ;
#289 = FACE_OUTER_BOUND ( 'NONE', #297, .T. ) ;
#290 = LOCAL_TIME ( 18, 31, 32.00000000000000000, #39 ) ;
#291 = VERTEX_POINT ( 'NONE', #54 ) ;
#292 = ORIENTED_EDGE ( 'NONE', *, *, #50, .F. ) ;
#293 = COORDINATED_UNIVERSAL_TIME_OFFSET ( 5, 30, .AHEAD. ) ;
#294 = LOCAL_TIME ( 18, 31, 32.00000000000000000, #488 ) ;
#295 = FACE_OUTER_BOUND ( 'NONE', #749, .T. ) ;
#296 = EDGE_CURVE ( 'NONE', #475, #291, #422, .T. ) ;
#297 = EDGE_LOOP ( 'NONE', ( #894, #292, #983, #1164 ) ) ;
#298 = PRODUCT_DEFINITION ( 'UNKNOWN', '', #1183, #98 ) ;
#299 = DATE_AND_TIME ( #1140, #350 ) ;
#300 = AXIS2_PLACEMENT_3D ( 'NONE', #465, #184, #843 ) ;
#301 =( NAMED_UNIT ( * ) SI_UNIT ( $, .STERADIAN. ) SOLID_ANGLE_UNIT ( ) );
#302 = DIRECTION ( 'NONE',  ( -0.000000000000000000, -0.000000000000000000, -1.000000000000000000 ) ) ;
#303 = CARTESIAN_POINT ( 'NONE',  ( 2.804585283553005648E-18, 0.02000000000000000042, 0.07068491868012677370 ) ) ;
#304 = CIRCLE ( 'NONE', #694, 0.08000000000000000167 ) ;
#305 = CALENDAR_DATE ( 2026, 7, 1 ) ;
#306 = DIRECTION ( 'NONE',  ( 0.000000000000000000, 0.000000000000000000, -1.000000000000000000 ) ) ;
#307 = DIRECTION ( 'NONE',  ( -1.000000000000000000, 0.000000000000000000, 0.000000000000000000 ) ) ;
#308 = LOCAL_TIME ( 18, 31, 32.00000000000000000, #790 ) ;
#309 = COORDINATED_UNIVERSAL_TIME_OFFSET ( 5, 30, .AHEAD. ) ;
#310 = ADVANCED_FACE ( 'NONE', ( #530 ), #230, .T. ) ;
#311 = DIRECTION ( 'NONE',  ( 0.000000000000000000, -1.000000000000000000, 0.000000000000000000 ) ) ;
#312 = ORIENTED_EDGE ( 'NONE', *, *, #1145, .T. ) ;
#313 = DATE_AND_TIME ( #305, #1210 ) ;
#314 = APPLICATION_CONTEXT ( 'configuration controlled 3d designs of mechanical parts and assemblies' ) ;
#315 = CIRCLE ( 'NONE', #528, 0.009999999999999995004 ) ;
#316 = ORIENTED_EDGE ( 'NONE', *, *, #330, .F. ) ;
#317 = EDGE_CURVE ( 'NONE', #237, #283, #1141, .T. ) ;
#318 = DIRECTION ( 'NONE',  ( -0.000000000000000000, -0.000000000000000000, -1.000000000000000000 ) ) ;
#319 = CARTESIAN_POINT ( 'NONE',  ( 1.988024782637211730E-18, -3.974257710632856227E-35, 0.02499999999999999445 ) ) ;
#320 = AXIS2_PLACEMENT_3D ( 'NONE', #925, #1027, #270 ) ;
#321 = AXIS2_PLACEMENT_3D ( 'NONE', #775, #311, #1068 ) ;
#322 = DIRECTION ( 'NONE',  ( -0.000000000000000000, -0.000000000000000000, -1.000000000000000000 ) ) ;
#323 = DESIGN_CONTEXT ( 'detailed design', #22, 'design' ) ;
#324 = CARTESIAN_POINT ( 'NONE',  ( 2.804585283553005648E-18, 1.381659106186107180E-34, 0.02068491868012677787 ) ) ;
#325 = EDGE_CURVE ( 'NONE', #758, #164, #449, .T. ) ;
#326 = ORIENTED_EDGE ( 'NONE', *, *, #423, .T. ) ;
#327 = CALENDAR_DATE ( 2026, 7, 1 ) ;
#328 = DIRECTION ( 'NONE',  ( 1.000000000000000000, 0.000000000000000000, 0.000000000000000000 ) ) ;
#329 = CARTESIAN_POINT ( 'NONE',  ( -0.07000000000000000666, 9.184850993605150286E-18, 0.02068491868012677787 ) ) ;
#330 = EDGE_CURVE ( 'NONE', #740, #542, #952, .T. ) ;
#331 = ORIENTED_EDGE ( 'NONE', *, *, #1104, .T. ) ;
#332 = CC_DESIGN_PERSON_AND_ORGANIZATION_ASSIGNMENT ( #357, #659, ( #1165 ) ) ;
#333 = APPROVAL_STATUS ( 'not_yet_approved' ) ;
#334 = EDGE_CURVE ( 'NONE', #758, #237, #1178, .T. ) ;
#335 = SHAPE_REPRESENTATION ( 'rim of tyre', ( #854 ), #1011 ) ;
#336 = DIRECTION ( 'NONE',  ( 1.000000000000000000, 0.000000000000000000, -0.000000000000000000 ) ) ;
#337 = CARTESIAN_POINT ( 'NONE',  ( 1.988024782637211730E-18, -3.974257710632856227E-35, 0.04499999999999999833 ) ) ;
#338 = ORIENTED_EDGE ( 'NONE', *, *, #9, .F. ) ;
#339 = PERSON_AND_ORGANIZATION_ROLE ( 'classification_officer' ) ;
#340 = DATE_TIME_ROLE ( 'creation_date' ) ;
#341 = CIRCLE ( 'NONE', #806, 0.08000000000000000167 ) ;
#342 = DIRECTION ( 'NONE',  ( 0.000000000000000000, 0.000000000000000000, 1.000000000000000000 ) ) ;
#343 = DIRECTION ( 'NONE',  ( 1.000000000000000000, 0.000000000000000000, 0.000000000000000000 ) ) ;
#344 = CALENDAR_DATE ( 2026, 7, 1 ) ;
#345 = APPROVAL_PERSON_ORGANIZATION ( #271, #712, #538 ) ;
#346 = CARTESIAN_POINT ( 'NONE',  ( 8.102447783841936887E-19, 1.622875959434772825E-35, 0.02261269379698636894 ) ) ;
#347 = CC_DESIGN_PERSON_AND_ORGANIZATION_ASSIGNMENT ( #950, #779, ( #1061 ) ) ;
#348 = DIRECTION ( 'NONE',  ( 0.000000000000000000, 0.000000000000000000, 1.000000000000000000 ) ) ;
#349 = ORIENTED_EDGE ( 'NONE', *, *, #86, .T. ) ;
#350 = LOCAL_TIME ( 18, 31, 32.00000000000000000, #763 ) ;
#351 = DATE_AND_TIME ( #1028, #140 ) ;
#352 = FACE_OUTER_BOUND ( 'NONE', #557, .T. ) ;
#353 = EDGE_CURVE ( 'NONE', #564, #905, #1093, .T. ) ;
#354 = CIRCLE ( 'NONE', #196, 0.08000000000000000167 ) ;
#355 = DIRECTION ( 'NONE',  ( -1.000000000000000000, 0.000000000000000000, 0.000000000000000000 ) ) ;
#356 = CC_DESIGN_PERSON_AND_ORGANIZATION_ASSIGNMENT ( #571, #24, ( #684 ) ) ;
#357 = PERSON_AND_ORGANIZATION ( #78, #280 ) ;
#358 = DIRECTION ( 'NONE',  ( 1.000000000000000000, 0.000000000000000000, 0.000000000000000000 ) ) ;
#359 = CARTESIAN_POINT ( 'NONE',  ( 1.988024782637211730E-18, -3.974257710632856227E-35, -0.01499999999999999771 ) ) ;
#360 = VERTEX_POINT ( 'NONE', #249 ) ;
#361 = ORIENTED_EDGE ( 'NONE', *, *, #967, .F. ) ;
#362 = EDGE_CURVE ( 'NONE', #1125, #740, #1078, .T. ) ;
#363 = DIRECTION ( 'NONE',  ( 0.000000000000000000, 0.000000000000000000, 1.000000000000000000 ) ) ;
#364 = DATE_AND_TIME ( #1115, #485 ) ;
#365 = DIRECTION ( 'NONE',  ( -1.000000000000000000, 0.000000000000000000, 0.000000000000000000 ) ) ;
#366 = LOCAL_TIME ( 18, 31, 32.00000000000000000, #467 ) ;
#367 = CARTESIAN_POINT ( 'NONE',  ( -0.08000000000000000167, 9.797174393178825534E-18, 0.02500000000000000833 ) ) ;
#368 = ORIENTED_EDGE ( 'NONE', *, *, #640, .F. ) ;
#369 = EDGE_LOOP ( 'NONE', ( #1126, #51 ) ) ;
#370 = DIRECTION ( 'NONE',  ( 1.000000000000000000, 0.000000000000000000, 0.000000000000000000 ) ) ;
#371 = CC_DESIGN_PERSON_AND_ORGANIZATION_ASSIGNMENT ( #916, #55, ( #704 ) ) ;
#372 = PERSON_AND_ORGANIZATION_ROLE ( 'creator' ) ;
#373 = ADVANCED_FACE ( 'NONE', ( #191 ), #928, .T. ) ;
#374 = CARTESIAN_POINT ( 'NONE',  ( -0.01999999999999999695, 1.381659106186107180E-34, 0.07068491868012677370 ) ) ;
#375 = CARTESIAN_POINT ( 'NONE',  ( 0.08000000000000000167, 9.797174393178825534E-18, 0.01068491868012677593 ) ) ;
#376 = AXIS2_PLACEMENT_3D ( 'NONE', #635, #1209, #1194 ) ;
#377 = VERTEX_POINT ( 'NONE', #648 ) ;
#378 = ORIENTED_EDGE ( 'NONE', *, *, #362, .T. ) ;
#379 = PERSON_AND_ORGANIZATION ( #78, #280 ) ;
#380 = PERSON_AND_ORGANIZATION ( #78, #280 ) ;
#381 = APPLICATION_CONTEXT ( 'configuration controlled 3d designs of mechanical parts and assemblies' ) ;
#382 = DIRECTION ( 'NONE',  ( -0.000000000000000000, -0.000000000000000000, -1.000000000000000000 ) ) ;
#383 = AXIS2_PLACEMENT_3D ( 'NONE', #824, #175, #917 ) ;
#384 = AXIS2_PLACEMENT_3D ( 'NONE', #1086, #439, #248 ) ;
#385 = ORIENTED_EDGE ( 'NONE', *, *, #1049, .T. ) ;
#386 = AXIS2_PLACEMENT_3D ( 'NONE', #1054, #1148, #491 ) ;
#387 = MECHANICAL_CONTEXT ( 'NONE', #267, 'mechanical' ) ;
#388 = PERSON_AND_ORGANIZATION ( #78, #280 ) ;
#389 = ADVANCED_FACE ( 'NONE', ( #939 ), #472, .T. ) ;
#390 = DIRECTION ( 'NONE',  ( 1.000000000000000000, 0.000000000000000000, 0.000000000000000000 ) ) ;
#391 = EDGE_LOOP ( 'NONE', ( #934, #688, #412, #923 ) ) ;
#392 = DATE_AND_TIME ( #670, #147 ) ;
#393 = CARTESIAN_POINT ( 'NONE',  ( 1.988024782637211730E-18, -3.974257710632856227E-35, 0.04499999999999999833 ) ) ;
#394 = VERTEX_POINT ( 'NONE', #375 ) ;
#395 = VECTOR ( 'NONE', #973, 1.000000000000000000 ) ;
#396 = APPROVAL ( #10, 'UNKNOWN' ) ;
#397 =( NAMED_UNIT ( * ) PLANE_ANGLE_UNIT ( ) SI_UNIT ( $, .RADIAN. ) );
#398 = CIRCLE ( 'NONE', #469, 0.1000000000000000056 ) ;
#399 = AXIS2_PLACEMENT_3D ( 'NONE', #429, #798, #440 ) ;
#400 = CYLINDRICAL_SURFACE ( 'NONE', #129, 0.1000000000000000056 ) ;
#401 = VECTOR ( 'NONE', #1121, 1.000000000000000000 ) ;
#402 = ORIENTED_EDGE ( 'NONE', *, *, #498, .F. ) ;
#403 = ITEM_DEFINED_TRANSFORMATION ( 'NONE', 'NONE', #320,  #854 ) ;
#404 = PRODUCT_DEFINITION ( 'UNKNOWN', '', #813, #323 ) ;
#405 = LINE ( 'NONE', #489, #912 ) ;
#406 = CC_DESIGN_APPROVAL ( #637, ( #404 ) ) ;
#407 = PERSON_AND_ORGANIZATION ( #78, #280 ) ;
#408 = CARTESIAN_POINT ( 'NONE',  ( 8.102447783841936887E-19, 1.622875959434772825E-35, 0.02261269379698636894 ) ) ;
#409 = CC_DESIGN_SECURITY_CLASSIFICATION ( #845, ( #1216 ) ) ;
#410 = CARTESIAN_POINT ( 'NONE',  ( 8.102447783841936887E-19, 1.622875959434772825E-35, 0.01261269379698636700 ) ) ;
#411 = CIRCLE ( 'NONE', #707, 0.08000000000000000167 ) ;
#412 = ORIENTED_EDGE ( 'NONE', *, *, #334, .T. ) ;
#413 = DIRECTION ( 'NONE',  ( 1.000000000000000000, 0.000000000000000000, -0.000000000000000000 ) ) ;
#414 = ADVANCED_FACE ( 'NONE', ( #642 ), #756, .T. ) ;
#415 = DIRECTION ( 'NONE',  ( -1.000000000000000000, -0.000000000000000000, -0.000000000000000000 ) ) ;
#416 = AXIS2_PLACEMENT_3D ( 'NONE', #846, #263, #72 ) ;
#417 = AXIS2_PLACEMENT_3D ( 'NONE', #433, #803, #336 ) ;
#418 = CALENDAR_DATE ( 2026, 7, 1 ) ;
#419 = VERTEX_POINT ( 'NONE', #1031 ) ;
#420 = CYLINDRICAL_SURFACE ( 'NONE', #1057, 0.08000000000000000167 ) ;
#421 = CC_DESIGN_PERSON_AND_ORGANIZATION_ASSIGNMENT ( #127, #61, ( #207 ) ) ;
#422 = LINE ( 'NONE', #904, #37 ) ;
#423 = EDGE_CURVE ( 'NONE', #563, #1139, #217, .T. ) ;
#424 = EDGE_LOOP ( 'NONE', ( #368, #657, #1035, #312 ) ) ;
#425 = CONTEXT_DEPENDENT_SHAPE_REPRESENTATION ( #139, #245 ) ;
#426 = LOCAL_TIME ( 18, 31, 32.00000000000000000, #893 ) ;
#427 = APPROVAL_ROLE ( '' ) ;
#428 = DIRECTION ( 'NONE',  ( 1.000000000000000000, 0.000000000000000000, 0.000000000000000000 ) ) ;
#429 = CARTESIAN_POINT ( 'NONE',  ( 8.102447783841936887E-19, 1.622875959434772825E-35, 0.02261269379698636894 ) ) ;
#430 = ORIENTED_EDGE ( 'NONE', *, *, #16, .F. ) ;
#431 = COORDINATED_UNIVERSAL_TIME_OFFSET ( 5, 30, .AHEAD. ) ;
#432 = PRODUCT_DEFINITION_SHAPE ( 'NONE', 'NONE',  #1214 ) ;
#433 = CARTESIAN_POINT ( 'NONE',  ( 1.988024782637211730E-18, -3.974257710632856227E-35, 0.02500000000000000833 ) ) ;
#434 = DIRECTION ( 'NONE',  ( 1.000000000000000000, 0.000000000000000000, 0.000000000000000000 ) ) ;
#435 = APPROVAL_PERSON_ORGANIZATION ( #1037, #195, #1042 ) ;
#436 = EDGE_CURVE ( 'NONE', #1139, #828, #609, .T. ) ;
#437 = APPLICATION_PROTOCOL_DEFINITION ( 'international standard', 'config_control_design', 1994, #35 ) ;
#438 = CIRCLE ( 'NONE', #321, 0.01000000000000000021 ) ;
#439 = DIRECTION ( 'NONE',  ( -0.000000000000000000, -0.000000000000000000, 1.000000000000000000 ) ) ;
#440 = DIRECTION ( 'NONE',  ( 1.000000000000000000, 0.000000000000000000, -0.000000000000000000 ) ) ;
#441 = CALENDAR_DATE ( 2026, 7, 1 ) ;
#442 = CARTESIAN_POINT ( 'NONE',  ( 2.804585283553005648E-18, 1.381659106186107180E-34, 0.01068491868012677593 ) ) ;
#443 = CARTESIAN_POINT ( 'NONE',  ( 0.08000000000000000167, -3.974257710632856227E-35, 0.02500000000000000833 ) ) ;
#444 = ORIENTED_EDGE ( 'NONE', *, *, #864, .F. ) ;
#445 = DIRECTION ( 'NONE',  ( 1.000000000000000000, 0.000000000000000000, 0.000000000000000000 ) ) ;
#446 = PERSON_AND_ORGANIZATION ( #78, #280 ) ;
#447 = DIRECTION ( 'NONE',  ( 1.000000000000000000, 0.000000000000000000, 0.000000000000000000 ) ) ;
#448 = ADVANCED_FACE ( 'NONE', ( #1018 ), #268, .T. ) ;
#449 = CIRCLE ( 'NONE', #473, 0.009999999999999995004 ) ;
#450 = DIRECTION ( 'NONE',  ( -1.000000000000000000, 1.224646799147354193E-16, 0.000000000000000000 ) ) ;
#451 = ORIENTED_EDGE ( 'NONE', *, *, #956, .F. ) ;
#452 = ORIENTED_EDGE ( 'NONE', *, *, #508, .T. ) ;
#453 = AXIS2_PLACEMENT_3D ( 'NONE', #337, #1087, #1012 ) ;
#454 = PERSON_AND_ORGANIZATION_ROLE ( 'design_supplier' ) ;
#455 = CARTESIAN_POINT ( 'NONE',  ( 1.988024782637211730E-18, -3.974257710632856227E-35, 0.004999999999999995767 ) ) ;
#456 = CIRCLE ( 'NONE', #652, 0.02000000000000000042 ) ;
#457 = FACE_OUTER_BOUND ( 'NONE', #762, .T. ) ;
#458 = PRODUCT_RELATED_PRODUCT_CATEGORY ( 'detail', '', ( #704 ) ) ;
#459 = ORIENTED_EDGE ( 'NONE', *, *, #220, .T. ) ;
#460 = ORIENTED_EDGE ( 'NONE', *, *, #231, .F. ) ;
#461 = ADVANCED_FACE ( 'NONE', ( #568 ), #747, .T. ) ;
#462 = CALENDAR_DATE ( 2026, 7, 1 ) ;
#463 = LINE ( 'NONE', #374, #401 ) ;
#464 = PRODUCT_DEFINITION_FORMATION_WITH_SPECIFIED_SOURCE ( 'ANY', '', #619, .NOT_KNOWN. ) ;
#465 = CARTESIAN_POINT ( 'NONE',  ( 2.804585283553005648E-18, 1.381659106186107180E-34, 0.02068491868012677787 ) ) ;
#466 = ORIENTED_EDGE ( 'NONE', *, *, #580, .T. ) ;
#467 = COORDINATED_UNIVERSAL_TIME_OFFSET ( 5, 30, .AHEAD. ) ;
#468 = DATE_AND_TIME ( #94, #162 ) ;
#469 = AXIS2_PLACEMENT_3D ( 'NONE', #811, #130, #157 ) ;
#470 = CC_DESIGN_SECURITY_CLASSIFICATION ( #684, ( #1214 ) ) ;
#471 = DIRECTION ( 'NONE',  ( 0.000000000000000000, 0.000000000000000000, 1.000000000000000000 ) ) ;
#472 = PLANE ( 'NONE',  #376 ) ;
#473 = AXIS2_PLACEMENT_3D ( 'NONE', #1070, #698, #898 ) ;
#474 = ORIENTED_EDGE ( 'NONE', *, *, #705, .F. ) ;
#475 = VERTEX_POINT ( 'NONE', #922 ) ;
#476 = DIRECTION ( 'NONE',  ( 1.000000000000000000, 0.000000000000000000, 0.000000000000000000 ) ) ;
#477 = APPLICATION_PROTOCOL_DEFINITION ( 'international standard', 'config_control_design', 1994, #314 ) ;
#478 = CC_DESIGN_PERSON_AND_ORGANIZATION_ASSIGNMENT ( #379, #1134, ( #607 ) ) ;
#479 =( LENGTH_UNIT ( ) NAMED_UNIT ( * ) SI_UNIT ( $, .METRE. ) );
#480 = DIRECTION ( 'NONE',  ( 1.000000000000000000, 0.000000000000000000, -0.000000000000000000 ) ) ;
#481 = AXIS2_PLACEMENT_3D ( 'NONE', #601, #581, #674 ) ;
#482 = ORIENTED_EDGE ( 'NONE', *, *, #9, .T. ) ;
#483 = SECURITY_CLASSIFICATION_LEVEL ( 'unclassified' ) ;
#484 = CARTESIAN_POINT ( 'NONE',  ( 0.1000000000000000056, 1.224646799147353269E-17, 0.04499999999999999833 ) ) ;
#485 = LOCAL_TIME ( 18, 31, 32.00000000000000000, #822 ) ;
#486 = CC_DESIGN_PERSON_AND_ORGANIZATION_ASSIGNMENT ( #202, #593, ( #949 ) ) ;
#487 = LINE ( 'NONE', #960, #536 ) ;
#488 = COORDINATED_UNIVERSAL_TIME_OFFSET ( 5, 30, .AHEAD. ) ;
#489 = CARTESIAN_POINT ( 'NONE',  ( 2.804585283553005648E-18, -0.02000000000000000042, 0.07068491868012677370 ) ) ;
#490 = EDGE_CURVE ( 'NONE', #394, #758, #18, .T. ) ;
#491 = DIRECTION ( 'NONE',  ( 1.000000000000000000, 0.000000000000000000, 0.000000000000000000 ) ) ;
#492 = SECURITY_CLASSIFICATION_LEVEL ( 'unclassified' ) ;
#493 = DIRECTION ( 'NONE',  ( 0.000000000000000000, 0.000000000000000000, 1.000000000000000000 ) ) ;
#494 = ORIENTED_EDGE ( 'NONE', *, *, #204, .T. ) ;
#495 = AXIS2_PLACEMENT_3D ( 'NONE', #903, #148, #908 ) ;
#496 = APPROVAL ( #65, 'UNSPECIFIED' ) ;
#497 = COORDINATED_UNIVERSAL_TIME_OFFSET ( 5, 30, .AHEAD. ) ;
#498 = EDGE_CURVE ( 'NONE', #1204, #1133, #569, .T. ) ;
#499 = CARTESIAN_POINT ( 'NONE',  ( 8.102447783841936887E-19, 1.622875959434772825E-35, 0.01261269379698636700 ) ) ;
#500 = CARTESIAN_POINT ( 'NONE',  ( 0.08000000000000000167, 9.797174393178825534E-18, 0.004999999999999995767 ) ) ;
#501 = SECURITY_CLASSIFICATION ( '', '', #483 ) ;
#502 = PERSON_AND_ORGANIZATION_ROLE ( 'creator' ) ;
#503 = DIRECTION ( 'NONE',  ( 0.000000000000000000, 0.000000000000000000, 1.000000000000000000 ) ) ;
#504 = CC_DESIGN_APPROVAL ( #612, ( #845 ) ) ;
#505 = DIRECTION ( 'NONE',  ( 0.000000000000000000, 0.000000000000000000, -1.000000000000000000 ) ) ;
#506 = APPROVAL_ROLE ( '' ) ;
#507 = VECTOR ( 'NONE', #630, 1.000000000000000000 ) ;
#508 = EDGE_CURVE ( 'NONE', #739, #1179, #315, .T. ) ;
#509 = DIRECTION ( 'NONE',  ( -0.000000000000000000, 1.000000000000000000, -0.000000000000000000 ) ) ;
#510 = CARTESIAN_POINT ( 'NONE',  ( 2.804585283553005648E-18, 0.02000000000000000042, 0.02068491868012675705 ) ) ;
#511 = ORIENTED_EDGE ( 'NONE', *, *, #654, .F. ) ;
#512 = PERSON_AND_ORGANIZATION ( #909, #252 ) ;
#513 = CIRCLE ( 'NONE', #833, 0.02000000000000000389 ) ;
#514 = CALENDAR_DATE ( 2026, 7, 1 ) ;
#515 = ORIENTED_EDGE ( 'NONE', *, *, #956, .T. ) ;
#516 = DIRECTION ( 'NONE',  ( -1.000000000000000000, 1.224646799147353454E-16, 0.000000000000000000 ) ) ;
#517 = PRODUCT_DEFINITION_SHAPE ( 'NONE', 'NONE',  #298 ) ;
#518 = DIRECTION ( 'NONE',  ( 0.000000000000000000, 0.000000000000000000, 1.000000000000000000 ) ) ;
#519 = CC_DESIGN_SECURITY_CLASSIFICATION ( #1165, ( #1183 ) ) ;
#520 = DATE_TIME_ROLE ( 'classification_date' ) ;
#521 = CARTESIAN_POINT ( 'NONE',  ( 1.988024782637211730E-18, -3.974257710632856227E-35, 0.02500000000000000833 ) ) ;
#522 = ADVANCED_BREP_SHAPE_REPRESENTATION ( '', ( #1033, #854 ), #971 ) ;
#523 =( REPRESENTATION_RELATIONSHIP ('NONE','NONE', #927, #216 ) REPRESENTATION_RELATIONSHIP_WITH_TRANSFORMATION ( #5 )SHAPE_REPRESENTATION_RELATIONSHIP( ) );
#524 = DIRECTION ( 'NONE',  ( 0.000000000000000000, 0.000000000000000000, 1.000000000000000000 ) ) ;
#525 = EDGE_CURVE ( 'NONE', #206, #28, #411, .T. ) ;
#526 = ORIENTED_EDGE ( 'NONE', *, *, #204, .F. ) ;
#527 = PERSON_AND_ORGANIZATION ( #78, #280 ) ;
#528 = AXIS2_PLACEMENT_3D ( 'NONE', #541, #68, #450 ) ;
#529 = CARTESIAN_POINT ( 'NONE',  ( 2.804585283553005648E-18, 1.381659106186107180E-34, 0.01068491868012677593 ) ) ;
#530 = FACE_OUTER_BOUND ( 'NONE', #69, .T. ) ;
#531 = VERTEX_POINT ( 'NONE', #367 ) ;
#532 = AXIS2_PLACEMENT_3D ( 'NONE', #653, #1192, #62 ) ;
#533 = APPROVAL_STATUS ( 'not_yet_approved' ) ;
#534 = AXIS2_PLACEMENT_3D ( 'NONE', #629, #1010, #413 ) ;
#535 = FACE_OUTER_BOUND ( 'NONE', #734, .T. ) ;
#536 = VECTOR ( 'NONE', #693, 1.000000000000000000 ) ;
#537 = FACE_OUTER_BOUND ( 'NONE', #807, .T. ) ;
#538 = APPROVAL_ROLE ( '' ) ;
#539 = CC_DESIGN_PERSON_AND_ORGANIZATION_ASSIGNMENT ( #718, #1180, ( #27 ) ) ;
#540 = DIRECTION ( 'NONE',  ( 0.000000000000000000, 0.000000000000000000, 1.000000000000000000 ) ) ;
#541 = CARTESIAN_POINT ( 'NONE',  ( -0.07000000000000000666, 8.572527594031473498E-18, 0.01261269379698636700 ) ) ;
#542 = VERTEX_POINT ( 'NONE', #562 ) ;
#543 = EDGE_LOOP ( 'NONE', ( #444, #1211, #494, #988 ) ) ;
#544 = DIRECTION ( 'NONE',  ( 0.000000000000000000, 0.000000000000000000, 1.000000000000000000 ) ) ;
#545 = PERSON_AND_ORGANIZATION_ROLE ( 'design_owner' ) ;
#546 = CARTESIAN_POINT ( 'NONE',  ( 1.988024782637211730E-18, -3.974257710632856227E-35, 0.02499999999999999445 ) ) ;
#547 = CC_DESIGN_PERSON_AND_ORGANIZATION_ASSIGNMENT ( #742, #181, ( #298 ) ) ;
#548 = AXIS2_PLACEMENT_3D ( 'NONE', #1201, #738, #1117 ) ;
#549 = CARTESIAN_POINT ( 'NONE',  ( 8.102447783841936887E-19, 1.622875959434772825E-35, -0.007387306203013630813 ) ) ;
#550 = ORIENTED_EDGE ( 'NONE', *, *, #498, .T. ) ;
#551 = ORIENTED_EDGE ( 'NONE', *, *, #218, .T. ) ;
#552 = AXIS2_PLACEMENT_3D ( 'NONE', #137, #1083, #63 ) ;
#553 = DATE_AND_TIME ( #173, #56 ) ;
#554 = COORDINATED_UNIVERSAL_TIME_OFFSET ( 5, 30, .AHEAD. ) ;
#555 = FACE_OUTER_BOUND ( 'NONE', #1007, .T. ) ;
#556 = EDGE_LOOP ( 'NONE', ( #1041, #649, #787, #92, #526, #1098 ) ) ;
#557 = EDGE_LOOP ( 'NONE', ( #696, #1156, #326, #38 ) ) ;
#558 = PERSON_AND_ORGANIZATION ( #78, #280 ) ;
#559 = DATE_AND_TIME ( #1120, #1110 ) ;
#560 = CARTESIAN_POINT ( 'NONE',  ( 0.06708203932499369471, 0.02000000000000000042, 0.02068491868012675705 ) ) ;
#561 = LOCAL_TIME ( 18, 31, 32.00000000000000000, #706 ) ;
#562 = CARTESIAN_POINT ( 'NONE',  ( -0.01999999999999999695, 1.381659106186107180E-34, 0.07068491868012677370 ) ) ;
#563 = VERTEX_POINT ( 'NONE', #1102 ) ;
#564 = VERTEX_POINT ( 'NONE', #169 ) ;
#565 = PRODUCT_DEFINITION ( 'UNKNOWN', '', #1061, #211 ) ;
#566 = PERSON_AND_ORGANIZATION_ROLE ( 'creator' ) ;
#567 = CALENDAR_DATE ( 2026, 7, 1 ) ;
#568 = FACE_OUTER_BOUND ( 'NONE', #269, .T. ) ;
#569 = CIRCLE ( 'NONE', #746, 0.07000000000000000666 ) ;
#570 = ORIENTED_EDGE ( 'NONE', *, *, #726, .F. ) ;
#571 = PERSON_AND_ORGANIZATION ( #799, #192 ) ;
#572 = DIRECTION ( 'NONE',  ( 0.000000000000000000, 0.000000000000000000, 1.000000000000000000 ) ) ;
#573 = AXIS2_PLACEMENT_3D ( 'NONE', #1029, #754, #279 ) ;
#574 = CC_DESIGN_PERSON_AND_ORGANIZATION_ASSIGNMENT ( #512, #339, ( #845 ) ) ;
#575 = CARTESIAN_POINT ( 'NONE',  ( 8.102447783841936887E-19, 1.622875959434772825E-35, 0.01261269379698636700 ) ) ;
#576 = ADVANCED_FACE ( 'NONE', ( #457 ), #947, .F. ) ;
#577 = CARTESIAN_POINT ( 'NONE',  ( -0.08000000000000000167, 1.622875959434772825E-35, -0.007387306203013630813 ) ) ;
#578 = DATE_TIME_ROLE ( 'classification_date' ) ;
#579 =( NAMED_UNIT ( * ) PLANE_ANGLE_UNIT ( ) SI_UNIT ( $, .RADIAN. ) );
#580 = EDGE_CURVE ( 'NONE', #377, #905, #354, .T. ) ;
#581 = DIRECTION ( 'NONE',  ( 0.000000000000000000, 0.000000000000000000, 1.000000000000000000 ) ) ;
#582 = CC_DESIGN_APPROVAL ( #801, ( #813 ) ) ;
#583 = CARTESIAN_POINT ( 'NONE',  ( 2.804585283553005648E-18, -0.02000000000000000042, 0.02068491868012675705 ) ) ;
#584 = APPROVAL_DATE_TIME ( #223, #212 ) ;
#585 = ADVANCED_FACE ( 'NONE', ( #555 ), #1008, .T. ) ;
#586 = APPROVAL_STATUS ( 'not_yet_approved' ) ;
#587 = CC_DESIGN_DATE_AND_TIME_ASSIGNMENT ( #615, #340, ( #404 ) ) ;
#588 = DIRECTION ( 'NONE',  ( 1.000000000000000000, 0.000000000000000000, 0.000000000000000000 ) ) ;
#589 = ADVANCED_FACE ( 'NONE', ( #289 ), #1099, .T. ) ;
#590 = CARTESIAN_POINT ( 'NONE',  ( 1.988024782637211730E-18, -3.974257710632856227E-35, 0.004999999999999995767 ) ) ;
#591 =( REPRESENTATION_RELATIONSHIP ('NONE','NONE', #927, #335 ) REPRESENTATION_RELATIONSHIP_WITH_TRANSFORMATION ( #403 )SHAPE_REPRESENTATION_RELATIONSHIP( ) );
#592 = AXIS2_PLACEMENT_3D ( 'NONE', #655, #1040, #1109 ) ;
#593 = PERSON_AND_ORGANIZATION_ROLE ( 'classification_officer' ) ;
#594 = DIRECTION ( 'NONE',  ( -0.000000000000000000, -0.000000000000000000, -1.000000000000000000 ) ) ;
#595 = LOCAL_TIME ( 18, 31, 32.00000000000000000, #1135 ) ;
#596 = FACE_OUTER_BOUND ( 'NONE', #91, .T. ) ;
#597 = AXIS2_PLACEMENT_3D ( 'NONE', #521, #241, #713 ) ;
#598 = APPROVAL_ROLE ( '' ) ;
#599 = CIRCLE ( 'NONE', #60, 0.02000000000000000042 ) ;
#600 = PRODUCT_DEFINITION_SHAPE ( 'NONE', 'NONE',  #23 ) ;
#601 = CARTESIAN_POINT ( 'NONE',  ( 2.804585283553005648E-18, 1.381659106186107180E-34, 0.02068491868012677787 ) ) ;
#602 = DIRECTION ( 'NONE',  ( 0.000000000000000000, -1.000000000000000000, 0.000000000000000000 ) ) ;
#603 = PRODUCT_RELATED_PRODUCT_CATEGORY ( 'detail', '', ( #607 ) ) ;
#604 = DATE_AND_TIME ( #344, #1092 ) ;
#605 = CARTESIAN_POINT ( 'NONE',  ( 2.804585283553005648E-18, -0.02000000000000000042, 0.02068491868012675705 ) ) ;
#606 = CARTESIAN_POINT ( 'NONE',  ( -0.08000000000000000167, 9.797174393178825534E-18, 0.02500000000000000833 ) ) ;
#607 = PRODUCT ( 'tyre assembly', 'tyre assembly', '', ( #387 ) ) ;
#608 = DATE_TIME_ROLE ( 'classification_date' ) ;
#609 = CIRCLE ( 'NONE', #592, 0.02000000000000000389 ) ;
#610 = AXIS2_PLACEMENT_3D ( 'NONE', #236, #524, #1001 ) ;
#611 = DIRECTION ( 'NONE',  ( -0.000000000000000000, -0.000000000000000000, -1.000000000000000000 ) ) ;
#612 = APPROVAL ( #969, 'UNKNOWN' ) ;
#613 = DIRECTION ( 'NONE',  ( -0.000000000000000000, -0.000000000000000000, 1.000000000000000000 ) ) ;
#614 = VERTEX_POINT ( 'NONE', #210 ) ;
#615 = DATE_AND_TIME ( #441, #308 ) ;
#616 = CARTESIAN_POINT ( 'NONE',  ( 0.06708203932499369471, 0.02000000000000000042, 0.02068491868012675705 ) ) ;
#617 = ADVANCED_FACE ( 'NONE', ( #876 ), #400, .T. ) ;
#618 = DESIGN_CONTEXT ( 'detailed design', #314, 'design' ) ;
#619 = PRODUCT ( 'rim other side', 'rim other side', '', ( #722 ) ) ;
#620 = CARTESIAN_POINT ( 'NONE',  ( 2.804585283553005648E-18, 1.381659106186107180E-34, -0.009315081319873221022 ) ) ;
#621 = MANIFOLD_SOLID_BREP ( 'Scale1', #941 ) ;
#622 = LOCAL_TIME ( 18, 31, 32.00000000000000000, #285 ) ;
#623 = MECHANICAL_CONTEXT ( 'NONE', #12, 'mechanical' ) ;
#624 = CARTESIAN_POINT ( 'NONE',  ( 2.804585283553005648E-18, 1.381659106186107180E-34, 0.07068491868012677370 ) ) ;
#625 = LINE ( 'NONE', #606, #930 ) ;
#626 = CC_DESIGN_APPROVAL ( #396, ( #949 ) ) ;
#627 = SECURITY_CLASSIFICATION_LEVEL ( 'unclassified' ) ;
#628 = AXIS2_PLACEMENT_3D ( 'NONE', #826, #493, #390 ) ;
#629 = CARTESIAN_POINT ( 'NONE',  ( 2.804585283553005648E-18, 1.381659106186107180E-34, -0.009315081319873221022 ) ) ;
#630 = DIRECTION ( 'NONE',  ( -0.000000000000000000, -0.000000000000000000, -1.000000000000000000 ) ) ;
#631 = ADVANCED_FACE ( 'NONE', ( #32 ), #782, .T. ) ;
#632 = DATE_AND_TIME ( #1100, #1019 ) ;
#633 = CIRCLE ( 'NONE', #481, 0.07000000000000000666 ) ;
#634 = CYLINDRICAL_SURFACE ( 'NONE', #383, 0.08000000000000000167 ) ;
#635 = CARTESIAN_POINT ( 'NONE',  ( 0.06708203932499369471, 0.02000000000000000042, 0.02068491868012675705 ) ) ;
#636 = ORIENTED_EDGE ( 'NONE', *, *, #1067, .F. ) ;
#637 = APPROVAL ( #1186, 'UNSPECIFIED' ) ;
#638 = APPROVAL_STATUS ( 'not_yet_approved' ) ;
#639 = SECURITY_CLASSIFICATION ( '', '', #45 ) ;
#640 = EDGE_CURVE ( 'NONE', #360, #118, #1154, .T. ) ;
#641 = CARTESIAN_POINT ( 'NONE',  ( 0.08000000000000000167, 9.797174393178825534E-18, 0.004999999999999995767 ) ) ;
#642 = FACE_OUTER_BOUND ( 'NONE', #276, .T. ) ;
#643 = EDGE_LOOP ( 'NONE', ( #134, #3, #850, #656 ) ) ;
#644 = VERTEX_POINT ( 'NONE', #867 ) ;
#645 = APPLICATION_PROTOCOL_DEFINITION ( 'international standard', 'config_control_design', 1994, #250 ) ;
#646 = APPROVAL_DATE_TIME ( #80, #678 ) ;
#647 = CARTESIAN_POINT ( 'NONE',  ( 0.08000000000000000167, 9.797174393178825534E-18, 0.02068491868012677787 ) ) ;
#648 = CARTESIAN_POINT ( 'NONE',  ( -0.08000000000000000167, 1.102182119232617911E-17, 0.04499999999999999833 ) ) ;
#649 = ORIENTED_EDGE ( 'NONE', *, *, #781, .T. ) ;
#650 = ORIENTED_EDGE ( 'NONE', *, *, #176, .T. ) ;
#651 = PERSON_AND_ORGANIZATION ( #78, #280 ) ;
#652 = AXIS2_PLACEMENT_3D ( 'NONE', #624, #887, #253 ) ;
#653 = CARTESIAN_POINT ( 'NONE',  ( 1.988024782637211730E-18, -3.974257710632856227E-35, 0.005000000000000006176 ) ) ;
#654 = EDGE_CURVE ( 'NONE', #1212, #828, #772, .T. ) ;
#655 = CARTESIAN_POINT ( 'NONE',  ( -0.08000000000000000167, 9.797174393178825534E-18, 0.005000000000000006176 ) ) ;
#656 = ORIENTED_EDGE ( 'NONE', *, *, #1145, .F. ) ;
#657 = ORIENTED_EDGE ( 'NONE', *, *, #108, .T. ) ;
#658 = PERSON_AND_ORGANIZATION ( #78, #280 ) ;
#659 = PERSON_AND_ORGANIZATION_ROLE ( 'classification_officer' ) ;
#660 = DIRECTION ( 'NONE',  ( 0.000000000000000000, 0.000000000000000000, 1.000000000000000000 ) ) ;
#661 = APPROVAL_PERSON_ORGANIZATION ( #153, #801, #427 ) ;
#662 = CARTESIAN_POINT ( 'NONE',  ( 1.988024782637211730E-18, -3.974257710632856227E-35, 0.004999999999999995767 ) ) ;
#663 = EDGE_LOOP ( 'NONE', ( #275, #710 ) ) ;
#664 = PERSON_AND_ORGANIZATION_ROLE ( 'classification_officer' ) ;
#665 = CC_DESIGN_DATE_AND_TIME_ASSIGNMENT ( #392, #578, ( #949 ) ) ;
#666 = CARTESIAN_POINT ( 'NONE',  ( 0.000000000000000000, 0.000000000000000000, 0.000000000000000000 ) ) ;
#667 = DIRECTION ( 'NONE',  ( 0.000000000000000000, -1.000000000000000000, 0.000000000000000000 ) ) ;
#668 = AXIS2_PLACEMENT_3D ( 'NONE', #261, #1046, #82 ) ;
#669 = ORIENTED_EDGE ( 'NONE', *, *, #689, .F. ) ;
#670 = CALENDAR_DATE ( 2026, 7, 1 ) ;
#671 = ADVANCED_FACE ( 'NONE', ( #295 ), #1063, .T. ) ;
#672 = SHAPE_REPRESENTATION ( 'tyre', ( #854 ), #691 ) ;
#673 = AXIS2_PLACEMENT_3D ( 'NONE', #182, #938, #834 ) ;
#674 = DIRECTION ( 'NONE',  ( 1.000000000000000000, 0.000000000000000000, 0.000000000000000000 ) ) ;
#675 = CIRCLE ( 'NONE', #730, 0.08000000000000000167 ) ;
#676 = FACE_OUTER_BOUND ( 'NONE', #733, .T. ) ;
#677 = PERSON_AND_ORGANIZATION ( #78, #280 ) ;
#678 = APPROVAL ( #638, 'UNSPECIFIED' ) ;
#679 = EDGE_CURVE ( 'NONE', #77, #644, #260, .T. ) ;
#680 = DIRECTION ( 'NONE',  ( -0.000000000000000000, -0.000000000000000000, -1.000000000000000000 ) ) ;
#681 = CC_DESIGN_APPROVAL ( #123, ( #639 ) ) ;
#682 = DIRECTION ( 'NONE',  ( 1.000000000000000000, 0.000000000000000000, 0.000000000000000000 ) ) ;
#683 = SHAPE_DEFINITION_REPRESENTATION ( #600, #216 ) ;
#684 = SECURITY_CLASSIFICATION ( '', '', #492 ) ;
#685 = PERSON ( 'NAUO-PER2', 'UNSPECIFIED', 'UNSPECIFIED', ('UNSPECIFIED'), ('UNSPECIFIED'), ('UNSPECIFIED') ) ;
#686 = CARTESIAN_POINT ( 'NONE',  ( 0.08000000000000000167, -3.974257710632856227E-35, 0.02499999999999999445 ) ) ;
#687 = DATE_TIME_ROLE ( 'classification_date' ) ;
#688 = ORIENTED_EDGE ( 'NONE', *, *, #490, .T. ) ;
#689 = EDGE_CURVE ( 'NONE', #739, #419, #341, .T. ) ;
#690 = CARTESIAN_POINT ( 'NONE',  ( 0.08000000000000000167, -3.974257710632856227E-35, 0.005000000000000006176 ) ) ;
#691 =( GEOMETRIC_REPRESENTATION_CONTEXT ( 3 ) GLOBAL_UNCERTAINTY_ASSIGNED_CONTEXT ( ( #959 ) ) GLOBAL_UNIT_ASSIGNED_CONTEXT ( ( #96, #1045, #93 ) ) REPRESENTATION_CONTEXT ( 'NONE', 'WORKASPACE' ) );
#692 = EDGE_CURVE ( 'NONE', #475, #1204, #633, .T. ) ;
#693 = DIRECTION ( 'NONE',  ( -0.000000000000000000, 1.000000000000000000, -0.000000000000000000 ) ) ;
#694 = AXIS2_PLACEMENT_3D ( 'NONE', #42, #342, #328 ) ;
#695 = APPROVAL_ROLE ( '' ) ;
#696 = ORIENTED_EDGE ( 'NONE', *, *, #88, .F. ) ;
#697 = DIRECTION ( 'NONE',  ( -1.000000000000000000, 0.000000000000000000, 0.000000000000000000 ) ) ;
#698 = DIRECTION ( 'NONE',  ( 1.224646799147353207E-16, 1.000000000000000000, -0.000000000000000000 ) ) ;
#699 = SHAPE_DEFINITION_REPRESENTATION ( #233, #927 ) ;
#700 = CC_DESIGN_DATE_AND_TIME_ASSIGNMENT ( #29, #687, ( #501 ) ) ;
#701 = PLANE ( 'NONE',  #417 ) ;
#702 = DIRECTION ( 'NONE',  ( 1.000000000000000000, 0.000000000000000000, 0.000000000000000000 ) ) ;
#703 = ORIENTED_EDGE ( 'NONE', *, *, #16, .T. ) ;
#704 = PRODUCT ( 'rim of tyre', 'rim of tyre', '', ( #1088 ) ) ;
#705 = EDGE_CURVE ( 'NONE', #563, #118, #996, .T. ) ;
#706 = COORDINATED_UNIVERSAL_TIME_OFFSET ( 5, 30, .AHEAD. ) ;
#707 = AXIS2_PLACEMENT_3D ( 'NONE', #662, #90, #355 ) ;
#708 = CYLINDRICAL_SURFACE ( 'NONE', #384, 0.08000000000000000167 ) ;
#709 = DIRECTION ( 'NONE',  ( 0.000000000000000000, -0.000000000000000000, 1.000000000000000000 ) ) ;
#710 = ORIENTED_EDGE ( 'NONE', *, *, #88, .T. ) ;
#711 = PERSON_AND_ORGANIZATION_ROLE ( 'creator' ) ;
#712 = APPROVAL ( #951, 'UNSPECIFIED' ) ;
#713 = DIRECTION ( 'NONE',  ( 1.000000000000000000, 0.000000000000000000, 0.000000000000000000 ) ) ;
#714 = EDGE_CURVE ( 'NONE', #283, #237, #101, .T. ) ;
#715 = CARTESIAN_POINT ( 'NONE',  ( -0.08000000000000000167, 1.381659106186107180E-34, 0.02068491868012677787 ) ) ;
#716 = AXIS2_PLACEMENT_3D ( 'NONE', #1059, #1152, #307 ) ;
#717 = LOCAL_TIME ( 18, 31, 32.00000000000000000, #1021 ) ;
#718 = PERSON_AND_ORGANIZATION ( #78, #280 ) ;
#719 = CARTESIAN_POINT ( 'NONE',  ( -0.08000000000000000167, 9.797174393178825534E-18, 0.02499999999999999445 ) ) ;
#720 = DIRECTION ( 'NONE',  ( -0.000000000000000000, -0.000000000000000000, 1.000000000000000000 ) ) ;
#721 = ORIENTED_EDGE ( 'NONE', *, *, #325, .F. ) ;
#722 = MECHANICAL_CONTEXT ( 'NONE', #774, 'mechanical' ) ;
#723 = AXIS2_PLACEMENT_3D ( 'NONE', #97, #932, #1024 ) ;
#724 = FACE_OUTER_BOUND ( 'NONE', #70, .T. ) ;
#725 = DIRECTION ( 'NONE',  ( 0.000000000000000000, 0.000000000000000000, 1.000000000000000000 ) ) ;
#726 = EDGE_CURVE ( 'NONE', #394, #1204, #1014, .T. ) ;
#727 = VECTOR ( 'NONE', #259, 1.000000000000000000 ) ;
#728 = SHAPE_REPRESENTATION_RELATIONSHIP ( 'NONE' , 'NONE' ,  #672, #970 ) ;
#729 = PERSON_AND_ORGANIZATION ( #78, #280 ) ;
#730 = AXIS2_PLACEMENT_3D ( 'NONE', #529, #999, #1096 ) ;
#731 = DIRECTION ( 'NONE',  ( 0.000000000000000000, 0.000000000000000000, 1.000000000000000000 ) ) ;
#732 = DIRECTION ( 'NONE',  ( -1.000000000000000000, 0.000000000000000000, 0.000000000000000000 ) ) ;
#733 = EDGE_LOOP ( 'NONE', ( #669, #452, #636, #172 ) ) ;
#734 = EDGE_LOOP ( 'NONE', ( #451, #179, #200, #402, #570 ) ) ;
#735 = APPROVAL_DATE_TIME ( #364, #496 ) ;
#736 = CC_DESIGN_APPROVAL ( #678, ( #1183 ) ) ;
#737 = CARTESIAN_POINT ( 'NONE',  ( 0.07000000000000000666, 1.381659106186107180E-34, 0.02068491868012677787 ) ) ;
#738 = DIRECTION ( 'NONE',  ( 0.000000000000000000, 0.000000000000000000, 1.000000000000000000 ) ) ;
#739 = VERTEX_POINT ( 'NONE', #966 ) ;
#740 = VERTEX_POINT ( 'NONE', #958 ) ;
#741 = APPROVAL_PERSON_ORGANIZATION ( #512, #612, #1094 ) ;
#742 = PERSON_AND_ORGANIZATION ( #78, #280 ) ;
#743 = EDGE_CURVE ( 'NONE', #206, #1139, #863, .T. ) ;
#744 = ADVANCED_BREP_SHAPE_REPRESENTATION ( '', ( #1013, #854 ), #1011 ) ;
#745 = LINE ( 'NONE', #647, #117 ) ;
#746 = AXIS2_PLACEMENT_3D ( 'NONE', #1132, #1, #281 ) ;
#747 = CYLINDRICAL_SURFACE ( 'NONE', #723, 0.08000000000000000167 ) ;
#748 = ORIENTED_EDGE ( 'NONE', *, *, #689, .T. ) ;
#749 = EDGE_LOOP ( 'NONE', ( #284, #997, #459, #511 ) ) ;
#750 = DATE_AND_TIME ( #187, #622 ) ;
#751 = DATE_TIME_ROLE ( 'classification_date' ) ;
#752 = TOROIDAL_SURFACE ( 'NONE', #829, 0.08000000000000000167, 0.02000000000000000042 ) ;
#753 = VECTOR ( 'NONE', #1176, 1.000000000000000000 ) ;
#754 = DIRECTION ( 'NONE',  ( 0.000000000000000000, 0.000000000000000000, 1.000000000000000000 ) ) ;
#755 = VECTOR ( 'NONE', #415, 1.000000000000000000 ) ;
#756 = PLANE ( 'NONE',  #548 ) ;
#757 = VERTEX_POINT ( 'NONE', #978 ) ;
#758 = VERTEX_POINT ( 'NONE', #125 ) ;
#759 = PERSON_AND_ORGANIZATION ( #78, #280 ) ;
#760 = DIRECTION ( 'NONE',  ( -1.000000000000000000, 0.000000000000000000, 0.000000000000000000 ) ) ;
#761 = CC_DESIGN_PERSON_AND_ORGANIZATION_ASSIGNMENT ( #138, #902, ( #639 ) ) ;
#762 = EDGE_LOOP ( 'NONE', ( #152, #791 ) ) ;
#763 = COORDINATED_UNIVERSAL_TIME_OFFSET ( 5, 30, .AHEAD. ) ;
#764 = CARTESIAN_POINT ( 'NONE',  ( -0.1000000000000000056, -3.974257710632856227E-35, 0.04499999999999999833 ) ) ;
#765 = AXIS2_PLACEMENT_3D ( 'NONE', #324, #518, #794 ) ;
#766 = PLANE ( 'NONE',  #288 ) ;
#767 = CC_DESIGN_PERSON_AND_ORGANIZATION_ASSIGNMENT ( #251, #228, ( #813 ) ) ;
#768 = DATE_AND_TIME ( #866, #294 ) ;
#769 = EDGE_CURVE ( 'NONE', #614, #291, #405, .T. ) ;
#770 = CARTESIAN_POINT ( 'NONE',  ( 0.000000000000000000, 0.000000000000000000, 0.000000000000000000 ) ) ;
#771 =( GEOMETRIC_REPRESENTATION_CONTEXT ( 3 ) GLOBAL_UNCERTAINTY_ASSIGNED_CONTEXT ( ( #1123 ) ) GLOBAL_UNIT_ASSIGNED_CONTEXT ( ( #831, #1113, #277 ) ) REPRESENTATION_CONTEXT ( 'NONE', 'WORKASPACE' ) );
#772 = LINE ( 'NONE', #764, #395 ) ;
#773 = DIRECTION ( 'NONE',  ( 0.000000000000000000, 0.000000000000000000, 1.000000000000000000 ) ) ;
#774 = APPLICATION_CONTEXT ( 'configuration controlled 3d designs of mechanical parts and assemblies' ) ;
#775 = CARTESIAN_POINT ( 'NONE',  ( 0.07000000000000000666, 1.622875959434772825E-35, 0.01261269379698636700 ) ) ;
#776 = CC_DESIGN_SECURITY_CLASSIFICATION ( #639, ( #1061 ) ) ;
#777 = FACE_OUTER_BOUND ( 'NONE', #556, .T. ) ;
#778 = DATE_AND_TIME ( #208, #1153 ) ;
#779 = PERSON_AND_ORGANIZATION_ROLE ( 'design_supplier' ) ;
#780 = ORIENTED_EDGE ( 'NONE', *, *, #864, .T. ) ;
#781 = EDGE_CURVE ( 'NONE', #1133, #164, #972, .T. ) ;
#782 = CYLINDRICAL_SURFACE ( 'NONE', #987, 0.08000000000000000167 ) ;
#783 = DIRECTION ( 'NONE',  ( 0.000000000000000000, 0.000000000000000000, 1.000000000000000000 ) ) ;
#784 = AXIS2_PLACEMENT_3D ( 'NONE', #620, #911, #343 ) ;
#785 = CYLINDRICAL_SURFACE ( 'NONE', #4, 0.02000000000000000042 ) ;
#786 = VECTOR ( 'NONE', #168, 1.000000000000000000 ) ;
#787 = ORIENTED_EDGE ( 'NONE', *, *, #967, .T. ) ;
#788 = VECTOR ( 'NONE', #1142, 1.000000000000000000 ) ;
#789 = ORIENTED_EDGE ( 'NONE', *, *, #769, .F. ) ;
#790 = COORDINATED_UNIVERSAL_TIME_OFFSET ( 5, 30, .AHEAD. ) ;
#791 = ORIENTED_EDGE ( 'NONE', *, *, #856, .F. ) ;
#792 = FACE_OUTER_BOUND ( 'NONE', #933, .T. ) ;
#793 = APPROVAL_PERSON_ORGANIZATION ( #729, #67, #1015 ) ;
#794 = DIRECTION ( 'NONE',  ( 1.000000000000000000, 0.000000000000000000, -0.000000000000000000 ) ) ;
#795 = EDGE_CURVE ( 'NONE', #419, #1072, #438, .T. ) ;
#796 = PERSON_AND_ORGANIZATION ( #78, #280 ) ;
#797 = CYLINDRICAL_SURFACE ( 'NONE', #957, 0.02000000000000000042 ) ;
#798 = DIRECTION ( 'NONE',  ( 0.000000000000000000, 0.000000000000000000, 1.000000000000000000 ) ) ;
#799 = PERSON ( 'NAUO-PER1', 'UNSPECIFIED', 'UNSPECIFIED', ('UNSPECIFIED'), ('UNSPECIFIED'), ('UNSPECIFIED') ) ;
#800 = ORIENTED_EDGE ( 'NONE', *, *, #296, .F. ) ;
#801 = APPROVAL ( #533, 'UNSPECIFIED' ) ;
#802 = CALENDAR_DATE ( 2026, 7, 1 ) ;
#803 = DIRECTION ( 'NONE',  ( 0.000000000000000000, 0.000000000000000000, 1.000000000000000000 ) ) ;
#804 = LOCAL_TIME ( 18, 31, 32.00000000000000000, #497 ) ;
#805 = CARTESIAN_POINT ( 'NONE',  ( 2.804585283553005648E-18, 0.02000000000000000042, 0.02068491868012675705 ) ) ;
#806 = AXIS2_PLACEMENT_3D ( 'NONE', #499, #318, #857 ) ;
#807 = EDGE_LOOP ( 'NONE', ( #194, #178, #1118, #474 ) ) ;
#808 = APPROVAL_DATE_TIME ( #313, #612 ) ;
#809 = DATE_AND_TIME ( #514, #290 ) ;
#810 = FACE_OUTER_BOUND ( 'NONE', #875, .T. ) ;
#811 = CARTESIAN_POINT ( 'NONE',  ( 1.988024782637211730E-18, -3.974257710632856227E-35, 0.005000000000000006176 ) ) ;
#812 = AXIS2_PLACEMENT_3D ( 'NONE', #21, #214, #1075 ) ;
#813 = PRODUCT_DEFINITION_FORMATION_WITH_SPECIFIED_SOURCE ( 'ANY', '', #27, .NOT_KNOWN. ) ;
#814 = APPLICATION_PROTOCOL_DEFINITION ( 'international standard', 'config_control_design', 1994, #22 ) ;
#815 = EDGE_CURVE ( 'NONE', #531, #564, #1158, .T. ) ;
#816 = FACE_OUTER_BOUND ( 'NONE', #131, .T. ) ;
#817 = APPROVAL ( #919, 'UNSPECIFIED' ) ;
#818 = DIRECTION ( 'NONE',  ( 0.000000000000000000, 0.000000000000000000, 1.000000000000000000 ) ) ;
#819 = ORIENTED_EDGE ( 'NONE', *, *, #994, .F. ) ;
#820 = ORIENTED_EDGE ( 'NONE', *, *, #743, .T. ) ;
#821 = DIRECTION ( 'NONE',  ( 0.000000000000000000, 0.000000000000000000, 1.000000000000000000 ) ) ;
#822 = COORDINATED_UNIVERSAL_TIME_OFFSET ( 5, 30, .AHEAD. ) ;
#823 = VECTOR ( 'NONE', #59, 1.000000000000000000 ) ;
#824 = CARTESIAN_POINT ( 'NONE',  ( 1.988024782637211730E-18, -3.974257710632856227E-35, 0.004999999999999995767 ) ) ;
#825 = CIRCLE ( 'NONE', #453, 0.08000000000000000167 ) ;
#826 = CARTESIAN_POINT ( 'NONE',  ( 1.988024782637211730E-18, -3.974257710632856227E-35, 0.02499999999999999445 ) ) ;
#827 = ORIENTED_EDGE ( 'NONE', *, *, #197, .F. ) ;
#828 = VERTEX_POINT ( 'NONE', #48 ) ;
#829 = AXIS2_PLACEMENT_3D ( 'NONE', #546, #1017, #946 ) ;
#830 = APPROVAL ( #955, 'UNKNOWN' ) ;
#831 =( LENGTH_UNIT ( ) NAMED_UNIT ( * ) SI_UNIT ( $, .METRE. ) );
#832 = APPROVAL_DATE_TIME ( #351, #1030 ) ;
#833 = AXIS2_PLACEMENT_3D ( 'NONE', #719, #1166, #516 ) ;
#834 = DIRECTION ( 'NONE',  ( 1.000000000000000000, 0.000000000000000000, 0.000000000000000000 ) ) ;
#835 = DIRECTION ( 'NONE',  ( 0.000000000000000000, 0.000000000000000000, 1.000000000000000000 ) ) ;
#836 = ORIENTED_EDGE ( 'NONE', *, *, #296, .T. ) ;
#837 = VERTEX_POINT ( 'NONE', #135 ) ;
#838 = CC_DESIGN_DATE_AND_TIME_ASSIGNMENT ( #232, #608, ( #639 ) ) ;
#839 = PERSON_AND_ORGANIZATION_ROLE ( 'creator' ) ;
#840 = COORDINATED_UNIVERSAL_TIME_OFFSET ( 5, 30, .AHEAD. ) ;
#841 = CC_DESIGN_APPROVAL ( #1030, ( #23 ) ) ;
#842 = DIRECTION ( 'NONE',  ( 0.000000000000000000, -1.000000000000000000, 0.000000000000000000 ) ) ;
#843 = DIRECTION ( 'NONE',  ( -1.000000000000000000, 0.000000000000000000, 0.000000000000000000 ) ) ;
#844 = ORIENTED_EDGE ( 'NONE', *, *, #726, .T. ) ;
#845 = SECURITY_CLASSIFICATION ( '', '', #976 ) ;
#846 = CARTESIAN_POINT ( 'NONE',  ( 1.067314766972371265, 1.045810931769368013, 1.051868745024643559 ) ) ;
#847 = DATE_AND_TIME ( #462, #717 ) ;
#848 = AXIS2_PLACEMENT_3D ( 'NONE', #359, #953, #732 ) ;
#849 = CARTESIAN_POINT ( 'NONE',  ( 2.804585283553005648E-18, 1.381659106186107180E-34, 0.01068491868012677593 ) ) ;
#850 = ORIENTED_EDGE ( 'NONE', *, *, #705, .T. ) ;
#851 = ORIENTED_EDGE ( 'NONE', *, *, #769, .T. ) ;
#852 = APPROVAL_DATE_TIME ( #750, #817 ) ;
#853 = DATE_TIME_ROLE ( 'creation_date' ) ;
#854 = AXIS2_PLACEMENT_3D ( 'NONE', #666, #572, #198 ) ;
#855 = CIRCLE ( 'NONE', #58, 0.02000000000000000042 ) ;
#856 = EDGE_CURVE ( 'NONE', #644, #77, #304, .T. ) ;
#857 = DIRECTION ( 'NONE',  ( 1.000000000000000000, 0.000000000000000000, 0.000000000000000000 ) ) ;
#858 = ORIENTED_EDGE ( 'NONE', *, *, #899, .T. ) ;
#859 = SECURITY_CLASSIFICATION_LEVEL ( 'unclassified' ) ;
#860 = APPROVAL_PERSON_ORGANIZATION ( #937, #678, #1206 ) ;
#861 = SHAPE_REPRESENTATION_RELATIONSHIP ( 'NONE' , 'NONE' ,  #216, #522 ) ;
#862 = CC_DESIGN_PERSON_AND_ORGANIZATION_ASSIGNMENT ( #380, #454, ( #1183 ) ) ;
#863 = LINE ( 'NONE', #104, #788 ) ;
#864 = EDGE_CURVE ( 'NONE', #542, #614, #456, .T. ) ;
#865 = DIRECTION ( 'NONE',  ( 1.000000000000000000, 0.000000000000000000, 0.000000000000000000 ) ) ;
#866 = CALENDAR_DATE ( 2026, 7, 1 ) ;
#867 = CARTESIAN_POINT ( 'NONE',  ( 0.08000000000000000167, 9.797174393178825534E-18, -0.007387306203013630813 ) ) ;
#868 = CARTESIAN_POINT ( 'NONE',  ( 0.1000000000000000056, 1.224646799147353269E-17, 0.005000000000000006176 ) ) ;
#869 = APPROVAL_DATE_TIME ( #965, #830 ) ;
#870 = AXIS2_PLACEMENT_3D ( 'NONE', #605, #842, #1039 ) ;
#871 = DIRECTION ( 'NONE',  ( 0.000000000000000000, 0.000000000000000000, -1.000000000000000000 ) ) ;
#872 = LINE ( 'NONE', #303, #755 ) ;
#873 = APPROVAL_STATUS ( 'not_yet_approved' ) ;
#874 = ADVANCED_FACE ( 'NONE', ( #792 ), #797, .T. ) ;
#875 = EDGE_LOOP ( 'NONE', ( #748, #1111, #8, #41 ) ) ;
#876 = FACE_OUTER_BOUND ( 'NONE', #424, .T. ) ;
#877 = CC_DESIGN_APPROVAL ( #67, ( #298 ) ) ;
#878 = CARTESIAN_POINT ( 'NONE',  ( 2.804585283553005648E-18, -0.02000000000000000042, 0.02068491868012675705 ) ) ;
#879 = DATE_TIME_ROLE ( 'classification_date' ) ;
#880 = CC_DESIGN_SECURITY_CLASSIFICATION ( #949, ( #1215 ) ) ;
#881 = APPROVAL_PERSON_ORGANIZATION ( #571, #830, #598 ) ;
#882 = CARTESIAN_POINT ( 'NONE',  ( 2.804585283553005648E-18, 0.02000000000000000042, 0.02068491868012675705 ) ) ;
#883 = CC_DESIGN_PERSON_AND_ORGANIZATION_ASSIGNMENT ( #759, #664, ( #501 ) ) ;
#884 = CARTESIAN_POINT ( 'NONE',  ( -0.01999999999999999695, 1.381659106186107180E-34, 0.02068491868012677787 ) ) ;
#885 = AXIS2_PLACEMENT_3D ( 'NONE', #805, #986, #709 ) ;
#886 = SHAPE_DEFINITION_REPRESENTATION ( #149, #672 ) ;
#887 = DIRECTION ( 'NONE',  ( 0.000000000000000000, 0.000000000000000000, 1.000000000000000000 ) ) ;
#888 = ADVANCED_FACE ( 'NONE', ( #234 ), #701, .T. ) ;
#889 = AXIS2_PLACEMENT_3D ( 'NONE', #943, #544, #476 ) ;
#890 = AXIS2_PLACEMENT_3D ( 'NONE', #1146, #205, #6 ) ;
#891 = ADVANCED_FACE ( 'NONE', ( #1182 ), #708, .F. ) ;
#892 = ORIENTED_EDGE ( 'NONE', *, *, #362, .F. ) ;
#893 = COORDINATED_UNIVERSAL_TIME_OFFSET ( 5, 30, .AHEAD. ) ;
#894 = ORIENTED_EDGE ( 'NONE', *, *, #508, .F. ) ;
#895 = FACE_OUTER_BOUND ( 'NONE', #369, .T. ) ;
#896 = PRODUCT_RELATED_PRODUCT_CATEGORY ( 'detail', '', ( #27 ) ) ;
#897 = CC_DESIGN_APPROVAL ( #712, ( #1165 ) ) ;
#898 = DIRECTION ( 'NONE',  ( -1.000000000000000000, 1.224646799147354193E-16, 0.000000000000000000 ) ) ;
#899 = EDGE_CURVE ( 'NONE', #1133, #1125, #128, .T. ) ;
#900 = ORIENTED_EDGE ( 'NONE', *, *, #580, .F. ) ;
#901 = CC_DESIGN_DATE_AND_TIME_ASSIGNMENT ( #778, #113, ( #684 ) ) ;
#902 = PERSON_AND_ORGANIZATION_ROLE ( 'classification_officer' ) ;
#903 = CARTESIAN_POINT ( 'NONE',  ( 2.804585283553005648E-18, 1.381659106186107180E-34, 0.02068491868012677787 ) ) ;
#904 = CARTESIAN_POINT ( 'NONE',  ( 0.06708203932499369471, -0.02000000000000000042, 0.02068491868012675705 ) ) ;
#905 = VERTEX_POINT ( 'NONE', #57 ) ;
#906 = VECTOR ( 'NONE', #302, 1.000000000000000000 ) ;
#907 = APPROVAL_DATE_TIME ( #1163, #1114 ) ;
#908 = DIRECTION ( 'NONE',  ( 1.000000000000000000, 0.000000000000000000, 0.000000000000000000 ) ) ;
#909 = PERSON ( 'NAUO-PER3', 'UNSPECIFIED', 'UNSPECIFIED', ('UNSPECIFIED'), ('UNSPECIFIED'), ('UNSPECIFIED') ) ;
#910 = AXIS2_PLACEMENT_3D ( 'NONE', #442, #731, #1108 ) ;
#911 = DIRECTION ( 'NONE',  ( 0.000000000000000000, 0.000000000000000000, 1.000000000000000000 ) ) ;
#912 = VECTOR ( 'NONE', #19, 1.000000000000000000 ) ;
#913 = ORIENTED_EDGE ( 'NONE', *, *, #111, .T. ) ;
#914 = ADVANCED_FACE ( 'NONE', ( #1004 ), #141, .F. ) ;
#915 = CIRCLE ( 'NONE', #386, 0.08000000000000000167 ) ;
#916 = PERSON_AND_ORGANIZATION ( #78, #280 ) ;
#917 = DIRECTION ( 'NONE',  ( -1.000000000000000000, 0.000000000000000000, 0.000000000000000000 ) ) ;
#918 = CARTESIAN_POINT ( 'NONE',  ( 1.988024782637211730E-18, -3.974257710632856227E-35, 0.005000000000000006176 ) ) ;
#919 = APPROVAL_STATUS ( 'not_yet_approved' ) ;
#920 = PERSON_AND_ORGANIZATION ( #78, #280 ) ;
#921 = FACE_OUTER_BOUND ( 'NONE', #105, .T. ) ;
#922 = CARTESIAN_POINT ( 'NONE',  ( 0.06708203932499369471, -0.02000000000000000042, 0.02068491868012675705 ) ) ;
#923 = ORIENTED_EDGE ( 'NONE', *, *, #317, .T. ) ;
#924 = ORIENTED_EDGE ( 'NONE', *, *, #1213, .F. ) ;
#925 = CARTESIAN_POINT ( 'NONE',  ( 1.067314766972371931, 1.045810931769368235, 1.019481438821630448 ) ) ;
#926 = DATE_TIME_ROLE ( 'creation_date' ) ;
#927 = SHAPE_REPRESENTATION ( 'tyre assembly', ( #40, #889, #320, #416 ), #771 ) ;
#928 = TOROIDAL_SURFACE ( 'NONE', #668, 0.08000000000000000167, 0.02000000000000000042 ) ;
#929 = CARTESIAN_POINT ( 'NONE',  ( 0.08000000000000000167, 9.797174393178825534E-18, 0.02261269379698636894 ) ) ;
#930 = VECTOR ( 'NONE', #613, 1.000000000000000000 ) ;
#931 = EDGE_CURVE ( 'NONE', #475, #1133, #1090, .T. ) ;
#932 = DIRECTION ( 'NONE',  ( -0.000000000000000000, -0.000000000000000000, -1.000000000000000000 ) ) ;
#933 = EDGE_LOOP ( 'NONE', ( #924, #316, #892, #948 ) ) ;
#934 = ORIENTED_EDGE ( 'NONE', *, *, #1049, .F. ) ;
#935 = AXIS2_PLACEMENT_3D ( 'NONE', #455, #1200, #365 ) ;
#936 = APPLICATION_PROTOCOL_DEFINITION ( 'international standard', 'config_control_design', 1994, #267 ) ;
#937 = PERSON_AND_ORGANIZATION ( #78, #280 ) ;
#938 = DIRECTION ( 'NONE',  ( 0.000000000000000000, 0.000000000000000000, 1.000000000000000000 ) ) ;
#939 = FACE_OUTER_BOUND ( 'NONE', #2, .T. ) ;
#940 = CC_DESIGN_DATE_AND_TIME_ASSIGNMENT ( #632, #926, ( #23 ) ) ;
#941 = CLOSED_SHELL ( 'NONE', ( #1198, #891, #256, #1081, #671, #617, #585, #373, #914, #888, #1137, #144 ) ) ;
#942 = ORIENTED_EDGE ( 'NONE', *, *, #692, .T. ) ;
#943 = CARTESIAN_POINT ( 'NONE',  ( 1.067314766972371487, 1.045810931769367791, 1.056183826344516685 ) ) ;
#944 = COORDINATED_UNIVERSAL_TIME_OFFSET ( 5, 30, .AHEAD. ) ;
#945 = APPROVAL_PERSON_ORGANIZATION ( #1009, #637, #1175 ) ;
#946 = DIRECTION ( 'NONE',  ( 1.000000000000000000, 0.000000000000000000, 0.000000000000000000 ) ) ;
#947 = PLANE ( 'NONE',  #1155 ) ;
#948 = ORIENTED_EDGE ( 'NONE', *, *, #1064, .T. ) ;
#949 = SECURITY_CLASSIFICATION ( '', '', #859 ) ;
#950 = PERSON_AND_ORGANIZATION ( #78, #280 ) ;
#951 = APPROVAL_STATUS ( 'not_yet_approved' ) ;
#952 = CIRCLE ( 'NONE', #150, 0.02000000000000000042 ) ;
#953 = DIRECTION ( 'NONE',  ( 0.000000000000000000, 0.000000000000000000, -1.000000000000000000 ) ) ;
#954 = ORIENTED_EDGE ( 'NONE', *, *, #815, .F. ) ;
#955 = APPROVAL_STATUS ( 'not_yet_approved' ) ;
#956 = EDGE_CURVE ( 'NONE', #758, #394, #675, .T. ) ;
#957 = AXIS2_PLACEMENT_3D ( 'NONE', #53, #611, #1172 ) ;
#958 = CARTESIAN_POINT ( 'NONE',  ( 2.804585283553005648E-18, 0.02000000000000000042, 0.07068491868012677370 ) ) ;
#959 = UNCERTAINTY_MEASURE_WITH_UNIT (LENGTH_MEASURE( 1.000000000000000082E-05 ), #96, 'distance_accuracy_value', 'NONE');
#960 = CARTESIAN_POINT ( 'NONE',  ( 0.06708203932499369471, 0.02000000000000000042, 0.07068491868012677370 ) ) ;
#961 = CONTEXT_DEPENDENT_SHAPE_REPRESENTATION ( #591, #1147 ) ;
#962 = LOCAL_TIME ( 18, 31, 32.00000000000000000, #1106 ) ;
#963 = DIRECTION ( 'NONE',  ( -1.000000000000000000, 0.000000000000000000, 0.000000000000000000 ) ) ;
#964 = LINE ( 'NONE', #583, #1089 ) ;
#965 = DATE_AND_TIME ( #1071, #984 ) ;
#966 = CARTESIAN_POINT ( 'NONE',  ( -0.08000000000000000167, 1.622875959434772825E-35, 0.01261269379698636700 ) ) ;
#967 = EDGE_CURVE ( 'NONE', #164, #475, #1036, .T. ) ;
#968 = DIRECTION ( 'NONE',  ( 0.000000000000000000, 0.000000000000000000, -1.000000000000000000 ) ) ;
#969 = APPROVAL_STATUS ( 'not_yet_approved' ) ;
#970 = ADVANCED_BREP_SHAPE_REPRESENTATION ( '', ( #621, #854 ), #691 ) ;
#971 =( GEOMETRIC_REPRESENTATION_CONTEXT ( 3 ) GLOBAL_UNCERTAINTY_ASSIGNED_CONTEXT ( ( #84 ) ) GLOBAL_UNIT_ASSIGNED_CONTEXT ( ( #1136, #397, #189 ) ) REPRESENTATION_CONTEXT ( 'NONE', 'WORKASPACE' ) );
#972 = CIRCLE ( 'NONE', #890, 0.07000000000000000666 ) ;
#973 = DIRECTION ( 'NONE',  ( -0.000000000000000000, -0.000000000000000000, -1.000000000000000000 ) ) ;
#974 = CLOSED_SHELL ( 'NONE', ( #1022, #1174, #461, #136, #448, #310, #1006, #1160, #874, #414, #242, #389, #1032 ) ) ;
#975 = ORIENTED_EDGE ( 'NONE', *, *, #679, .T. ) ;
#976 = SECURITY_CLASSIFICATION_LEVEL ( 'unclassified' ) ;
#977 = CIRCLE ( 'NONE', #716, 0.08000000000000000167 ) ;
#978 = CARTESIAN_POINT ( 'NONE',  ( 2.804585283553005648E-18, -0.02000000000000000042, 0.02068491868012675705 ) ) ;
#979 = CC_DESIGN_SECURITY_CLASSIFICATION ( #207, ( #813 ) ) ;
#980 = FACE_OUTER_BOUND ( 'NONE', #663, .T. ) ;
#981 = ADVANCED_FACE ( 'NONE', ( #810 ), #420, .T. ) ;
#982 = DATE_AND_TIME ( #418, #426 ) ;
#983 = ORIENTED_EDGE ( 'NONE', *, *, #795, .T. ) ;
#984 = LOCAL_TIME ( 18, 31, 32.00000000000000000, #293 ) ;
#985 = FACE_OUTER_BOUND ( 'NONE', #543, .T. ) ;
#986 = DIRECTION ( 'NONE',  ( 0.000000000000000000, 1.000000000000000000, 0.000000000000000000 ) ) ;
#987 = AXIS2_PLACEMENT_3D ( 'NONE', #408, #680, #226 ) ;
#988 = ORIENTED_EDGE ( 'NONE', *, *, #103, .T. ) ;
#989 = PERSON_AND_ORGANIZATION ( #78, #280 ) ;
#990 = CIRCLE ( 'NONE', #552, 0.08000000000000000167 ) ;
#991 = CC_DESIGN_DATE_AND_TIME_ASSIGNMENT ( #982, #520, ( #207 ) ) ;
#992 = DIRECTION ( 'NONE',  ( -0.000000000000000000, -0.000000000000000000, -1.000000000000000000 ) ) ;
#993 = TOROIDAL_SURFACE ( 'NONE', #910, 0.07000000000000000666, 0.01000000000000000021 ) ;
#994 = EDGE_CURVE ( 'NONE', #1212, #377, #513, .T. ) ;
#995 = CARTESIAN_POINT ( 'NONE',  ( -0.08000000000000000167, 1.622875959434772825E-35, 0.02261269379698636894 ) ) ;
#996 = CIRCLE ( 'NONE', #201, 0.02000000000000000042 ) ;
#997 = ORIENTED_EDGE ( 'NONE', *, *, #640, .T. ) ;
#998 = DATE_AND_TIME ( #802, #124 ) ;
#999 = DIRECTION ( 'NONE',  ( -0.000000000000000000, -0.000000000000000000, -1.000000000000000000 ) ) ;
#1000 = APPROVAL_PERSON_ORGANIZATION ( #796, #1114, #506 ) ;
#1001 = DIRECTION ( 'NONE',  ( 1.000000000000000000, 0.000000000000000000, 0.000000000000000000 ) ) ;
#1002 = EDGE_LOOP ( 'NONE', ( #430, #145, #858, #378 ) ) ;
#1003 = CALENDAR_DATE ( 2026, 7, 1 ) ;
#1004 = FACE_OUTER_BOUND ( 'NONE', #1025, .T. ) ;
#1005 = FACE_OUTER_BOUND ( 'NONE', #1002, .T. ) ;
#1006 = ADVANCED_FACE ( 'NONE', ( #895 ), #36, .F. ) ;
#1007 = EDGE_LOOP ( 'NONE', ( #819, #186, #482, #900 ) ) ;
#1008 = TOROIDAL_SURFACE ( 'NONE', #628, 0.08000000000000000167, 0.02000000000000000042 ) ;
#1009 = PERSON_AND_ORGANIZATION ( #78, #280 ) ;
#1010 = DIRECTION ( 'NONE',  ( 0.000000000000000000, 0.000000000000000000, 1.000000000000000000 ) ) ;
#1011 =( GEOMETRIC_REPRESENTATION_CONTEXT ( 3 ) GLOBAL_UNCERTAINTY_ASSIGNED_CONTEXT ( ( #170 ) ) GLOBAL_UNIT_ASSIGNED_CONTEXT ( ( #479, #579, #301 ) ) REPRESENTATION_CONTEXT ( 'NONE', 'WORKASPACE' ) );
#1012 = DIRECTION ( 'NONE',  ( 1.000000000000000000, 0.000000000000000000, 0.000000000000000000 ) ) ;
#1013 = MANIFOLD_SOLID_BREP ( 'Scale1', #121 ) ;
#1014 = CIRCLE ( 'NONE', #1073, 0.01000000000000000021 ) ;
#1015 = APPROVAL_ROLE ( '' ) ;
#1016 = CC_DESIGN_DATE_AND_TIME_ASSIGNMENT ( #768, #879, ( #845 ) ) ;
#1017 = DIRECTION ( 'NONE',  ( 0.000000000000000000, 0.000000000000000000, 1.000000000000000000 ) ) ;
#1018 = FACE_OUTER_BOUND ( 'NONE', #391, .T. ) ;
#1019 = LOCAL_TIME ( 18, 31, 32.00000000000000000, #1043 ) ;
#1020 = EDGE_LOOP ( 'NONE', ( #244, #257 ) ) ;
#1021 = COORDINATED_UNIVERSAL_TIME_OFFSET ( 5, 30, .AHEAD. ) ;
#1022 = ADVANCED_FACE ( 'NONE', ( #985 ), #785, .T. ) ;
#1023 = CARTESIAN_POINT ( 'NONE',  ( 1.988024782637211730E-18, -3.974257710632856227E-35, 0.02500000000000000833 ) ) ;
#1024 = DIRECTION ( 'NONE',  ( -1.000000000000000000, 0.000000000000000000, 0.000000000000000000 ) ) ;
#1025 = EDGE_LOOP ( 'NONE', ( #115, #262, #1084, #1034 ) ) ;
#1026 = ORIENTED_EDGE ( 'NONE', *, *, #334, .F. ) ;
#1027 = DIRECTION ( 'NONE',  ( -1.040834085586084257E-16, 3.330669073875469621E-16, -0.9999999999999997780 ) ) ;
#1028 = CALENDAR_DATE ( 2026, 7, 1 ) ;
#1029 = CARTESIAN_POINT ( 'NONE',  ( 8.102447783841936887E-19, 1.622875959434772825E-35, 0.02261269379698636894 ) ) ;
#1030 = APPROVAL ( #586, 'UNSPECIFIED' ) ;
#1031 = CARTESIAN_POINT ( 'NONE',  ( 0.08000000000000000167, 9.797174393178825534E-18, 0.01261269379698636700 ) ) ;
#1032 = ADVANCED_FACE ( 'NONE', ( #1077 ), #229, .T. ) ;
#1033 = MANIFOLD_SOLID_BREP ( 'Boss-Extrude3', #974 ) ;
#1034 = ORIENTED_EDGE ( 'NONE', *, *, #197, .T. ) ;
#1035 = ORIENTED_EDGE ( 'NONE', *, *, #654, .T. ) ;
#1036 = CIRCLE ( 'NONE', #495, 0.07000000000000000666 ) ;
#1037 = PERSON_AND_ORGANIZATION ( #78, #280 ) ;
#1038 = DATE_AND_TIME ( #264, #962 ) ;
#1039 = DIRECTION ( 'NONE',  ( 0.000000000000000000, -0.000000000000000000, -1.000000000000000000 ) ) ;
#1040 = DIRECTION ( 'NONE',  ( 1.224646799147353207E-16, 1.000000000000000000, -0.000000000000000000 ) ) ;
#1041 = ORIENTED_EDGE ( 'NONE', *, *, #899, .F. ) ;
#1042 = APPROVAL_ROLE ( '' ) ;
#1043 = COORDINATED_UNIVERSAL_TIME_OFFSET ( 5, 30, .AHEAD. ) ;
#1044 = CC_DESIGN_APPROVAL ( #496, ( #464 ) ) ;
#1045 =( NAMED_UNIT ( * ) PLANE_ANGLE_UNIT ( ) SI_UNIT ( $, .RADIAN. ) );
#1046 = DIRECTION ( 'NONE',  ( 0.000000000000000000, 0.000000000000000000, 1.000000000000000000 ) ) ;
#1047 = DATE_TIME_ROLE ( 'creation_date' ) ;
#1048 = ORIENTED_EDGE ( 'NONE', *, *, #272, .T. ) ;
#1049 = EDGE_CURVE ( 'NONE', #394, #283, #745, .T. ) ;
#1050 = APPROVAL_STATUS ( 'not_yet_approved' ) ;
#1051 = CALENDAR_DATE ( 2026, 7, 1 ) ;
#1052 = AXIS2_PLACEMENT_3D ( 'NONE', #575, #1151, #114 ) ;
#1053 = CARTESIAN_POINT ( 'NONE',  ( 0.07000000000000000666, 1.381659106186107180E-34, 0.01068491868012677593 ) ) ;
#1054 = CARTESIAN_POINT ( 'NONE',  ( 8.102447783841936887E-19, 1.622875959434772825E-35, 0.01261269379698636700 ) ) ;
#1055 = APPROVAL_ROLE ( '' ) ;
#1056 = APPROVAL_PERSON_ORGANIZATION ( #407, #212, #116 ) ;
#1057 = AXIS2_PLACEMENT_3D ( 'NONE', #346, #992, #1082 ) ;
#1058 = CARTESIAN_POINT ( 'NONE',  ( 8.102447783841936887E-19, 1.622875959434772825E-35, -0.007387306203013630813 ) ) ;
#1059 = CARTESIAN_POINT ( 'NONE',  ( 1.988024782637211730E-18, -3.974257710632856227E-35, 0.004999999999999995767 ) ) ;
#1060 = CALENDAR_DATE ( 2026, 7, 1 ) ;
#1061 = PRODUCT_DEFINITION_FORMATION_WITH_SPECIFIED_SOURCE ( 'ANY', '', #607, .NOT_KNOWN. ) ;
#1062 = CC_DESIGN_PERSON_AND_ORGANIZATION_ASSIGNMENT ( #658, #566, ( #1061 ) ) ;
#1063 = CYLINDRICAL_SURFACE ( 'NONE', #156, 0.1000000000000000056 ) ;
#1064 = EDGE_CURVE ( 'NONE', #1125, #31, #855, .T. ) ;
#1065 = PLANE ( 'NONE',  #812 ) ;
#1066 = APPROVAL_DATE_TIME ( #299, #396 ) ;
#1067 = EDGE_CURVE ( 'NONE', #1072, #1179, #224, .T. ) ;
#1068 = DIRECTION ( 'NONE',  ( 0.000000000000000000, 0.000000000000000000, -1.000000000000000000 ) ) ;
#1069 = AXIS2_PLACEMENT_3D ( 'NONE', #143, #1097, #1184 ) ;
#1070 = CARTESIAN_POINT ( 'NONE',  ( -0.07000000000000000666, 8.572527594031473498E-18, 0.01068491868012677593 ) ) ;
#1071 = CALENDAR_DATE ( 2026, 7, 1 ) ;
#1072 = VERTEX_POINT ( 'NONE', #273 ) ;
#1073 = AXIS2_PLACEMENT_3D ( 'NONE', #1053, #1138, #306 ) ;
#1074 = DIRECTION ( 'NONE',  ( -0.000000000000000000, -0.000000000000000000, -1.000000000000000000 ) ) ;
#1075 = DIRECTION ( 'NONE',  ( 1.000000000000000000, 0.000000000000000000, -0.000000000000000000 ) ) ;
#1076 = COORDINATED_UNIVERSAL_TIME_OFFSET ( 5, 30, .AHEAD. ) ;
#1077 = FACE_OUTER_BOUND ( 'NONE', #1197, .T. ) ;
#1078 = LINE ( 'NONE', #510, #190 ) ;
#1079 = CC_DESIGN_PERSON_AND_ORGANIZATION_ASSIGNMENT ( #446, #372, ( #1183 ) ) ;
#1080 = APPROVAL_DATE_TIME ( #998, #123 ) ;
#1081 = ADVANCED_FACE ( 'NONE', ( #921 ), #752, .T. ) ;
#1082 = DIRECTION ( 'NONE',  ( -1.000000000000000000, 0.000000000000000000, 0.000000000000000000 ) ) ;
#1083 = DIRECTION ( 'NONE',  ( 0.000000000000000000, 0.000000000000000000, -1.000000000000000000 ) ) ;
#1084 = ORIENTED_EDGE ( 'NONE', *, *, #353, .T. ) ;
#1085 = APPLICATION_PROTOCOL_DEFINITION ( 'international standard', 'config_control_design', 1994, #381 ) ;
#1086 = CARTESIAN_POINT ( 'NONE',  ( 1.988024782637211730E-18, -3.974257710632856227E-35, 0.02500000000000000833 ) ) ;
#1087 = DIRECTION ( 'NONE',  ( 0.000000000000000000, 0.000000000000000000, 1.000000000000000000 ) ) ;
#1088 = MECHANICAL_CONTEXT ( 'NONE', #381, 'mechanical' ) ;
#1089 = VECTOR ( 'NONE', #783, 1.000000000000000000 ) ;
#1090 = LINE ( 'NONE', #616, #1127 ) ;
#1091 = EDGE_CURVE ( 'NONE', #419, #644, #66, .T. ) ;
#1092 = LOCAL_TIME ( 18, 31, 32.00000000000000000, #1076 ) ;
#1093 = LINE ( 'NONE', #443, #254 ) ;
#1094 = APPROVAL_ROLE ( '' ) ;
#1095 = APPROVAL_DATE_TIME ( #604, #637 ) ;
#1096 = DIRECTION ( 'NONE',  ( 1.000000000000000000, 0.000000000000000000, 0.000000000000000000 ) ) ;
#1097 = DIRECTION ( 'NONE',  ( -0.000000000000000000, -0.000000000000000000, -1.000000000000000000 ) ) ;
#1098 = ORIENTED_EDGE ( 'NONE', *, *, #1064, .F. ) ;
#1099 = TOROIDAL_SURFACE ( 'NONE', #1052, 0.07000000000000000666, 0.01000000000000000021 ) ;
#1100 = CALENDAR_DATE ( 2026, 7, 1 ) ;
#1101 = DIRECTION ( 'NONE',  ( 1.000000000000000000, 0.000000000000000000, 0.000000000000000000 ) ) ;
#1102 = CARTESIAN_POINT ( 'NONE',  ( 0.08000000000000000167, -3.974257710632856227E-35, -0.01499999999999999771 ) ) ;
#1103 = AXIS2_PLACEMENT_3D ( 'NONE', #1058, #199, #588 ) ;
#1104 = EDGE_CURVE ( 'NONE', #1179, #1072, #133, .T. ) ;
#1105 = CARTESIAN_POINT ( 'NONE',  ( 0.000000000000000000, 0.000000000000000000, 0.000000000000000000 ) ) ;
#1106 = COORDINATED_UNIVERSAL_TIME_OFFSET ( 5, 30, .AHEAD. ) ;
#1107 = EDGE_CURVE ( 'NONE', #1133, #837, #155, .T. ) ;
#1108 = DIRECTION ( 'NONE',  ( 1.000000000000000000, 0.000000000000000000, 0.000000000000000000 ) ) ;
#1109 = DIRECTION ( 'NONE',  ( -1.000000000000000000, 1.224646799147353454E-16, 0.000000000000000000 ) ) ;
#1110 = LOCAL_TIME ( 18, 31, 32.00000000000000000, #258 ) ;
#1111 = ORIENTED_EDGE ( 'NONE', *, *, #1091, .T. ) ;
#1112 = ORIENTED_EDGE ( 'NONE', *, *, #692, .F. ) ;
#1113 =( NAMED_UNIT ( * ) PLANE_ANGLE_UNIT ( ) SI_UNIT ( $, .RADIAN. ) );
#1114 = APPROVAL ( #1169, 'UNSPECIFIED' ) ;
#1115 = CALENDAR_DATE ( 2026, 7, 1 ) ;
#1116 = CARTESIAN_POINT ( 'NONE',  ( 2.804585283553005648E-18, 1.381659106186107180E-34, 0.02068491868012677787 ) ) ;
#1117 = DIRECTION ( 'NONE',  ( 1.000000000000000000, 0.000000000000000000, -0.000000000000000000 ) ) ;
#1118 = ORIENTED_EDGE ( 'NONE', *, *, #220, .F. ) ;
#1119 = ORIENTED_EDGE ( 'NONE', *, *, #1091, .F. ) ;
#1120 = CALENDAR_DATE ( 2026, 7, 1 ) ;
#1121 = DIRECTION ( 'NONE',  ( -0.000000000000000000, -0.000000000000000000, -1.000000000000000000 ) ) ;
#1122 = DIRECTION ( 'NONE',  ( 1.000000000000000000, 0.000000000000000000, 0.000000000000000000 ) ) ;
#1123 = UNCERTAINTY_MEASURE_WITH_UNIT (LENGTH_MEASURE( 1.000000000000000082E-05 ), #831, 'distance_accuracy_value', 'NONE');
#1124 = VECTOR ( 'NONE', #471, 1.000000000000000000 ) ;
#1125 = VERTEX_POINT ( 'NONE', #1207 ) ;
#1126 = ORIENTED_EDGE ( 'NONE', *, *, #317, .F. ) ;
#1127 = VECTOR ( 'NONE', #509, 1.000000000000000000 ) ;
#1128 = PERSON_AND_ORGANIZATION ( #78, #280 ) ;
#1129 = SHAPE_DEFINITION_REPRESENTATION ( #517, #335 ) ;
#1130 = CARTESIAN_POINT ( 'NONE',  ( -0.08000000000000000167, 1.102182119232617911E-17, -0.01499999999999999771 ) ) ;
#1131 = EDGE_CURVE ( 'NONE', #564, #531, #239, .T. ) ;
#1132 = CARTESIAN_POINT ( 'NONE',  ( 2.804585283553005648E-18, 1.381659106186107180E-34, 0.02068491868012677787 ) ) ;
#1133 = VERTEX_POINT ( 'NONE', #560 ) ;
#1134 = PERSON_AND_ORGANIZATION_ROLE ( 'design_owner' ) ;
#1135 = COORDINATED_UNIVERSAL_TIME_OFFSET ( 5, 30, .AHEAD. ) ;
#1136 =( LENGTH_UNIT ( ) NAMED_UNIT ( * ) SI_UNIT ( $, .METRE. ) );
#1137 = ADVANCED_FACE ( 'NONE', ( #816 ), #634, .F. ) ;
#1138 = DIRECTION ( 'NONE',  ( 0.000000000000000000, -1.000000000000000000, 0.000000000000000000 ) ) ;
#1139 = VERTEX_POINT ( 'NONE', #1130 ) ;
#1140 = CALENDAR_DATE ( 2026, 7, 1 ) ;
#1141 = CIRCLE ( 'NONE', #784, 0.08000000000000000167 ) ;
#1142 = DIRECTION ( 'NONE',  ( -0.000000000000000000, -0.000000000000000000, -1.000000000000000000 ) ) ;
#1143 = DIRECTION ( 'NONE',  ( -1.000000000000000000, 0.000000000000000000, -0.000000000000000000 ) ) ;
#1144 = COORDINATED_UNIVERSAL_TIME_OFFSET ( 5, 30, .AHEAD. ) ;
#1145 = EDGE_CURVE ( 'NONE', #828, #118, #75, .T. ) ;
#1146 = CARTESIAN_POINT ( 'NONE',  ( 2.804585283553005648E-18, 1.381659106186107180E-34, 0.02068491868012677787 ) ) ;
#1147 = PRODUCT_DEFINITION_SHAPE ( 'NONE', 'NONE',  #1215 ) ;
#1148 = DIRECTION ( 'NONE',  ( -0.000000000000000000, -0.000000000000000000, -1.000000000000000000 ) ) ;
#1149 = CC_DESIGN_PERSON_AND_ORGANIZATION_ASSIGNMENT ( #174, #87, ( #23 ) ) ;
#1150 = APPROVAL_PERSON_ORGANIZATION ( #920, #496, #73 ) ;
#1151 = DIRECTION ( 'NONE',  ( 0.000000000000000000, 0.000000000000000000, 1.000000000000000000 ) ) ;
#1152 = DIRECTION ( 'NONE',  ( 0.000000000000000000, 0.000000000000000000, -1.000000000000000000 ) ) ;
#1153 = LOCAL_TIME ( 18, 31, 32.00000000000000000, #215 ) ;
#1154 = LINE ( 'NONE', #484, #906 ) ;
#1155 = AXIS2_PLACEMENT_3D ( 'NONE', #549, #177, #480 ) ;
#1156 = ORIENTED_EDGE ( 'NONE', *, *, #1188, .T. ) ;
#1157 = AXIS2_PLACEMENT_3D ( 'NONE', #1105, #821, #370 ) ;
#1158 = CIRCLE ( 'NONE', #1177, 0.08000000000000000167 ) ;
#1159 = CARTESIAN_POINT ( 'NONE',  ( 2.804585283553005648E-18, 1.381659106186107180E-34, 0.07068491868012677370 ) ) ;
#1160 = ADVANCED_FACE ( 'NONE', ( #724 ), #222, .T. ) ;
#1161 = DIRECTION ( 'NONE',  ( 1.000000000000000000, 0.000000000000000000, 0.000000000000000000 ) ) ;
#1162 = ORIENTED_EDGE ( 'NONE', *, *, #50, .T. ) ;
#1163 = DATE_AND_TIME ( #1003, #561 ) ;
#1164 = ORIENTED_EDGE ( 'NONE', *, *, #1104, .F. ) ;
#1165 = SECURITY_CLASSIFICATION ( '', '', #1191 ) ;
#1166 = DIRECTION ( 'NONE',  ( 1.224646799147353207E-16, 1.000000000000000000, -0.000000000000000000 ) ) ;
#1167 = CARTESIAN_POINT ( 'NONE',  ( -0.08000000000000000167, 1.381659106186107180E-34, -0.009315081319873221022 ) ) ;
#1168 = EDGE_LOOP ( 'NONE', ( #1119, #1162, #1048, #975 ) ) ;
#1169 = APPROVAL_STATUS ( 'not_yet_approved' ) ;
#1170 = ORIENTED_EDGE ( 'NONE', *, *, #931, .F. ) ;
#1171 = ORGANIZATION ( 'NAUO-ORG2', 'UNSPECIFIED', 'UNSPECIFIED' ) ;
#1172 = DIRECTION ( 'NONE',  ( -1.000000000000000000, 0.000000000000000000, 0.000000000000000000 ) ) ;
#1173 = DIRECTION ( 'NONE',  ( 0.000000000000000000, 0.000000000000000000, 1.000000000000000000 ) ) ;
#1174 = ADVANCED_FACE ( 'NONE', ( #535 ), #993, .T. ) ;
#1175 = APPROVAL_ROLE ( '' ) ;
#1176 = DIRECTION ( 'NONE',  ( -1.000000000000000000, -0.000000000000000000, -0.000000000000000000 ) ) ;
#1177 = AXIS2_PLACEMENT_3D ( 'NONE', #219, #503, #428 ) ;
#1178 = LINE ( 'NONE', #715, #507 ) ;
#1179 = VERTEX_POINT ( 'NONE', #89 ) ;
#1180 = PERSON_AND_ORGANIZATION_ROLE ( 'design_owner' ) ;
#1181 = AXIS2_PLACEMENT_3D ( 'NONE', #319, #221, #865 ) ;
#1182 = FACE_OUTER_BOUND ( 'NONE', #1203, .T. ) ;
#1183 = PRODUCT_DEFINITION_FORMATION_WITH_SPECIFIED_SOURCE ( 'ANY', '', #704, .NOT_KNOWN. ) ;
#1184 = DIRECTION ( 'NONE',  ( 1.000000000000000000, 0.000000000000000000, 0.000000000000000000 ) ) ;
#1185 = ORIENTED_EDGE ( 'NONE', *, *, #103, .F. ) ;
#1186 = APPROVAL_STATUS ( 'not_yet_approved' ) ;
#1187 = LINE ( 'NONE', #641, #786 ) ;
#1188 = EDGE_CURVE ( 'NONE', #28, #563, #1187, .T. ) ;
#1189 = CARTESIAN_POINT ( 'NONE',  ( 1.988024782637211730E-18, -3.974257710632856227E-35, 0.04499999999999999833 ) ) ;
#1190 = APPROVAL_DATE_TIME ( #553, #195 ) ;
#1191 = SECURITY_CLASSIFICATION_LEVEL ( 'unclassified' ) ;
#1192 = DIRECTION ( 'NONE',  ( 0.000000000000000000, 0.000000000000000000, 1.000000000000000000 ) ) ;
#1193 = CC_DESIGN_APPROVAL ( #212, ( #501 ) ) ;
#1194 = DIRECTION ( 'NONE',  ( -0.000000000000000000, 0.000000000000000000, -1.000000000000000000 ) ) ;
#1195 = CC_DESIGN_PERSON_AND_ORGANIZATION_ASSIGNMENT ( #246, #711, ( #813 ) ) ;
#1196 = ORIENTED_EDGE ( 'NONE', *, *, #931, .T. ) ;
#1197 = EDGE_LOOP ( 'NONE', ( #789, #1185, #913, #836 ) ) ;
#1198 = ADVANCED_FACE ( 'NONE', ( #352 ), #74, .F. ) ;
#1199 = PERSON_AND_ORGANIZATION ( #78, #280 ) ;
#1200 = DIRECTION ( 'NONE',  ( -0.000000000000000000, -0.000000000000000000, -1.000000000000000000 ) ) ;
#1201 = CARTESIAN_POINT ( 'NONE',  ( 2.804585283553005648E-18, 1.381659106186107180E-34, 0.07068491868012677370 ) ) ;
#1202 = CC_DESIGN_APPROVAL ( #1114, ( #207 ) ) ;
#1203 = EDGE_LOOP ( 'NONE', ( #954, #551, #466, #46 ) ) ;
#1204 = VERTEX_POINT ( 'NONE', #737 ) ;
#1205 = DATE_AND_TIME ( #165, #366 ) ;
#1206 = APPROVAL_ROLE ( '' ) ;
#1207 = CARTESIAN_POINT ( 'NONE',  ( 2.804585283553005648E-18, 0.02000000000000000042, 0.02068491868012675705 ) ) ;
#1208 = CIRCLE ( 'NONE', #1069, 0.1000000000000000056 ) ;
#1209 = DIRECTION ( 'NONE',  ( 1.000000000000000000, 0.000000000000000000, -0.000000000000000000 ) ) ;
#1210 = LOCAL_TIME ( 18, 31, 32.00000000000000000, #1144 ) ;
#1211 = ORIENTED_EDGE ( 'NONE', *, *, #1213, .T. ) ;
#1212 = VERTEX_POINT ( 'NONE', #81 ) ;
#1213 = EDGE_CURVE ( 'NONE', #542, #31, #463, .T. ) ;
#1214 = NEXT_ASSEMBLY_USAGE_OCCURRENCE ( 'NAUO1', ' ', ' ', #565, #23, $ ) ;
#1215 = NEXT_ASSEMBLY_USAGE_OCCURRENCE ( 'NAUO2', ' ', ' ', #565, #298, $ ) ;
#1216 = NEXT_ASSEMBLY_USAGE_OCCURRENCE ( 'NAUO3', ' ', ' ', #565, #404, $ ) ;
ENDSEC;
END-ISO-10303-21;
